<?xml version="1.0" encoding="UTF-8"?> <svg xmlns="http://www.w3.org/2000/svg" width="113" height="22" viewBox="0 0 113 22" fill="none"> <g filter="url(#filter0_i_97_340)"> <rect width="113" height="22" rx="10" fill="white"></rect> </g> <rect x="0.15" y="0.15" width="112.7" height="21.7" rx="9.85" stroke="white" stroke-width="0.3"></rect> <path d="M28.9281 6.656C29.7761 6.656 30.5281 6.864 31.1841 7.28C31.8241 7.68 32.3081 8.188 32.6361 8.804C32.9641 9.412 33.1281 10.064 33.1281 10.76C33.1281 11.616 32.9561 12.252 32.6121 12.668C32.2601 13.092 31.8561 13.304 31.4001 13.304C31.0561 13.304 30.7641 13.216 30.5241 13.04C30.2921 12.864 30.1361 12.608 30.0561 12.272C29.7041 12.704 29.2601 12.92 28.7241 12.92C28.1641 12.92 27.7001 12.736 27.3321 12.368C26.9641 12 26.7801 11.544 26.7801 11C26.7801 10.456 26.9641 10 27.3321 9.632C27.7001 9.264 28.1641 9.08 28.7241 9.08C29.2361 9.08 29.6601 9.272 29.9961 9.656V9.164H30.7401V11.756C30.7401 12.524 31.0001 12.908 31.5201 12.908C31.8961 12.908 32.1961 12.728 32.4201 12.368C32.6521 12.008 32.7681 11.472 32.7681 10.76C32.7681 9.688 32.3961 8.792 31.6521 8.072C30.9241 7.352 30.0161 6.992 28.9281 6.992C27.8081 6.992 26.8601 7.376 26.0841 8.144C25.3081 8.912 24.9201 9.864 24.9201 11C24.9201 12.168 25.3201 13.128 26.1201 13.88C26.9201 14.632 27.9281 15.008 29.1441 15.008C29.9361 15.008 30.6321 14.892 31.2321 14.66V15.02C30.6321 15.236 29.9361 15.344 29.1441 15.344C27.8321 15.344 26.7401 14.932 25.8681 14.108C24.9961 13.292 24.5601 12.256 24.5601 11C24.5601 9.8 24.9761 8.776 25.8081 7.928C26.6481 7.08 27.6881 6.656 28.9281 6.656ZM27.8841 11.876C28.1401 12.092 28.4361 12.2 28.7721 12.2C29.1161 12.2 29.4041 12.092 29.6361 11.876C29.8761 11.652 29.9961 11.36 29.9961 11C29.9961 10.64 29.8761 10.352 29.6361 10.136C29.4121 9.912 29.1241 9.8 28.7721 9.8C28.4281 9.8 28.1321 9.912 27.8841 10.136C27.6441 10.352 27.5241 10.64 27.5241 11C27.5241 11.352 27.6441 11.644 27.8841 11.876ZM39.4754 13.244C38.8594 13.844 38.1154 14.144 37.2434 14.144C36.3554 14.144 35.6074 13.844 34.9994 13.244C34.3914 12.636 34.0874 11.888 34.0874 11C34.0874 10.112 34.3914 9.368 34.9994 8.768C35.6074 8.16 36.3554 7.856 37.2434 7.856C38.1234 7.856 38.8674 8.16 39.4754 8.768C40.0914 9.368 40.3994 10.112 40.3994 11C40.3994 11.88 40.0914 12.628 39.4754 13.244ZM35.5634 12.692C36.0194 13.148 36.5794 13.376 37.2434 13.376C37.9074 13.376 38.4674 13.148 38.9234 12.692C39.3794 12.22 39.6074 11.656 39.6074 11C39.6074 10.336 39.3794 9.776 38.9234 9.32C38.4674 8.856 37.9074 8.624 37.2434 8.624C36.5794 8.624 36.0194 8.856 35.5634 9.32C35.1074 9.776 34.8794 10.336 34.8794 11C34.8794 11.656 35.1074 12.22 35.5634 12.692ZM42.5168 14H41.7248V5.24H42.5168V14ZM49.3574 9.176V8H50.1494V13.76C50.1494 14.624 49.8534 15.304 49.2614 15.8C48.6694 16.296 47.9614 16.544 47.1374 16.544C45.7374 16.544 44.7894 16.056 44.2934 15.08L44.9894 14.684C45.3494 15.412 46.0654 15.776 47.1374 15.776C47.8254 15.776 48.3654 15.596 48.7574 15.236C49.1574 14.876 49.3574 14.384 49.3574 13.76V12.824C48.8054 13.704 47.9974 14.144 46.9334 14.144C46.0774 14.144 45.3454 13.84 44.7374 13.232C44.1374 12.624 43.8374 11.88 43.8374 11C43.8374 10.12 44.1374 9.376 44.7374 8.768C45.3454 8.16 46.0774 7.856 46.9334 7.856C47.9974 7.856 48.8054 8.296 49.3574 9.176ZM45.3134 12.692C45.7694 13.148 46.3294 13.376 46.9934 13.376C47.6574 13.376 48.2174 13.148 48.6734 12.692C49.1294 12.22 49.3574 11.656 49.3574 11C49.3574 10.336 49.1294 9.776 48.6734 9.32C48.2174 8.856 47.6574 8.624 46.9934 8.624C46.3294 8.624 45.7694 8.856 45.3134 9.32C44.8574 9.776 44.6294 10.336 44.6294 11C44.6294 11.656 44.8574 12.22 45.3134 12.692ZM56.9863 9.176V8H57.7783V14H56.9863V12.824C56.4343 13.704 55.6263 14.144 54.5623 14.144C53.7063 14.144 52.9743 13.84 52.3663 13.232C51.7663 12.624 51.4663 11.88 51.4663 11C51.4663 10.12 51.7663 9.376 52.3663 8.768C52.9743 8.16 53.7063 7.856 54.5623 7.856C55.6263 7.856 56.4343 8.296 56.9863 9.176ZM52.9423 12.692C53.3983 13.148 53.9583 13.376 54.6223 13.376C55.2863 13.376 55.8463 13.148 56.3023 12.692C56.7583 12.22 56.9863 11.656 56.9863 11C56.9863 10.336 56.7583 9.776 56.3023 9.32C55.8463 8.856 55.2863 8.624 54.6223 8.624C53.9583 8.624 53.3983 8.856 52.9423 9.32C52.4863 9.776 52.2583 10.336 52.2583 11C52.2583 11.656 52.4863 12.22 52.9423 12.692ZM64.3752 15.692H59.0952V14.924H64.3752V15.692ZM70.1348 9.176V8H70.9268V13.76C70.9268 14.624 70.6308 15.304 70.0388 15.8C69.4468 16.296 68.7388 16.544 67.9148 16.544C66.5148 16.544 65.5668 16.056 65.0708 15.08L65.7668 14.684C66.1268 15.412 66.8428 15.776 67.9148 15.776C68.6028 15.776 69.1428 15.596 69.5348 15.236C69.9348 14.876 70.1348 14.384 70.1348 13.76V12.824C69.5828 13.704 68.7748 14.144 67.7108 14.144C66.8548 14.144 66.1228 13.84 65.5148 13.232C64.9148 12.624 64.6148 11.88 64.6148 11C64.6148 10.12 64.9148 9.376 65.5148 8.768C66.1228 8.16 66.8548 7.856 67.7108 7.856C68.7748 7.856 69.5828 8.296 70.1348 9.176ZM66.0908 12.692C66.5468 13.148 67.1068 13.376 67.7708 13.376C68.4348 13.376 68.9948 13.148 69.4508 12.692C69.9068 12.22 70.1348 11.656 70.1348 11C70.1348 10.336 69.9068 9.776 69.4508 9.32C68.9948 8.856 68.4348 8.624 67.7708 8.624C67.1068 8.624 66.5468 8.856 66.0908 9.32C65.6348 9.776 65.4068 10.336 65.4068 11C65.4068 11.656 65.6348 12.22 66.0908 12.692ZM73.3957 8V8.996C73.7637 8.268 74.3957 7.904 75.2917 7.904V8.672C74.7157 8.672 74.2557 8.84 73.9117 9.176C73.5677 9.504 73.3957 10 73.3957 10.664V14H72.6037V8H73.3957ZM80.6011 11.144V8H81.3931V14H80.6011V13.064C80.1531 13.784 79.4811 14.144 78.5851 14.144C77.8651 14.144 77.2931 13.924 76.8691 13.484C76.4451 13.036 76.2331 12.436 76.2331 11.684V8H77.0251V11.684C77.0251 12.22 77.1651 12.636 77.4451 12.932C77.7331 13.228 78.1371 13.376 78.6571 13.376C79.2571 13.376 79.7291 13.188 80.0731 12.812C80.4251 12.436 80.6011 11.88 80.6011 11.144ZM87.2925 11.144V8H88.0845V14H87.2925V13.064C86.8445 13.784 86.1725 14.144 85.2765 14.144C84.5565 14.144 83.9845 13.924 83.5605 13.484C83.1365 13.036 82.9245 12.436 82.9245 11.684V8H83.7165V11.684C83.7165 12.22 83.8565 12.636 84.1365 12.932C84.4245 13.228 84.8285 13.376 85.3485 13.376C85.9485 13.376 86.4205 13.188 86.7645 12.812C87.1165 12.436 87.2925 11.88 87.2925 11.144Z" fill="#272727"></path> <defs> <filter id="filter0_i_97_340" x="0" y="0" width="113" height="28" filterUnits="userSpaceOnUse" color-interpolation-filters="sRGB"> <feFlood flood-opacity="0" result="BackgroundImageFix"></feFlood> <feBlend mode="normal" in="SourceGraphic" in2="BackgroundImageFix" result="shape"></feBlend> <feColorMatrix in="SourceAlpha" type="matrix" values="0 0 0 0 0 0 0 0 0 0 0 0 0 0 0 0 0 0 127 0" result="hardAlpha"></feColorMatrix> <feOffset dy="6"></feOffset> <feGaussianBlur stdDeviation="15"></feGaussianBlur> <feComposite in2="hardAlpha" operator="arithmetic" k2="-1" k3="1"></feComposite> <feColorMatrix type="matrix" values="0 0 0 0 1 0 0 0 0 1 0 0 0 0 1 0 0 0 0.35 0"></feColorMatrix> <feBlend mode="normal" in2="shape" result="effect1_innerShadow_97_340"></feBlend> </filter> </defs> </svg> 