<?xml version="1.0" encoding="UTF-8"?> <svg xmlns="http://www.w3.org/2000/svg" width="113" height="22" viewBox="0 0 113 22" fill="none"> <g filter="url(#filter0_i_97_1182)"> <rect width="113" height="22" rx="10" fill="white"></rect> </g> <rect x="0.15" y="0.15" width="112.7" height="21.7" rx="9.85" stroke="white" stroke-width="0.3"></rect> <path d="M30.0453 6.656C30.8933 6.656 31.6453 6.864 32.3013 7.28C32.9413 7.68 33.4253 8.188 33.7533 8.804C34.0813 9.412 34.2453 10.064 34.2453 10.76C34.2453 11.616 34.0733 12.252 33.7293 12.668C33.3773 13.092 32.9733 13.304 32.5173 13.304C32.1733 13.304 31.8813 13.216 31.6413 13.04C31.4093 12.864 31.2533 12.608 31.1733 12.272C30.8213 12.704 30.3773 12.92 29.8413 12.92C29.2813 12.92 28.8173 12.736 28.4493 12.368C28.0813 12 27.8973 11.544 27.8973 11C27.8973 10.456 28.0813 10 28.4493 9.632C28.8173 9.264 29.2813 9.08 29.8413 9.08C30.3533 9.08 30.7773 9.272 31.1133 9.656V9.164H31.8573V11.756C31.8573 12.524 32.1173 12.908 32.6373 12.908C33.0133 12.908 33.3133 12.728 33.5373 12.368C33.7693 12.008 33.8853 11.472 33.8853 10.76C33.8853 9.688 33.5133 8.792 32.7693 8.072C32.0413 7.352 31.1333 6.992 30.0453 6.992C28.9253 6.992 27.9773 7.376 27.2013 8.144C26.4253 8.912 26.0373 9.864 26.0373 11C26.0373 12.168 26.4373 13.128 27.2373 13.88C28.0373 14.632 29.0453 15.008 30.2613 15.008C31.0533 15.008 31.7493 14.892 32.3493 14.66V15.02C31.7493 15.236 31.0533 15.344 30.2613 15.344C28.9493 15.344 27.8573 14.932 26.9853 14.108C26.1133 13.292 25.6773 12.256 25.6773 11C25.6773 9.8 26.0933 8.776 26.9253 7.928C27.7653 7.08 28.8053 6.656 30.0453 6.656ZM29.0013 11.876C29.2573 12.092 29.5533 12.2 29.8893 12.2C30.2333 12.2 30.5213 12.092 30.7533 11.876C30.9933 11.652 31.1133 11.36 31.1133 11C31.1133 10.64 30.9933 10.352 30.7533 10.136C30.5293 9.912 30.2413 9.8 29.8893 9.8C29.5453 9.8 29.2493 9.912 29.0013 10.136C28.7613 10.352 28.6413 10.64 28.6413 11C28.6413 11.352 28.7613 11.644 29.0013 11.876ZM40.7246 9.176V5.6H41.5166V14H40.7246V12.824C40.1726 13.704 39.3646 14.144 38.3006 14.144C37.4446 14.144 36.7126 13.84 36.1046 13.232C35.5046 12.624 35.2046 11.88 35.2046 11C35.2046 10.12 35.5046 9.376 36.1046 8.768C36.7126 8.16 37.4446 7.856 38.3006 7.856C39.3646 7.856 40.1726 8.296 40.7246 9.176ZM36.6806 12.692C37.1366 13.148 37.6966 13.376 38.3606 13.376C39.0246 13.376 39.5846 13.148 40.0406 12.692C40.4966 12.22 40.7246 11.656 40.7246 11C40.7246 10.336 40.4966 9.776 40.0406 9.32C39.5846 8.856 39.0246 8.624 38.3606 8.624C37.6966 8.624 37.1366 8.856 36.6806 9.32C36.2246 9.776 35.9966 10.336 35.9966 11C35.9966 11.656 36.2246 12.22 36.6806 12.692ZM48.3535 9.176V8H49.1455V14H48.3535V12.824C47.8015 13.704 46.9935 14.144 45.9295 14.144C45.0735 14.144 44.3415 13.84 43.7335 13.232C43.1335 12.624 42.8335 11.88 42.8335 11C42.8335 10.12 43.1335 9.376 43.7335 8.768C44.3415 8.16 45.0735 7.856 45.9295 7.856C46.9935 7.856 47.8015 8.296 48.3535 9.176ZM44.3095 12.692C44.7655 13.148 45.3255 13.376 45.9895 13.376C46.6535 13.376 47.2135 13.148 47.6695 12.692C48.1255 12.22 48.3535 11.656 48.3535 11C48.3535 10.336 48.1255 9.776 47.6695 9.32C47.2135 8.856 46.6535 8.624 45.9895 8.624C45.3255 8.624 44.7655 8.856 44.3095 9.32C43.8535 9.776 43.6255 10.336 43.6255 11C43.6255 11.656 43.8535 12.22 44.3095 12.692ZM51.6144 8V8.996C51.9824 8.268 52.6144 7.904 53.5104 7.904V8.672C52.9344 8.672 52.4744 8.84 52.1304 9.176C51.7864 9.504 51.6144 10 51.6144 10.664V14H50.8224V8H51.6144ZM55.5679 6.152C55.5679 6.312 55.5119 6.448 55.3999 6.56C55.2879 6.672 55.1519 6.728 54.9919 6.728C54.8319 6.728 54.6959 6.672 54.5839 6.56C54.4719 6.448 54.4159 6.312 54.4159 6.152C54.4159 5.992 54.4719 5.856 54.5839 5.744C54.6959 5.632 54.8319 5.576 54.9919 5.576C55.1519 5.576 55.2879 5.632 55.3999 5.744C55.5119 5.856 55.5679 5.992 55.5679 6.152ZM55.3879 14H54.5959V8H55.3879V14ZM62.8165 12.98L64.2925 8H65.1085L63.2605 14H62.3965L60.8485 9.164L59.3005 14H58.4365L56.5885 8H57.4045L58.8805 12.98L60.4525 8H61.2445L62.8165 12.98ZM71.2285 9.176V8H72.0205V14H71.2285V12.824C70.6765 13.704 69.8685 14.144 68.8045 14.144C67.9485 14.144 67.2165 13.84 66.6085 13.232C66.0085 12.624 65.7085 11.88 65.7085 11C65.7085 10.12 66.0085 9.376 66.6085 8.768C67.2165 8.16 67.9485 7.856 68.8045 7.856C69.8685 7.856 70.6765 8.296 71.2285 9.176ZM67.1845 12.692C67.6405 13.148 68.2005 13.376 68.8645 13.376C69.5285 13.376 70.0885 13.148 70.5445 12.692C71.0005 12.22 71.2285 11.656 71.2285 11C71.2285 10.336 71.0005 9.776 70.5445 9.32C70.0885 8.856 69.5285 8.624 68.8645 8.624C68.2005 8.624 67.6405 8.856 67.1845 9.32C66.7285 9.776 66.5005 10.336 66.5005 11C66.5005 11.656 66.7285 12.22 67.1845 12.692ZM74.4894 8V8.996C74.8574 8.268 75.4894 7.904 76.3854 7.904V8.672C75.8094 8.672 75.3494 8.84 75.0054 9.176C74.6614 9.504 74.4894 10 74.4894 10.664V14H73.6974V8H74.4894ZM83.8669 7.856C84.5469 7.856 85.0909 8.072 85.4989 8.504C85.9069 8.936 86.1109 9.52 86.1109 10.256V14H85.3189V10.256C85.3189 9.744 85.1869 9.344 84.9229 9.056C84.6589 8.768 84.3029 8.624 83.8549 8.624C83.3349 8.624 82.9269 8.796 82.6309 9.14C82.3349 9.484 82.1869 9.996 82.1869 10.676V14H81.3949V10.256C81.3949 9.736 81.2709 9.336 81.0229 9.056C80.7749 8.768 80.4309 8.624 79.9909 8.624C79.4869 8.624 79.0709 8.8 78.7429 9.152C78.4229 9.504 78.2629 10.012 78.2629 10.676V14H77.4709V8H78.2629V8.876C78.6949 8.196 79.3069 7.856 80.0989 7.856C80.9709 7.856 81.5789 8.22 81.9229 8.948C82.3549 8.22 83.0029 7.856 83.8669 7.856Z" fill="#272727"></path> <defs> <filter id="filter0_i_97_1182" x="0" y="0" width="113" height="28" filterUnits="userSpaceOnUse" color-interpolation-filters="sRGB"> <feFlood flood-opacity="0" result="BackgroundImageFix"></feFlood> <feBlend mode="normal" in="SourceGraphic" in2="BackgroundImageFix" result="shape"></feBlend> <feColorMatrix in="SourceAlpha" type="matrix" values="0 0 0 0 0 0 0 0 0 0 0 0 0 0 0 0 0 0 127 0" result="hardAlpha"></feColorMatrix> <feOffset dy="6"></feOffset> <feGaussianBlur stdDeviation="15"></feGaussianBlur> <feComposite in2="hardAlpha" operator="arithmetic" k2="-1" k3="1"></feComposite> <feColorMatrix type="matrix" values="0 0 0 0 1 0 0 0 0 1 0 0 0 0 1 0 0 0 0.35 0"></feColorMatrix> <feBlend mode="normal" in2="shape" result="effect1_innerShadow_97_1182"></feBlend> </filter> </defs> </svg> 