<?xml version="1.0" encoding="UTF-8"?> <svg xmlns="http://www.w3.org/2000/svg" width="113" height="22" viewBox="0 0 113 22" fill="none"> <g filter="url(#filter0_i_97_1185)"> <rect width="113" height="22" rx="10" fill="white"></rect> </g> <rect x="0.15" y="0.15" width="112.7" height="21.7" rx="9.85" stroke="white" stroke-width="0.3"></rect> <path d="M17.9339 6.656C18.7819 6.656 19.5339 6.864 20.1899 7.28C20.8299 7.68 21.3139 8.188 21.6419 8.804C21.9699 9.412 22.1339 10.064 22.1339 10.76C22.1339 11.616 21.9619 12.252 21.6179 12.668C21.2659 13.092 20.8619 13.304 20.4059 13.304C20.0619 13.304 19.7699 13.216 19.5299 13.04C19.2979 12.864 19.1419 12.608 19.0619 12.272C18.7099 12.704 18.2659 12.92 17.7299 12.92C17.1699 12.92 16.7059 12.736 16.3379 12.368C15.9699 12 15.7859 11.544 15.7859 11C15.7859 10.456 15.9699 10 16.3379 9.632C16.7059 9.264 17.1699 9.08 17.7299 9.08C18.2419 9.08 18.6659 9.272 19.0019 9.656V9.164H19.7459V11.756C19.7459 12.524 20.0059 12.908 20.5259 12.908C20.9019 12.908 21.2019 12.728 21.4259 12.368C21.6579 12.008 21.7739 11.472 21.7739 10.76C21.7739 9.688 21.4019 8.792 20.6579 8.072C19.9299 7.352 19.0219 6.992 17.9339 6.992C16.8139 6.992 15.8659 7.376 15.0899 8.144C14.3139 8.912 13.9259 9.864 13.9259 11C13.9259 12.168 14.3259 13.128 15.1259 13.88C15.9259 14.632 16.9339 15.008 18.1499 15.008C18.9419 15.008 19.6379 14.892 20.2379 14.66V15.02C19.6379 15.236 18.9419 15.344 18.1499 15.344C16.8379 15.344 15.7459 14.932 14.8739 14.108C14.0019 13.292 13.5659 12.256 13.5659 11C13.5659 9.8 13.9819 8.776 14.8139 7.928C15.6539 7.08 16.6939 6.656 17.9339 6.656ZM16.8899 11.876C17.1459 12.092 17.4419 12.2 17.7779 12.2C18.1219 12.2 18.4099 12.092 18.6419 11.876C18.8819 11.652 19.0019 11.36 19.0019 11C19.0019 10.64 18.8819 10.352 18.6419 10.136C18.4179 9.912 18.1299 9.8 17.7779 9.8C17.4339 9.8 17.1379 9.912 16.8899 10.136C16.6499 10.352 16.5299 10.64 16.5299 11C16.5299 11.352 16.6499 11.644 16.8899 11.876ZM25.6493 14.144C25.0493 14.144 24.5213 14.02 24.0653 13.772C23.6093 13.524 23.2853 13.168 23.0933 12.704L23.8013 12.284C24.0653 12.98 24.6813 13.328 25.6493 13.328C26.2493 13.328 26.7173 13.184 27.0533 12.896C27.3973 12.608 27.5693 12.184 27.5693 11.624V5.6H28.4093V11.624C28.4093 12.44 28.1453 13.064 27.6173 13.496C27.0973 13.928 26.4413 14.144 25.6493 14.144ZM34.3101 11.144V8H35.1021V14H34.3101V13.064C33.8621 13.784 33.1901 14.144 32.2941 14.144C31.5741 14.144 31.0021 13.924 30.5781 13.484C30.1541 13.036 29.9421 12.436 29.9421 11.684V8H30.7341V11.684C30.7341 12.22 30.8741 12.636 31.1541 12.932C31.4421 13.228 31.8461 13.376 32.3661 13.376C32.9661 13.376 33.4381 13.188 33.7821 12.812C34.1341 12.436 34.3101 11.88 34.3101 11.144ZM37.4015 9.572C37.4015 10.036 37.8135 10.376 38.6375 10.592C38.8695 10.648 39.0215 10.688 39.0935 10.712C39.1655 10.728 39.3055 10.772 39.5135 10.844C39.7295 10.908 39.8775 10.964 39.9575 11.012C40.0455 11.06 40.1655 11.136 40.3175 11.24C40.4695 11.336 40.5775 11.436 40.6415 11.54C40.7055 11.636 40.7655 11.764 40.8215 11.924C40.8775 12.076 40.9055 12.24 40.9055 12.416C40.9055 12.928 40.7015 13.344 40.2935 13.664C39.9015 13.984 39.3815 14.144 38.7335 14.144C38.1735 14.144 37.6895 14.02 37.2815 13.772C36.8735 13.516 36.5855 13.18 36.4175 12.764L37.0895 12.368C37.2015 12.68 37.4015 12.928 37.6895 13.112C37.9855 13.288 38.3335 13.376 38.7335 13.376C39.1415 13.376 39.4735 13.296 39.7295 13.136C39.9855 12.976 40.1135 12.736 40.1135 12.416C40.1135 11.952 39.7015 11.612 38.8775 11.396C38.6455 11.34 38.4935 11.304 38.4215 11.288C38.3495 11.264 38.2055 11.22 37.9895 11.156C37.7815 11.084 37.6335 11.024 37.5455 10.976C37.4655 10.928 37.3495 10.856 37.1975 10.76C37.0455 10.656 36.9375 10.556 36.8735 10.46C36.8095 10.356 36.7495 10.228 36.6935 10.076C36.6375 9.916 36.6095 9.748 36.6095 9.572C36.6095 9.084 36.8015 8.676 37.1855 8.348C37.5855 8.02 38.0775 7.856 38.6615 7.856C39.1415 7.856 39.5655 7.964 39.9335 8.18C40.3095 8.396 40.5855 8.696 40.7615 9.08L40.1015 9.464C39.8775 8.904 39.3975 8.624 38.6615 8.624C38.3015 8.624 38.0015 8.708 37.7615 8.876C37.5215 9.044 37.4015 9.276 37.4015 9.572ZM45.1723 8V8.768H43.4443V12.404C43.4443 12.732 43.5083 12.968 43.6363 13.112C43.7643 13.248 43.9563 13.32 44.2123 13.328C44.4683 13.328 44.7883 13.32 45.1723 13.304V14C44.3163 14.128 43.6803 14.068 43.2643 13.82C42.8563 13.564 42.6523 13.092 42.6523 12.404V8.768H41.3923V8H42.6523V6.56L43.4443 6.32V8H45.1723ZM51.178 15.692H45.898V14.924H51.178V15.692ZM55.438 8V8.768H53.71V12.404C53.71 12.732 53.774 12.968 53.902 13.112C54.03 13.248 54.222 13.32 54.478 13.328C54.734 13.328 55.054 13.32 55.438 13.304V14C54.582 14.128 53.946 14.068 53.53 13.82C53.122 13.564 52.918 13.092 52.918 12.404V8.768H51.658V8H52.918V6.56L53.71 6.32V8H55.438ZM61.5547 9.176V8H62.3467V14H61.5547V12.824C61.0027 13.704 60.1947 14.144 59.1307 14.144C58.2747 14.144 57.5427 13.84 56.9347 13.232C56.3347 12.624 56.0347 11.88 56.0347 11C56.0347 10.12 56.3347 9.376 56.9347 8.768C57.5427 8.16 58.2747 7.856 59.1307 7.856C60.1947 7.856 61.0027 8.296 61.5547 9.176ZM57.5107 12.692C57.9667 13.148 58.5267 13.376 59.1907 13.376C59.8547 13.376 60.4147 13.148 60.8707 12.692C61.3267 12.22 61.5547 11.656 61.5547 11C61.5547 10.336 61.3267 9.776 60.8707 9.32C60.4147 8.856 59.8547 8.624 59.1907 8.624C58.5267 8.624 57.9667 8.856 57.5107 9.32C57.0547 9.776 56.8267 10.336 56.8267 11C56.8267 11.656 57.0547 12.22 57.5107 12.692ZM67.2036 8V8.768H65.4756V12.404C65.4756 12.732 65.5396 12.968 65.6676 13.112C65.7956 13.248 65.9876 13.32 66.2436 13.328C66.4996 13.328 66.8196 13.32 67.2036 13.304V14C66.3476 14.128 65.7116 14.068 65.2956 13.82C64.8876 13.564 64.6836 13.092 64.6836 12.404V8.768H63.4236V8H64.6836V6.56L65.4756 6.32V8H67.2036ZM73.3203 9.176V8H74.1123V14H73.3203V12.824C72.7683 13.704 71.9603 14.144 70.8963 14.144C70.0403 14.144 69.3083 13.84 68.7003 13.232C68.1003 12.624 67.8003 11.88 67.8003 11C67.8003 10.12 68.1003 9.376 68.7003 8.768C69.3083 8.16 70.0403 7.856 70.8963 7.856C71.9603 7.856 72.7683 8.296 73.3203 9.176ZM69.2763 12.692C69.7323 13.148 70.2923 13.376 70.9563 13.376C71.6203 13.376 72.1803 13.148 72.6363 12.692C73.0923 12.22 73.3203 11.656 73.3203 11C73.3203 10.336 73.0923 9.776 72.6363 9.32C72.1803 8.856 71.6203 8.624 70.9563 8.624C70.2923 8.624 69.7323 8.856 69.2763 9.32C68.8203 9.776 68.5923 10.336 68.5923 11C68.5923 11.656 68.8203 12.22 69.2763 12.692ZM76.5812 8V8.996C76.9492 8.268 77.5812 7.904 78.4772 7.904V8.672C77.9012 8.672 77.4412 8.84 77.0972 9.176C76.7532 9.504 76.5812 10 76.5812 10.664V14H75.7892V8H76.5812ZM84.2274 13.244C83.6114 13.844 82.8674 14.144 81.9954 14.144C81.1074 14.144 80.3594 13.844 79.7514 13.244C79.1434 12.636 78.8394 11.888 78.8394 11C78.8394 10.112 79.1434 9.368 79.7514 8.768C80.3594 8.16 81.1074 7.856 81.9954 7.856C82.8754 7.856 83.6194 8.16 84.2274 8.768C84.8434 9.368 85.1514 10.112 85.1514 11C85.1514 11.88 84.8434 12.628 84.2274 13.244ZM80.3154 12.692C80.7714 13.148 81.3314 13.376 81.9954 13.376C82.6594 13.376 83.2194 13.148 83.6754 12.692C84.1314 12.22 84.3594 11.656 84.3594 11C84.3594 10.336 84.1314 9.776 83.6754 9.32C83.2194 8.856 82.6594 8.624 81.9954 8.624C81.3314 8.624 80.7714 8.856 80.3154 9.32C79.8594 9.776 79.6314 10.336 79.6314 11C79.6314 11.656 79.8594 12.22 80.3154 12.692ZM88.4623 13.172L90.5623 8H91.4023L88.9423 14H87.9823L85.5223 8H86.3623L88.4623 13.172ZM97.2852 9.176V8H98.0772V14H97.2852V12.824C96.7332 13.704 95.9252 14.144 94.8612 14.144C94.0052 14.144 93.2732 13.84 92.6652 13.232C92.0652 12.624 91.7652 11.88 91.7652 11C91.7652 10.12 92.0652 9.376 92.6652 8.768C93.2732 8.16 94.0052 7.856 94.8612 7.856C95.9252 7.856 96.7332 8.296 97.2852 9.176ZM93.2412 12.692C93.6972 13.148 94.2572 13.376 94.9212 13.376C95.5852 13.376 96.1452 13.148 96.6012 12.692C97.0572 12.22 97.2852 11.656 97.2852 11C97.2852 10.336 97.0572 9.776 96.6012 9.32C96.1452 8.856 95.5852 8.624 94.9212 8.624C94.2572 8.624 93.6972 8.856 93.2412 9.32C92.7852 9.776 92.5572 10.336 92.5572 11C92.5572 11.656 92.7852 12.22 93.2412 12.692Z" fill="#272727"></path> <defs> <filter id="filter0_i_97_1185" x="0" y="0" width="113" height="28" filterUnits="userSpaceOnUse" color-interpolation-filters="sRGB"> <feFlood flood-opacity="0" result="BackgroundImageFix"></feFlood> <feBlend mode="normal" in="SourceGraphic" in2="BackgroundImageFix" result="shape"></feBlend> <feColorMatrix in="SourceAlpha" type="matrix" values="0 0 0 0 0 0 0 0 0 0 0 0 0 0 0 0 0 0 127 0" result="hardAlpha"></feColorMatrix> <feOffset dy="6"></feOffset> <feGaussianBlur stdDeviation="15"></feGaussianBlur> <feComposite in2="hardAlpha" operator="arithmetic" k2="-1" k3="1"></feComposite> <feColorMatrix type="matrix" values="0 0 0 0 1 0 0 0 0 1 0 0 0 0 1 0 0 0 0.35 0"></feColorMatrix> <feBlend mode="normal" in2="shape" result="effect1_innerShadow_97_1185"></feBlend> </filter> </defs> </svg> 