<?xml version="1.0" encoding="UTF-8"?> <svg xmlns="http://www.w3.org/2000/svg" width="113" height="22" viewBox="0 0 113 22" fill="none"> <g filter="url(#filter0_i_97_1155)"> <rect width="113" height="22" rx="10" fill="white"></rect> </g> <rect x="0.15" y="0.15" width="112.7" height="21.7" rx="9.85" stroke="white" stroke-width="0.3"></rect> <path d="M35.8773 6.656C36.7253 6.656 37.4773 6.864 38.1333 7.28C38.7733 7.68 39.2573 8.188 39.5853 8.804C39.9133 9.412 40.0773 10.064 40.0773 10.76C40.0773 11.616 39.9053 12.252 39.5613 12.668C39.2093 13.092 38.8053 13.304 38.3493 13.304C38.0053 13.304 37.7133 13.216 37.4733 13.04C37.2413 12.864 37.0853 12.608 37.0053 12.272C36.6533 12.704 36.2093 12.92 35.6733 12.92C35.1133 12.92 34.6493 12.736 34.2813 12.368C33.9133 12 33.7293 11.544 33.7293 11C33.7293 10.456 33.9133 10 34.2813 9.632C34.6493 9.264 35.1133 9.08 35.6733 9.08C36.1853 9.08 36.6093 9.272 36.9453 9.656V9.164H37.6893V11.756C37.6893 12.524 37.9493 12.908 38.4693 12.908C38.8453 12.908 39.1453 12.728 39.3693 12.368C39.6013 12.008 39.7173 11.472 39.7173 10.76C39.7173 9.688 39.3453 8.792 38.6013 8.072C37.8733 7.352 36.9653 6.992 35.8773 6.992C34.7573 6.992 33.8093 7.376 33.0333 8.144C32.2573 8.912 31.8693 9.864 31.8693 11C31.8693 12.168 32.2693 13.128 33.0693 13.88C33.8693 14.632 34.8773 15.008 36.0933 15.008C36.8853 15.008 37.5813 14.892 38.1813 14.66V15.02C37.5813 15.236 36.8853 15.344 36.0933 15.344C34.7813 15.344 33.6893 14.932 32.8173 14.108C31.9453 13.292 31.5093 12.256 31.5093 11C31.5093 9.8 31.9253 8.776 32.7573 7.928C33.5973 7.08 34.6373 6.656 35.8773 6.656ZM34.8333 11.876C35.0893 12.092 35.3853 12.2 35.7213 12.2C36.0653 12.2 36.3533 12.092 36.5853 11.876C36.8253 11.652 36.9453 11.36 36.9453 11C36.9453 10.64 36.8253 10.352 36.5853 10.136C36.3613 9.912 36.0733 9.8 35.7213 9.8C35.3773 9.8 35.0813 9.912 34.8333 10.136C34.5933 10.352 34.4733 10.64 34.4733 11C34.4733 11.352 34.5933 11.644 34.8333 11.876ZM43.0286 10.88L46.2446 14H45.1886L42.1886 11.108V14H41.3966V5.6H42.1886V10.652L45.0446 8H46.1246L43.0286 10.88ZM48.1183 8V8.996C48.4863 8.268 49.1183 7.904 50.0143 7.904V8.672C49.4383 8.672 48.9783 8.84 48.6343 9.176C48.2903 9.504 48.1183 10 48.1183 10.664V14H47.3263V8H48.1183ZM52.0718 6.152C52.0718 6.312 52.0158 6.448 51.9038 6.56C51.7918 6.672 51.6558 6.728 51.4958 6.728C51.3358 6.728 51.1998 6.672 51.0878 6.56C50.9758 6.448 50.9198 6.312 50.9198 6.152C50.9198 5.992 50.9758 5.856 51.0878 5.744C51.1998 5.632 51.3358 5.576 51.4958 5.576C51.6558 5.576 51.7918 5.632 51.9038 5.744C52.0158 5.856 52.0718 5.992 52.0718 6.152ZM51.8918 14H51.0998V8H51.8918V14ZM54.5444 6.152C54.5444 6.312 54.4884 6.448 54.3764 6.56C54.2644 6.672 54.1284 6.728 53.9684 6.728C53.8084 6.728 53.6724 6.672 53.5604 6.56C53.4484 6.448 53.3924 6.312 53.3924 6.152C53.3924 5.992 53.4484 5.856 53.5604 5.744C53.6724 5.632 53.8084 5.576 53.9684 5.576C54.1284 5.576 54.2644 5.632 54.3764 5.744C54.4884 5.856 54.5444 5.992 54.5444 6.152ZM54.3644 14H53.5724V8H54.3644V14ZM56.6691 9.572C56.6691 10.036 57.0811 10.376 57.9051 10.592C58.1371 10.648 58.2891 10.688 58.3611 10.712C58.4331 10.728 58.5731 10.772 58.7811 10.844C58.9971 10.908 59.1451 10.964 59.2251 11.012C59.3131 11.06 59.4331 11.136 59.5851 11.24C59.7371 11.336 59.8451 11.436 59.9091 11.54C59.9731 11.636 60.0331 11.764 60.0891 11.924C60.1451 12.076 60.1731 12.24 60.1731 12.416C60.1731 12.928 59.9691 13.344 59.5611 13.664C59.1691 13.984 58.6491 14.144 58.0011 14.144C57.4411 14.144 56.9571 14.02 56.5491 13.772C56.1411 13.516 55.8531 13.18 55.6851 12.764L56.3571 12.368C56.4691 12.68 56.6691 12.928 56.9571 13.112C57.2531 13.288 57.6011 13.376 58.0011 13.376C58.4091 13.376 58.7411 13.296 58.9971 13.136C59.2531 12.976 59.3811 12.736 59.3811 12.416C59.3811 11.952 58.9691 11.612 58.1451 11.396C57.9131 11.34 57.7611 11.304 57.6891 11.288C57.6171 11.264 57.4731 11.22 57.2571 11.156C57.0491 11.084 56.9011 11.024 56.8131 10.976C56.7331 10.928 56.6171 10.856 56.4651 10.76C56.3131 10.656 56.2051 10.556 56.1411 10.46C56.0771 10.356 56.0171 10.228 55.9611 10.076C55.9051 9.916 55.8771 9.748 55.8771 9.572C55.8771 9.084 56.0691 8.676 56.4531 8.348C56.8531 8.02 57.3451 7.856 57.9291 7.856C58.4091 7.856 58.8331 7.964 59.2011 8.18C59.5771 8.396 59.8531 8.696 60.0291 9.08L59.3691 9.464C59.1451 8.904 58.6651 8.624 57.9291 8.624C57.5691 8.624 57.2691 8.708 57.0291 8.876C56.7891 9.044 56.6691 9.276 56.6691 9.572ZM66.051 15.692H60.771V14.924H66.051V15.692ZM72.2854 15.692H67.0054V14.924H72.2854V15.692ZM76.5454 8V8.768H74.8174V12.404C74.8174 12.732 74.8814 12.968 75.0094 13.112C75.1374 13.248 75.3294 13.32 75.5854 13.328C75.8414 13.328 76.1614 13.32 76.5454 13.304V14C75.6894 14.128 75.0534 14.068 74.6374 13.82C74.2294 13.564 74.0254 13.092 74.0254 12.404V8.768H72.7654V8H74.0254V6.56L74.8174 6.32V8H76.5454ZM78.8374 6.152C78.8374 6.312 78.7814 6.448 78.6694 6.56C78.5574 6.672 78.4214 6.728 78.2614 6.728C78.1014 6.728 77.9654 6.672 77.8534 6.56C77.7414 6.448 77.6854 6.312 77.6854 6.152C77.6854 5.992 77.7414 5.856 77.8534 5.744C77.9654 5.632 78.1014 5.576 78.2614 5.576C78.4214 5.576 78.5574 5.632 78.6694 5.744C78.7814 5.856 78.8374 5.992 78.8374 6.152ZM78.6574 14H77.8654V8H78.6574V14ZM81.31 6.152C81.31 6.312 81.254 6.448 81.142 6.56C81.03 6.672 80.894 6.728 80.734 6.728C80.574 6.728 80.438 6.672 80.326 6.56C80.214 6.448 80.158 6.312 80.158 6.152C80.158 5.992 80.214 5.856 80.326 5.744C80.438 5.632 80.574 5.576 80.734 5.576C80.894 5.576 81.03 5.632 81.142 5.744C81.254 5.856 81.31 5.992 81.31 6.152ZM81.13 14H80.338V8H81.13V14Z" fill="#272727"></path> <defs> <filter id="filter0_i_97_1155" x="0" y="0" width="113" height="28" filterUnits="userSpaceOnUse" color-interpolation-filters="sRGB"> <feFlood flood-opacity="0" result="BackgroundImageFix"></feFlood> <feBlend mode="normal" in="SourceGraphic" in2="BackgroundImageFix" result="shape"></feBlend> <feColorMatrix in="SourceAlpha" type="matrix" values="0 0 0 0 0 0 0 0 0 0 0 0 0 0 0 0 0 0 127 0" result="hardAlpha"></feColorMatrix> <feOffset dy="6"></feOffset> <feGaussianBlur stdDeviation="15"></feGaussianBlur> <feComposite in2="hardAlpha" operator="arithmetic" k2="-1" k3="1"></feComposite> <feColorMatrix type="matrix" values="0 0 0 0 1 0 0 0 0 1 0 0 0 0 1 0 0 0 0.35 0"></feColorMatrix> <feBlend mode="normal" in2="shape" result="effect1_innerShadow_97_1155"></feBlend> </filter> </defs> </svg> 