<?xml version="1.0" encoding="UTF-8"?> <svg xmlns="http://www.w3.org/2000/svg" width="113" height="22" viewBox="0 0 113 22" fill="none"> <g filter="url(#filter0_i_97_1158)"> <rect width="113" height="22" rx="10" fill="white"></rect> </g> <rect x="0.15" y="0.15" width="112.7" height="21.7" rx="9.85" stroke="white" stroke-width="0.3"></rect> <path d="M23.9164 6.656C24.7644 6.656 25.5164 6.864 26.1724 7.28C26.8124 7.68 27.2964 8.188 27.6244 8.804C27.9524 9.412 28.1164 10.064 28.1164 10.76C28.1164 11.616 27.9444 12.252 27.6004 12.668C27.2484 13.092 26.8444 13.304 26.3884 13.304C26.0444 13.304 25.7524 13.216 25.5124 13.04C25.2804 12.864 25.1244 12.608 25.0444 12.272C24.6924 12.704 24.2484 12.92 23.7124 12.92C23.1524 12.92 22.6884 12.736 22.3204 12.368C21.9524 12 21.7684 11.544 21.7684 11C21.7684 10.456 21.9524 10 22.3204 9.632C22.6884 9.264 23.1524 9.08 23.7124 9.08C24.2244 9.08 24.6484 9.272 24.9844 9.656V9.164H25.7284V11.756C25.7284 12.524 25.9884 12.908 26.5084 12.908C26.8844 12.908 27.1844 12.728 27.4084 12.368C27.6404 12.008 27.7564 11.472 27.7564 10.76C27.7564 9.688 27.3844 8.792 26.6404 8.072C25.9124 7.352 25.0044 6.992 23.9164 6.992C22.7964 6.992 21.8484 7.376 21.0724 8.144C20.2964 8.912 19.9084 9.864 19.9084 11C19.9084 12.168 20.3084 13.128 21.1084 13.88C21.9084 14.632 22.9164 15.008 24.1324 15.008C24.9244 15.008 25.6204 14.892 26.2204 14.66V15.02C25.6204 15.236 24.9244 15.344 24.1324 15.344C22.8204 15.344 21.7284 14.932 20.8564 14.108C19.9844 13.292 19.5484 12.256 19.5484 11C19.5484 9.8 19.9644 8.776 20.7964 7.928C21.6364 7.08 22.6764 6.656 23.9164 6.656ZM22.8724 11.876C23.1284 12.092 23.4244 12.2 23.7604 12.2C24.1044 12.2 24.3924 12.092 24.6244 11.876C24.8644 11.652 24.9844 11.36 24.9844 11C24.9844 10.64 24.8644 10.352 24.6244 10.136C24.4004 9.912 24.1124 9.8 23.7604 9.8C23.4164 9.8 23.1204 9.912 22.8724 10.136C22.6324 10.352 22.5124 10.64 22.5124 11C22.5124 11.352 22.6324 11.644 22.8724 11.876ZM33.9529 5.6H34.9009L31.8649 10.556V14H31.0249V10.532L28.0009 5.6H28.9489L31.4569 9.716L33.9529 5.6ZM39.8223 9.176V8H40.6143V14H39.8223V12.824C39.2703 13.704 38.4623 14.144 37.3983 14.144C36.5423 14.144 35.8103 13.84 35.2023 13.232C34.6023 12.624 34.3023 11.88 34.3023 11C34.3023 10.12 34.6023 9.376 35.2023 8.768C35.8103 8.16 36.5423 7.856 37.3983 7.856C38.4623 7.856 39.2703 8.296 39.8223 9.176ZM35.7783 12.692C36.2343 13.148 36.7943 13.376 37.4583 13.376C38.1223 13.376 38.6823 13.148 39.1383 12.692C39.5943 12.22 39.8223 11.656 39.8223 11C39.8223 10.336 39.5943 9.776 39.1383 9.32C38.6823 8.856 38.1223 8.624 37.4583 8.624C36.7943 8.624 36.2343 8.856 35.7783 9.32C35.3223 9.776 35.0943 10.336 35.0943 11C35.0943 11.656 35.3223 12.22 35.7783 12.692ZM45.0992 7.856C45.8192 7.856 46.3912 8.08 46.8152 8.528C47.2392 8.968 47.4512 9.564 47.4512 10.316V14H46.6592V10.316C46.6592 9.78 46.5152 9.364 46.2272 9.068C45.9472 8.772 45.5472 8.624 45.0272 8.624C44.4272 8.624 43.9512 8.812 43.5992 9.188C43.2552 9.564 43.0832 10.12 43.0832 10.856V14H42.2912V8H43.0832V8.936C43.5312 8.216 44.2032 7.856 45.0992 7.856ZM54.1426 9.176V8H54.9346V14H54.1426V12.824C53.5906 13.704 52.7826 14.144 51.7186 14.144C50.8626 14.144 50.1306 13.84 49.5226 13.232C48.9226 12.624 48.6226 11.88 48.6226 11C48.6226 10.12 48.9226 9.376 49.5226 8.768C50.1306 8.16 50.8626 7.856 51.7186 7.856C52.7826 7.856 53.5906 8.296 54.1426 9.176ZM50.0986 12.692C50.5546 13.148 51.1146 13.376 51.7786 13.376C52.4426 13.376 53.0026 13.148 53.4586 12.692C53.9146 12.22 54.1426 11.656 54.1426 11C54.1426 10.336 53.9146 9.776 53.4586 9.32C53.0026 8.856 52.4426 8.624 51.7786 8.624C51.1146 8.624 50.5546 8.856 50.0986 9.32C49.6426 9.776 49.4146 10.336 49.4146 11C49.4146 11.656 49.6426 12.22 50.0986 12.692ZM62.8515 14H61.8915L59.9235 10.64H57.5715V14H56.7315V5.6H60.0915C60.7795 5.6 61.3715 5.848 61.8675 6.344C62.3635 6.84 62.6115 7.432 62.6115 8.12C62.6115 8.696 62.4395 9.204 62.0955 9.644C61.7675 10.076 61.3355 10.372 60.7995 10.532L62.8515 14ZM60.0915 6.392H57.5715V9.848H60.0915C60.5555 9.848 60.9515 9.68 61.2795 9.344C61.6075 8.992 61.7715 8.584 61.7715 8.12C61.7715 7.648 61.6075 7.24 61.2795 6.896C60.9515 6.56 60.5555 6.392 60.0915 6.392ZM68.791 9.176V8H69.583V14H68.791V12.824C68.239 13.704 67.431 14.144 66.367 14.144C65.511 14.144 64.779 13.84 64.171 13.232C63.571 12.624 63.271 11.88 63.271 11C63.271 10.12 63.571 9.376 64.171 8.768C64.779 8.16 65.511 7.856 66.367 7.856C67.431 7.856 68.239 8.296 68.791 9.176ZM64.747 12.692C65.203 13.148 65.763 13.376 66.427 13.376C67.091 13.376 67.651 13.148 68.107 12.692C68.563 12.22 68.791 11.656 68.791 11C68.791 10.336 68.563 9.776 68.107 9.32C67.651 8.856 67.091 8.624 66.427 8.624C65.763 8.624 65.203 8.856 64.747 9.32C64.291 9.776 64.063 10.336 64.063 11C64.063 11.656 64.291 12.22 64.747 12.692ZM71.3799 5.6H74.6199C75.7639 5.6 76.7079 6.008 77.4519 6.824C78.2039 7.624 78.5799 8.616 78.5799 9.8C78.5799 10.984 78.2039 11.98 77.4519 12.788C76.7079 13.596 75.7639 14 74.6199 14H71.3799V5.6ZM72.2199 13.208H74.6199C75.5399 13.208 76.2919 12.88 76.8759 12.224C77.4679 11.56 77.7639 10.752 77.7639 9.8C77.7639 8.848 77.4679 8.04 76.8759 7.376C76.2919 6.72 75.5399 6.392 74.6199 6.392H72.2199V13.208ZM85.0566 9.176V8H85.8486V14H85.0566V12.824C84.5046 13.704 83.6966 14.144 82.6326 14.144C81.7766 14.144 81.0446 13.84 80.4366 13.232C79.8366 12.624 79.5366 11.88 79.5366 11C79.5366 10.12 79.8366 9.376 80.4366 8.768C81.0446 8.16 81.7766 7.856 82.6326 7.856C83.6966 7.856 84.5046 8.296 85.0566 9.176ZM81.0126 12.692C81.4686 13.148 82.0286 13.376 82.6926 13.376C83.3566 13.376 83.9166 13.148 84.3726 12.692C84.8286 12.22 85.0566 11.656 85.0566 11C85.0566 10.336 84.8286 9.776 84.3726 9.32C83.9166 8.856 83.3566 8.624 82.6926 8.624C82.0286 8.624 81.4686 8.856 81.0126 9.32C80.5566 9.776 80.3286 10.336 80.3286 11C80.3286 11.656 80.5566 12.22 81.0126 12.692ZM88.3175 8V8.996C88.6855 8.268 89.3175 7.904 90.2135 7.904V8.672C89.6375 8.672 89.1775 8.84 88.8335 9.176C88.4895 9.504 88.3175 10 88.3175 10.664V14H87.5255V8H88.3175ZM92.271 6.152C92.271 6.312 92.215 6.448 92.103 6.56C91.991 6.672 91.855 6.728 91.695 6.728C91.535 6.728 91.399 6.672 91.287 6.56C91.175 6.448 91.119 6.312 91.119 6.152C91.119 5.992 91.175 5.856 91.287 5.744C91.399 5.632 91.535 5.576 91.695 5.576C91.855 5.576 91.991 5.632 92.103 5.744C92.215 5.856 92.271 5.992 92.271 6.152ZM92.091 14H91.299V8H92.091V14Z" fill="#272727"></path> <defs> <filter id="filter0_i_97_1158" x="0" y="0" width="113" height="28" filterUnits="userSpaceOnUse" color-interpolation-filters="sRGB"> <feFlood flood-opacity="0" result="BackgroundImageFix"></feFlood> <feBlend mode="normal" in="SourceGraphic" in2="BackgroundImageFix" result="shape"></feBlend> <feColorMatrix in="SourceAlpha" type="matrix" values="0 0 0 0 0 0 0 0 0 0 0 0 0 0 0 0 0 0 127 0" result="hardAlpha"></feColorMatrix> <feOffset dy="6"></feOffset> <feGaussianBlur stdDeviation="15"></feGaussianBlur> <feComposite in2="hardAlpha" operator="arithmetic" k2="-1" k3="1"></feComposite> <feColorMatrix type="matrix" values="0 0 0 0 1 0 0 0 0 1 0 0 0 0 1 0 0 0 0.35 0"></feColorMatrix> <feBlend mode="normal" in2="shape" result="effect1_innerShadow_97_1158"></feBlend> </filter> </defs> </svg> 