<?xml version="1.0" encoding="UTF-8"?> <svg xmlns="http://www.w3.org/2000/svg" width="113" height="22" viewBox="0 0 113 22" fill="none"> <g filter="url(#filter0_i_97_1161)"> <rect width="113" height="22" rx="10" fill="white"></rect> </g> <rect x="0.15" y="0.15" width="112.7" height="21.7" rx="9.85" stroke="white" stroke-width="0.3"></rect> <path d="M24.3109 6.656C25.1589 6.656 25.9109 6.864 26.5669 7.28C27.2069 7.68 27.6909 8.188 28.0189 8.804C28.3469 9.412 28.5109 10.064 28.5109 10.76C28.5109 11.616 28.3389 12.252 27.9949 12.668C27.6429 13.092 27.2389 13.304 26.7829 13.304C26.4389 13.304 26.1469 13.216 25.9069 13.04C25.6749 12.864 25.5189 12.608 25.4389 12.272C25.0869 12.704 24.6429 12.92 24.1069 12.92C23.5469 12.92 23.0829 12.736 22.7149 12.368C22.3469 12 22.1629 11.544 22.1629 11C22.1629 10.456 22.3469 10 22.7149 9.632C23.0829 9.264 23.5469 9.08 24.1069 9.08C24.6189 9.08 25.0429 9.272 25.3789 9.656V9.164H26.1229V11.756C26.1229 12.524 26.3829 12.908 26.9029 12.908C27.2789 12.908 27.5789 12.728 27.8029 12.368C28.0349 12.008 28.1509 11.472 28.1509 10.76C28.1509 9.688 27.7789 8.792 27.0349 8.072C26.3069 7.352 25.3989 6.992 24.3109 6.992C23.1909 6.992 22.2429 7.376 21.4669 8.144C20.6909 8.912 20.3029 9.864 20.3029 11C20.3029 12.168 20.7029 13.128 21.5029 13.88C22.3029 14.632 23.3109 15.008 24.5269 15.008C25.3189 15.008 26.0149 14.892 26.6149 14.66V15.02C26.0149 15.236 25.3189 15.344 24.5269 15.344C23.2149 15.344 22.1229 14.932 21.2509 14.108C20.3789 13.292 19.9429 12.256 19.9429 11C19.9429 9.8 20.3589 8.776 21.1909 7.928C22.0309 7.08 23.0709 6.656 24.3109 6.656ZM23.2669 11.876C23.5229 12.092 23.8189 12.2 24.1549 12.2C24.4989 12.2 24.7869 12.092 25.0189 11.876C25.2589 11.652 25.3789 11.36 25.3789 11C25.3789 10.64 25.2589 10.352 25.0189 10.136C24.7949 9.912 24.5069 9.8 24.1549 9.8C23.8109 9.8 23.5149 9.912 23.2669 10.136C23.0269 10.352 22.9069 10.64 22.9069 11C22.9069 11.352 23.0269 11.644 23.2669 11.876ZM31.4622 10.88L34.6782 14H33.6222L30.6222 11.108V14H29.8302V5.6H30.6222V10.652L33.4782 8H34.5582L31.4622 10.88ZM40.3223 9.176V8H41.1143V14H40.3223V12.824C39.7703 13.704 38.9623 14.144 37.8983 14.144C37.0423 14.144 36.3103 13.84 35.7023 13.232C35.1023 12.624 34.8023 11.88 34.8023 11C34.8023 10.12 35.1023 9.376 35.7023 8.768C36.3103 8.16 37.0423 7.856 37.8983 7.856C38.9623 7.856 39.7703 8.296 40.3223 9.176ZM36.2783 12.692C36.7343 13.148 37.2943 13.376 37.9583 13.376C38.6223 13.376 39.1823 13.148 39.6383 12.692C40.0943 12.22 40.3223 11.656 40.3223 11C40.3223 10.336 40.0943 9.776 39.6383 9.32C39.1823 8.856 38.6223 8.624 37.9583 8.624C37.2943 8.624 36.7343 8.856 36.2783 9.32C35.8223 9.776 35.5943 10.336 35.5943 11C35.5943 11.656 35.8223 12.22 36.2783 12.692ZM45.9712 8V8.768H44.2432V12.404C44.2432 12.732 44.3072 12.968 44.4352 13.112C44.5632 13.248 44.7552 13.32 45.0112 13.328C45.2672 13.328 45.5872 13.32 45.9712 13.304V14C45.1152 14.128 44.4792 14.068 44.0632 13.82C43.6552 13.564 43.4512 13.092 43.4512 12.404V8.768H42.1912V8H43.4512V6.56L44.2432 6.32V8H45.9712ZM48.0832 8V8.996C48.4512 8.268 49.0832 7.904 49.9792 7.904V8.672C49.4032 8.672 48.9432 8.84 48.5992 9.176C48.2552 9.504 48.0832 10 48.0832 10.664V14H47.2912V8H48.0832ZM52.0366 6.152C52.0366 6.312 51.9806 6.448 51.8686 6.56C51.7566 6.672 51.6206 6.728 51.4606 6.728C51.3006 6.728 51.1646 6.672 51.0526 6.56C50.9406 6.448 50.8846 6.312 50.8846 6.152C50.8846 5.992 50.9406 5.856 51.0526 5.744C51.1646 5.632 51.3006 5.576 51.4606 5.576C51.6206 5.576 51.7566 5.632 51.8686 5.744C51.9806 5.856 52.0366 5.992 52.0366 6.152ZM51.8566 14H51.0646V8H51.8566V14ZM56.3453 7.856C57.0653 7.856 57.6373 8.08 58.0613 8.528C58.4853 8.968 58.6973 9.564 58.6973 10.316V14H57.9053V10.316C57.9053 9.78 57.7613 9.364 57.4733 9.068C57.1933 8.772 56.7933 8.624 56.2733 8.624C55.6733 8.624 55.1973 8.812 54.8453 9.188C54.5013 9.564 54.3293 10.12 54.3293 10.856V14H53.5373V8H54.3293V8.936C54.7773 8.216 55.4493 7.856 56.3453 7.856ZM61.8607 10.88L65.0767 14H64.0207L61.0207 11.108V14H60.2287V5.6H61.0207V10.652L63.8767 8H64.9567L61.8607 10.88ZM70.7207 9.176V8H71.5127V14H70.7207V12.824C70.1687 13.704 69.3607 14.144 68.2967 14.144C67.4407 14.144 66.7087 13.84 66.1007 13.232C65.5007 12.624 65.2007 11.88 65.2007 11C65.2007 10.12 65.5007 9.376 66.1007 8.768C66.7087 8.16 67.4407 7.856 68.2967 7.856C69.3607 7.856 70.1687 8.296 70.7207 9.176ZM66.6767 12.692C67.1327 13.148 67.6927 13.376 68.3567 13.376C69.0207 13.376 69.5807 13.148 70.0367 12.692C70.4927 12.22 70.7207 11.656 70.7207 11C70.7207 10.336 70.4927 9.776 70.0367 9.32C69.5807 8.856 69.0207 8.624 68.3567 8.624C67.6927 8.624 67.1327 8.856 66.6767 9.32C66.2207 9.776 65.9927 10.336 65.9927 11C65.9927 11.656 66.2207 12.22 66.6767 12.692ZM73.9816 14H73.1896V5.24H73.9816V14ZM76.6343 6.152C76.6343 6.312 76.5783 6.448 76.4663 6.56C76.3543 6.672 76.2183 6.728 76.0583 6.728C75.8983 6.728 75.7623 6.672 75.6503 6.56C75.5383 6.448 75.4823 6.312 75.4823 6.152C75.4823 5.992 75.5383 5.856 75.6503 5.744C75.7623 5.632 75.8983 5.576 76.0583 5.576C76.2183 5.576 76.3543 5.632 76.4663 5.744C76.5783 5.856 76.6343 5.992 76.6343 6.152ZM76.4543 14H75.6623V8H76.4543V14ZM81.1349 5.456V6.224C80.5509 6.176 80.1149 6.276 79.8269 6.524C79.5469 6.772 79.4069 7.184 79.4069 7.76V8H81.1349V8.768H79.4069V14H78.6149V8.768H77.5949V8H78.6149V7.76C78.6149 6.968 78.8309 6.372 79.2629 5.972C79.7029 5.572 80.3269 5.4 81.1349 5.456ZM84.3874 7.856C85.2834 7.856 85.9994 8.172 86.5354 8.804C87.0874 9.428 87.3634 10.168 87.3634 11.024C87.3634 11.064 87.3554 11.188 87.3394 11.396H82.0714C82.1514 11.996 82.4074 12.476 82.8394 12.836C83.2714 13.196 83.8114 13.376 84.4594 13.376C85.3714 13.376 86.0154 13.036 86.3914 12.356L87.0874 12.764C86.8234 13.196 86.4594 13.536 85.9954 13.784C85.5394 14.024 85.0234 14.144 84.4474 14.144C83.5034 14.144 82.7354 13.848 82.1434 13.256C81.5514 12.664 81.2554 11.912 81.2554 11C81.2554 10.096 81.5474 9.348 82.1314 8.756C82.7154 8.156 83.4674 7.856 84.3874 7.856ZM84.3874 8.624C83.7634 8.624 83.2394 8.808 82.8154 9.176C82.3994 9.544 82.1514 10.028 82.0714 10.628H86.5474C86.4594 9.988 86.2154 9.496 85.8154 9.152C85.3994 8.8 84.9234 8.624 84.3874 8.624ZM93.0627 15.692H87.7827V14.924H93.0627V15.692Z" fill="#272727"></path> <defs> <filter id="filter0_i_97_1161" x="0" y="0" width="113" height="28" filterUnits="userSpaceOnUse" color-interpolation-filters="sRGB"> <feFlood flood-opacity="0" result="BackgroundImageFix"></feFlood> <feBlend mode="normal" in="SourceGraphic" in2="BackgroundImageFix" result="shape"></feBlend> <feColorMatrix in="SourceAlpha" type="matrix" values="0 0 0 0 0 0 0 0 0 0 0 0 0 0 0 0 0 0 127 0" result="hardAlpha"></feColorMatrix> <feOffset dy="6"></feOffset> <feGaussianBlur stdDeviation="15"></feGaussianBlur> <feComposite in2="hardAlpha" operator="arithmetic" k2="-1" k3="1"></feComposite> <feColorMatrix type="matrix" values="0 0 0 0 1 0 0 0 0 1 0 0 0 0 1 0 0 0 0.35 0"></feColorMatrix> <feBlend mode="normal" in2="shape" result="effect1_innerShadow_97_1161"></feBlend> </filter> </defs> </svg> 