<?xml version="1.0" encoding="UTF-8"?> <svg xmlns="http://www.w3.org/2000/svg" width="113" height="22" viewBox="0 0 113 22" fill="none"> <g filter="url(#filter0_i_97_1167)"> <rect width="113" height="22" rx="10" fill="white"></rect> </g> <rect x="0.15" y="0.15" width="112.7" height="21.7" rx="9.85" stroke="white" stroke-width="0.3"></rect> <path d="M17.9007 6.656C18.7487 6.656 19.5007 6.864 20.1567 7.28C20.7967 7.68 21.2807 8.188 21.6087 8.804C21.9367 9.412 22.1007 10.064 22.1007 10.76C22.1007 11.616 21.9287 12.252 21.5847 12.668C21.2327 13.092 20.8287 13.304 20.3727 13.304C20.0287 13.304 19.7367 13.216 19.4967 13.04C19.2647 12.864 19.1087 12.608 19.0287 12.272C18.6767 12.704 18.2327 12.92 17.6967 12.92C17.1367 12.92 16.6727 12.736 16.3047 12.368C15.9367 12 15.7527 11.544 15.7527 11C15.7527 10.456 15.9367 10 16.3047 9.632C16.6727 9.264 17.1367 9.08 17.6967 9.08C18.2087 9.08 18.6327 9.272 18.9687 9.656V9.164H19.7127V11.756C19.7127 12.524 19.9727 12.908 20.4927 12.908C20.8687 12.908 21.1687 12.728 21.3927 12.368C21.6247 12.008 21.7407 11.472 21.7407 10.76C21.7407 9.688 21.3687 8.792 20.6247 8.072C19.8967 7.352 18.9887 6.992 17.9007 6.992C16.7807 6.992 15.8327 7.376 15.0567 8.144C14.2807 8.912 13.8927 9.864 13.8927 11C13.8927 12.168 14.2927 13.128 15.0927 13.88C15.8927 14.632 16.9007 15.008 18.1167 15.008C18.9087 15.008 19.6047 14.892 20.2047 14.66V15.02C19.6047 15.236 18.9087 15.344 18.1167 15.344C16.8047 15.344 15.7127 14.932 14.8407 14.108C13.9687 13.292 13.5327 12.256 13.5327 11C13.5327 9.8 13.9487 8.776 14.7807 7.928C15.6207 7.08 16.6607 6.656 17.9007 6.656ZM16.8567 11.876C17.1127 12.092 17.4087 12.2 17.7447 12.2C18.0887 12.2 18.3767 12.092 18.6087 11.876C18.8487 11.652 18.9687 11.36 18.9687 11C18.9687 10.64 18.8487 10.352 18.6087 10.136C18.3847 9.912 18.0967 9.8 17.7447 9.8C17.4007 9.8 17.1047 9.912 16.8567 10.136C16.6167 10.352 16.4967 10.64 16.4967 11C16.4967 11.352 16.6167 11.644 16.8567 11.876ZM29.8161 7.856C30.4961 7.856 31.0401 8.072 31.4481 8.504C31.8561 8.936 32.0601 9.52 32.0601 10.256V14H31.2681V10.256C31.2681 9.744 31.1361 9.344 30.8721 9.056C30.6081 8.768 30.2521 8.624 29.8041 8.624C29.2841 8.624 28.8761 8.796 28.5801 9.14C28.2841 9.484 28.1361 9.996 28.1361 10.676V14H27.3441V10.256C27.3441 9.736 27.2201 9.336 26.9721 9.056C26.7241 8.768 26.3801 8.624 25.9401 8.624C25.4361 8.624 25.0201 8.8 24.6921 9.152C24.3721 9.504 24.2121 10.012 24.2121 10.676V14H23.4201V8H24.2121V8.876C24.6441 8.196 25.2561 7.856 26.0481 7.856C26.9201 7.856 27.5281 8.22 27.8721 8.948C28.3041 8.22 28.9521 7.856 29.8161 7.856ZM35.8508 13.028L37.7948 8H38.6348L36.0668 14.552C35.8268 15.16 35.4908 15.628 35.0588 15.956C34.6348 16.292 34.1628 16.44 33.6428 16.4V15.656C34.3628 15.744 34.9108 15.328 35.2868 14.408L35.4428 14.036L32.7548 8H33.5948L35.8508 13.028ZM44.5176 9.176V8H45.3096V14H44.5176V12.824C43.9656 13.704 43.1576 14.144 42.0936 14.144C41.2376 14.144 40.5056 13.84 39.8976 13.232C39.2976 12.624 38.9976 11.88 38.9976 11C38.9976 10.12 39.2976 9.376 39.8976 8.768C40.5056 8.16 41.2376 7.856 42.0936 7.856C43.1576 7.856 43.9656 8.296 44.5176 9.176ZM40.4736 12.692C40.9296 13.148 41.4896 13.376 42.1536 13.376C42.8176 13.376 43.3776 13.148 43.8336 12.692C44.2896 12.22 44.5176 11.656 44.5176 11C44.5176 10.336 44.2896 9.776 43.8336 9.32C43.3776 8.856 42.8176 8.624 42.1536 8.624C41.4896 8.624 40.9296 8.856 40.4736 9.32C40.0176 9.776 39.7896 10.336 39.7896 11C39.7896 11.656 40.0176 12.22 40.4736 12.692ZM50.1665 8V8.768H48.4385V12.404C48.4385 12.732 48.5025 12.968 48.6305 13.112C48.7585 13.248 48.9505 13.32 49.2065 13.328C49.4625 13.328 49.7825 13.32 50.1665 13.304V14C49.3105 14.128 48.6745 14.068 48.2585 13.82C47.8505 13.564 47.6465 13.092 47.6465 12.404V8.768H46.3865V8H47.6465V6.56L48.4385 6.32V8H50.1665ZM54.2945 7.856C55.0145 7.856 55.5865 8.08 56.0105 8.528C56.4345 8.968 56.6465 9.564 56.6465 10.316V14H55.8545V10.316C55.8545 9.78 55.7105 9.364 55.4225 9.068C55.1425 8.772 54.7425 8.624 54.2225 8.624C53.6225 8.624 53.1465 8.812 52.7945 9.188C52.4505 9.564 52.2785 10.12 52.2785 10.856V14H51.4865V8H52.2785V8.936C52.7265 8.216 53.3985 7.856 54.2945 7.856ZM63.2059 13.244C62.5899 13.844 61.8459 14.144 60.9739 14.144C60.0859 14.144 59.3379 13.844 58.7299 13.244C58.1219 12.636 57.8179 11.888 57.8179 11C57.8179 10.112 58.1219 9.368 58.7299 8.768C59.3379 8.16 60.0859 7.856 60.9739 7.856C61.8539 7.856 62.5979 8.16 63.2059 8.768C63.8219 9.368 64.1299 10.112 64.1299 11C64.1299 11.88 63.8219 12.628 63.2059 13.244ZM59.2939 12.692C59.7499 13.148 60.3099 13.376 60.9739 13.376C61.6379 13.376 62.1979 13.148 62.6539 12.692C63.1099 12.22 63.3379 11.656 63.3379 11C63.3379 10.336 63.1099 9.776 62.6539 9.32C62.1979 8.856 61.6379 8.624 60.9739 8.624C60.3099 8.624 59.7499 8.856 59.2939 9.32C58.8379 9.776 58.6099 10.336 58.6099 11C58.6099 11.656 58.8379 12.22 59.2939 12.692ZM69.292 8.528L65.956 13.232H69.412V14H64.852V13.472L68.188 8.768H64.972V8H69.292V8.528ZM72.8315 13.172L74.9315 8H75.7715L73.3115 14H72.3515L69.8915 8H70.7315L72.8315 13.172ZM79.2663 7.856C80.1623 7.856 80.8783 8.172 81.4143 8.804C81.9663 9.428 82.2423 10.168 82.2423 11.024C82.2423 11.064 82.2343 11.188 82.2183 11.396H76.9503C77.0303 11.996 77.2863 12.476 77.7183 12.836C78.1503 13.196 78.6903 13.376 79.3383 13.376C80.2503 13.376 80.8943 13.036 81.2703 12.356L81.9663 12.764C81.7023 13.196 81.3383 13.536 80.8743 13.784C80.4183 14.024 79.9023 14.144 79.3263 14.144C78.3823 14.144 77.6143 13.848 77.0223 13.256C76.4303 12.664 76.1343 11.912 76.1343 11C76.1343 10.096 76.4263 9.348 77.0103 8.756C77.5943 8.156 78.3463 7.856 79.2663 7.856ZM79.2663 8.624C78.6423 8.624 78.1183 8.808 77.6943 9.176C77.2783 9.544 77.0303 10.028 76.9503 10.628H81.4263C81.3383 9.988 81.0943 9.496 80.6943 9.152C80.2783 8.8 79.8023 8.624 79.2663 8.624ZM86.5063 8V8.768H84.7783V12.404C84.7783 12.732 84.8423 12.968 84.9703 13.112C85.0983 13.248 85.2903 13.32 85.5463 13.328C85.8023 13.328 86.1223 13.32 86.5063 13.304V14C85.6503 14.128 85.0143 14.068 84.5983 13.82C84.1903 13.564 83.9863 13.092 83.9863 12.404V8.768H82.7263V8H83.9863V6.56L84.7783 6.32V8H86.5063ZM89.4583 10.88L92.6743 14H91.6183L88.6183 11.108V14H87.8263V5.6H88.6183V10.652L91.4743 8H92.5543L89.4583 10.88ZM98.3184 9.176V8H99.1104V14H98.3184V12.824C97.7664 13.704 96.9584 14.144 95.8944 14.144C95.0384 14.144 94.3064 13.84 93.6984 13.232C93.0984 12.624 92.7984 11.88 92.7984 11C92.7984 10.12 93.0984 9.376 93.6984 8.768C94.3064 8.16 95.0384 7.856 95.8944 7.856C96.9584 7.856 97.7664 8.296 98.3184 9.176ZM94.2744 12.692C94.7304 13.148 95.2904 13.376 95.9544 13.376C96.6184 13.376 97.1784 13.148 97.6344 12.692C98.0904 12.22 98.3184 11.656 98.3184 11C98.3184 10.336 98.0904 9.776 97.6344 9.32C97.1784 8.856 96.6184 8.624 95.9544 8.624C95.2904 8.624 94.7304 8.856 94.2744 9.32C93.8184 9.776 93.5904 10.336 93.5904 11C93.5904 11.656 93.8184 12.22 94.2744 12.692Z" fill="#272727"></path> <defs> <filter id="filter0_i_97_1167" x="0" y="0" width="113" height="28" filterUnits="userSpaceOnUse" color-interpolation-filters="sRGB"> <feFlood flood-opacity="0" result="BackgroundImageFix"></feFlood> <feBlend mode="normal" in="SourceGraphic" in2="BackgroundImageFix" result="shape"></feBlend> <feColorMatrix in="SourceAlpha" type="matrix" values="0 0 0 0 0 0 0 0 0 0 0 0 0 0 0 0 0 0 127 0" result="hardAlpha"></feColorMatrix> <feOffset dy="6"></feOffset> <feGaussianBlur stdDeviation="15"></feGaussianBlur> <feComposite in2="hardAlpha" operator="arithmetic" k2="-1" k3="1"></feComposite> <feColorMatrix type="matrix" values="0 0 0 0 1 0 0 0 0 1 0 0 0 0 1 0 0 0 0.35 0"></feColorMatrix> <feBlend mode="normal" in2="shape" result="effect1_innerShadow_97_1167"></feBlend> </filter> </defs> </svg> 