<?xml version="1.0" encoding="UTF-8"?> <svg xmlns="http://www.w3.org/2000/svg" width="113" height="22" viewBox="0 0 113 22" fill="none"> <g filter="url(#filter0_i_97_1170)"> <rect width="113" height="22" rx="10" fill="white"></rect> </g> <rect x="0.15" y="0.15" width="112.7" height="21.7" rx="9.85" stroke="white" stroke-width="0.3"></rect> <path d="M37.3011 6.656C38.1491 6.656 38.9011 6.864 39.5571 7.28C40.1971 7.68 40.6811 8.188 41.0091 8.804C41.3371 9.412 41.5011 10.064 41.5011 10.76C41.5011 11.616 41.3291 12.252 40.9851 12.668C40.6331 13.092 40.2291 13.304 39.7731 13.304C39.4291 13.304 39.1371 13.216 38.8971 13.04C38.6651 12.864 38.5091 12.608 38.4291 12.272C38.0771 12.704 37.6331 12.92 37.0971 12.92C36.5371 12.92 36.0731 12.736 35.7051 12.368C35.3371 12 35.1531 11.544 35.1531 11C35.1531 10.456 35.3371 10 35.7051 9.632C36.0731 9.264 36.5371 9.08 37.0971 9.08C37.6091 9.08 38.0331 9.272 38.3691 9.656V9.164H39.1131V11.756C39.1131 12.524 39.3731 12.908 39.8931 12.908C40.2691 12.908 40.5691 12.728 40.7931 12.368C41.0251 12.008 41.1411 11.472 41.1411 10.76C41.1411 9.688 40.7691 8.792 40.0251 8.072C39.2971 7.352 38.3891 6.992 37.3011 6.992C36.1811 6.992 35.2331 7.376 34.4571 8.144C33.6811 8.912 33.2931 9.864 33.2931 11C33.2931 12.168 33.6931 13.128 34.4931 13.88C35.2931 14.632 36.3011 15.008 37.5171 15.008C38.3091 15.008 39.0051 14.892 39.6051 14.66V15.02C39.0051 15.236 38.3091 15.344 37.5171 15.344C36.2051 15.344 35.1131 14.932 34.2411 14.108C33.3691 13.292 32.9331 12.256 32.9331 11C32.9331 9.8 33.3491 8.776 34.1811 7.928C35.0211 7.08 36.0611 6.656 37.3011 6.656ZM36.2571 11.876C36.5131 12.092 36.8091 12.2 37.1451 12.2C37.4891 12.2 37.7771 12.092 38.0091 11.876C38.2491 11.652 38.3691 11.36 38.3691 11C38.3691 10.64 38.2491 10.352 38.0091 10.136C37.7851 9.912 37.4971 9.8 37.1451 9.8C36.8011 9.8 36.5051 9.912 36.2571 10.136C36.0171 10.352 35.8971 10.64 35.8971 11C35.8971 11.352 36.0171 11.644 36.2571 11.876ZM44.9233 13.172L47.0233 8H47.8633L45.4033 14H44.4433L41.9833 8H42.8233L44.9233 13.172ZM51.3581 7.856C52.2541 7.856 52.9701 8.172 53.5061 8.804C54.0581 9.428 54.3341 10.168 54.3341 11.024C54.3341 11.064 54.3261 11.188 54.3101 11.396H49.0421C49.1221 11.996 49.3781 12.476 49.8101 12.836C50.2421 13.196 50.7821 13.376 51.4301 13.376C52.3421 13.376 52.9861 13.036 53.3621 12.356L54.0581 12.764C53.7941 13.196 53.4301 13.536 52.9661 13.784C52.5101 14.024 51.9941 14.144 51.4181 14.144C50.4741 14.144 49.7061 13.848 49.1141 13.256C48.5221 12.664 48.2261 11.912 48.2261 11C48.2261 10.096 48.5181 9.348 49.1021 8.756C49.6861 8.156 50.4381 7.856 51.3581 7.856ZM51.3581 8.624C50.7341 8.624 50.2101 8.808 49.7861 9.176C49.3701 9.544 49.1221 10.028 49.0421 10.628H53.5181C53.4301 9.988 53.1861 9.496 52.7861 9.152C52.3701 8.8 51.8941 8.624 51.3581 8.624ZM58.0595 10.892L60.3995 14H59.4515L57.5795 11.528L55.7075 14H54.7595L57.1115 10.892L54.9155 8H55.8635L57.5795 10.268L59.2955 8H60.2435L58.0595 10.892ZM62.4487 6.152C62.4487 6.312 62.3927 6.448 62.2807 6.56C62.1687 6.672 62.0327 6.728 61.8727 6.728C61.7127 6.728 61.5767 6.672 61.4647 6.56C61.3527 6.448 61.2967 6.312 61.2967 6.152C61.2967 5.992 61.3527 5.856 61.4647 5.744C61.5767 5.632 61.7127 5.576 61.8727 5.576C62.0327 5.576 62.1687 5.632 62.2807 5.744C62.3927 5.856 62.4487 5.992 62.4487 6.152ZM62.2687 14H61.4767V8H62.2687V14ZM65.5814 10.88L68.7974 14H67.7414L64.7414 11.108V14H63.9494V5.6H64.7414V10.652L67.5974 8H68.6774L65.5814 10.88ZM74.7991 15.692H69.5191V14.924H74.7991V15.692ZM77.4897 13.172L79.5897 8H80.4297L77.9697 14H77.0097L74.5497 8H75.3897L77.4897 13.172Z" fill="#272727"></path> <defs> <filter id="filter0_i_97_1170" x="0" y="0" width="113" height="28" filterUnits="userSpaceOnUse" color-interpolation-filters="sRGB"> <feFlood flood-opacity="0" result="BackgroundImageFix"></feFlood> <feBlend mode="normal" in="SourceGraphic" in2="BackgroundImageFix" result="shape"></feBlend> <feColorMatrix in="SourceAlpha" type="matrix" values="0 0 0 0 0 0 0 0 0 0 0 0 0 0 0 0 0 0 127 0" result="hardAlpha"></feColorMatrix> <feOffset dy="6"></feOffset> <feGaussianBlur stdDeviation="15"></feGaussianBlur> <feComposite in2="hardAlpha" operator="arithmetic" k2="-1" k3="1"></feComposite> <feColorMatrix type="matrix" values="0 0 0 0 1 0 0 0 0 1 0 0 0 0 1 0 0 0 0.35 0"></feColorMatrix> <feBlend mode="normal" in2="shape" result="effect1_innerShadow_97_1170"></feBlend> </filter> </defs> </svg> 