<?xml version="1.0" encoding="UTF-8"?> <svg xmlns="http://www.w3.org/2000/svg" width="131" height="22" viewBox="0 0 131 22" fill="none"> <g filter="url(#filter0_i_97_141)"> <rect width="131" height="22" rx="10" fill="white"></rect> </g> <rect x="0.15" y="0.15" width="130.7" height="21.7" rx="9.85" stroke="white" stroke-width="0.3"></rect> <path d="M10.1234 6.656C10.9714 6.656 11.7234 6.864 12.3794 7.28C13.0194 7.68 13.5034 8.188 13.8314 8.804C14.1594 9.412 14.3234 10.064 14.3234 10.76C14.3234 11.616 14.1514 12.252 13.8074 12.668C13.4554 13.092 13.0514 13.304 12.5954 13.304C12.2514 13.304 11.9594 13.216 11.7194 13.04C11.4874 12.864 11.3314 12.608 11.2514 12.272C10.8994 12.704 10.4554 12.92 9.91939 12.92C9.35939 12.92 8.89539 12.736 8.52739 12.368C8.15939 12 7.97539 11.544 7.97539 11C7.97539 10.456 8.15939 10 8.52739 9.632C8.89539 9.264 9.35939 9.08 9.91939 9.08C10.4314 9.08 10.8554 9.272 11.1914 9.656V9.164H11.9354V11.756C11.9354 12.524 12.1954 12.908 12.7154 12.908C13.0914 12.908 13.3914 12.728 13.6154 12.368C13.8474 12.008 13.9634 11.472 13.9634 10.76C13.9634 9.688 13.5914 8.792 12.8474 8.072C12.1194 7.352 11.2114 6.992 10.1234 6.992C9.00339 6.992 8.05539 7.376 7.27939 8.144C6.50339 8.912 6.11539 9.864 6.11539 11C6.11539 12.168 6.51539 13.128 7.31539 13.88C8.11539 14.632 9.12339 15.008 10.3394 15.008C11.1314 15.008 11.8274 14.892 12.4274 14.66V15.02C11.8274 15.236 11.1314 15.344 10.3394 15.344C9.02739 15.344 7.93539 14.932 7.06339 14.108C6.19139 13.292 5.75539 12.256 5.75539 11C5.75539 9.8 6.17139 8.776 7.00339 7.928C7.84339 7.08 8.88339 6.656 10.1234 6.656ZM9.07939 11.876C9.33539 12.092 9.63139 12.2 9.96739 12.2C10.3114 12.2 10.5994 12.092 10.8314 11.876C11.0714 11.652 11.1914 11.36 11.1914 11C11.1914 10.64 11.0714 10.352 10.8314 10.136C10.6074 9.912 10.3194 9.8 9.96739 9.8C9.62339 9.8 9.32739 9.912 9.07939 10.136C8.83939 10.352 8.71939 10.64 8.71939 11C8.71939 11.352 8.83939 11.644 9.07939 11.876ZM17.2747 10.88L20.4907 14H19.4347L16.4347 11.108V14H15.6427V5.6H16.4347V10.652L19.2907 8H20.3707L17.2747 10.88ZM21.716 9.572C21.716 10.036 22.128 10.376 22.952 10.592C23.184 10.648 23.336 10.688 23.408 10.712C23.48 10.728 23.62 10.772 23.828 10.844C24.044 10.908 24.192 10.964 24.272 11.012C24.36 11.06 24.48 11.136 24.632 11.24C24.784 11.336 24.892 11.436 24.956 11.54C25.02 11.636 25.08 11.764 25.136 11.924C25.192 12.076 25.22 12.24 25.22 12.416C25.22 12.928 25.016 13.344 24.608 13.664C24.216 13.984 23.696 14.144 23.048 14.144C22.488 14.144 22.004 14.02 21.596 13.772C21.188 13.516 20.9 13.18 20.732 12.764L21.404 12.368C21.516 12.68 21.716 12.928 22.004 13.112C22.3 13.288 22.648 13.376 23.048 13.376C23.456 13.376 23.788 13.296 24.044 13.136C24.3 12.976 24.428 12.736 24.428 12.416C24.428 11.952 24.016 11.612 23.192 11.396C22.96 11.34 22.808 11.304 22.736 11.288C22.664 11.264 22.52 11.22 22.304 11.156C22.096 11.084 21.948 11.024 21.86 10.976C21.78 10.928 21.664 10.856 21.512 10.76C21.36 10.656 21.252 10.556 21.188 10.46C21.124 10.356 21.064 10.228 21.008 10.076C20.952 9.916 20.924 9.748 20.924 9.572C20.924 9.084 21.116 8.676 21.5 8.348C21.9 8.02 22.392 7.856 22.976 7.856C23.456 7.856 23.88 7.964 24.248 8.18C24.624 8.396 24.9 8.696 25.076 9.08L24.416 9.464C24.192 8.904 23.712 8.624 22.976 8.624C22.616 8.624 22.316 8.708 22.076 8.876C21.836 9.044 21.716 9.276 21.716 9.572ZM29.1374 7.856C30.0334 7.856 30.7494 8.172 31.2854 8.804C31.8374 9.428 32.1134 10.168 32.1134 11.024C32.1134 11.064 32.1054 11.188 32.0894 11.396H26.8214C26.9014 11.996 27.1574 12.476 27.5894 12.836C28.0214 13.196 28.5614 13.376 29.2094 13.376C30.1214 13.376 30.7654 13.036 31.1414 12.356L31.8374 12.764C31.5734 13.196 31.2094 13.536 30.7454 13.784C30.2894 14.024 29.7734 14.144 29.1974 14.144C28.2534 14.144 27.4854 13.848 26.8934 13.256C26.3014 12.664 26.0054 11.912 26.0054 11C26.0054 10.096 26.2974 9.348 26.8814 8.756C27.4654 8.156 28.2174 7.856 29.1374 7.856ZM29.1374 8.624C28.5134 8.624 27.9894 8.808 27.5654 9.176C27.1494 9.544 26.9014 10.028 26.8214 10.628H31.2974C31.2094 9.988 30.9654 9.496 30.5654 9.152C30.1494 8.8 29.6734 8.624 29.1374 8.624ZM36.1812 7.856C36.9012 7.856 37.4732 8.08 37.8972 8.528C38.3212 8.968 38.5332 9.564 38.5332 10.316V14H37.7412V10.316C37.7412 9.78 37.5972 9.364 37.3092 9.068C37.0292 8.772 36.6292 8.624 36.1092 8.624C35.5092 8.624 35.0332 8.812 34.6812 9.188C34.3372 9.564 34.1652 10.12 34.1652 10.856V14H33.3732V8H34.1652V8.936C34.6132 8.216 35.2852 7.856 36.1812 7.856ZM41.0366 6.152C41.0366 6.312 40.9806 6.448 40.8686 6.56C40.7566 6.672 40.6206 6.728 40.4606 6.728C40.3006 6.728 40.1646 6.672 40.0526 6.56C39.9406 6.448 39.8846 6.312 39.8846 6.152C39.8846 5.992 39.9406 5.856 40.0526 5.744C40.1646 5.632 40.3006 5.576 40.4606 5.576C40.6206 5.576 40.7566 5.632 40.8686 5.744C40.9806 5.856 41.0366 5.992 41.0366 6.152ZM40.8566 14H40.0646V8H40.8566V14ZM44.9133 13.028L46.8573 8H47.6973L45.1293 14.552C44.8893 15.16 44.5533 15.628 44.1213 15.956C43.6973 16.292 43.2253 16.44 42.7053 16.4V15.656C43.4253 15.744 43.9733 15.328 44.3493 14.408L44.5053 14.036L41.8173 8H42.6573L44.9133 13.028ZM53.5801 9.176V8H54.3721V14H53.5801V12.824C53.0281 13.704 52.2201 14.144 51.1561 14.144C50.3001 14.144 49.5681 13.84 48.9601 13.232C48.3601 12.624 48.0601 11.88 48.0601 11C48.0601 10.12 48.3601 9.376 48.9601 8.768C49.5681 8.16 50.3001 7.856 51.1561 7.856C52.2201 7.856 53.0281 8.296 53.5801 9.176ZM49.5361 12.692C49.9921 13.148 50.5521 13.376 51.2161 13.376C51.8801 13.376 52.4401 13.148 52.8961 12.692C53.3521 12.22 53.5801 11.656 53.5801 11C53.5801 10.336 53.3521 9.776 52.8961 9.32C52.4401 8.856 51.8801 8.624 51.2161 8.624C50.5521 8.624 49.9921 8.856 49.5361 9.32C49.0801 9.776 48.8521 10.336 48.8521 11C48.8521 11.656 49.0801 12.22 49.5361 12.692ZM57.249 13.46C57.249 13.644 57.185 13.8 57.057 13.928C56.929 14.056 56.773 14.12 56.589 14.12C56.405 14.12 56.249 14.056 56.121 13.928C55.993 13.8 55.929 13.644 55.929 13.46C55.929 13.276 55.993 13.12 56.121 12.992C56.249 12.864 56.405 12.8 56.589 12.8C56.773 12.8 56.929 12.864 57.057 12.992C57.185 13.12 57.249 13.276 57.249 13.46ZM59.4386 9.572C59.4386 10.036 59.8506 10.376 60.6746 10.592C60.9066 10.648 61.0586 10.688 61.1306 10.712C61.2026 10.728 61.3426 10.772 61.5506 10.844C61.7666 10.908 61.9146 10.964 61.9946 11.012C62.0826 11.06 62.2026 11.136 62.3546 11.24C62.5066 11.336 62.6146 11.436 62.6786 11.54C62.7426 11.636 62.8026 11.764 62.8586 11.924C62.9146 12.076 62.9426 12.24 62.9426 12.416C62.9426 12.928 62.7386 13.344 62.3306 13.664C61.9386 13.984 61.4186 14.144 60.7706 14.144C60.2106 14.144 59.7266 14.02 59.3186 13.772C58.9106 13.516 58.6226 13.18 58.4546 12.764L59.1266 12.368C59.2386 12.68 59.4386 12.928 59.7266 13.112C60.0226 13.288 60.3706 13.376 60.7706 13.376C61.1786 13.376 61.5106 13.296 61.7666 13.136C62.0226 12.976 62.1506 12.736 62.1506 12.416C62.1506 11.952 61.7386 11.612 60.9146 11.396C60.6826 11.34 60.5306 11.304 60.4586 11.288C60.3866 11.264 60.2426 11.22 60.0266 11.156C59.8186 11.084 59.6706 11.024 59.5826 10.976C59.5026 10.928 59.3866 10.856 59.2346 10.76C59.0826 10.656 58.9746 10.556 58.9106 10.46C58.8466 10.356 58.7866 10.228 58.7306 10.076C58.6746 9.916 58.6466 9.748 58.6466 9.572C58.6466 9.084 58.8386 8.676 59.2226 8.348C59.6226 8.02 60.1146 7.856 60.6986 7.856C61.1786 7.856 61.6026 7.964 61.9706 8.18C62.3466 8.396 62.6226 8.696 62.7986 9.08L62.1386 9.464C61.9146 8.904 61.4346 8.624 60.6986 8.624C60.3386 8.624 60.0386 8.708 59.7986 8.876C59.5586 9.044 59.4386 9.276 59.4386 9.572ZM67.0132 7.856C67.7332 7.856 68.3052 8.08 68.7292 8.528C69.1532 8.968 69.3652 9.564 69.3652 10.316V14H68.5732V10.316C68.5732 9.78 68.4292 9.364 68.1412 9.068C67.8612 8.772 67.4612 8.624 66.9412 8.624C66.3412 8.624 65.8652 8.812 65.5132 9.188C65.1692 9.564 64.9972 10.12 64.9972 10.856V14H64.2052V5.6H64.9972V8.936C65.4452 8.216 66.1172 7.856 67.0132 7.856ZM73.6686 7.856C74.5646 7.856 75.2806 8.172 75.8166 8.804C76.3686 9.428 76.6446 10.168 76.6446 11.024C76.6446 11.064 76.6366 11.188 76.6206 11.396H71.3526C71.4326 11.996 71.6886 12.476 72.1206 12.836C72.5526 13.196 73.0926 13.376 73.7406 13.376C74.6526 13.376 75.2966 13.036 75.6726 12.356L76.3686 12.764C76.1046 13.196 75.7406 13.536 75.2766 13.784C74.8206 14.024 74.3046 14.144 73.7286 14.144C72.7846 14.144 72.0166 13.848 71.4246 13.256C70.8326 12.664 70.5366 11.912 70.5366 11C70.5366 10.096 70.8286 9.348 71.4126 8.756C71.9966 8.156 72.7486 7.856 73.6686 7.856ZM73.6686 8.624C73.0446 8.624 72.5206 8.808 72.0966 9.176C71.6806 9.544 71.4326 10.028 71.3526 10.628H75.8286C75.7406 9.988 75.4966 9.496 75.0966 9.152C74.6806 8.8 74.2046 8.624 73.6686 8.624ZM79.8901 13.172L81.9901 8H82.8301L80.3701 14H79.4101L76.9501 8H77.7901L79.8901 13.172ZM86.3489 14.144C85.4449 14.144 84.6929 13.844 84.0929 13.244C83.4929 12.628 83.1929 11.88 83.1929 11C83.1929 10.112 83.4929 9.368 84.0929 8.768C84.6929 8.16 85.4449 7.856 86.3489 7.856C86.9409 7.856 87.4729 8 87.9449 8.288C88.4169 8.568 88.7609 8.948 88.9769 9.428L88.3289 9.8C88.1689 9.44 87.9089 9.156 87.5489 8.948C87.1969 8.732 86.7969 8.624 86.3489 8.624C85.6849 8.624 85.1249 8.856 84.6689 9.32C84.2129 9.776 83.9849 10.336 83.9849 11C83.9849 11.656 84.2129 12.22 84.6689 12.692C85.1249 13.148 85.6849 13.376 86.3489 13.376C86.7889 13.376 87.1849 13.272 87.5369 13.064C87.8969 12.856 88.1769 12.568 88.3769 12.2L89.0369 12.584C88.7889 13.064 88.4249 13.444 87.9449 13.724C87.4649 14.004 86.9329 14.144 86.3489 14.144ZM92.982 7.856C93.702 7.856 94.274 8.08 94.698 8.528C95.122 8.968 95.334 9.564 95.334 10.316V14H94.542V10.316C94.542 9.78 94.398 9.364 94.11 9.068C93.83 8.772 93.43 8.624 92.91 8.624C92.31 8.624 91.834 8.812 91.482 9.188C91.138 9.564 90.966 10.12 90.966 10.856V14H90.174V5.6H90.966V8.936C91.414 8.216 92.086 7.856 92.982 7.856ZM99.6374 7.856C100.533 7.856 101.249 8.172 101.785 8.804C102.337 9.428 102.613 10.168 102.613 11.024C102.613 11.064 102.605 11.188 102.589 11.396H97.3214C97.4014 11.996 97.6574 12.476 98.0894 12.836C98.5214 13.196 99.0614 13.376 99.7094 13.376C100.621 13.376 101.265 13.036 101.641 12.356L102.337 12.764C102.073 13.196 101.709 13.536 101.245 13.784C100.789 14.024 100.273 14.144 99.6974 14.144C98.7534 14.144 97.9854 13.848 97.3934 13.256C96.8014 12.664 96.5054 11.912 96.5054 11C96.5054 10.096 96.7974 9.348 97.3814 8.756C97.9654 8.156 98.7174 7.856 99.6374 7.856ZM99.6374 8.624C99.0134 8.624 98.4894 8.808 98.0654 9.176C97.6494 9.544 97.4014 10.028 97.3214 10.628H101.797C101.709 9.988 101.465 9.496 101.065 9.152C100.649 8.8 100.173 8.624 99.6374 8.624ZM106.681 7.856C107.401 7.856 107.973 8.08 108.397 8.528C108.821 8.968 109.033 9.564 109.033 10.316V14H108.241V10.316C108.241 9.78 108.097 9.364 107.809 9.068C107.529 8.772 107.129 8.624 106.609 8.624C106.009 8.624 105.533 8.812 105.181 9.188C104.837 9.564 104.665 10.12 104.665 10.856V14H103.873V8H104.665V8.936C105.113 8.216 105.785 7.856 106.681 7.856ZM112.197 10.88L115.413 14H114.357L111.357 11.108V14H110.565V5.6H111.357V10.652L114.213 8H115.293L112.197 10.88ZM120.925 13.244C120.309 13.844 119.565 14.144 118.693 14.144C117.805 14.144 117.057 13.844 116.449 13.244C115.841 12.636 115.537 11.888 115.537 11C115.537 10.112 115.841 9.368 116.449 8.768C117.057 8.16 117.805 7.856 118.693 7.856C119.573 7.856 120.317 8.16 120.925 8.768C121.541 9.368 121.849 10.112 121.849 11C121.849 11.88 121.541 12.628 120.925 13.244ZM117.013 12.692C117.469 13.148 118.029 13.376 118.693 13.376C119.357 13.376 119.917 13.148 120.373 12.692C120.829 12.22 121.057 11.656 121.057 11C121.057 10.336 120.829 9.776 120.373 9.32C119.917 8.856 119.357 8.624 118.693 8.624C118.029 8.624 117.469 8.856 117.013 9.32C116.557 9.776 116.329 10.336 116.329 11C116.329 11.656 116.557 12.22 117.013 12.692ZM127.25 15.692H121.97V14.924H127.25V15.692Z" fill="#272727"></path> <defs> <filter id="filter0_i_97_141" x="0" y="0" width="131" height="28" filterUnits="userSpaceOnUse" color-interpolation-filters="sRGB"> <feFlood flood-opacity="0" result="BackgroundImageFix"></feFlood> <feBlend mode="normal" in="SourceGraphic" in2="BackgroundImageFix" result="shape"></feBlend> <feColorMatrix in="SourceAlpha" type="matrix" values="0 0 0 0 0 0 0 0 0 0 0 0 0 0 0 0 0 0 127 0" result="hardAlpha"></feColorMatrix> <feOffset dy="6"></feOffset> <feGaussianBlur stdDeviation="15"></feGaussianBlur> <feComposite in2="hardAlpha" operator="arithmetic" k2="-1" k3="1"></feComposite> <feColorMatrix type="matrix" values="0 0 0 0 1 0 0 0 0 1 0 0 0 0 1 0 0 0 0.35 0"></feColorMatrix> <feBlend mode="normal" in2="shape" result="effect1_innerShadow_97_141"></feBlend> </filter> </defs> </svg> 