<?xml version="1.0" encoding="UTF-8"?> <svg xmlns="http://www.w3.org/2000/svg" width="113" height="22" viewBox="0 0 113 22" fill="none"> <g filter="url(#filter0_i_97_7)"> <rect width="113" height="22" rx="10" fill="white"></rect> </g> <rect x="0.15" y="0.15" width="112.7" height="21.7" rx="9.85" stroke="white" stroke-width="0.3"></rect> <path d="M17.9984 6.656C18.8464 6.656 19.5984 6.864 20.2544 7.28C20.8944 7.68 21.3784 8.188 21.7064 8.804C22.0344 9.412 22.1984 10.064 22.1984 10.76C22.1984 11.616 22.0264 12.252 21.6824 12.668C21.3304 13.092 20.9264 13.304 20.4704 13.304C20.1264 13.304 19.8344 13.216 19.5944 13.04C19.3624 12.864 19.2064 12.608 19.1264 12.272C18.7744 12.704 18.3304 12.92 17.7944 12.92C17.2344 12.92 16.7704 12.736 16.4024 12.368C16.0344 12 15.8504 11.544 15.8504 11C15.8504 10.456 16.0344 10 16.4024 9.632C16.7704 9.264 17.2344 9.08 17.7944 9.08C18.3064 9.08 18.7304 9.272 19.0664 9.656V9.164H19.8104V11.756C19.8104 12.524 20.0704 12.908 20.5904 12.908C20.9664 12.908 21.2664 12.728 21.4904 12.368C21.7224 12.008 21.8384 11.472 21.8384 10.76C21.8384 9.688 21.4664 8.792 20.7224 8.072C19.9944 7.352 19.0864 6.992 17.9984 6.992C16.8784 6.992 15.9304 7.376 15.1544 8.144C14.3784 8.912 13.9904 9.864 13.9904 11C13.9904 12.168 14.3904 13.128 15.1904 13.88C15.9904 14.632 16.9984 15.008 18.2144 15.008C19.0064 15.008 19.7024 14.892 20.3024 14.66V15.02C19.7024 15.236 19.0064 15.344 18.2144 15.344C16.9024 15.344 15.8104 14.932 14.9384 14.108C14.0664 13.292 13.6304 12.256 13.6304 11C13.6304 9.8 14.0464 8.776 14.8784 7.928C15.7184 7.08 16.7584 6.656 17.9984 6.656ZM16.9544 11.876C17.2104 12.092 17.5064 12.2 17.8424 12.2C18.1864 12.2 18.4744 12.092 18.7064 11.876C18.9464 11.652 19.0664 11.36 19.0664 11C19.0664 10.64 18.9464 10.352 18.7064 10.136C18.4824 9.912 18.1944 9.8 17.8424 9.8C17.4984 9.8 17.2024 9.912 16.9544 10.136C16.7144 10.352 16.5944 10.64 16.5944 11C16.5944 11.352 16.7144 11.644 16.9544 11.876ZM29.9137 7.856C30.5937 7.856 31.1377 8.072 31.5457 8.504C31.9537 8.936 32.1577 9.52 32.1577 10.256V14H31.3657V10.256C31.3657 9.744 31.2337 9.344 30.9697 9.056C30.7057 8.768 30.3497 8.624 29.9017 8.624C29.3817 8.624 28.9737 8.796 28.6777 9.14C28.3817 9.484 28.2337 9.996 28.2337 10.676V14H27.4417V10.256C27.4417 9.736 27.3177 9.336 27.0697 9.056C26.8217 8.768 26.4777 8.624 26.0377 8.624C25.5337 8.624 25.1177 8.8 24.7897 9.152C24.4697 9.504 24.3097 10.012 24.3097 10.676V14H23.5177V8H24.3097V8.876C24.7417 8.196 25.3537 7.856 26.1457 7.856C27.0177 7.856 27.6257 8.22 27.9697 8.948C28.4017 8.22 29.0497 7.856 29.9137 7.856ZM34.6616 6.152C34.6616 6.312 34.6056 6.448 34.4936 6.56C34.3816 6.672 34.2456 6.728 34.0856 6.728C33.9256 6.728 33.7896 6.672 33.6776 6.56C33.5656 6.448 33.5096 6.312 33.5096 6.152C33.5096 5.992 33.5656 5.856 33.6776 5.744C33.7896 5.632 33.9256 5.576 34.0856 5.576C34.2456 5.576 34.3816 5.632 34.4936 5.744C34.6056 5.856 34.6616 5.992 34.6616 6.152ZM34.4816 14H33.6896V8H34.4816V14ZM36.7863 9.572C36.7863 10.036 37.1983 10.376 38.0223 10.592C38.2543 10.648 38.4063 10.688 38.4783 10.712C38.5503 10.728 38.6903 10.772 38.8983 10.844C39.1143 10.908 39.2623 10.964 39.3423 11.012C39.4303 11.06 39.5503 11.136 39.7023 11.24C39.8543 11.336 39.9623 11.436 40.0263 11.54C40.0903 11.636 40.1503 11.764 40.2063 11.924C40.2623 12.076 40.2903 12.24 40.2903 12.416C40.2903 12.928 40.0863 13.344 39.6783 13.664C39.2863 13.984 38.7663 14.144 38.1183 14.144C37.5583 14.144 37.0743 14.02 36.6663 13.772C36.2583 13.516 35.9703 13.18 35.8023 12.764L36.4743 12.368C36.5863 12.68 36.7863 12.928 37.0743 13.112C37.3703 13.288 37.7183 13.376 38.1183 13.376C38.5263 13.376 38.8583 13.296 39.1143 13.136C39.3703 12.976 39.4983 12.736 39.4983 12.416C39.4983 11.952 39.0863 11.612 38.2623 11.396C38.0303 11.34 37.8783 11.304 37.8063 11.288C37.7343 11.264 37.5903 11.22 37.3743 11.156C37.1663 11.084 37.0183 11.024 36.9303 10.976C36.8503 10.928 36.7343 10.856 36.5823 10.76C36.4303 10.656 36.3223 10.556 36.2583 10.46C36.1943 10.356 36.1343 10.228 36.0783 10.076C36.0223 9.916 35.9943 9.748 35.9943 9.572C35.9943 9.084 36.1863 8.676 36.5703 8.348C36.9703 8.02 37.4623 7.856 38.0463 7.856C38.5263 7.856 38.9503 7.964 39.3183 8.18C39.6943 8.396 39.9703 8.696 40.1463 9.08L39.4863 9.464C39.2623 8.904 38.7823 8.624 38.0463 8.624C37.6863 8.624 37.3863 8.708 37.1463 8.876C36.9063 9.044 36.7863 9.276 36.7863 9.572ZM41.8722 9.572C41.8722 10.036 42.2842 10.376 43.1082 10.592C43.3402 10.648 43.4922 10.688 43.5642 10.712C43.6362 10.728 43.7762 10.772 43.9842 10.844C44.2002 10.908 44.3482 10.964 44.4282 11.012C44.5162 11.06 44.6362 11.136 44.7882 11.24C44.9402 11.336 45.0482 11.436 45.1122 11.54C45.1762 11.636 45.2362 11.764 45.2922 11.924C45.3482 12.076 45.3762 12.24 45.3762 12.416C45.3762 12.928 45.1722 13.344 44.7642 13.664C44.3722 13.984 43.8522 14.144 43.2042 14.144C42.6442 14.144 42.1602 14.02 41.7522 13.772C41.3442 13.516 41.0562 13.18 40.8882 12.764L41.5602 12.368C41.6722 12.68 41.8722 12.928 42.1602 13.112C42.4562 13.288 42.8042 13.376 43.2042 13.376C43.6122 13.376 43.9442 13.296 44.2002 13.136C44.4562 12.976 44.5842 12.736 44.5842 12.416C44.5842 11.952 44.1722 11.612 43.3482 11.396C43.1162 11.34 42.9642 11.304 42.8922 11.288C42.8202 11.264 42.6762 11.22 42.4602 11.156C42.2522 11.084 42.1042 11.024 42.0162 10.976C41.9362 10.928 41.8202 10.856 41.6682 10.76C41.5162 10.656 41.4082 10.556 41.3442 10.46C41.2802 10.356 41.2202 10.228 41.1642 10.076C41.1082 9.916 41.0802 9.748 41.0802 9.572C41.0802 9.084 41.2722 8.676 41.6562 8.348C42.0562 8.02 42.5482 7.856 43.1322 7.856C43.6122 7.856 44.0362 7.964 44.4042 8.18C44.7802 8.396 45.0562 8.696 45.2322 9.08L44.5722 9.464C44.3482 8.904 43.8682 8.624 43.1322 8.624C42.7722 8.624 42.4722 8.708 42.2322 8.876C41.9922 9.044 41.8722 9.276 41.8722 9.572ZM49.9134 7.856C50.7694 7.856 51.4974 8.16 52.0974 8.768C52.7054 9.376 53.0094 10.12 53.0094 11C53.0094 11.88 52.7054 12.624 52.0974 13.232C51.4974 13.84 50.7694 14.144 49.9134 14.144C48.8494 14.144 48.0414 13.704 47.4894 12.824V16.4H46.6974V8H47.4894V9.176C48.0414 8.296 48.8494 7.856 49.9134 7.856ZM48.1734 12.692C48.6294 13.148 49.1894 13.376 49.8534 13.376C50.5174 13.376 51.0774 13.148 51.5334 12.692C51.9894 12.22 52.2174 11.656 52.2174 11C52.2174 10.336 51.9894 9.776 51.5334 9.32C51.0774 8.856 50.5174 8.624 49.8534 8.624C49.1894 8.624 48.6294 8.856 48.1734 9.32C47.7174 9.776 47.4894 10.336 47.4894 11C47.4894 11.656 47.7174 12.22 48.1734 12.692ZM55.1183 14H54.3263V5.24H55.1183V14ZM59.571 7.856C60.467 7.856 61.183 8.172 61.719 8.804C62.271 9.428 62.547 10.168 62.547 11.024C62.547 11.064 62.539 11.188 62.523 11.396H57.255C57.335 11.996 57.591 12.476 58.023 12.836C58.455 13.196 58.995 13.376 59.643 13.376C60.555 13.376 61.199 13.036 61.575 12.356L62.271 12.764C62.007 13.196 61.643 13.536 61.179 13.784C60.723 14.024 60.207 14.144 59.631 14.144C58.687 14.144 57.919 13.848 57.327 13.256C56.735 12.664 56.439 11.912 56.439 11C56.439 10.096 56.731 9.348 57.315 8.756C57.899 8.156 58.651 7.856 59.571 7.856ZM59.571 8.624C58.947 8.624 58.423 8.808 57.999 9.176C57.583 9.544 57.335 10.028 57.255 10.628H61.731C61.643 9.988 61.399 9.496 60.999 9.152C60.583 8.8 60.107 8.624 59.571 8.624ZM68.9668 9.176V8H69.7588V14H68.9668V12.824C68.4148 13.704 67.6068 14.144 66.5428 14.144C65.6868 14.144 64.9548 13.84 64.3468 13.232C63.7468 12.624 63.4468 11.88 63.4468 11C63.4468 10.12 63.7468 9.376 64.3468 8.768C64.9548 8.16 65.6868 7.856 66.5428 7.856C67.6068 7.856 68.4148 8.296 68.9668 9.176ZM64.9228 12.692C65.3788 13.148 65.9388 13.376 66.6028 13.376C67.2668 13.376 67.8268 13.148 68.2828 12.692C68.7388 12.22 68.9668 11.656 68.9668 11C68.9668 10.336 68.7388 9.776 68.2828 9.32C67.8268 8.856 67.2668 8.624 66.6028 8.624C65.9388 8.624 65.3788 8.856 64.9228 9.32C64.4668 9.776 64.2388 10.336 64.2388 11C64.2388 11.656 64.4668 12.22 64.9228 12.692ZM72.0597 9.572C72.0597 10.036 72.4717 10.376 73.2957 10.592C73.5277 10.648 73.6797 10.688 73.7517 10.712C73.8237 10.728 73.9637 10.772 74.1717 10.844C74.3877 10.908 74.5357 10.964 74.6157 11.012C74.7037 11.06 74.8237 11.136 74.9757 11.24C75.1277 11.336 75.2357 11.436 75.2997 11.54C75.3637 11.636 75.4237 11.764 75.4797 11.924C75.5357 12.076 75.5637 12.24 75.5637 12.416C75.5637 12.928 75.3597 13.344 74.9517 13.664C74.5597 13.984 74.0397 14.144 73.3917 14.144C72.8317 14.144 72.3477 14.02 71.9397 13.772C71.5317 13.516 71.2437 13.18 71.0757 12.764L71.7477 12.368C71.8597 12.68 72.0597 12.928 72.3477 13.112C72.6437 13.288 72.9917 13.376 73.3917 13.376C73.7997 13.376 74.1317 13.296 74.3877 13.136C74.6437 12.976 74.7717 12.736 74.7717 12.416C74.7717 11.952 74.3597 11.612 73.5357 11.396C73.3037 11.34 73.1517 11.304 73.0797 11.288C73.0077 11.264 72.8637 11.22 72.6477 11.156C72.4397 11.084 72.2917 11.024 72.2037 10.976C72.1237 10.928 72.0077 10.856 71.8557 10.76C71.7037 10.656 71.5957 10.556 71.5317 10.46C71.4677 10.356 71.4077 10.228 71.3517 10.076C71.2957 9.916 71.2677 9.748 71.2677 9.572C71.2677 9.084 71.4597 8.676 71.8437 8.348C72.2437 8.02 72.7357 7.856 73.3197 7.856C73.7997 7.856 74.2237 7.964 74.5917 8.18C74.9677 8.396 75.2437 8.696 75.4197 9.08L74.7597 9.464C74.5357 8.904 74.0557 8.624 73.3197 8.624C72.9597 8.624 72.6597 8.708 72.4197 8.876C72.1797 9.044 72.0597 9.276 72.0597 9.572ZM81.0503 11.144V8H81.8423V14H81.0503V13.064C80.6023 13.784 79.9303 14.144 79.0343 14.144C78.3143 14.144 77.7423 13.924 77.3183 13.484C76.8943 13.036 76.6823 12.436 76.6823 11.684V8H77.4743V11.684C77.4743 12.22 77.6143 12.636 77.8943 12.932C78.1823 13.228 78.5863 13.376 79.1063 13.376C79.7063 13.376 80.1783 13.188 80.5223 12.812C80.8743 12.436 81.0503 11.88 81.0503 11.144ZM84.3097 8V8.996C84.6777 8.268 85.3097 7.904 86.2057 7.904V8.672C85.6297 8.672 85.1697 8.84 84.8257 9.176C84.4817 9.504 84.3097 10 84.3097 10.664V14H83.5177V8H84.3097ZM89.6999 7.856C90.5959 7.856 91.3119 8.172 91.8479 8.804C92.3999 9.428 92.6759 10.168 92.6759 11.024C92.6759 11.064 92.6679 11.188 92.6519 11.396H87.3839C87.4639 11.996 87.7199 12.476 88.1519 12.836C88.5839 13.196 89.1239 13.376 89.7719 13.376C90.6839 13.376 91.3279 13.036 91.7039 12.356L92.3999 12.764C92.1359 13.196 91.7719 13.536 91.3079 13.784C90.8519 14.024 90.3359 14.144 89.7599 14.144C88.8159 14.144 88.0479 13.848 87.4559 13.256C86.8639 12.664 86.5679 11.912 86.5679 11C86.5679 10.096 86.8599 9.348 87.4439 8.756C88.0279 8.156 88.7799 7.856 89.6999 7.856ZM89.6999 8.624C89.0759 8.624 88.5519 8.808 88.1279 9.176C87.7119 9.544 87.4639 10.028 87.3839 10.628H91.8599C91.7719 9.988 91.5279 9.496 91.1279 9.152C90.7119 8.8 90.2359 8.624 89.6999 8.624ZM98.3752 15.692H93.0952V14.924H98.3752V15.692Z" fill="#272727"></path> <defs> <filter id="filter0_i_97_7" x="0" y="0" width="113" height="28" filterUnits="userSpaceOnUse" color-interpolation-filters="sRGB"> <feFlood flood-opacity="0" result="BackgroundImageFix"></feFlood> <feBlend mode="normal" in="SourceGraphic" in2="BackgroundImageFix" result="shape"></feBlend> <feColorMatrix in="SourceAlpha" type="matrix" values="0 0 0 0 0 0 0 0 0 0 0 0 0 0 0 0 0 0 127 0" result="hardAlpha"></feColorMatrix> <feOffset dy="6"></feOffset> <feGaussianBlur stdDeviation="15"></feGaussianBlur> <feComposite in2="hardAlpha" operator="arithmetic" k2="-1" k3="1"></feComposite> <feColorMatrix type="matrix" values="0 0 0 0 1 0 0 0 0 1 0 0 0 0 1 0 0 0 0.35 0"></feColorMatrix> <feBlend mode="normal" in2="shape" result="effect1_innerShadow_97_7"></feBlend> </filter> </defs> </svg> 