<?xml version="1.0" encoding="UTF-8"?> <svg xmlns="http://www.w3.org/2000/svg" width="113" height="22" viewBox="0 0 113 22" fill="none"> <g filter="url(#filter0_i_97_343)"> <rect width="113" height="22" rx="10" fill="white"></rect> </g> <rect x="0.15" y="0.15" width="112.7" height="21.7" rx="9.85" stroke="white" stroke-width="0.3"></rect> <path d="M23.9652 6.656C24.8132 6.656 25.5652 6.864 26.2212 7.28C26.8612 7.68 27.3452 8.188 27.6732 8.804C28.0012 9.412 28.1652 10.064 28.1652 10.76C28.1652 11.616 27.9932 12.252 27.6492 12.668C27.2972 13.092 26.8932 13.304 26.4372 13.304C26.0932 13.304 25.8012 13.216 25.5612 13.04C25.3292 12.864 25.1732 12.608 25.0932 12.272C24.7412 12.704 24.2972 12.92 23.7612 12.92C23.2012 12.92 22.7372 12.736 22.3692 12.368C22.0012 12 21.8172 11.544 21.8172 11C21.8172 10.456 22.0012 10 22.3692 9.632C22.7372 9.264 23.2012 9.08 23.7612 9.08C24.2732 9.08 24.6972 9.272 25.0332 9.656V9.164H25.7772V11.756C25.7772 12.524 26.0372 12.908 26.5572 12.908C26.9332 12.908 27.2332 12.728 27.4572 12.368C27.6892 12.008 27.8052 11.472 27.8052 10.76C27.8052 9.688 27.4332 8.792 26.6892 8.072C25.9612 7.352 25.0532 6.992 23.9652 6.992C22.8452 6.992 21.8972 7.376 21.1212 8.144C20.3452 8.912 19.9572 9.864 19.9572 11C19.9572 12.168 20.3572 13.128 21.1572 13.88C21.9572 14.632 22.9652 15.008 24.1812 15.008C24.9732 15.008 25.6692 14.892 26.2692 14.66V15.02C25.6692 15.236 24.9732 15.344 24.1812 15.344C22.8692 15.344 21.7772 14.932 20.9052 14.108C20.0332 13.292 19.5972 12.256 19.5972 11C19.5972 9.8 20.0132 8.776 20.8452 7.928C21.6852 7.08 22.7252 6.656 23.9652 6.656ZM22.9212 11.876C23.1772 12.092 23.4732 12.2 23.8092 12.2C24.1532 12.2 24.4412 12.092 24.6732 11.876C24.9132 11.652 25.0332 11.36 25.0332 11C25.0332 10.64 24.9132 10.352 24.6732 10.136C24.4492 9.912 24.1612 9.8 23.8092 9.8C23.4652 9.8 23.1692 9.912 22.9212 10.136C22.6812 10.352 22.5612 10.64 22.5612 11C22.5612 11.352 22.6812 11.644 22.9212 11.876ZM34.3445 5.6V6.392H30.4445V9.488H34.1645V10.28H30.4445V14H29.6045V5.6H34.3445ZM36.4523 8V8.996C36.8203 8.268 37.4523 7.904 38.3483 7.904V8.672C37.7723 8.672 37.3123 8.84 36.9683 9.176C36.6243 9.504 36.4523 10 36.4523 10.664V14H35.6603V8H36.4523ZM44.2305 9.176V8H45.0225V14H44.2305V12.824C43.6785 13.704 42.8705 14.144 41.8065 14.144C40.9505 14.144 40.2185 13.84 39.6105 13.232C39.0105 12.624 38.7105 11.88 38.7105 11C38.7105 10.12 39.0105 9.376 39.6105 8.768C40.2185 8.16 40.9505 7.856 41.8065 7.856C42.8705 7.856 43.6785 8.296 44.2305 9.176ZM40.1865 12.692C40.6425 13.148 41.2025 13.376 41.8665 13.376C42.5305 13.376 43.0905 13.148 43.5465 12.692C44.0025 12.22 44.2305 11.656 44.2305 11C44.2305 10.336 44.0025 9.776 43.5465 9.32C43.0905 8.856 42.5305 8.624 41.8665 8.624C41.2025 8.624 40.6425 8.856 40.1865 9.32C39.7305 9.776 39.5025 10.336 39.5025 11C39.5025 11.656 39.7305 12.22 40.1865 12.692ZM50.9234 11.144V8H51.7154V14H50.9234V13.064C50.4754 13.784 49.8034 14.144 48.9074 14.144C48.1874 14.144 47.6154 13.924 47.1914 13.484C46.7674 13.036 46.5554 12.436 46.5554 11.684V8H47.3474V11.684C47.3474 12.22 47.4874 12.636 47.7674 12.932C48.0554 13.228 48.4594 13.376 48.9794 13.376C49.5794 13.376 50.0514 13.188 50.3954 12.812C50.7474 12.436 50.9234 11.88 50.9234 11.144ZM58.3108 15.692H53.0308V14.924H58.3108V15.692ZM62.724 7.856C63.58 7.856 64.308 8.16 64.908 8.768C65.516 9.376 65.82 10.12 65.82 11C65.82 11.88 65.516 12.624 64.908 13.232C64.308 13.84 63.58 14.144 62.724 14.144C61.66 14.144 60.852 13.704 60.3 12.824V14H59.508V5.6H60.3V9.176C60.852 8.296 61.66 7.856 62.724 7.856ZM60.984 12.692C61.44 13.148 62 13.376 62.664 13.376C63.328 13.376 63.888 13.148 64.344 12.692C64.8 12.22 65.028 11.656 65.028 11C65.028 10.336 64.8 9.776 64.344 9.32C63.888 8.856 63.328 8.624 62.664 8.624C62 8.624 61.44 8.856 60.984 9.32C60.528 9.776 60.3 10.336 60.3 11C60.3 11.656 60.528 12.22 60.984 12.692ZM72.2969 9.176V8H73.0889V14H72.2969V12.824C71.7449 13.704 70.9369 14.144 69.8729 14.144C69.0169 14.144 68.2849 13.84 67.6769 13.232C67.0769 12.624 66.7769 11.88 66.7769 11C66.7769 10.12 67.0769 9.376 67.6769 8.768C68.2849 8.16 69.0169 7.856 69.8729 7.856C70.9369 7.856 71.7449 8.296 72.2969 9.176ZM68.2529 12.692C68.7089 13.148 69.2689 13.376 69.9329 13.376C70.5969 13.376 71.1569 13.148 71.6129 12.692C72.0689 12.22 72.2969 11.656 72.2969 11C72.2969 10.336 72.0689 9.776 71.6129 9.32C71.1569 8.856 70.5969 8.624 69.9329 8.624C69.2689 8.624 68.7089 8.856 68.2529 9.32C67.7969 9.776 67.5689 10.336 67.5689 11C67.5689 11.656 67.7969 12.22 68.2529 12.692ZM79.9258 9.176V5.6H80.7178V14H79.9258V12.824C79.3738 13.704 78.5658 14.144 77.5018 14.144C76.6458 14.144 75.9138 13.84 75.3058 13.232C74.7058 12.624 74.4058 11.88 74.4058 11C74.4058 10.12 74.7058 9.376 75.3058 8.768C75.9138 8.16 76.6458 7.856 77.5018 7.856C78.5658 7.856 79.3738 8.296 79.9258 9.176ZM75.8818 12.692C76.3378 13.148 76.8978 13.376 77.5618 13.376C78.2258 13.376 78.7858 13.148 79.2418 12.692C79.6978 12.22 79.9258 11.656 79.9258 11C79.9258 10.336 79.6978 9.776 79.2418 9.32C78.7858 8.856 78.2258 8.624 77.5618 8.624C76.8978 8.624 76.3378 8.856 75.8818 9.32C75.4258 9.776 75.1978 10.336 75.1978 11C75.1978 11.656 75.4258 12.22 75.8818 12.692ZM86.5947 8.528L83.2587 13.232H86.7147V14H82.1547V13.472L85.4907 8.768H82.2747V8H86.5947V8.528ZM90.8394 7.856C91.5594 7.856 92.1314 8.08 92.5554 8.528C92.9794 8.968 93.1914 9.564 93.1914 10.316V14H92.3994V10.316C92.3994 9.78 92.2554 9.364 91.9674 9.068C91.6874 8.772 91.2874 8.624 90.7674 8.624C90.1674 8.624 89.6914 8.812 89.3394 9.188C88.9954 9.564 88.8234 10.12 88.8234 10.856V14H88.0314V5.6H88.8234V8.936C89.2714 8.216 89.9434 7.856 90.8394 7.856Z" fill="#272727"></path> <defs> <filter id="filter0_i_97_343" x="0" y="0" width="113" height="28" filterUnits="userSpaceOnUse" color-interpolation-filters="sRGB"> <feFlood flood-opacity="0" result="BackgroundImageFix"></feFlood> <feBlend mode="normal" in="SourceGraphic" in2="BackgroundImageFix" result="shape"></feBlend> <feColorMatrix in="SourceAlpha" type="matrix" values="0 0 0 0 0 0 0 0 0 0 0 0 0 0 0 0 0 0 127 0" result="hardAlpha"></feColorMatrix> <feOffset dy="6"></feOffset> <feGaussianBlur stdDeviation="15"></feGaussianBlur> <feComposite in2="hardAlpha" operator="arithmetic" k2="-1" k3="1"></feComposite> <feColorMatrix type="matrix" values="0 0 0 0 1 0 0 0 0 1 0 0 0 0 1 0 0 0 0.35 0"></feColorMatrix> <feBlend mode="normal" in2="shape" result="effect1_innerShadow_97_343"></feBlend> </filter> </defs> </svg> 