<?xml version="1.0" encoding="UTF-8"?> <svg xmlns="http://www.w3.org/2000/svg" width="113" height="22" viewBox="0 0 113 22" fill="none"> <g filter="url(#filter0_i_94_525)"> <rect width="113" height="22" rx="10" fill="white"></rect> </g> <rect x="0.15" y="0.15" width="112.7" height="21.7" rx="9.85" stroke="white" stroke-width="0.3"></rect> <path d="M17.9828 6.656C18.8308 6.656 19.5828 6.864 20.2388 7.28C20.8788 7.68 21.3628 8.188 21.6908 8.804C22.0188 9.412 22.1828 10.064 22.1828 10.76C22.1828 11.616 22.0108 12.252 21.6668 12.668C21.3148 13.092 20.9108 13.304 20.4548 13.304C20.1108 13.304 19.8188 13.216 19.5788 13.04C19.3468 12.864 19.1908 12.608 19.1108 12.272C18.7588 12.704 18.3148 12.92 17.7788 12.92C17.2188 12.92 16.7548 12.736 16.3868 12.368C16.0188 12 15.8348 11.544 15.8348 11C15.8348 10.456 16.0188 10 16.3868 9.632C16.7548 9.264 17.2188 9.08 17.7788 9.08C18.2908 9.08 18.7148 9.272 19.0508 9.656V9.164H19.7948V11.756C19.7948 12.524 20.0548 12.908 20.5748 12.908C20.9508 12.908 21.2508 12.728 21.4748 12.368C21.7068 12.008 21.8228 11.472 21.8228 10.76C21.8228 9.688 21.4508 8.792 20.7068 8.072C19.9788 7.352 19.0708 6.992 17.9828 6.992C16.8628 6.992 15.9148 7.376 15.1388 8.144C14.3628 8.912 13.9748 9.864 13.9748 11C13.9748 12.168 14.3748 13.128 15.1748 13.88C15.9748 14.632 16.9828 15.008 18.1988 15.008C18.9908 15.008 19.6868 14.892 20.2868 14.66V15.02C19.6868 15.236 18.9908 15.344 18.1988 15.344C16.8868 15.344 15.7948 14.932 14.9228 14.108C14.0508 13.292 13.6148 12.256 13.6148 11C13.6148 9.8 14.0308 8.776 14.8628 7.928C15.7028 7.08 16.7428 6.656 17.9828 6.656ZM16.9388 11.876C17.1948 12.092 17.4908 12.2 17.8268 12.2C18.1708 12.2 18.4588 12.092 18.6908 11.876C18.9308 11.652 19.0508 11.36 19.0508 11C19.0508 10.64 18.9308 10.352 18.6908 10.136C18.4668 9.912 18.1788 9.8 17.8268 9.8C17.4828 9.8 17.1868 9.912 16.9388 10.136C16.6988 10.352 16.5788 10.64 16.5788 11C16.5788 11.352 16.6988 11.644 16.9388 11.876ZM24.1261 9.572C24.1261 10.036 24.5381 10.376 25.3621 10.592C25.5941 10.648 25.7461 10.688 25.8181 10.712C25.8901 10.728 26.0301 10.772 26.2381 10.844C26.4541 10.908 26.6021 10.964 26.6821 11.012C26.7701 11.06 26.8901 11.136 27.0421 11.24C27.1941 11.336 27.3021 11.436 27.3661 11.54C27.4301 11.636 27.4901 11.764 27.5461 11.924C27.6021 12.076 27.6301 12.24 27.6301 12.416C27.6301 12.928 27.4261 13.344 27.0181 13.664C26.6261 13.984 26.1061 14.144 25.4581 14.144C24.8981 14.144 24.4141 14.02 24.0061 13.772C23.5981 13.516 23.3101 13.18 23.1421 12.764L23.8141 12.368C23.9261 12.68 24.1261 12.928 24.4141 13.112C24.7101 13.288 25.0581 13.376 25.4581 13.376C25.8661 13.376 26.1981 13.296 26.4541 13.136C26.7101 12.976 26.8381 12.736 26.8381 12.416C26.8381 11.952 26.4261 11.612 25.6021 11.396C25.3701 11.34 25.2181 11.304 25.1461 11.288C25.0741 11.264 24.9301 11.22 24.7141 11.156C24.5061 11.084 24.3581 11.024 24.2701 10.976C24.1901 10.928 24.0741 10.856 23.9221 10.76C23.7701 10.656 23.6621 10.556 23.5981 10.46C23.5341 10.356 23.4741 10.228 23.4181 10.076C23.3621 9.916 23.3341 9.748 23.3341 9.572C23.3341 9.084 23.5261 8.676 23.9101 8.348C24.3101 8.02 24.8021 7.856 25.3861 7.856C25.8661 7.856 26.2901 7.964 26.6581 8.18C27.0341 8.396 27.3101 8.696 27.4861 9.08L26.8261 9.464C26.6021 8.904 26.1221 8.624 25.3861 8.624C25.0261 8.624 24.7261 8.708 24.4861 8.876C24.2461 9.044 24.1261 9.276 24.1261 9.572ZM31.7007 7.856C32.4207 7.856 32.9927 8.08 33.4167 8.528C33.8407 8.968 34.0527 9.564 34.0527 10.316V14H33.2607V10.316C33.2607 9.78 33.1167 9.364 32.8287 9.068C32.5487 8.772 32.1487 8.624 31.6287 8.624C31.0287 8.624 30.5527 8.812 30.2007 9.188C29.8567 9.564 29.6847 10.12 29.6847 10.856V14H28.8927V5.6H29.6847V8.936C30.1327 8.216 30.8047 7.856 31.7007 7.856ZM38.3561 7.856C39.2521 7.856 39.9681 8.172 40.5041 8.804C41.0561 9.428 41.3321 10.168 41.3321 11.024C41.3321 11.064 41.3241 11.188 41.3081 11.396H36.0401C36.1201 11.996 36.3761 12.476 36.8081 12.836C37.2401 13.196 37.7801 13.376 38.4281 13.376C39.3401 13.376 39.9841 13.036 40.3601 12.356L41.0561 12.764C40.7921 13.196 40.4281 13.536 39.9641 13.784C39.5081 14.024 38.9921 14.144 38.4161 14.144C37.4721 14.144 36.7041 13.848 36.1121 13.256C35.5201 12.664 35.2241 11.912 35.2241 11C35.2241 10.096 35.5161 9.348 36.1001 8.756C36.6841 8.156 37.4361 7.856 38.3561 7.856ZM38.3561 8.624C37.7321 8.624 37.2081 8.808 36.7841 9.176C36.3681 9.544 36.1201 10.028 36.0401 10.628H40.5161C40.4281 9.988 40.1841 9.496 39.7841 9.152C39.3681 8.8 38.8921 8.624 38.3561 8.624ZM44.5776 13.172L46.6776 8H47.5176L45.0576 14H44.0976L41.6376 8H42.4776L44.5776 13.172ZM51.0364 14.144C50.1324 14.144 49.3804 13.844 48.7804 13.244C48.1804 12.628 47.8804 11.88 47.8804 11C47.8804 10.112 48.1804 9.368 48.7804 8.768C49.3804 8.16 50.1324 7.856 51.0364 7.856C51.6284 7.856 52.1604 8 52.6324 8.288C53.1044 8.568 53.4484 8.948 53.6644 9.428L53.0164 9.8C52.8564 9.44 52.5964 9.156 52.2364 8.948C51.8844 8.732 51.4844 8.624 51.0364 8.624C50.3724 8.624 49.8124 8.856 49.3564 9.32C48.9004 9.776 48.6724 10.336 48.6724 11C48.6724 11.656 48.9004 12.22 49.3564 12.692C49.8124 13.148 50.3724 13.376 51.0364 13.376C51.4764 13.376 51.8724 13.272 52.2244 13.064C52.5844 12.856 52.8644 12.568 53.0644 12.2L53.7244 12.584C53.4764 13.064 53.1124 13.444 52.6324 13.724C52.1524 14.004 51.6204 14.144 51.0364 14.144ZM57.6695 7.856C58.3895 7.856 58.9615 8.08 59.3855 8.528C59.8095 8.968 60.0215 9.564 60.0215 10.316V14H59.2295V10.316C59.2295 9.78 59.0855 9.364 58.7975 9.068C58.5175 8.772 58.1175 8.624 57.5975 8.624C56.9975 8.624 56.5215 8.812 56.1695 9.188C55.8255 9.564 55.6535 10.12 55.6535 10.856V14H54.8615V5.6H55.6535V8.936C56.1015 8.216 56.7735 7.856 57.6695 7.856ZM65.7769 11.144V8H66.5689V14H65.7769V13.064C65.3289 13.784 64.6569 14.144 63.7609 14.144C63.0409 14.144 62.4689 13.924 62.0449 13.484C61.6209 13.036 61.4089 12.436 61.4089 11.684V8H62.2009V11.684C62.2009 12.22 62.3409 12.636 62.6209 12.932C62.9089 13.228 63.3129 13.376 63.8329 13.376C64.4329 13.376 64.9049 13.188 65.2489 12.812C65.6009 12.436 65.7769 11.88 65.7769 11.144ZM69.8763 10.88L73.0923 14H72.0363L69.0363 11.108V14H68.2443V5.6H69.0363V10.652L71.8923 8H72.9723L69.8763 10.88ZM79.094 15.692H73.814V14.924H79.094V15.692ZM84.8535 9.176V8H85.6455V14H84.8535V12.824C84.3015 13.704 83.4935 14.144 82.4295 14.144C81.5735 14.144 80.8415 13.84 80.2335 13.232C79.6335 12.624 79.3335 11.88 79.3335 11C79.3335 10.12 79.6335 9.376 80.2335 8.768C80.8415 8.16 81.5735 7.856 82.4295 7.856C83.4935 7.856 84.3015 8.296 84.8535 9.176ZM80.8095 12.692C81.2655 13.148 81.8255 13.376 82.4895 13.376C83.1535 13.376 83.7135 13.148 84.1695 12.692C84.6255 12.22 84.8535 11.656 84.8535 11C84.8535 10.336 84.6255 9.776 84.1695 9.32C83.7135 8.856 83.1535 8.624 82.4895 8.624C81.8255 8.624 81.2655 8.856 80.8095 9.32C80.3535 9.776 80.1255 10.336 80.1255 11C80.1255 11.656 80.3535 12.22 80.8095 12.692ZM90.1304 7.856C90.8504 7.856 91.4224 8.08 91.8464 8.528C92.2704 8.968 92.4824 9.564 92.4824 10.316V14H91.6904V10.316C91.6904 9.78 91.5464 9.364 91.2584 9.068C90.9784 8.772 90.5784 8.624 90.0584 8.624C89.4584 8.624 88.9824 8.812 88.6304 9.188C88.2864 9.564 88.1144 10.12 88.1144 10.856V14H87.3224V8H88.1144V8.936C88.5624 8.216 89.2344 7.856 90.1304 7.856ZM96.8218 7.856C97.5418 7.856 98.1138 8.08 98.5378 8.528C98.9618 8.968 99.1738 9.564 99.1738 10.316V14H98.3818V10.316C98.3818 9.78 98.2378 9.364 97.9498 9.068C97.6698 8.772 97.2698 8.624 96.7498 8.624C96.1498 8.624 95.6738 8.812 95.3218 9.188C94.9778 9.564 94.8058 10.12 94.8058 10.856V14H94.0138V8H94.8058V8.936C95.2538 8.216 95.9258 7.856 96.8218 7.856Z" fill="#272727"></path> <defs> <filter id="filter0_i_94_525" x="0" y="0" width="113" height="28" filterUnits="userSpaceOnUse" color-interpolation-filters="sRGB"> <feFlood flood-opacity="0" result="BackgroundImageFix"></feFlood> <feBlend mode="normal" in="SourceGraphic" in2="BackgroundImageFix" result="shape"></feBlend> <feColorMatrix in="SourceAlpha" type="matrix" values="0 0 0 0 0 0 0 0 0 0 0 0 0 0 0 0 0 0 127 0" result="hardAlpha"></feColorMatrix> <feOffset dy="6"></feOffset> <feGaussianBlur stdDeviation="15"></feGaussianBlur> <feComposite in2="hardAlpha" operator="arithmetic" k2="-1" k3="1"></feComposite> <feColorMatrix type="matrix" values="0 0 0 0 1 0 0 0 0 1 0 0 0 0 1 0 0 0 0.35 0"></feColorMatrix> <feBlend mode="normal" in2="shape" result="effect1_innerShadow_94_525"></feBlend> </filter> </defs> </svg> 