<?xml version="1.0" encoding="UTF-8"?> <svg xmlns="http://www.w3.org/2000/svg" width="113" height="22" viewBox="0 0 113 22" fill="none"> <g filter="url(#filter0_i_92_368)"> <rect width="113" height="22" rx="10" fill="white"></rect> </g> <rect x="0.15" y="0.15" width="112.7" height="21.7" rx="9.85" stroke="white" stroke-width="0.3"></rect> <path d="M19.2054 6.656C20.0534 6.656 20.8054 6.864 21.4614 7.28C22.1014 7.68 22.5854 8.188 22.9134 8.804C23.2414 9.412 23.4054 10.064 23.4054 10.76C23.4054 11.616 23.2334 12.252 22.8894 12.668C22.5374 13.092 22.1334 13.304 21.6774 13.304C21.3334 13.304 21.0414 13.216 20.8014 13.04C20.5694 12.864 20.4134 12.608 20.3334 12.272C19.9814 12.704 19.5374 12.92 19.0014 12.92C18.4414 12.92 17.9774 12.736 17.6094 12.368C17.2414 12 17.0574 11.544 17.0574 11C17.0574 10.456 17.2414 10 17.6094 9.632C17.9774 9.264 18.4414 9.08 19.0014 9.08C19.5134 9.08 19.9374 9.272 20.2734 9.656V9.164H21.0174V11.756C21.0174 12.524 21.2774 12.908 21.7974 12.908C22.1734 12.908 22.4734 12.728 22.6974 12.368C22.9294 12.008 23.0454 11.472 23.0454 10.76C23.0454 9.688 22.6734 8.792 21.9294 8.072C21.2014 7.352 20.2934 6.992 19.2054 6.992C18.0854 6.992 17.1374 7.376 16.3614 8.144C15.5854 8.912 15.1974 9.864 15.1974 11C15.1974 12.168 15.5974 13.128 16.3974 13.88C17.1974 14.632 18.2054 15.008 19.4214 15.008C20.2134 15.008 20.9094 14.892 21.5094 14.66V15.02C20.9094 15.236 20.2134 15.344 19.4214 15.344C18.1094 15.344 17.0174 14.932 16.1454 14.108C15.2734 13.292 14.8374 12.256 14.8374 11C14.8374 9.8 15.2534 8.776 16.0854 7.928C16.9254 7.08 17.9654 6.656 19.2054 6.656ZM18.1614 11.876C18.4174 12.092 18.7134 12.2 19.0494 12.2C19.3934 12.2 19.6814 12.092 19.9134 11.876C20.1534 11.652 20.2734 11.36 20.2734 11C20.2734 10.64 20.1534 10.352 19.9134 10.136C19.6894 9.912 19.4014 9.8 19.0494 9.8C18.7054 9.8 18.4094 9.912 18.1614 10.136C17.9214 10.352 17.8014 10.64 17.8014 11C17.8014 11.352 17.9214 11.644 18.1614 11.876ZM27.5208 14.144C26.6168 14.144 25.8648 13.844 25.2648 13.244C24.6648 12.628 24.3648 11.88 24.3648 11C24.3648 10.112 24.6648 9.368 25.2648 8.768C25.8648 8.16 26.6168 7.856 27.5208 7.856C28.1128 7.856 28.6448 8 29.1168 8.288C29.5888 8.568 29.9328 8.948 30.1488 9.428L29.5008 9.8C29.3408 9.44 29.0808 9.156 28.7208 8.948C28.3688 8.732 27.9688 8.624 27.5208 8.624C26.8568 8.624 26.2968 8.856 25.8408 9.32C25.3848 9.776 25.1568 10.336 25.1568 11C25.1568 11.656 25.3848 12.22 25.8408 12.692C26.2968 13.148 26.8568 13.376 27.5208 13.376C27.9608 13.376 28.3568 13.272 28.7088 13.064C29.0688 12.856 29.3488 12.568 29.5488 12.2L30.2088 12.584C29.9608 13.064 29.5968 13.444 29.1168 13.724C28.6368 14.004 28.1048 14.144 27.5208 14.144ZM34.1539 7.856C34.8739 7.856 35.4459 8.08 35.8699 8.528C36.2939 8.968 36.5059 9.564 36.5059 10.316V14H35.7139V10.316C35.7139 9.78 35.5699 9.364 35.2819 9.068C35.0019 8.772 34.6019 8.624 34.0819 8.624C33.4819 8.624 33.0059 8.812 32.6539 9.188C32.3099 9.564 32.1379 10.12 32.1379 10.856V14H31.3459V5.6H32.1379V8.936C32.5859 8.216 33.2579 7.856 34.1539 7.856ZM38.8293 8V8.996C39.1973 8.268 39.8293 7.904 40.7253 7.904V8.672C40.1493 8.672 39.6893 8.84 39.3453 9.176C39.0013 9.504 38.8293 10 38.8293 10.664V14H38.0373V8H38.8293ZM42.7827 6.152C42.7827 6.312 42.7267 6.448 42.6147 6.56C42.5027 6.672 42.3667 6.728 42.2067 6.728C42.0467 6.728 41.9107 6.672 41.7987 6.56C41.6867 6.448 41.6307 6.312 41.6307 6.152C41.6307 5.992 41.6867 5.856 41.7987 5.744C41.9107 5.632 42.0467 5.576 42.2067 5.576C42.3667 5.576 42.5027 5.632 42.6147 5.744C42.7267 5.856 42.7827 5.992 42.7827 6.152ZM42.6027 14H41.8107V8H42.6027V14ZM44.9074 9.572C44.9074 10.036 45.3194 10.376 46.1434 10.592C46.3754 10.648 46.5274 10.688 46.5994 10.712C46.6714 10.728 46.8114 10.772 47.0194 10.844C47.2354 10.908 47.3834 10.964 47.4634 11.012C47.5514 11.06 47.6714 11.136 47.8234 11.24C47.9754 11.336 48.0834 11.436 48.1474 11.54C48.2114 11.636 48.2714 11.764 48.3274 11.924C48.3834 12.076 48.4114 12.24 48.4114 12.416C48.4114 12.928 48.2074 13.344 47.7994 13.664C47.4074 13.984 46.8874 14.144 46.2394 14.144C45.6794 14.144 45.1954 14.02 44.7874 13.772C44.3794 13.516 44.0914 13.18 43.9234 12.764L44.5954 12.368C44.7074 12.68 44.9074 12.928 45.1954 13.112C45.4914 13.288 45.8394 13.376 46.2394 13.376C46.6474 13.376 46.9794 13.296 47.2354 13.136C47.4914 12.976 47.6194 12.736 47.6194 12.416C47.6194 11.952 47.2074 11.612 46.3834 11.396C46.1514 11.34 45.9994 11.304 45.9274 11.288C45.8554 11.264 45.7114 11.22 45.4954 11.156C45.2874 11.084 45.1394 11.024 45.0514 10.976C44.9714 10.928 44.8554 10.856 44.7034 10.76C44.5514 10.656 44.4434 10.556 44.3794 10.46C44.3154 10.356 44.2554 10.228 44.1994 10.076C44.1434 9.916 44.1154 9.748 44.1154 9.572C44.1154 9.084 44.3074 8.676 44.6914 8.348C45.0914 8.02 45.5834 7.856 46.1674 7.856C46.6474 7.856 47.0714 7.964 47.4394 8.18C47.8154 8.396 48.0914 8.696 48.2674 9.08L47.6074 9.464C47.3834 8.904 46.9034 8.624 46.1674 8.624C45.8074 8.624 45.5074 8.708 45.2674 8.876C45.0274 9.044 44.9074 9.276 44.9074 9.572ZM52.6782 8V8.768H50.9502V12.404C50.9502 12.732 51.0142 12.968 51.1422 13.112C51.2702 13.248 51.4622 13.32 51.7182 13.328C51.9742 13.328 52.2942 13.32 52.6782 13.304V14C51.8222 14.128 51.1862 14.068 50.7702 13.82C50.3622 13.564 50.1582 13.092 50.1582 12.404V8.768H48.8982V8H50.1582V6.56L50.9502 6.32V8H52.6782ZM56.4069 7.856C57.3029 7.856 58.0189 8.172 58.5549 8.804C59.1069 9.428 59.3829 10.168 59.3829 11.024C59.3829 11.064 59.3749 11.188 59.3589 11.396H54.0909C54.1709 11.996 54.4269 12.476 54.8589 12.836C55.2909 13.196 55.8309 13.376 56.4789 13.376C57.3909 13.376 58.0349 13.036 58.4109 12.356L59.1069 12.764C58.8429 13.196 58.4789 13.536 58.0149 13.784C57.5589 14.024 57.0429 14.144 56.4669 14.144C55.5229 14.144 54.7549 13.848 54.1629 13.256C53.5709 12.664 53.2749 11.912 53.2749 11C53.2749 10.096 53.5669 9.348 54.1509 8.756C54.7349 8.156 55.4869 7.856 56.4069 7.856ZM56.4069 8.624C55.7829 8.624 55.2589 8.808 54.8349 9.176C54.4189 9.544 54.1709 10.028 54.0909 10.628H58.5669C58.4789 9.988 58.2349 9.496 57.8349 9.152C57.4189 8.8 56.9429 8.624 56.4069 8.624ZM63.4507 7.856C64.1707 7.856 64.7427 8.08 65.1667 8.528C65.5907 8.968 65.8027 9.564 65.8027 10.316V14H65.0107V10.316C65.0107 9.78 64.8667 9.364 64.5787 9.068C64.2987 8.772 63.8987 8.624 63.3787 8.624C62.7787 8.624 62.3027 8.812 61.9507 9.188C61.6067 9.564 61.4347 10.12 61.4347 10.856V14H60.6427V8H61.4347V8.936C61.8827 8.216 62.5547 7.856 63.4507 7.856ZM72.2541 15.692H66.9741V14.924H72.2541V15.692ZM76.6673 7.856C77.5233 7.856 78.2513 8.16 78.8513 8.768C79.4593 9.376 79.7633 10.12 79.7633 11C79.7633 11.88 79.4593 12.624 78.8513 13.232C78.2513 13.84 77.5233 14.144 76.6673 14.144C75.6033 14.144 74.7953 13.704 74.2433 12.824V14H73.4513V5.6H74.2433V9.176C74.7953 8.296 75.6033 7.856 76.6673 7.856ZM74.9273 12.692C75.3833 13.148 75.9433 13.376 76.6073 13.376C77.2713 13.376 77.8313 13.148 78.2873 12.692C78.7433 12.22 78.9713 11.656 78.9713 11C78.9713 10.336 78.7433 9.776 78.2873 9.32C77.8313 8.856 77.2713 8.624 76.6073 8.624C75.9433 8.624 75.3833 8.856 74.9273 9.32C74.4713 9.776 74.2433 10.336 74.2433 11C74.2433 11.656 74.4713 12.22 74.9273 12.692ZM83.8522 7.856C84.7482 7.856 85.4642 8.172 86.0002 8.804C86.5522 9.428 86.8282 10.168 86.8282 11.024C86.8282 11.064 86.8202 11.188 86.8042 11.396H81.5362C81.6162 11.996 81.8722 12.476 82.3042 12.836C82.7362 13.196 83.2762 13.376 83.9242 13.376C84.8362 13.376 85.4802 13.036 85.8562 12.356L86.5522 12.764C86.2882 13.196 85.9242 13.536 85.4602 13.784C85.0042 14.024 84.4882 14.144 83.9122 14.144C82.9682 14.144 82.2002 13.848 81.6082 13.256C81.0162 12.664 80.7202 11.912 80.7202 11C80.7202 10.096 81.0122 9.348 81.5962 8.756C82.1802 8.156 82.9322 7.856 83.8522 7.856ZM83.8522 8.624C83.2282 8.624 82.7042 8.808 82.2802 9.176C81.8642 9.544 81.6162 10.028 81.5362 10.628H86.0122C85.9242 9.988 85.6802 9.496 85.2802 9.152C84.8642 8.8 84.3882 8.624 83.8522 8.624ZM88.88 14H88.088V5.24H88.88V14ZM91.3527 14H90.5607V5.24H91.3527V14ZM93.6574 9.572C93.6574 10.036 94.0694 10.376 94.8934 10.592C95.1254 10.648 95.2774 10.688 95.3494 10.712C95.4214 10.728 95.5614 10.772 95.7694 10.844C95.9854 10.908 96.1334 10.964 96.2134 11.012C96.3014 11.06 96.4214 11.136 96.5734 11.24C96.7254 11.336 96.8334 11.436 96.8974 11.54C96.9614 11.636 97.0214 11.764 97.0774 11.924C97.1334 12.076 97.1614 12.24 97.1614 12.416C97.1614 12.928 96.9574 13.344 96.5494 13.664C96.1574 13.984 95.6374 14.144 94.9894 14.144C94.4294 14.144 93.9454 14.02 93.5374 13.772C93.1294 13.516 92.8414 13.18 92.6734 12.764L93.3454 12.368C93.4574 12.68 93.6574 12.928 93.9454 13.112C94.2414 13.288 94.5894 13.376 94.9894 13.376C95.3974 13.376 95.7294 13.296 95.9854 13.136C96.2414 12.976 96.3694 12.736 96.3694 12.416C96.3694 11.952 95.9574 11.612 95.1334 11.396C94.9014 11.34 94.7494 11.304 94.6774 11.288C94.6054 11.264 94.4614 11.22 94.2454 11.156C94.0374 11.084 93.8894 11.024 93.8014 10.976C93.7214 10.928 93.6054 10.856 93.4534 10.76C93.3014 10.656 93.1934 10.556 93.1294 10.46C93.0654 10.356 93.0054 10.228 92.9494 10.076C92.8934 9.916 92.8654 9.748 92.8654 9.572C92.8654 9.084 93.0574 8.676 93.4414 8.348C93.8414 8.02 94.3334 7.856 94.9174 7.856C95.3974 7.856 95.8214 7.964 96.1894 8.18C96.5654 8.396 96.8414 8.696 97.0174 9.08L96.3574 9.464C96.1334 8.904 95.6534 8.624 94.9174 8.624C94.5574 8.624 94.2574 8.708 94.0174 8.876C93.7774 9.044 93.6574 9.276 93.6574 9.572Z" fill="#272727"></path> <defs> <filter id="filter0_i_92_368" x="0" y="0" width="113" height="28" filterUnits="userSpaceOnUse" color-interpolation-filters="sRGB"> <feFlood flood-opacity="0" result="BackgroundImageFix"></feFlood> <feBlend mode="normal" in="SourceGraphic" in2="BackgroundImageFix" result="shape"></feBlend> <feColorMatrix in="SourceAlpha" type="matrix" values="0 0 0 0 0 0 0 0 0 0 0 0 0 0 0 0 0 0 127 0" result="hardAlpha"></feColorMatrix> <feOffset dy="6"></feOffset> <feGaussianBlur stdDeviation="15"></feGaussianBlur> <feComposite in2="hardAlpha" operator="arithmetic" k2="-1" k3="1"></feComposite> <feColorMatrix type="matrix" values="0 0 0 0 1 0 0 0 0 1 0 0 0 0 1 0 0 0 0.35 0"></feColorMatrix> <feBlend mode="normal" in2="shape" result="effect1_innerShadow_92_368"></feBlend> </filter> </defs> </svg> 