<?xml version="1.0" encoding="UTF-8"?> <svg xmlns="http://www.w3.org/2000/svg" width="113" height="22" viewBox="0 0 113 22" fill="none"> <g filter="url(#filter0_i_92_215)"> <rect width="113" height="22" rx="10" fill="white"></rect> </g> <rect x="0.15" y="0.15" width="112.7" height="21.7" rx="9.85" stroke="white" stroke-width="0.3"></rect> <path d="M18.0296 6.656C18.8776 6.656 19.6296 6.864 20.2856 7.28C20.9256 7.68 21.4096 8.188 21.7376 8.804C22.0656 9.412 22.2296 10.064 22.2296 10.76C22.2296 11.616 22.0576 12.252 21.7136 12.668C21.3616 13.092 20.9576 13.304 20.5016 13.304C20.1576 13.304 19.8656 13.216 19.6256 13.04C19.3936 12.864 19.2376 12.608 19.1576 12.272C18.8056 12.704 18.3616 12.92 17.8256 12.92C17.2656 12.92 16.8016 12.736 16.4336 12.368C16.0656 12 15.8816 11.544 15.8816 11C15.8816 10.456 16.0656 10 16.4336 9.632C16.8016 9.264 17.2656 9.08 17.8256 9.08C18.3376 9.08 18.7616 9.272 19.0976 9.656V9.164H19.8416V11.756C19.8416 12.524 20.1016 12.908 20.6216 12.908C20.9976 12.908 21.2976 12.728 21.5216 12.368C21.7536 12.008 21.8696 11.472 21.8696 10.76C21.8696 9.688 21.4976 8.792 20.7536 8.072C20.0256 7.352 19.1176 6.992 18.0296 6.992C16.9096 6.992 15.9616 7.376 15.1856 8.144C14.4096 8.912 14.0216 9.864 14.0216 11C14.0216 12.168 14.4216 13.128 15.2216 13.88C16.0216 14.632 17.0296 15.008 18.2456 15.008C19.0376 15.008 19.7336 14.892 20.3336 14.66V15.02C19.7336 15.236 19.0376 15.344 18.2456 15.344C16.9336 15.344 15.8416 14.932 14.9696 14.108C14.0976 13.292 13.6616 12.256 13.6616 11C13.6616 9.8 14.0776 8.776 14.9096 7.928C15.7496 7.08 16.7896 6.656 18.0296 6.656ZM16.9856 11.876C17.2416 12.092 17.5376 12.2 17.8736 12.2C18.2176 12.2 18.5056 12.092 18.7376 11.876C18.9776 11.652 19.0976 11.36 19.0976 11C19.0976 10.64 18.9776 10.352 18.7376 10.136C18.5136 9.912 18.2256 9.8 17.8736 9.8C17.5296 9.8 17.2336 9.912 16.9856 10.136C16.7456 10.352 16.6256 10.64 16.6256 11C16.6256 11.352 16.7456 11.644 16.9856 11.876ZM28.709 9.176V5.6H29.501V14H28.709V12.824C28.157 13.704 27.349 14.144 26.285 14.144C25.429 14.144 24.697 13.84 24.089 13.232C23.489 12.624 23.189 11.88 23.189 11C23.189 10.12 23.489 9.376 24.089 8.768C24.697 8.16 25.429 7.856 26.285 7.856C27.349 7.856 28.157 8.296 28.709 9.176ZM24.665 12.692C25.121 13.148 25.681 13.376 26.345 13.376C27.009 13.376 27.569 13.148 28.025 12.692C28.481 12.22 28.709 11.656 28.709 11C28.709 10.336 28.481 9.776 28.025 9.32C27.569 8.856 27.009 8.624 26.345 8.624C25.681 8.624 25.121 8.856 24.665 9.32C24.209 9.776 23.981 10.336 23.981 11C23.981 11.656 24.209 12.22 24.665 12.692ZM36.3379 9.176V8H37.1299V14H36.3379V12.824C35.7859 13.704 34.9779 14.144 33.9139 14.144C33.0579 14.144 32.3259 13.84 31.7179 13.232C31.1179 12.624 30.8179 11.88 30.8179 11C30.8179 10.12 31.1179 9.376 31.7179 8.768C32.3259 8.16 33.0579 7.856 33.9139 7.856C34.9779 7.856 35.7859 8.296 36.3379 9.176ZM32.2939 12.692C32.7499 13.148 33.3099 13.376 33.9739 13.376C34.6379 13.376 35.1979 13.148 35.6539 12.692C36.1099 12.22 36.3379 11.656 36.3379 11C36.3379 10.336 36.1099 9.776 35.6539 9.32C35.1979 8.856 34.6379 8.624 33.9739 8.624C33.3099 8.624 32.7499 8.856 32.2939 9.32C31.8379 9.776 31.6099 10.336 31.6099 11C31.6099 11.656 31.8379 12.22 32.2939 12.692ZM39.4308 9.572C39.4308 10.036 39.8428 10.376 40.6668 10.592C40.8988 10.648 41.0508 10.688 41.1228 10.712C41.1948 10.728 41.3348 10.772 41.5428 10.844C41.7588 10.908 41.9068 10.964 41.9868 11.012C42.0748 11.06 42.1948 11.136 42.3468 11.24C42.4988 11.336 42.6068 11.436 42.6708 11.54C42.7348 11.636 42.7948 11.764 42.8508 11.924C42.9068 12.076 42.9348 12.24 42.9348 12.416C42.9348 12.928 42.7308 13.344 42.3228 13.664C41.9308 13.984 41.4108 14.144 40.7628 14.144C40.2028 14.144 39.7188 14.02 39.3108 13.772C38.9028 13.516 38.6148 13.18 38.4468 12.764L39.1188 12.368C39.2308 12.68 39.4308 12.928 39.7188 13.112C40.0148 13.288 40.3628 13.376 40.7628 13.376C41.1708 13.376 41.5028 13.296 41.7588 13.136C42.0148 12.976 42.1428 12.736 42.1428 12.416C42.1428 11.952 41.7308 11.612 40.9068 11.396C40.6748 11.34 40.5228 11.304 40.4508 11.288C40.3788 11.264 40.2348 11.22 40.0188 11.156C39.8108 11.084 39.6628 11.024 39.5748 10.976C39.4948 10.928 39.3788 10.856 39.2268 10.76C39.0748 10.656 38.9668 10.556 38.9028 10.46C38.8388 10.356 38.7788 10.228 38.7228 10.076C38.6668 9.916 38.6388 9.748 38.6388 9.572C38.6388 9.084 38.8308 8.676 39.2148 8.348C39.6148 8.02 40.1068 7.856 40.6908 7.856C41.1708 7.856 41.5948 7.964 41.9628 8.18C42.3388 8.396 42.6148 8.696 42.7908 9.08L42.1308 9.464C41.9068 8.904 41.4268 8.624 40.6908 8.624C40.3308 8.624 40.0308 8.708 39.7908 8.876C39.5508 9.044 39.4308 9.276 39.4308 9.572ZM47.0054 7.856C47.7254 7.856 48.2974 8.08 48.7214 8.528C49.1454 8.968 49.3574 9.564 49.3574 10.316V14H48.5654V10.316C48.5654 9.78 48.4214 9.364 48.1334 9.068C47.8534 8.772 47.4534 8.624 46.9334 8.624C46.3334 8.624 45.8574 8.812 45.5054 9.188C45.1614 9.564 44.9894 10.12 44.9894 10.856V14H44.1974V5.6H44.9894V8.936C45.4374 8.216 46.1094 7.856 47.0054 7.856ZM56.0488 9.176V8H56.8408V14H56.0488V12.824C55.4968 13.704 54.6888 14.144 53.6248 14.144C52.7688 14.144 52.0368 13.84 51.4288 13.232C50.8288 12.624 50.5288 11.88 50.5288 11C50.5288 10.12 50.8288 9.376 51.4288 8.768C52.0368 8.16 52.7688 7.856 53.6248 7.856C54.6888 7.856 55.4968 8.296 56.0488 9.176ZM52.0048 12.692C52.4608 13.148 53.0208 13.376 53.6848 13.376C54.3488 13.376 54.9088 13.148 55.3648 12.692C55.8208 12.22 56.0488 11.656 56.0488 11C56.0488 10.336 55.8208 9.776 55.3648 9.32C54.9088 8.856 54.3488 8.624 53.6848 8.624C53.0208 8.624 52.4608 8.856 52.0048 9.32C51.5488 9.776 51.3208 10.336 51.3208 11C51.3208 11.656 51.5488 12.22 52.0048 12.692ZM63.4377 15.692H58.1577V14.924H63.4377V15.692ZM66.8333 14.144C65.9293 14.144 65.1773 13.844 64.5773 13.244C63.9773 12.628 63.6773 11.88 63.6773 11C63.6773 10.112 63.9773 9.368 64.5773 8.768C65.1773 8.16 65.9293 7.856 66.8333 7.856C67.4253 7.856 67.9573 8 68.4293 8.288C68.9013 8.568 69.2453 8.948 69.4613 9.428L68.8133 9.8C68.6533 9.44 68.3933 9.156 68.0333 8.948C67.6813 8.732 67.2813 8.624 66.8333 8.624C66.1693 8.624 65.6093 8.856 65.1533 9.32C64.6973 9.776 64.4693 10.336 64.4693 11C64.4693 11.656 64.6973 12.22 65.1533 12.692C65.6093 13.148 66.1693 13.376 66.8333 13.376C67.2733 13.376 67.6693 13.272 68.0213 13.064C68.3813 12.856 68.6613 12.568 68.8613 12.2L69.5213 12.584C69.2733 13.064 68.9093 13.444 68.4293 13.724C67.9493 14.004 67.4173 14.144 66.8333 14.144ZM75.6278 13.244C75.0118 13.844 74.2678 14.144 73.3958 14.144C72.5078 14.144 71.7598 13.844 71.1518 13.244C70.5438 12.636 70.2398 11.888 70.2398 11C70.2398 10.112 70.5438 9.368 71.1518 8.768C71.7598 8.16 72.5078 7.856 73.3958 7.856C74.2758 7.856 75.0198 8.16 75.6278 8.768C76.2438 9.368 76.5518 10.112 76.5518 11C76.5518 11.88 76.2438 12.628 75.6278 13.244ZM71.7158 12.692C72.1718 13.148 72.7318 13.376 73.3958 13.376C74.0598 13.376 74.6198 13.148 75.0758 12.692C75.5318 12.22 75.7598 11.656 75.7598 11C75.7598 10.336 75.5318 9.776 75.0758 9.32C74.6198 8.856 74.0598 8.624 73.3958 8.624C72.7318 8.624 72.1718 8.856 71.7158 9.32C71.2598 9.776 71.0318 10.336 71.0318 11C71.0318 11.656 71.2598 12.22 71.7158 12.692ZM78.3839 9.572C78.3839 10.036 78.7959 10.376 79.6199 10.592C79.8519 10.648 80.0039 10.688 80.0759 10.712C80.1479 10.728 80.2879 10.772 80.4959 10.844C80.7119 10.908 80.8599 10.964 80.9399 11.012C81.0279 11.06 81.1479 11.136 81.2999 11.24C81.4519 11.336 81.5599 11.436 81.6239 11.54C81.6879 11.636 81.7479 11.764 81.8039 11.924C81.8599 12.076 81.8879 12.24 81.8879 12.416C81.8879 12.928 81.6839 13.344 81.2759 13.664C80.8839 13.984 80.3639 14.144 79.7159 14.144C79.1559 14.144 78.6719 14.02 78.2639 13.772C77.8559 13.516 77.5679 13.18 77.3999 12.764L78.0719 12.368C78.1839 12.68 78.3839 12.928 78.6719 13.112C78.9679 13.288 79.3159 13.376 79.7159 13.376C80.1239 13.376 80.4559 13.296 80.7119 13.136C80.9679 12.976 81.0959 12.736 81.0959 12.416C81.0959 11.952 80.6839 11.612 79.8599 11.396C79.6279 11.34 79.4759 11.304 79.4039 11.288C79.3319 11.264 79.1879 11.22 78.9719 11.156C78.7639 11.084 78.6159 11.024 78.5279 10.976C78.4479 10.928 78.3319 10.856 78.1799 10.76C78.0279 10.656 77.9199 10.556 77.8559 10.46C77.7919 10.356 77.7319 10.228 77.6759 10.076C77.6199 9.916 77.5919 9.748 77.5919 9.572C77.5919 9.084 77.7839 8.676 78.1679 8.348C78.5679 8.02 79.0599 7.856 79.6439 7.856C80.1239 7.856 80.5479 7.964 80.9159 8.18C81.2919 8.396 81.5679 8.696 81.7439 9.08L81.0839 9.464C80.8599 8.904 80.3799 8.624 79.6439 8.624C79.2839 8.624 78.9839 8.708 78.7439 8.876C78.5039 9.044 78.3839 9.276 78.3839 9.572ZM89.6051 7.856C90.2851 7.856 90.8291 8.072 91.2371 8.504C91.6451 8.936 91.8491 9.52 91.8491 10.256V14H91.0571V10.256C91.0571 9.744 90.9251 9.344 90.6611 9.056C90.3971 8.768 90.0411 8.624 89.5931 8.624C89.0731 8.624 88.6651 8.796 88.3691 9.14C88.0731 9.484 87.9251 9.996 87.9251 10.676V14H87.1331V10.256C87.1331 9.736 87.0091 9.336 86.7611 9.056C86.5131 8.768 86.1691 8.624 85.7291 8.624C85.2251 8.624 84.8091 8.8 84.4811 9.152C84.1611 9.504 84.0011 10.012 84.0011 10.676V14H83.2091V8H84.0011V8.876C84.4331 8.196 85.0451 7.856 85.8371 7.856C86.7091 7.856 87.3171 8.22 87.6611 8.948C88.0931 8.22 88.7411 7.856 89.6051 7.856ZM98.409 13.244C97.793 13.844 97.049 14.144 96.177 14.144C95.289 14.144 94.541 13.844 93.933 13.244C93.325 12.636 93.021 11.888 93.021 11C93.021 10.112 93.325 9.368 93.933 8.768C94.541 8.16 95.289 7.856 96.177 7.856C97.057 7.856 97.801 8.16 98.409 8.768C99.025 9.368 99.333 10.112 99.333 11C99.333 11.88 99.025 12.628 98.409 13.244ZM94.497 12.692C94.953 13.148 95.513 13.376 96.177 13.376C96.841 13.376 97.401 13.148 97.857 12.692C98.313 12.22 98.541 11.656 98.541 11C98.541 10.336 98.313 9.776 97.857 9.32C97.401 8.856 96.841 8.624 96.177 8.624C95.513 8.624 94.953 8.856 94.497 9.32C94.041 9.776 93.813 10.336 93.813 11C93.813 11.656 94.041 12.22 94.497 12.692Z" fill="#272727"></path> <defs> <filter id="filter0_i_92_215" x="0" y="0" width="113" height="28" filterUnits="userSpaceOnUse" color-interpolation-filters="sRGB"> <feFlood flood-opacity="0" result="BackgroundImageFix"></feFlood> <feBlend mode="normal" in="SourceGraphic" in2="BackgroundImageFix" result="shape"></feBlend> <feColorMatrix in="SourceAlpha" type="matrix" values="0 0 0 0 0 0 0 0 0 0 0 0 0 0 0 0 0 0 127 0" result="hardAlpha"></feColorMatrix> <feOffset dy="6"></feOffset> <feGaussianBlur stdDeviation="15"></feGaussianBlur> <feComposite in2="hardAlpha" operator="arithmetic" k2="-1" k3="1"></feComposite> <feColorMatrix type="matrix" values="0 0 0 0 1 0 0 0 0 1 0 0 0 0 1 0 0 0 0.35 0"></feColorMatrix> <feBlend mode="normal" in2="shape" result="effect1_innerShadow_92_215"></feBlend> </filter> </defs> </svg> 