<?xml version="1.0" encoding="UTF-8"?> <svg xmlns="http://www.w3.org/2000/svg" width="113" height="22" viewBox="0 0 113 22" fill="none"> <g filter="url(#filter0_i_92_212)"> <rect width="113" height="22" rx="10" fill="white"></rect> </g> <rect x="0.15" y="0.15" width="112.7" height="21.7" rx="9.85" stroke="white" stroke-width="0.3"></rect> <path d="M11.1019 6.656C11.9499 6.656 12.7019 6.864 13.3579 7.28C13.9979 7.68 14.4819 8.188 14.8099 8.804C15.1379 9.412 15.3019 10.064 15.3019 10.76C15.3019 11.616 15.1299 12.252 14.7859 12.668C14.4339 13.092 14.0299 13.304 13.5739 13.304C13.2299 13.304 12.9379 13.216 12.6979 13.04C12.4659 12.864 12.3099 12.608 12.2299 12.272C11.8779 12.704 11.4339 12.92 10.8979 12.92C10.3379 12.92 9.87391 12.736 9.50591 12.368C9.13791 12 8.95391 11.544 8.95391 11C8.95391 10.456 9.13791 10 9.50591 9.632C9.87391 9.264 10.3379 9.08 10.8979 9.08C11.4099 9.08 11.8339 9.272 12.1699 9.656V9.164H12.9139V11.756C12.9139 12.524 13.1739 12.908 13.6939 12.908C14.0699 12.908 14.3699 12.728 14.5939 12.368C14.8259 12.008 14.9419 11.472 14.9419 10.76C14.9419 9.688 14.5699 8.792 13.8259 8.072C13.0979 7.352 12.1899 6.992 11.1019 6.992C9.98191 6.992 9.03391 7.376 8.25791 8.144C7.48191 8.912 7.09391 9.864 7.09391 11C7.09391 12.168 7.49391 13.128 8.29391 13.88C9.09391 14.632 10.1019 15.008 11.3179 15.008C12.1099 15.008 12.8059 14.892 13.4059 14.66V15.02C12.8059 15.236 12.1099 15.344 11.3179 15.344C10.0059 15.344 8.91391 14.932 8.04191 14.108C7.16991 13.292 6.73391 12.256 6.73391 11C6.73391 9.8 7.14991 8.776 7.98191 7.928C8.82191 7.08 9.86191 6.656 11.1019 6.656ZM10.0579 11.876C10.3139 12.092 10.6099 12.2 10.9459 12.2C11.2899 12.2 11.5779 12.092 11.8099 11.876C12.0499 11.652 12.1699 11.36 12.1699 11C12.1699 10.64 12.0499 10.352 11.8099 10.136C11.5859 9.912 11.2979 9.8 10.9459 9.8C10.6019 9.8 10.3059 9.912 10.0579 10.136C9.81791 10.352 9.69791 10.64 9.69791 11C9.69791 11.352 9.81791 11.644 10.0579 11.876ZM23.0173 7.856C23.6973 7.856 24.2413 8.072 24.6493 8.504C25.0573 8.936 25.2613 9.52 25.2613 10.256V14H24.4693V10.256C24.4693 9.744 24.3373 9.344 24.0733 9.056C23.8093 8.768 23.4533 8.624 23.0053 8.624C22.4853 8.624 22.0773 8.796 21.7812 9.14C21.4853 9.484 21.3373 9.996 21.3373 10.676V14H20.5453V10.256C20.5453 9.736 20.4213 9.336 20.1733 9.056C19.9253 8.768 19.5813 8.624 19.1413 8.624C18.6373 8.624 18.2213 8.8 17.8933 9.152C17.5733 9.504 17.4133 10.012 17.4133 10.676V14H16.6213V8H17.4133V8.876C17.8453 8.196 18.4573 7.856 19.2493 7.856C20.1213 7.856 20.7293 8.22 21.0733 8.948C21.5053 8.22 22.1533 7.856 23.0173 7.856ZM31.9531 9.176V8H32.7451V14H31.9531V12.824C31.4011 13.704 30.5931 14.144 29.5291 14.144C28.6731 14.144 27.9411 13.84 27.3331 13.232C26.7331 12.624 26.4331 11.88 26.4331 11C26.4331 10.12 26.7331 9.376 27.3331 8.768C27.9411 8.16 28.6731 7.856 29.5291 7.856C30.5931 7.856 31.4011 8.296 31.9531 9.176ZM27.9091 12.692C28.3651 13.148 28.9251 13.376 29.5891 13.376C30.2531 13.376 30.8131 13.148 31.2691 12.692C31.7251 12.22 31.9531 11.656 31.9531 11C31.9531 10.336 31.7251 9.776 31.2691 9.32C30.8131 8.856 30.2531 8.624 29.5891 8.624C28.9251 8.624 28.3651 8.856 27.9091 9.32C27.4531 9.776 27.2251 10.336 27.2251 11C27.2251 11.656 27.4531 12.22 27.9091 12.692ZM35.214 8V8.996C35.582 8.268 36.214 7.904 37.11 7.904V8.672C36.534 8.672 36.074 8.84 35.73 9.176C35.386 9.504 35.214 10 35.214 10.664V14H34.422V8H35.214ZM39.1675 6.152C39.1675 6.312 39.1115 6.448 38.9995 6.56C38.8875 6.672 38.7515 6.728 38.5915 6.728C38.4315 6.728 38.2955 6.672 38.1835 6.56C38.0715 6.448 38.0155 6.312 38.0155 6.152C38.0155 5.992 38.0715 5.856 38.1835 5.744C38.2955 5.632 38.4315 5.576 38.5915 5.576C38.7515 5.576 38.8875 5.632 38.9995 5.744C39.1115 5.856 39.1675 5.992 39.1675 6.152ZM38.9875 14H38.1955V8H38.9875V14ZM41.8681 13.46C41.8681 13.644 41.8041 13.8 41.6761 13.928C41.5481 14.056 41.3921 14.12 41.2081 14.12C41.0241 14.12 40.8681 14.056 40.7401 13.928C40.6121 13.8 40.5481 13.644 40.5481 13.46C40.5481 13.276 40.6121 13.12 40.7401 12.992C40.8681 12.864 41.0241 12.8 41.2081 12.8C41.3921 12.8 41.5481 12.864 41.6761 12.992C41.8041 13.12 41.8681 13.276 41.8681 13.46ZM49.8298 7.856C50.5098 7.856 51.0538 8.072 51.4618 8.504C51.8698 8.936 52.0738 9.52 52.0738 10.256V14H51.2818V10.256C51.2818 9.744 51.1498 9.344 50.8858 9.056C50.6218 8.768 50.2658 8.624 49.8178 8.624C49.2978 8.624 48.8898 8.796 48.5938 9.14C48.2978 9.484 48.1498 9.996 48.1498 10.676V14H47.3578V10.256C47.3578 9.736 47.2338 9.336 46.9858 9.056C46.7378 8.768 46.3938 8.624 45.9538 8.624C45.4498 8.624 45.0338 8.8 44.7058 9.152C44.3858 9.504 44.2258 10.012 44.2258 10.676V14H43.4338V8H44.2258V8.876C44.6578 8.196 45.2698 7.856 46.0618 7.856C46.9338 7.856 47.5418 8.22 47.8858 8.948C48.3178 8.22 48.9658 7.856 49.8298 7.856ZM58.7656 9.176V8H59.5576V14H58.7656V12.824C58.2136 13.704 57.4056 14.144 56.3416 14.144C55.4856 14.144 54.7536 13.84 54.1456 13.232C53.5456 12.624 53.2456 11.88 53.2456 11C53.2456 10.12 53.5456 9.376 54.1456 8.768C54.7536 8.16 55.4856 7.856 56.3416 7.856C57.4056 7.856 58.2136 8.296 58.7656 9.176ZM54.7216 12.692C55.1776 13.148 55.7376 13.376 56.4016 13.376C57.0656 13.376 57.6256 13.148 58.0816 12.692C58.5376 12.22 58.7656 11.656 58.7656 11C58.7656 10.336 58.5376 9.776 58.0816 9.32C57.6256 8.856 57.0656 8.624 56.4016 8.624C55.7376 8.624 55.1776 8.856 54.7216 9.32C54.2656 9.776 54.0376 10.336 54.0376 11C54.0376 11.656 54.2656 12.22 54.7216 12.692ZM62.0265 8V8.996C62.3945 8.268 63.0265 7.904 63.9225 7.904V8.672C63.3465 8.672 62.8865 8.84 62.5425 9.176C62.1985 9.504 62.0265 10 62.0265 10.664V14H61.2345V8H62.0265ZM69.232 11.144V8H70.024V14H69.232V13.064C68.784 13.784 68.112 14.144 67.216 14.144C66.496 14.144 65.924 13.924 65.5 13.484C65.076 13.036 64.864 12.436 64.864 11.684V8H65.656V11.684C65.656 12.22 65.796 12.636 66.076 12.932C66.364 13.228 66.768 13.376 67.288 13.376C67.888 13.376 68.36 13.188 68.704 12.812C69.056 12.436 69.232 11.88 69.232 11.144ZM72.8994 13.46C72.8994 13.644 72.8354 13.8 72.7074 13.928C72.5794 14.056 72.4234 14.12 72.2394 14.12C72.0554 14.12 71.8994 14.056 71.7714 13.928C71.6434 13.8 71.5794 13.644 71.5794 13.46C71.5794 13.276 71.6434 13.12 71.7714 12.992C71.8994 12.864 72.0554 12.8 72.2394 12.8C72.4234 12.8 72.5794 12.864 72.7074 12.992C72.8354 13.12 72.8994 13.276 72.8994 13.46ZM80.861 7.856C81.541 7.856 82.085 8.072 82.493 8.504C82.901 8.936 83.105 9.52 83.105 10.256V14H82.313V10.256C82.313 9.744 82.181 9.344 81.917 9.056C81.653 8.768 81.297 8.624 80.849 8.624C80.329 8.624 79.921 8.796 79.625 9.14C79.329 9.484 79.181 9.996 79.181 10.676V14H78.389V10.256C78.389 9.736 78.265 9.336 78.017 9.056C77.769 8.768 77.425 8.624 76.985 8.624C76.481 8.624 76.065 8.8 75.737 9.152C75.417 9.504 75.257 10.012 75.257 10.676V14H74.465V8H75.257V8.876C75.689 8.196 76.301 7.856 77.093 7.856C77.965 7.856 78.573 8.22 78.917 8.948C79.349 8.22 79.997 7.856 80.861 7.856ZM89.7969 9.176V8H90.5889V14H89.7969V12.824C89.2449 13.704 88.4369 14.144 87.3729 14.144C86.5169 14.144 85.7849 13.84 85.1769 13.232C84.5769 12.624 84.2769 11.88 84.2769 11C84.2769 10.12 84.5769 9.376 85.1769 8.768C85.7849 8.16 86.5169 7.856 87.3729 7.856C88.4369 7.856 89.2449 8.296 89.7969 9.176ZM85.7529 12.692C86.2089 13.148 86.7689 13.376 87.4329 13.376C88.0969 13.376 88.6569 13.148 89.1129 12.692C89.5689 12.22 89.7969 11.656 89.7969 11C89.7969 10.336 89.5689 9.776 89.1129 9.32C88.6569 8.856 88.0969 8.624 87.4329 8.624C86.7689 8.624 86.2089 8.856 85.7529 9.32C85.2969 9.776 85.0689 10.336 85.0689 11C85.0689 11.656 85.2969 12.22 85.7529 12.692ZM95.0738 7.856C95.7938 7.856 96.3658 8.08 96.7898 8.528C97.2138 8.968 97.4258 9.564 97.4258 10.316V14H96.6338V10.316C96.6338 9.78 96.4898 9.364 96.2018 9.068C95.9218 8.772 95.5218 8.624 95.0018 8.624C94.4018 8.624 93.9258 8.812 93.5738 9.188C93.2298 9.564 93.0578 10.12 93.0578 10.856V14H92.2658V5.6H93.0578V8.936C93.5058 8.216 94.1778 7.856 95.0738 7.856ZM104.117 9.176V8H104.909V14H104.117V12.824C103.565 13.704 102.757 14.144 101.693 14.144C100.837 14.144 100.105 13.84 99.4972 13.232C98.8972 12.624 98.5972 11.88 98.5972 11C98.5972 10.12 98.8972 9.376 99.4972 8.768C100.105 8.16 100.837 7.856 101.693 7.856C102.757 7.856 103.565 8.296 104.117 9.176ZM100.073 12.692C100.529 13.148 101.089 13.376 101.753 13.376C102.417 13.376 102.977 13.148 103.433 12.692C103.889 12.22 104.117 11.656 104.117 11C104.117 10.336 103.889 9.776 103.433 9.32C102.977 8.856 102.417 8.624 101.753 8.624C101.089 8.624 100.529 8.856 100.073 9.32C99.6172 9.776 99.3892 10.336 99.3892 11C99.3892 11.656 99.6172 12.22 100.073 12.692Z" fill="#272727"></path> <defs> <filter id="filter0_i_92_212" x="0" y="0" width="113" height="28" filterUnits="userSpaceOnUse" color-interpolation-filters="sRGB"> <feFlood flood-opacity="0" result="BackgroundImageFix"></feFlood> <feBlend mode="normal" in="SourceGraphic" in2="BackgroundImageFix" result="shape"></feBlend> <feColorMatrix in="SourceAlpha" type="matrix" values="0 0 0 0 0 0 0 0 0 0 0 0 0 0 0 0 0 0 127 0" result="hardAlpha"></feColorMatrix> <feOffset dy="6"></feOffset> <feGaussianBlur stdDeviation="15"></feGaussianBlur> <feComposite in2="hardAlpha" operator="arithmetic" k2="-1" k3="1"></feComposite> <feColorMatrix type="matrix" values="0 0 0 0 1 0 0 0 0 1 0 0 0 0 1 0 0 0 0.35 0"></feColorMatrix> <feBlend mode="normal" in2="shape" result="effect1_innerShadow_92_212"></feBlend> </filter> </defs> </svg> 