<?xml version="1.0" encoding="UTF-8"?> <svg xmlns="http://www.w3.org/2000/svg" width="113" height="22" viewBox="0 0 113 22" fill="none"> <g filter="url(#filter0_i_97_346)"> <rect width="113" height="22" rx="10" fill="white"></rect> </g> <rect x="0.15" y="0.15" width="112.7" height="21.7" rx="9.85" stroke="white" stroke-width="0.3"></rect> <path d="M9.91812 7.268C10.6955 7.268 11.3848 7.45867 11.9861 7.84C12.5728 8.20667 13.0165 8.67233 13.3171 9.237C13.6178 9.79433 13.7681 10.392 13.7681 11.03C13.7681 11.8147 13.6105 12.3977 13.2951 12.779C12.9725 13.1677 12.6021 13.362 12.1841 13.362C11.8688 13.362 11.6011 13.2813 11.3811 13.12C11.1685 12.9587 11.0255 12.724 10.9521 12.416C10.6295 12.812 10.2225 13.01 9.73112 13.01C9.21779 13.01 8.79245 12.8413 8.45512 12.504C8.11779 12.1667 7.94912 11.7487 7.94912 11.25C7.94912 10.7513 8.11779 10.3333 8.45512 9.996C8.79245 9.65867 9.21779 9.49 9.73112 9.49C10.2005 9.49 10.5891 9.666 10.8971 10.018V9.567H11.5791V11.943C11.5791 12.647 11.8175 12.999 12.2941 12.999C12.6388 12.999 12.9138 12.834 13.1191 12.504C13.3318 12.174 13.4381 11.6827 13.4381 11.03C13.4381 10.0473 13.0971 9.226 12.4151 8.566C11.7478 7.906 10.9155 7.576 9.91812 7.576C8.89145 7.576 8.02245 7.928 7.31112 8.632C6.59979 9.336 6.24412 10.2087 6.24412 11.25C6.24412 12.3207 6.61079 13.2007 7.34412 13.89C8.07745 14.5793 9.00145 14.924 10.1161 14.924C10.8421 14.924 11.4801 14.8177 12.0301 14.605V14.935C11.4801 15.133 10.8421 15.232 10.1161 15.232C8.91345 15.232 7.91245 14.8543 7.11312 14.099C6.31379 13.351 5.91412 12.4013 5.91412 11.25C5.91412 10.15 6.29545 9.21133 7.05812 8.434C7.82812 7.65667 8.78145 7.268 9.91812 7.268ZM8.96112 12.053C9.19579 12.251 9.46712 12.35 9.77512 12.35C10.0905 12.35 10.3545 12.251 10.5671 12.053C10.7871 11.8477 10.8971 11.58 10.8971 11.25C10.8971 10.92 10.7871 10.656 10.5671 10.458C10.3618 10.2527 10.0978 10.15 9.77512 10.15C9.45979 10.15 9.18845 10.2527 8.96112 10.458C8.74112 10.656 8.63112 10.92 8.63112 11.25C8.63112 11.5727 8.74112 11.8403 8.96112 12.053ZM17.9255 8.368C18.7102 8.368 19.3775 8.64667 19.9275 9.204C20.4849 9.76133 20.7635 10.4433 20.7635 11.25C20.7635 12.0567 20.4849 12.7387 19.9275 13.296C19.3775 13.8533 18.7102 14.132 17.9255 14.132C16.9502 14.132 16.2095 13.7287 15.7035 12.922V16.2H14.9775V8.5H15.7035V9.578C16.2095 8.77133 16.9502 8.368 17.9255 8.368ZM16.3305 12.801C16.7485 13.219 17.2619 13.428 17.8705 13.428C18.4792 13.428 18.9925 13.219 19.4105 12.801C19.8285 12.3683 20.0375 11.8513 20.0375 11.25C20.0375 10.6413 19.8285 10.128 19.4105 9.71C18.9925 9.28467 18.4792 9.072 17.8705 9.072C17.2619 9.072 16.7485 9.28467 16.3305 9.71C15.9125 10.128 15.7035 10.6413 15.7035 11.25C15.7035 11.8513 15.9125 12.3683 16.3305 12.801ZM26.7007 9.578V8.5H27.4267V14H26.7007V12.922C26.1947 13.7287 25.454 14.132 24.4787 14.132C23.694 14.132 23.023 13.8533 22.4657 13.296C21.9157 12.7387 21.6407 12.0567 21.6407 11.25C21.6407 10.4433 21.9157 9.76133 22.4657 9.204C23.023 8.64667 23.694 8.368 24.4787 8.368C25.454 8.368 26.1947 8.77133 26.7007 9.578ZM22.9937 12.801C23.4117 13.219 23.925 13.428 24.5337 13.428C25.1424 13.428 25.6557 13.219 26.0737 12.801C26.4917 12.3683 26.7007 11.8513 26.7007 11.25C26.7007 10.6413 26.4917 10.128 26.0737 9.71C25.6557 9.28467 25.1424 9.072 24.5337 9.072C23.925 9.072 23.4117 9.28467 22.9937 9.71C22.5757 10.128 22.3667 10.6413 22.3667 11.25C22.3667 11.8513 22.5757 12.3683 22.9937 12.801ZM31.5378 8.368C32.1978 8.368 32.7222 8.57333 33.1108 8.984C33.4995 9.38733 33.6938 9.93367 33.6938 10.623V14H32.9678V10.623C32.9678 10.1317 32.8358 9.75033 32.5718 9.479C32.3152 9.20767 31.9485 9.072 31.4718 9.072C30.9218 9.072 30.4855 9.24433 30.1628 9.589C29.8475 9.93367 29.6898 10.4433 29.6898 11.118V14H28.9638V8.5H29.6898V9.358C30.1005 8.698 30.7165 8.368 31.5378 8.368ZM38.0126 8.5V9.204H36.4286V12.537C36.4286 12.8377 36.4873 13.054 36.6046 13.186C36.722 13.3107 36.898 13.3767 37.1326 13.384C37.3673 13.384 37.6606 13.3767 38.0126 13.362V14C37.228 14.1173 36.645 14.0623 36.2636 13.835C35.8896 13.6003 35.7026 13.1677 35.7026 12.537V9.204H34.5476V8.5H35.7026V7.18L36.4286 6.96V8.5H38.0126ZM41.4306 8.368C42.252 8.368 42.9083 8.65767 43.3996 9.237C43.9056 9.809 44.1586 10.4873 44.1586 11.272C44.1586 11.3087 44.1513 11.4223 44.1366 11.613H39.3076C39.381 12.163 39.6156 12.603 40.0116 12.933C40.4076 13.263 40.9026 13.428 41.4966 13.428C42.3326 13.428 42.923 13.1163 43.2676 12.493L43.9056 12.867C43.6636 13.263 43.33 13.5747 42.9046 13.802C42.4866 14.022 42.0136 14.132 41.4856 14.132C40.6203 14.132 39.9163 13.8607 39.3736 13.318C38.831 12.7753 38.5596 12.086 38.5596 11.25C38.5596 10.4213 38.8273 9.73567 39.3626 9.193C39.898 8.643 40.5873 8.368 41.4306 8.368ZM41.4306 9.072C40.8586 9.072 40.3783 9.24067 39.9896 9.578C39.6083 9.91533 39.381 10.359 39.3076 10.909H43.4106C43.33 10.3223 43.1063 9.87133 42.7396 9.556C42.3583 9.23333 41.922 9.072 41.4306 9.072ZM46.0395 14H45.3135V5.97H46.0395V14ZM50.1211 8.368C50.9424 8.368 51.5987 8.65767 52.0901 9.237C52.5961 9.809 52.8491 10.4873 52.8491 11.272C52.8491 11.3087 52.8417 11.4223 52.8271 11.613H47.9981C48.0714 12.163 48.3061 12.603 48.7021 12.933C49.0981 13.263 49.5931 13.428 50.1871 13.428C51.0231 13.428 51.6134 13.1163 51.9581 12.493L52.5961 12.867C52.3541 13.263 52.0204 13.5747 51.5951 13.802C51.1771 14.022 50.7041 14.132 50.1761 14.132C49.3107 14.132 48.6067 13.8607 48.0641 13.318C47.5214 12.7753 47.2501 12.086 47.2501 11.25C47.2501 10.4213 47.5177 9.73567 48.0531 9.193C48.5884 8.643 49.2777 8.368 50.1211 8.368ZM50.1211 9.072C49.5491 9.072 49.0687 9.24067 48.6801 9.578C48.2987 9.91533 48.0714 10.359 47.9981 10.909H52.1011C52.0204 10.3223 51.7967 9.87133 51.4301 9.556C51.0487 9.23333 50.6124 9.072 50.1211 9.072ZM56.5449 8.368C57.3662 8.368 58.0226 8.65767 58.5139 9.237C59.0199 9.809 59.2729 10.4873 59.2729 11.272C59.2729 11.3087 59.2656 11.4223 59.2509 11.613H54.4219C54.4952 12.163 54.7299 12.603 55.1259 12.933C55.5219 13.263 56.0169 13.428 56.6109 13.428C57.4469 13.428 58.0372 13.1163 58.3819 12.493L59.0199 12.867C58.7779 13.263 58.4442 13.5747 58.0189 13.802C57.6009 14.022 57.1279 14.132 56.5999 14.132C55.7346 14.132 55.0306 13.8607 54.4879 13.318C53.9452 12.7753 53.6739 12.086 53.6739 11.25C53.6739 10.4213 53.9416 9.73567 54.4769 9.193C55.0122 8.643 55.7016 8.368 56.5449 8.368ZM56.5449 9.072C55.9729 9.072 55.4926 9.24067 55.1039 9.578C54.7226 9.91533 54.4952 10.359 54.4219 10.909H58.5249C58.4442 10.3223 58.2206 9.87133 57.8539 9.556C57.4726 9.23333 57.0362 9.072 56.5449 9.072ZM62.2479 13.241L64.1729 8.5H64.9429L62.6879 14H61.8079L59.5529 8.5H60.3229L62.2479 13.241ZM70.3354 9.578V8.5H71.0614V14H70.3354V12.922C69.8294 13.7287 69.0888 14.132 68.1134 14.132C67.3288 14.132 66.6578 13.8533 66.1004 13.296C65.5504 12.7387 65.2754 12.0567 65.2754 11.25C65.2754 10.4433 65.5504 9.76133 66.1004 9.204C66.6578 8.64667 67.3288 8.368 68.1134 8.368C69.0888 8.368 69.8294 8.77133 70.3354 9.578ZM66.6284 12.801C67.0464 13.219 67.5598 13.428 68.1684 13.428C68.7771 13.428 69.2904 13.219 69.7084 12.801C70.1264 12.3683 70.3354 11.8513 70.3354 11.25C70.3354 10.6413 70.1264 10.128 69.7084 9.71C69.2904 9.28467 68.7771 9.072 68.1684 9.072C67.5598 9.072 67.0464 9.28467 66.6284 9.71C66.2104 10.128 66.0014 10.6413 66.0014 11.25C66.0014 11.8513 66.2104 12.3683 66.6284 12.801ZM77.3286 9.578V8.5H78.0546V14H77.3286V12.922C76.8226 13.7287 76.0819 14.132 75.1066 14.132C74.3219 14.132 73.6509 13.8533 73.0936 13.296C72.5436 12.7387 72.2686 12.0567 72.2686 11.25C72.2686 10.4433 72.5436 9.76133 73.0936 9.204C73.6509 8.64667 74.3219 8.368 75.1066 8.368C76.0819 8.368 76.8226 8.77133 77.3286 9.578ZM73.6216 12.801C74.0396 13.219 74.5529 13.428 75.1616 13.428C75.7703 13.428 76.2836 13.219 76.7016 12.801C77.1196 12.3683 77.3286 11.8513 77.3286 11.25C77.3286 10.6413 77.1196 10.128 76.7016 9.71C76.2836 9.28467 75.7703 9.072 75.1616 9.072C74.5529 9.072 74.0396 9.28467 73.6216 9.71C73.2036 10.128 72.9946 10.6413 72.9946 11.25C72.9946 11.8513 73.2036 12.3683 73.6216 12.801ZM84.1018 15.551H79.2618V14.847H84.1018V15.551ZM86.6952 11.14L89.6432 14H88.6752L85.9252 11.349V14H85.1992V6.3H85.9252V10.931L88.5432 8.5H89.5332L86.6952 11.14ZM94.8169 9.578V8.5H95.5429V14H94.8169V12.922C94.3109 13.7287 93.5702 14.132 92.5949 14.132C91.8102 14.132 91.1392 13.8533 90.5819 13.296C90.0319 12.7387 89.7569 12.0567 89.7569 11.25C89.7569 10.4433 90.0319 9.76133 90.5819 9.204C91.1392 8.64667 91.8102 8.368 92.5949 8.368C93.5702 8.368 94.3109 8.77133 94.8169 9.578ZM91.1099 12.801C91.5279 13.219 92.0412 13.428 92.6499 13.428C93.2586 13.428 93.7719 13.219 94.1899 12.801C94.6079 12.3683 94.8169 11.8513 94.8169 11.25C94.8169 10.6413 94.6079 10.128 94.1899 9.71C93.7719 9.28467 93.2586 9.072 92.6499 9.072C92.0412 9.072 91.5279 9.28467 91.1099 9.71C90.6919 10.128 90.4829 10.6413 90.4829 11.25C90.4829 11.8513 90.6919 12.3683 91.1099 12.801ZM99.9951 8.5V9.204H98.4111V12.537C98.4111 12.8377 98.4697 13.054 98.5871 13.186C98.7044 13.3107 98.8804 13.3767 99.1151 13.384C99.3497 13.384 99.6431 13.3767 99.9951 13.362V14C99.2104 14.1173 98.6274 14.0623 98.2461 13.835C97.8721 13.6003 97.6851 13.1677 97.6851 12.537V9.204H96.5301V8.5H97.6851V7.18L98.4111 6.96V8.5H99.9951ZM103.413 8.368C104.234 8.368 104.891 8.65767 105.382 9.237C105.888 9.809 106.141 10.4873 106.141 11.272C106.141 11.3087 106.134 11.4223 106.119 11.613H101.29C101.363 12.163 101.598 12.603 101.994 12.933C102.39 13.263 102.885 13.428 103.479 13.428C104.315 13.428 104.905 13.1163 105.25 12.493L105.888 12.867C105.646 13.263 105.312 13.5747 104.887 13.802C104.469 14.022 103.996 14.132 103.468 14.132C102.603 14.132 101.899 13.8607 101.356 13.318C100.813 12.7753 100.542 12.086 100.542 11.25C100.542 10.4213 100.81 9.73567 101.345 9.193C101.88 8.643 102.57 8.368 103.413 8.368ZM103.413 9.072C102.841 9.072 102.361 9.24067 101.972 9.578C101.591 9.91533 101.363 10.359 101.29 10.909H105.393C105.312 10.3223 105.089 9.87133 104.722 9.556C104.341 9.23333 103.904 9.072 103.413 9.072Z" fill="#272727"></path> <defs> <filter id="filter0_i_97_346" x="0" y="0" width="113" height="28" filterUnits="userSpaceOnUse" color-interpolation-filters="sRGB"> <feFlood flood-opacity="0" result="BackgroundImageFix"></feFlood> <feBlend mode="normal" in="SourceGraphic" in2="BackgroundImageFix" result="shape"></feBlend> <feColorMatrix in="SourceAlpha" type="matrix" values="0 0 0 0 0 0 0 0 0 0 0 0 0 0 0 0 0 0 127 0" result="hardAlpha"></feColorMatrix> <feOffset dy="6"></feOffset> <feGaussianBlur stdDeviation="15"></feGaussianBlur> <feComposite in2="hardAlpha" operator="arithmetic" k2="-1" k3="1"></feComposite> <feColorMatrix type="matrix" values="0 0 0 0 1 0 0 0 0 1 0 0 0 0 1 0 0 0 0.35 0"></feColorMatrix> <feBlend mode="normal" in2="shape" result="effect1_innerShadow_97_346"></feBlend> </filter> </defs> </svg> 