<?xml version="1.0" encoding="UTF-8"?> <svg xmlns="http://www.w3.org/2000/svg" width="113" height="22" viewBox="0 0 113 22" fill="none"> <g filter="url(#filter0_i_97_1146)"> <rect width="113" height="22" rx="10" fill="white"></rect> </g> <rect x="0.15" y="0.15" width="112.7" height="21.7" rx="9.85" stroke="white" stroke-width="0.3"></rect> <path d="M13.5006 7.268C14.278 7.268 14.9673 7.45867 15.5686 7.84C16.1553 8.20667 16.599 8.67233 16.8996 9.237C17.2003 9.79433 17.3506 10.392 17.3506 11.03C17.3506 11.8147 17.193 12.3977 16.8776 12.779C16.555 13.1677 16.1846 13.362 15.7666 13.362C15.4513 13.362 15.1836 13.2813 14.9636 13.12C14.751 12.9587 14.608 12.724 14.5346 12.416C14.212 12.812 13.805 13.01 13.3136 13.01C12.8003 13.01 12.375 12.8413 12.0376 12.504C11.7003 12.1667 11.5316 11.7487 11.5316 11.25C11.5316 10.7513 11.7003 10.3333 12.0376 9.996C12.375 9.65867 12.8003 9.49 13.3136 9.49C13.783 9.49 14.1716 9.666 14.4796 10.018V9.567H15.1616V11.943C15.1616 12.647 15.4 12.999 15.8766 12.999C16.2213 12.999 16.4963 12.834 16.7016 12.504C16.9143 12.174 17.0206 11.6827 17.0206 11.03C17.0206 10.0473 16.6796 9.226 15.9976 8.566C15.3303 7.906 14.498 7.576 13.5006 7.576C12.474 7.576 11.605 7.928 10.8936 8.632C10.1823 9.336 9.82664 10.2087 9.82664 11.25C9.82664 12.3207 10.1933 13.2007 10.9266 13.89C11.66 14.5793 12.584 14.924 13.6986 14.924C14.4246 14.924 15.0626 14.8177 15.6126 14.605V14.935C15.0626 15.133 14.4246 15.232 13.6986 15.232C12.496 15.232 11.495 14.8543 10.6956 14.099C9.89631 13.351 9.49664 12.4013 9.49664 11.25C9.49664 10.15 9.87797 9.21133 10.6406 8.434C11.4106 7.65667 12.364 7.268 13.5006 7.268ZM12.5436 12.053C12.7783 12.251 13.0496 12.35 13.3576 12.35C13.673 12.35 13.937 12.251 14.1496 12.053C14.3696 11.8477 14.4796 11.58 14.4796 11.25C14.4796 10.92 14.3696 10.656 14.1496 10.458C13.9443 10.2527 13.6803 10.15 13.3576 10.15C13.0423 10.15 12.771 10.2527 12.5436 10.458C12.3236 10.656 12.2136 10.92 12.2136 11.25C12.2136 11.5727 12.3236 11.8403 12.5436 12.053ZM18.5516 6.806C18.5516 6.65933 18.603 6.53467 18.7056 6.432C18.8083 6.32933 18.933 6.278 19.0796 6.278C19.2263 6.278 19.351 6.32933 19.4536 6.432C19.5563 6.53467 19.6076 6.65933 19.6076 6.806C19.6076 6.95267 19.5563 7.07733 19.4536 7.18C19.351 7.28267 19.2263 7.334 19.0796 7.334C18.933 7.334 18.8083 7.28267 18.7056 7.18C18.603 7.07733 18.5516 6.95267 18.5516 6.806ZM18.7166 14.44V8.5H19.4426V14.44C19.4426 15.1 19.2703 15.595 18.9256 15.925C18.581 16.255 18.0933 16.3907 17.4626 16.332V15.628C17.9026 15.672 18.2216 15.5987 18.4196 15.408C18.6176 15.2247 18.7166 14.902 18.7166 14.44ZM24.8598 11.382V8.5H25.5858V14H24.8598V13.142C24.4491 13.802 23.8331 14.132 23.0118 14.132C22.3518 14.132 21.8274 13.9303 21.4388 13.527C21.0501 13.1163 20.8558 12.5663 20.8558 11.877V8.5H21.5818V11.877C21.5818 12.3683 21.7101 12.7497 21.9668 13.021C22.2308 13.2923 22.6011 13.428 23.0778 13.428C23.6278 13.428 24.0604 13.2557 24.3758 12.911C24.6984 12.5663 24.8598 12.0567 24.8598 11.382ZM27.8476 14H27.1216V5.97H27.8476V14ZM31.9292 8.368C32.7505 8.368 33.4068 8.65767 33.8982 9.237C34.4042 9.809 34.6572 10.4873 34.6572 11.272C34.6572 11.3087 34.6498 11.4223 34.6352 11.613H29.8062C29.8795 12.163 30.1142 12.603 30.5102 12.933C30.9062 13.263 31.4012 13.428 31.9952 13.428C32.8312 13.428 33.4215 13.1163 33.7662 12.493L34.4042 12.867C34.1622 13.263 33.8285 13.5747 33.4032 13.802C32.9852 14.022 32.5122 14.132 31.9842 14.132C31.1188 14.132 30.4148 13.8607 29.8722 13.318C29.3295 12.7753 29.0582 12.086 29.0582 11.25C29.0582 10.4213 29.3258 9.73567 29.8612 9.193C30.3965 8.643 31.0858 8.368 31.9292 8.368ZM31.9292 9.072C31.3572 9.072 30.8768 9.24067 30.4882 9.578C30.1068 9.91533 29.8795 10.359 29.8062 10.909H33.9092C33.8285 10.3223 33.6048 9.87133 33.2382 9.556C32.8568 9.23333 32.4205 9.072 31.9292 9.072ZM38.375 14.132C37.5463 14.132 36.857 13.857 36.307 13.307C35.757 12.7423 35.482 12.0567 35.482 11.25C35.482 10.436 35.757 9.754 36.307 9.204C36.857 8.64667 37.5463 8.368 38.375 8.368C38.9177 8.368 39.4053 8.5 39.838 8.764C40.2707 9.02067 40.586 9.369 40.784 9.809L40.19 10.15C40.0433 9.82 39.805 9.55967 39.475 9.369C39.1523 9.171 38.7857 9.072 38.375 9.072C37.7663 9.072 37.253 9.28467 36.835 9.71C36.417 10.128 36.208 10.6413 36.208 11.25C36.208 11.8513 36.417 12.3683 36.835 12.801C37.253 13.219 37.7663 13.428 38.375 13.428C38.7783 13.428 39.1413 13.3327 39.464 13.142C39.794 12.9513 40.0507 12.6873 40.234 12.35L40.839 12.702C40.6117 13.142 40.278 13.4903 39.838 13.747C39.398 14.0037 38.9103 14.132 38.375 14.132ZM44.4553 8.368C45.1153 8.368 45.6397 8.57333 46.0283 8.984C46.417 9.38733 46.6113 9.93367 46.6113 10.623V14H45.8853V10.623C45.8853 10.1317 45.7533 9.75033 45.4893 9.479C45.2327 9.20767 44.866 9.072 44.3893 9.072C43.8393 9.072 43.403 9.24433 43.0803 9.589C42.765 9.93367 42.6073 10.4433 42.6073 11.118V14H41.8813V6.3H42.6073V9.358C43.018 8.698 43.634 8.368 44.4553 8.368ZM49.5111 11.14L52.4591 14H51.4911L48.7411 11.349V14H48.0151V6.3H48.7411V10.931L51.3591 8.5H52.3491L49.5111 11.14ZM57.6328 9.578V8.5H58.3588V14H57.6328V12.922C57.1268 13.7287 56.3861 14.132 55.4108 14.132C54.6261 14.132 53.9551 13.8533 53.3978 13.296C52.8478 12.7387 52.5728 12.0567 52.5728 11.25C52.5728 10.4433 52.8478 9.76133 53.3978 9.204C53.9551 8.64667 54.6261 8.368 55.4108 8.368C56.3861 8.368 57.1268 8.77133 57.6328 9.578ZM53.9258 12.801C54.3438 13.219 54.8571 13.428 55.4658 13.428C56.0745 13.428 56.5878 13.219 57.0058 12.801C57.4238 12.3683 57.6328 11.8513 57.6328 11.25C57.6328 10.6413 57.4238 10.128 57.0058 9.71C56.5878 9.28467 56.0745 9.072 55.4658 9.072C54.8571 9.072 54.3438 9.28467 53.9258 9.71C53.5078 10.128 53.2988 10.6413 53.2988 11.25C53.2988 11.8513 53.5078 12.3683 53.9258 12.801ZM61.931 13.241L63.856 8.5H64.626L62.371 14H61.491L59.236 8.5H60.006L61.931 13.241ZM66.2294 14H65.5034V5.97H66.2294V14ZM72.5 9.578V8.5H73.226V14H72.5V12.922C71.994 13.7287 71.2533 14.132 70.278 14.132C69.4933 14.132 68.8223 13.8533 68.265 13.296C67.715 12.7387 67.44 12.0567 67.44 11.25C67.44 10.4433 67.715 9.76133 68.265 9.204C68.8223 8.64667 69.4933 8.368 70.278 8.368C71.2533 8.368 71.994 8.77133 72.5 9.578ZM68.793 12.801C69.211 13.219 69.7243 13.428 70.333 13.428C70.9417 13.428 71.455 13.219 71.873 12.801C72.291 12.3683 72.5 11.8513 72.5 11.25C72.5 10.6413 72.291 10.128 71.873 9.71C71.455 9.28467 70.9417 9.072 70.333 9.072C69.7243 9.072 69.211 9.28467 68.793 9.71C68.375 10.128 68.166 10.6413 68.166 11.25C68.166 11.8513 68.375 12.3683 68.793 12.801ZM75.3352 9.941C75.3352 10.3663 75.7128 10.678 76.4682 10.876C76.6808 10.9273 76.8202 10.964 76.8862 10.986C76.9522 11.0007 77.0805 11.041 77.2712 11.107C77.4692 11.1657 77.6048 11.217 77.6782 11.261C77.7588 11.305 77.8688 11.3747 78.0082 11.47C78.1475 11.558 78.2465 11.6497 78.3052 11.745C78.3638 11.833 78.4188 11.9503 78.4702 12.097C78.5215 12.2363 78.5472 12.3867 78.5472 12.548C78.5472 13.0173 78.3602 13.3987 77.9862 13.692C77.6268 13.9853 77.1502 14.132 76.5562 14.132C76.0428 14.132 75.5992 14.0183 75.2252 13.791C74.8512 13.5563 74.5872 13.2483 74.4332 12.867L75.0492 12.504C75.1518 12.79 75.3352 13.0173 75.5992 13.186C75.8705 13.3473 76.1895 13.428 76.5562 13.428C76.9302 13.428 77.2345 13.3547 77.4692 13.208C77.7038 13.0613 77.8212 12.8413 77.8212 12.548C77.8212 12.1227 77.4435 11.811 76.6882 11.613C76.4755 11.5617 76.3362 11.5287 76.2702 11.514C76.2042 11.492 76.0722 11.4517 75.8742 11.393C75.6835 11.327 75.5478 11.272 75.4672 11.228C75.3938 11.184 75.2875 11.118 75.1482 11.03C75.0088 10.9347 74.9098 10.843 74.8512 10.755C74.7925 10.6597 74.7375 10.5423 74.6862 10.403C74.6348 10.2563 74.6092 10.1023 74.6092 9.941C74.6092 9.49367 74.7852 9.11967 75.1372 8.819C75.5038 8.51833 75.9548 8.368 76.4902 8.368C76.9302 8.368 77.3188 8.467 77.6562 8.665C78.0008 8.863 78.2538 9.138 78.4152 9.49L77.8102 9.842C77.6048 9.32867 77.1648 9.072 76.4902 9.072C76.1602 9.072 75.8852 9.149 75.6652 9.303C75.4452 9.457 75.3352 9.66967 75.3352 9.941ZM82.1381 8.368C82.9595 8.368 83.6158 8.65767 84.1071 9.237C84.6131 9.809 84.8661 10.4873 84.8661 11.272C84.8661 11.3087 84.8588 11.4223 84.8441 11.613H80.0151C80.0885 12.163 80.3231 12.603 80.7191 12.933C81.1151 13.263 81.6101 13.428 82.2041 13.428C83.0401 13.428 83.6305 13.1163 83.9751 12.493L84.6131 12.867C84.3711 13.263 84.0375 13.5747 83.6121 13.802C83.1941 14.022 82.7211 14.132 82.1931 14.132C81.3278 14.132 80.6238 13.8607 80.0811 13.318C79.5385 12.7753 79.2671 12.086 79.2671 11.25C79.2671 10.4213 79.5348 9.73567 80.0701 9.193C80.6055 8.643 81.2948 8.368 82.1381 8.368ZM82.1381 9.072C81.5661 9.072 81.0858 9.24067 80.6971 9.578C80.3158 9.91533 80.0885 10.359 80.0151 10.909H84.1181C84.0375 10.3223 83.8138 9.87133 83.4471 9.556C83.0658 9.23333 82.6295 9.072 82.1381 9.072ZM88.595 8.368C89.255 8.368 89.7793 8.57333 90.168 8.984C90.5566 9.38733 90.751 9.93367 90.751 10.623V14H90.025V10.623C90.025 10.1317 89.893 9.75033 89.629 9.479C89.3723 9.20767 89.0056 9.072 88.529 9.072C87.979 9.072 87.5426 9.24433 87.22 9.589C86.9046 9.93367 86.747 10.4433 86.747 11.118V14H86.021V8.5H86.747V9.358C87.1576 8.698 87.7736 8.368 88.595 8.368ZM93.6508 11.14L96.5988 14H95.6308L92.8808 11.349V14H92.1548V6.3H92.8808V10.931L95.4988 8.5H96.4888L93.6508 11.14ZM101.651 13.307C101.087 13.857 100.405 14.132 99.6055 14.132C98.7915 14.132 98.1058 13.857 97.5485 13.307C96.9911 12.7497 96.7125 12.064 96.7125 11.25C96.7125 10.436 96.9911 9.754 97.5485 9.204C98.1058 8.64667 98.7915 8.368 99.6055 8.368C100.412 8.368 101.094 8.64667 101.651 9.204C102.216 9.754 102.498 10.436 102.498 11.25C102.498 12.0567 102.216 12.7423 101.651 13.307ZM98.0655 12.801C98.4835 13.219 98.9968 13.428 99.6055 13.428C100.214 13.428 100.727 13.219 101.145 12.801C101.563 12.3683 101.772 11.8513 101.772 11.25C101.772 10.6413 101.563 10.128 101.145 9.71C100.727 9.28467 100.214 9.072 99.6055 9.072C98.9968 9.072 98.4835 9.28467 98.0655 9.71C97.6475 10.128 97.4385 10.6413 97.4385 11.25C97.4385 11.8513 97.6475 12.3683 98.0655 12.801Z" fill="#272727"></path> <defs> <filter id="filter0_i_97_1146" x="0" y="0" width="113" height="28" filterUnits="userSpaceOnUse" color-interpolation-filters="sRGB"> <feFlood flood-opacity="0" result="BackgroundImageFix"></feFlood> <feBlend mode="normal" in="SourceGraphic" in2="BackgroundImageFix" result="shape"></feBlend> <feColorMatrix in="SourceAlpha" type="matrix" values="0 0 0 0 0 0 0 0 0 0 0 0 0 0 0 0 0 0 127 0" result="hardAlpha"></feColorMatrix> <feOffset dy="6"></feOffset> <feGaussianBlur stdDeviation="15"></feGaussianBlur> <feComposite in2="hardAlpha" operator="arithmetic" k2="-1" k3="1"></feComposite> <feColorMatrix type="matrix" values="0 0 0 0 1 0 0 0 0 1 0 0 0 0 1 0 0 0 0.35 0"></feColorMatrix> <feBlend mode="normal" in2="shape" result="effect1_innerShadow_97_1146"></feBlend> </filter> </defs> </svg> 