<?xml version="1.0" encoding="UTF-8"?> <svg xmlns="http://www.w3.org/2000/svg" width="113" height="22" viewBox="0 0 113 22" fill="none"> <g filter="url(#filter0_i_97_1191)"> <rect width="113" height="22" rx="10" fill="white"></rect> </g> <rect x="0.15" y="0.15" width="112.7" height="21.7" rx="9.85" stroke="white" stroke-width="0.3"></rect> <path d="M24.2503 6.656C25.0983 6.656 25.8503 6.864 26.5063 7.28C27.1463 7.68 27.6303 8.188 27.9583 8.804C28.2863 9.412 28.4503 10.064 28.4503 10.76C28.4503 11.616 28.2783 12.252 27.9343 12.668C27.5823 13.092 27.1783 13.304 26.7223 13.304C26.3783 13.304 26.0863 13.216 25.8463 13.04C25.6143 12.864 25.4583 12.608 25.3783 12.272C25.0263 12.704 24.5823 12.92 24.0463 12.92C23.4863 12.92 23.0223 12.736 22.6543 12.368C22.2863 12 22.1023 11.544 22.1023 11C22.1023 10.456 22.2863 10 22.6543 9.632C23.0223 9.264 23.4863 9.08 24.0463 9.08C24.5583 9.08 24.9823 9.272 25.3183 9.656V9.164H26.0623V11.756C26.0623 12.524 26.3223 12.908 26.8423 12.908C27.2183 12.908 27.5183 12.728 27.7423 12.368C27.9743 12.008 28.0903 11.472 28.0903 10.76C28.0903 9.688 27.7183 8.792 26.9743 8.072C26.2463 7.352 25.3383 6.992 24.2503 6.992C23.1303 6.992 22.1823 7.376 21.4063 8.144C20.6303 8.912 20.2423 9.864 20.2423 11C20.2423 12.168 20.6423 13.128 21.4423 13.88C22.2423 14.632 23.2503 15.008 24.4663 15.008C25.2583 15.008 25.9543 14.892 26.5543 14.66V15.02C25.9543 15.236 25.2583 15.344 24.4663 15.344C23.1543 15.344 22.0623 14.932 21.1903 14.108C20.3183 13.292 19.8823 12.256 19.8823 11C19.8823 9.8 20.2983 8.776 21.1303 7.928C21.9703 7.08 23.0103 6.656 24.2503 6.656ZM23.2063 11.876C23.4623 12.092 23.7583 12.2 24.0943 12.2C24.4383 12.2 24.7263 12.092 24.9583 11.876C25.1983 11.652 25.3183 11.36 25.3183 11C25.3183 10.64 25.1983 10.352 24.9583 10.136C24.7343 9.912 24.4463 9.8 24.0943 9.8C23.7503 9.8 23.4543 9.912 23.2063 10.136C22.9663 10.352 22.8463 10.64 22.8463 11C22.8463 11.352 22.9663 11.644 23.2063 11.876ZM31.8725 13.172L33.9725 8H34.8125L32.3525 14H31.3925L28.9325 8H29.7725L31.8725 13.172ZM36.7417 6.152C36.7417 6.312 36.6857 6.448 36.5737 6.56C36.4617 6.672 36.3257 6.728 36.1657 6.728C36.0057 6.728 35.8697 6.672 35.7577 6.56C35.6457 6.448 35.5897 6.312 35.5897 6.152C35.5897 5.992 35.6457 5.856 35.7577 5.744C35.8697 5.632 36.0057 5.576 36.1657 5.576C36.3257 5.576 36.4617 5.632 36.5737 5.744C36.6857 5.856 36.7417 5.992 36.7417 6.152ZM36.5617 14H35.7697V8H36.5617V14ZM41.0383 14.144C40.1343 14.144 39.3823 13.844 38.7823 13.244C38.1823 12.628 37.8823 11.88 37.8823 11C37.8823 10.112 38.1823 9.368 38.7823 8.768C39.3823 8.16 40.1343 7.856 41.0383 7.856C41.6303 7.856 42.1623 8 42.6343 8.288C43.1063 8.568 43.4503 8.948 43.6663 9.428L43.0183 9.8C42.8583 9.44 42.5983 9.156 42.2383 8.948C41.8863 8.732 41.4863 8.624 41.0383 8.624C40.3743 8.624 39.8143 8.856 39.3583 9.32C38.9023 9.776 38.6743 10.336 38.6743 11C38.6743 11.656 38.9023 12.22 39.3583 12.692C39.8143 13.148 40.3743 13.376 41.0383 13.376C41.4783 13.376 41.8743 13.272 42.2263 13.064C42.5863 12.856 42.8663 12.568 43.0663 12.2L43.7263 12.584C43.4783 13.064 43.1143 13.444 42.6343 13.724C42.1543 14.004 41.6223 14.144 41.0383 14.144ZM48.0434 8V8.768H46.3154V12.404C46.3154 12.732 46.3794 12.968 46.5074 13.112C46.6354 13.248 46.8274 13.32 47.0834 13.328C47.3394 13.328 47.6594 13.32 48.0434 13.304V14C47.1874 14.128 46.5514 14.068 46.1354 13.82C45.7274 13.564 45.5234 13.092 45.5234 12.404V8.768H44.2634V8H45.5234V6.56L46.3154 6.32V8H48.0434ZM54.0282 13.244C53.4122 13.844 52.6682 14.144 51.7962 14.144C50.9082 14.144 50.1602 13.844 49.5522 13.244C48.9442 12.636 48.6402 11.888 48.6402 11C48.6402 10.112 48.9442 9.368 49.5522 8.768C50.1602 8.16 50.9082 7.856 51.7962 7.856C52.6762 7.856 53.4202 8.16 54.0282 8.768C54.6442 9.368 54.9522 10.112 54.9522 11C54.9522 11.88 54.6442 12.628 54.0282 13.244ZM50.1162 12.692C50.5722 13.148 51.1322 13.376 51.7962 13.376C52.4602 13.376 53.0202 13.148 53.4762 12.692C53.9322 12.22 54.1602 11.656 54.1602 11C54.1602 10.336 53.9322 9.776 53.4762 9.32C53.0202 8.856 52.4602 8.624 51.7962 8.624C51.1322 8.624 50.5722 8.856 50.1162 9.32C49.6602 9.776 49.4322 10.336 49.4322 11C49.4322 11.656 49.6602 12.22 50.1162 12.692ZM57.0695 8V8.996C57.4375 8.268 58.0695 7.904 58.9655 7.904V8.672C58.3895 8.672 57.9295 8.84 57.5855 9.176C57.2415 9.504 57.0695 10 57.0695 10.664V14H56.2775V8H57.0695ZM62.5441 13.028L64.4881 8H65.3281L62.7601 14.552C62.5201 15.16 62.1841 15.628 61.7521 15.956C61.3281 16.292 60.8561 16.44 60.3361 16.4V15.656C61.0561 15.744 61.6041 15.328 61.9801 14.408L62.1361 14.036L59.4481 8H60.2881L62.5441 13.028ZM66.4072 13.46C66.4072 13.644 66.3432 13.8 66.2152 13.928C66.0872 14.056 65.9312 14.12 65.7472 14.12C65.5632 14.12 65.4072 14.056 65.2792 13.928C65.1512 13.8 65.0872 13.644 65.0872 13.46C65.0872 13.276 65.1512 13.12 65.2792 12.992C65.4072 12.864 65.5632 12.8 65.7472 12.8C65.9312 12.8 66.0872 12.864 66.2152 12.992C66.3432 13.12 66.4072 13.276 66.4072 13.46ZM72.6523 9.176V5.6H73.4443V14H72.6523V12.824C72.1003 13.704 71.2923 14.144 70.2283 14.144C69.3723 14.144 68.6403 13.84 68.0323 13.232C67.4323 12.624 67.1323 11.88 67.1323 11C67.1323 10.12 67.4323 9.376 68.0323 8.768C68.6403 8.16 69.3723 7.856 70.2283 7.856C71.2923 7.856 72.1003 8.296 72.6523 9.176ZM68.6083 12.692C69.0643 13.148 69.6243 13.376 70.2883 13.376C70.9523 13.376 71.5123 13.148 71.9683 12.692C72.4243 12.22 72.6523 11.656 72.6523 11C72.6523 10.336 72.4243 9.776 71.9683 9.32C71.5123 8.856 70.9523 8.624 70.2883 8.624C69.6243 8.624 69.0643 8.856 68.6083 9.32C68.1523 9.776 67.9243 10.336 67.9243 11C67.9243 11.656 68.1523 12.22 68.6083 12.692ZM75.9133 8V8.996C76.2813 8.268 76.9133 7.904 77.8092 7.904V8.672C77.2333 8.672 76.7733 8.84 76.4293 9.176C76.0853 9.504 75.9133 10 75.9133 10.664V14H75.1213V8H75.9133ZM83.5594 13.244C82.9434 13.844 82.1994 14.144 81.3274 14.144C80.4394 14.144 79.6914 13.844 79.0834 13.244C78.4754 12.636 78.1714 11.888 78.1714 11C78.1714 10.112 78.4754 9.368 79.0834 8.768C79.6914 8.16 80.4394 7.856 81.3274 7.856C82.2074 7.856 82.9514 8.16 83.5594 8.768C84.1754 9.368 84.4834 10.112 84.4834 11C84.4834 11.88 84.1754 12.628 83.5594 13.244ZM79.6474 12.692C80.1034 13.148 80.6634 13.376 81.3274 13.376C81.9914 13.376 82.5514 13.148 83.0074 12.692C83.4634 12.22 83.6914 11.656 83.6914 11C83.6914 10.336 83.4634 9.776 83.0074 9.32C82.5514 8.856 81.9914 8.624 81.3274 8.624C80.6634 8.624 80.1034 8.856 79.6474 9.32C79.1914 9.776 78.9634 10.336 78.9634 11C78.9634 11.656 79.1914 12.22 79.6474 12.692ZM89.0248 7.856C89.8808 7.856 90.6088 8.16 91.2088 8.768C91.8168 9.376 92.1208 10.12 92.1208 11C92.1208 11.88 91.8168 12.624 91.2088 13.232C90.6088 13.84 89.8808 14.144 89.0248 14.144C87.9608 14.144 87.1528 13.704 86.6008 12.824V14H85.8088V5.6H86.6008V9.176C87.1528 8.296 87.9608 7.856 89.0248 7.856ZM87.2848 12.692C87.7408 13.148 88.3008 13.376 88.9648 13.376C89.6288 13.376 90.1888 13.148 90.6448 12.692C91.1008 12.22 91.3288 11.656 91.3288 11C91.3288 10.336 91.1008 9.776 90.6448 9.32C90.1888 8.856 89.6288 8.624 88.9648 8.624C88.3008 8.624 87.7408 8.856 87.2848 9.32C86.8288 9.776 86.6008 10.336 86.6008 11C86.6008 11.656 86.8288 12.22 87.2848 12.692Z" fill="#272727"></path> <defs> <filter id="filter0_i_97_1191" x="0" y="0" width="113" height="28" filterUnits="userSpaceOnUse" color-interpolation-filters="sRGB"> <feFlood flood-opacity="0" result="BackgroundImageFix"></feFlood> <feBlend mode="normal" in="SourceGraphic" in2="BackgroundImageFix" result="shape"></feBlend> <feColorMatrix in="SourceAlpha" type="matrix" values="0 0 0 0 0 0 0 0 0 0 0 0 0 0 0 0 0 0 127 0" result="hardAlpha"></feColorMatrix> <feOffset dy="6"></feOffset> <feGaussianBlur stdDeviation="15"></feGaussianBlur> <feComposite in2="hardAlpha" operator="arithmetic" k2="-1" k3="1"></feComposite> <feColorMatrix type="matrix" values="0 0 0 0 1 0 0 0 0 1 0 0 0 0 1 0 0 0 0.35 0"></feColorMatrix> <feBlend mode="normal" in2="shape" result="effect1_innerShadow_97_1191"></feBlend> </filter> </defs> </svg> 