<?xml version="1.0" encoding="UTF-8"?> <svg xmlns="http://www.w3.org/2000/svg" width="113" height="22" viewBox="0 0 113 22" fill="none"> <g filter="url(#filter0_i_97_1188)"> <rect width="113" height="22" rx="10" fill="white"></rect> </g> <rect x="0.15" y="0.15" width="112.7" height="21.7" rx="9.85" stroke="white" stroke-width="0.3"></rect> <path d="M11.0869 7.88C11.7935 7.88 12.4202 8.05333 12.9669 8.4C13.5002 8.73333 13.9035 9.15667 14.1769 9.67C14.4502 10.1767 14.5869 10.72 14.5869 11.3C14.5869 12.0133 14.4435 12.5433 14.1569 12.89C13.8635 13.2433 13.5269 13.42 13.1469 13.42C12.8602 13.42 12.6169 13.3467 12.4169 13.2C12.2235 13.0533 12.0935 12.84 12.0269 12.56C11.7335 12.92 11.3635 13.1 10.9169 13.1C10.4502 13.1 10.0635 12.9467 9.75688 12.64C9.45021 12.3333 9.29688 11.9533 9.29688 11.5C9.29688 11.0467 9.45021 10.6667 9.75688 10.36C10.0635 10.0533 10.4502 9.9 10.9169 9.9C11.3435 9.9 11.6969 10.06 11.9769 10.38V9.97H12.5969V12.13C12.5969 12.77 12.8135 13.09 13.2469 13.09C13.5602 13.09 13.8102 12.94 13.9969 12.64C14.1902 12.34 14.2869 11.8933 14.2869 11.3C14.2869 10.4067 13.9769 9.66 13.3569 9.06C12.7502 8.46 11.9935 8.16 11.0869 8.16C10.1535 8.16 9.36354 8.48 8.71688 9.12C8.07021 9.76 7.74688 10.5533 7.74688 11.5C7.74688 12.4733 8.08021 13.2733 8.74688 13.9C9.41354 14.5267 10.2535 14.84 11.2669 14.84C11.9269 14.84 12.5069 14.7433 13.0069 14.55V14.85C12.5069 15.03 11.9269 15.12 11.2669 15.12C10.1735 15.12 9.26354 14.7767 8.53688 14.09C7.81021 13.41 7.44688 12.5467 7.44688 11.5C7.44688 10.5 7.79354 9.64667 8.48688 8.94C9.18688 8.23333 10.0535 7.88 11.0869 7.88ZM10.2169 12.23C10.4302 12.41 10.6769 12.5 10.9569 12.5C11.2435 12.5 11.4835 12.41 11.6769 12.23C11.8769 12.0433 11.9769 11.8 11.9769 11.5C11.9769 11.2 11.8769 10.96 11.6769 10.78C11.4902 10.5933 11.2502 10.5 10.9569 10.5C10.6702 10.5 10.4235 10.5933 10.2169 10.78C10.0169 10.96 9.91688 11.2 9.91688 11.5C9.91688 11.7933 10.0169 12.0367 10.2169 12.23ZM21.0163 8.88C21.583 8.88 22.0363 9.06 22.3763 9.42C22.7163 9.78 22.8863 10.2667 22.8863 10.88V14H22.2263V10.88C22.2263 10.4533 22.1163 10.12 21.8963 9.88C21.6763 9.64 21.3797 9.52 21.0063 9.52C20.573 9.52 20.233 9.66333 19.9863 9.95C19.7397 10.2367 19.6163 10.6633 19.6163 11.23V14H18.9563V10.88C18.9563 10.4467 18.853 10.1133 18.6463 9.88C18.4397 9.64 18.153 9.52 17.7863 9.52C17.3663 9.52 17.0197 9.66667 16.7463 9.96C16.4797 10.2533 16.3463 10.6767 16.3463 11.23V14H15.6863V9H16.3463V9.73C16.7063 9.16333 17.2163 8.88 17.8763 8.88C18.603 8.88 19.1097 9.18333 19.3963 9.79C19.7563 9.18333 20.2963 8.88 21.0163 8.88ZM28.4629 9.98V9H29.1229V14H28.4629V13.02C28.0029 13.7533 27.3296 14.12 26.4429 14.12C25.7296 14.12 25.1196 13.8667 24.6129 13.36C24.1129 12.8533 23.8629 12.2333 23.8629 11.5C23.8629 10.7667 24.1129 10.1467 24.6129 9.64C25.1196 9.13333 25.7296 8.88 26.4429 8.88C27.3296 8.88 28.0029 9.24667 28.4629 9.98ZM25.0929 12.91C25.4729 13.29 25.9396 13.48 26.4929 13.48C27.0462 13.48 27.5129 13.29 27.8929 12.91C28.2729 12.5167 28.4629 12.0467 28.4629 11.5C28.4629 10.9467 28.2729 10.48 27.8929 10.1C27.5129 9.71333 27.0462 9.52 26.4929 9.52C25.9396 9.52 25.4729 9.71333 25.0929 10.1C24.7129 10.48 24.5229 10.9467 24.5229 11.5C24.5229 12.0467 24.7129 12.5167 25.0929 12.91ZM31.8803 11.4L34.5603 14H33.6803L31.1803 11.59V14H30.5203V7H31.1803V11.21L33.5603 9H34.4603L31.8803 11.4ZM39.2637 9.98V9H39.9237V14H39.2637V13.02C38.8037 13.7533 38.1303 14.12 37.2437 14.12C36.5303 14.12 35.9203 13.8667 35.4137 13.36C34.9137 12.8533 34.6637 12.2333 34.6637 11.5C34.6637 10.7667 34.9137 10.1467 35.4137 9.64C35.9203 9.13333 36.5303 8.88 37.2437 8.88C38.1303 8.88 38.8037 9.24667 39.2637 9.98ZM35.8937 12.91C36.2737 13.29 36.7403 13.48 37.2937 13.48C37.847 13.48 38.3137 13.29 38.6937 12.91C39.0737 12.5167 39.2637 12.0467 39.2637 11.5C39.2637 10.9467 39.0737 10.48 38.6937 10.1C38.3137 9.71333 37.847 9.52 37.2937 9.52C36.7403 9.52 36.2737 9.71333 35.8937 10.1C35.5137 10.48 35.3237 10.9467 35.3237 11.5C35.3237 12.0467 35.5137 12.5167 35.8937 12.91ZM41.9811 9V9.83C42.2878 9.22333 42.8144 8.92 43.5611 8.92V9.56C43.0811 9.56 42.6978 9.7 42.4111 9.98C42.1244 10.2533 41.9811 10.6667 41.9811 11.22V14H41.3211V9H41.9811ZM48.3529 13.37C47.8396 13.87 47.2196 14.12 46.4929 14.12C45.7529 14.12 45.1296 13.87 44.6229 13.37C44.1162 12.8633 43.8629 12.24 43.8629 11.5C43.8629 10.76 44.1162 10.14 44.6229 9.64C45.1296 9.13333 45.7529 8.88 46.4929 8.88C47.2262 8.88 47.8462 9.13333 48.3529 9.64C48.8662 10.14 49.1229 10.76 49.1229 11.5C49.1229 12.2333 48.8662 12.8567 48.3529 13.37ZM45.0929 12.91C45.4729 13.29 45.9396 13.48 46.4929 13.48C47.0462 13.48 47.5129 13.29 47.8929 12.91C48.2729 12.5167 48.4629 12.0467 48.4629 11.5C48.4629 10.9467 48.2729 10.48 47.8929 10.1C47.5129 9.71333 47.0462 9.52 46.4929 9.52C45.9396 9.52 45.4729 9.71333 45.0929 10.1C44.7129 10.48 44.5229 10.9467 44.5229 11.5C44.5229 12.0467 44.7129 12.5167 45.0929 12.91ZM51.882 13.31L53.632 9H54.332L52.282 14H51.482L49.432 9H50.132L51.882 13.31ZM59.2344 9.98V9H59.8944V14H59.2344V13.02C58.7744 13.7533 58.101 14.12 57.2144 14.12C56.501 14.12 55.891 13.8667 55.3844 13.36C54.8844 12.8533 54.6344 12.2333 54.6344 11.5C54.6344 10.7667 54.8844 10.1467 55.3844 9.64C55.891 9.13333 56.501 8.88 57.2144 8.88C58.101 8.88 58.7744 9.24667 59.2344 9.98ZM55.8644 12.91C56.2444 13.29 56.711 13.48 57.2644 13.48C57.8177 13.48 58.2844 13.29 58.6644 12.91C59.0444 12.5167 59.2344 12.0467 59.2344 11.5C59.2344 10.9467 59.0444 10.48 58.6644 10.1C58.2844 9.71333 57.8177 9.52 57.2644 9.52C56.711 9.52 56.2444 9.71333 55.8644 10.1C55.4844 10.48 55.2944 10.9467 55.2944 11.5C55.2944 12.0467 55.4844 12.5167 55.8644 12.91ZM65.5918 9.98V7H66.2518V14H65.5918V13.02C65.1318 13.7533 64.4585 14.12 63.5718 14.12C62.8585 14.12 62.2485 13.8667 61.7418 13.36C61.2418 12.8533 60.9918 12.2333 60.9918 11.5C60.9918 10.7667 61.2418 10.1467 61.7418 9.64C62.2485 9.13333 62.8585 8.88 63.5718 8.88C64.4585 8.88 65.1318 9.24667 65.5918 9.98ZM62.2218 12.91C62.6018 13.29 63.0685 13.48 63.6218 13.48C64.1751 13.48 64.6418 13.29 65.0218 12.91C65.4018 12.5167 65.5918 12.0467 65.5918 11.5C65.5918 10.9467 65.4018 10.48 65.0218 10.1C64.6418 9.71333 64.1751 9.52 63.6218 9.52C63.0685 9.52 62.6018 9.71333 62.2218 10.1C61.8418 10.48 61.6518 10.9467 61.6518 11.5C61.6518 12.0467 61.8418 12.5167 62.2218 12.91ZM71.9492 9.98V9H72.6092V14H71.9492V13.02C71.4892 13.7533 70.8159 14.12 69.9292 14.12C69.2159 14.12 68.6059 13.8667 68.0992 13.36C67.5992 12.8533 67.3492 12.2333 67.3492 11.5C67.3492 10.7667 67.5992 10.1467 68.0992 9.64C68.6059 9.13333 69.2159 8.88 69.9292 8.88C70.8159 8.88 71.4892 9.24667 71.9492 9.98ZM68.5792 12.91C68.9592 13.29 69.4259 13.48 69.9792 13.48C70.5326 13.48 70.9992 13.29 71.3792 12.91C71.7592 12.5167 71.9492 12.0467 71.9492 11.5C71.9492 10.9467 71.7592 10.48 71.3792 10.1C70.9992 9.71333 70.5326 9.52 69.9792 9.52C69.4259 9.52 68.9592 9.71333 68.5792 10.1C68.1992 10.48 68.0092 10.9467 68.0092 11.5C68.0092 12.0467 68.1992 12.5167 68.5792 12.91ZM74.5266 10.31C74.5266 10.6967 74.87 10.98 75.5566 11.16C75.75 11.2067 75.8766 11.24 75.9366 11.26C75.9966 11.2733 76.1133 11.31 76.2866 11.37C76.4666 11.4233 76.59 11.47 76.6566 11.51C76.73 11.55 76.83 11.6133 76.9566 11.7C77.0833 11.78 77.1733 11.8633 77.2266 11.95C77.28 12.03 77.33 12.1367 77.3766 12.27C77.4233 12.3967 77.4466 12.5333 77.4466 12.68C77.4466 13.1067 77.2766 13.4533 76.9366 13.72C76.61 13.9867 76.1766 14.12 75.6366 14.12C75.17 14.12 74.7666 14.0167 74.4266 13.81C74.0866 13.5967 73.8466 13.3167 73.7066 12.97L74.2666 12.64C74.36 12.9 74.5266 13.1067 74.7666 13.26C75.0133 13.4067 75.3033 13.48 75.6366 13.48C75.9766 13.48 76.2533 13.4133 76.4666 13.28C76.68 13.1467 76.7866 12.9467 76.7866 12.68C76.7866 12.2933 76.4433 12.01 75.7566 11.83C75.5633 11.7833 75.4366 11.7533 75.3766 11.74C75.3166 11.72 75.1966 11.6833 75.0166 11.63C74.8433 11.57 74.72 11.52 74.6466 11.48C74.58 11.44 74.4833 11.38 74.3566 11.3C74.23 11.2133 74.14 11.13 74.0866 11.05C74.0333 10.9633 73.9833 10.8567 73.9366 10.73C73.89 10.5967 73.8666 10.4567 73.8666 10.31C73.8666 9.90333 74.0266 9.56333 74.3466 9.29C74.68 9.01667 75.09 8.88 75.5766 8.88C75.9766 8.88 76.33 8.97 76.6366 9.15C76.95 9.33 77.18 9.58 77.3266 9.9L76.7766 10.22C76.59 9.75333 76.19 9.52 75.5766 9.52C75.2766 9.52 75.0266 9.59 74.8266 9.73C74.6266 9.87 74.5266 10.0633 74.5266 10.31ZM80.7312 14.12C79.9778 14.12 79.3512 13.87 78.8512 13.37C78.3512 12.8567 78.1012 12.2333 78.1012 11.5C78.1012 10.76 78.3512 10.14 78.8512 9.64C79.3512 9.13333 79.9778 8.88 80.7312 8.88C81.2245 8.88 81.6678 9 82.0612 9.24C82.4545 9.47333 82.7412 9.79 82.9212 10.19L82.3812 10.5C82.2478 10.2 82.0312 9.96333 81.7312 9.79C81.4378 9.61 81.1045 9.52 80.7312 9.52C80.1778 9.52 79.7112 9.71333 79.3312 10.1C78.9512 10.48 78.7612 10.9467 78.7612 11.5C78.7612 12.0467 78.9512 12.5167 79.3312 12.91C79.7112 13.29 80.1778 13.48 80.7312 13.48C81.0978 13.48 81.4278 13.3933 81.7212 13.22C82.0212 13.0467 82.2545 12.8067 82.4212 12.5L82.9712 12.82C82.7645 13.22 82.4612 13.5367 82.0612 13.77C81.6612 14.0033 81.2178 14.12 80.7312 14.12ZM86.2588 8.88C86.8588 8.88 87.3354 9.06667 87.6888 9.44C88.0421 9.80667 88.2188 10.3033 88.2188 10.93V14H87.5588V10.93C87.5588 10.4833 87.4388 10.1367 87.1988 9.89C86.9654 9.64333 86.6321 9.52 86.1988 9.52C85.6988 9.52 85.3021 9.67667 85.0088 9.99C84.7221 10.3033 84.5788 10.7667 84.5788 11.38V14H83.9188V7H84.5788V9.78C84.9521 9.18 85.5121 8.88 86.2588 8.88ZM90.8549 11.4L93.5349 14H92.6549L90.1549 11.59V14H89.4949V7H90.1549V11.21L92.5349 9H93.4349L90.8549 11.4ZM98.2383 9.98V9H98.8983V14H98.2383V13.02C97.7783 13.7533 97.1049 14.12 96.2183 14.12C95.5049 14.12 94.8949 13.8667 94.3883 13.36C93.8883 12.8533 93.6383 12.2333 93.6383 11.5C93.6383 10.7667 93.8883 10.1467 94.3883 9.64C94.8949 9.13333 95.5049 8.88 96.2183 8.88C97.1049 8.88 97.7783 9.24667 98.2383 9.98ZM94.8683 12.91C95.2483 13.29 95.7149 13.48 96.2683 13.48C96.8216 13.48 97.2883 13.29 97.6683 12.91C98.0483 12.5167 98.2383 12.0467 98.2383 11.5C98.2383 10.9467 98.0483 10.48 97.6683 10.1C97.2883 9.71333 96.8216 9.52 96.2683 9.52C95.7149 9.52 95.2483 9.71333 94.8683 10.1C94.4883 10.48 94.2983 10.9467 94.2983 11.5C94.2983 12.0467 94.4883 12.5167 94.8683 12.91ZM104.596 9.98V9H105.256V14H104.596V13.02C104.136 13.7533 103.462 14.12 102.576 14.12C101.862 14.12 101.252 13.8667 100.746 13.36C100.246 12.8533 99.9957 12.2333 99.9957 11.5C99.9957 10.7667 100.246 10.1467 100.746 9.64C101.252 9.13333 101.862 8.88 102.576 8.88C103.462 8.88 104.136 9.24667 104.596 9.98ZM101.226 12.91C101.606 13.29 102.072 13.48 102.626 13.48C103.179 13.48 103.646 13.29 104.026 12.91C104.406 12.5167 104.596 12.0467 104.596 11.5C104.596 10.9467 104.406 10.48 104.026 10.1C103.646 9.71333 103.179 9.52 102.626 9.52C102.072 9.52 101.606 9.71333 101.226 10.1C100.846 10.48 100.656 10.9467 100.656 11.5C100.656 12.0467 100.846 12.5167 101.226 12.91Z" fill="#272727"></path> <defs> <filter id="filter0_i_97_1188" x="0" y="0" width="113" height="28" filterUnits="userSpaceOnUse" color-interpolation-filters="sRGB"> <feFlood flood-opacity="0" result="BackgroundImageFix"></feFlood> <feBlend mode="normal" in="SourceGraphic" in2="BackgroundImageFix" result="shape"></feBlend> <feColorMatrix in="SourceAlpha" type="matrix" values="0 0 0 0 0 0 0 0 0 0 0 0 0 0 0 0 0 0 127 0" result="hardAlpha"></feColorMatrix> <feOffset dy="6"></feOffset> <feGaussianBlur stdDeviation="15"></feGaussianBlur> <feComposite in2="hardAlpha" operator="arithmetic" k2="-1" k3="1"></feComposite> <feColorMatrix type="matrix" values="0 0 0 0 1 0 0 0 0 1 0 0 0 0 1 0 0 0 0.35 0"></feColorMatrix> <feBlend mode="normal" in2="shape" result="effect1_innerShadow_97_1188"></feBlend> </filter> </defs> </svg> 