<?xml version="1.0" encoding="UTF-8"?> <svg xmlns="http://www.w3.org/2000/svg" width="113" height="22" viewBox="0 0 113 22" fill="none"> <g filter="url(#filter0_i_97_1149)"> <rect width="113" height="22" rx="10" fill="white"></rect> </g> <rect x="0.15" y="0.15" width="112.7" height="21.7" rx="9.85" stroke="white" stroke-width="0.3"></rect> <path d="M10.2601 6.656C11.1081 6.656 11.8601 6.864 12.5161 7.28C13.1561 7.68 13.6401 8.188 13.9681 8.804C14.2961 9.412 14.4601 10.064 14.4601 10.76C14.4601 11.616 14.2881 12.252 13.9441 12.668C13.5921 13.092 13.1881 13.304 12.7321 13.304C12.3881 13.304 12.0961 13.216 11.8561 13.04C11.6241 12.864 11.4681 12.608 11.3881 12.272C11.0361 12.704 10.5921 12.92 10.0561 12.92C9.49611 12.92 9.03211 12.736 8.66411 12.368C8.29611 12 8.11211 11.544 8.11211 11C8.11211 10.456 8.29611 10 8.66411 9.632C9.03211 9.264 9.49611 9.08 10.0561 9.08C10.5681 9.08 10.9921 9.272 11.3281 9.656V9.164H12.0721V11.756C12.0721 12.524 12.3321 12.908 12.8521 12.908C13.2281 12.908 13.5281 12.728 13.7521 12.368C13.9841 12.008 14.1001 11.472 14.1001 10.76C14.1001 9.688 13.7281 8.792 12.9841 8.072C12.2561 7.352 11.3481 6.992 10.2601 6.992C9.14011 6.992 8.19211 7.376 7.41611 8.144C6.64011 8.912 6.25211 9.864 6.25211 11C6.25211 12.168 6.65211 13.128 7.45211 13.88C8.25211 14.632 9.26011 15.008 10.4761 15.008C11.2681 15.008 11.9641 14.892 12.5641 14.66V15.02C11.9641 15.236 11.2681 15.344 10.4761 15.344C9.16411 15.344 8.07211 14.932 7.20011 14.108C6.32811 13.292 5.89211 12.256 5.89211 11C5.89211 9.8 6.30811 8.776 7.14011 7.928C7.98011 7.08 9.02011 6.656 10.2601 6.656ZM9.21611 11.876C9.47211 12.092 9.76811 12.2 10.1041 12.2C10.4481 12.2 10.7361 12.092 10.9681 11.876C11.2081 11.652 11.3281 11.36 11.3281 11C11.3281 10.64 11.2081 10.352 10.9681 10.136C10.7441 9.912 10.4561 9.8 10.1041 9.8C9.76011 9.8 9.46411 9.912 9.21611 10.136C8.97611 10.352 8.85611 10.64 8.85611 11C8.85611 11.352 8.97611 11.644 9.21611 11.876ZM17.4115 10.88L20.6275 14H19.5715L16.5715 11.108V14H15.7795V5.6H16.5715V10.652L19.4275 8H20.5075L17.4115 10.88ZM26.2715 9.176V8H27.0635V14H26.2715V12.824C25.7195 13.704 24.9115 14.144 23.8475 14.144C22.9915 14.144 22.2595 13.84 21.6515 13.232C21.0515 12.624 20.7515 11.88 20.7515 11C20.7515 10.12 21.0515 9.376 21.6515 8.768C22.2595 8.16 22.9915 7.856 23.8475 7.856C24.9115 7.856 25.7195 8.296 26.2715 9.176ZM22.2275 12.692C22.6835 13.148 23.2435 13.376 23.9075 13.376C24.5715 13.376 25.1315 13.148 25.5875 12.692C26.0435 12.22 26.2715 11.656 26.2715 11C26.2715 10.336 26.0435 9.776 25.5875 9.32C25.1315 8.856 24.5715 8.624 23.9075 8.624C23.2435 8.624 22.6835 8.856 22.2275 9.32C21.7715 9.776 21.5435 10.336 21.5435 11C21.5435 11.656 21.7715 12.22 22.2275 12.692ZM32.9404 8.528L29.6044 13.232H33.0604V14H28.5004V13.472L31.8364 8.768H28.6204V8H32.9404V8.528ZM37.1851 7.856C37.9051 7.856 38.4771 8.08 38.9011 8.528C39.3251 8.968 39.5371 9.564 39.5371 10.316V14H38.7451V10.316C38.7451 9.78 38.6011 9.364 38.3131 9.068C38.0331 8.772 37.6331 8.624 37.1131 8.624C36.5131 8.624 36.0371 8.812 35.6851 9.188C35.3411 9.564 35.1691 10.12 35.1691 10.856V14H34.3771V5.6H35.1691V8.936C35.6171 8.216 36.2891 7.856 37.1851 7.856ZM46.2285 9.176V8H47.0205V14H46.2285V12.824C45.6765 13.704 44.8685 14.144 43.8045 14.144C42.9485 14.144 42.2165 13.84 41.6085 13.232C41.0085 12.624 40.7085 11.88 40.7085 11C40.7085 10.12 41.0085 9.376 41.6085 8.768C42.2165 8.16 42.9485 7.856 43.8045 7.856C44.8685 7.856 45.6765 8.296 46.2285 9.176ZM42.1845 12.692C42.6405 13.148 43.2005 13.376 43.8645 13.376C44.5285 13.376 45.0885 13.148 45.5445 12.692C46.0005 12.22 46.2285 11.656 46.2285 11C46.2285 10.336 46.0005 9.776 45.5445 9.32C45.0885 8.856 44.5285 8.624 43.8645 8.624C43.2005 8.624 42.6405 8.856 42.1845 9.32C41.7285 9.776 41.5005 10.336 41.5005 11C41.5005 11.656 41.7285 12.22 42.1845 12.692ZM51.5054 7.856C52.2254 7.856 52.7974 8.08 53.2214 8.528C53.6454 8.968 53.8574 9.564 53.8574 10.316V14H53.0654V10.316C53.0654 9.78 52.9214 9.364 52.6334 9.068C52.3534 8.772 51.9534 8.624 51.4334 8.624C50.8334 8.624 50.3574 8.812 50.0054 9.188C49.6614 9.564 49.4894 10.12 49.4894 10.856V14H48.6974V8H49.4894V8.936C49.9374 8.216 50.6094 7.856 51.5054 7.856ZM60.3088 15.692H55.0288V14.924H60.3088V15.692ZM62.9995 13.172L65.0995 8H65.9395L63.4795 14H62.5195L60.0595 8H60.8995L62.9995 13.172ZM67.6886 14H66.8966V5.24H67.6886V14ZM74.5293 9.176V8H75.3213V14H74.5293V12.824C73.9773 13.704 73.1693 14.144 72.1053 14.144C71.2493 14.144 70.5173 13.84 69.9093 13.232C69.3093 12.624 69.0093 11.88 69.0093 11C69.0093 10.12 69.3093 9.376 69.9093 8.768C70.5173 8.16 71.2493 7.856 72.1053 7.856C73.1693 7.856 73.9773 8.296 74.5293 9.176ZM70.4853 12.692C70.9413 13.148 71.5013 13.376 72.1653 13.376C72.8293 13.376 73.3893 13.148 73.8453 12.692C74.3013 12.22 74.5293 11.656 74.5293 11C74.5293 10.336 74.3013 9.776 73.8453 9.32C73.3893 8.856 72.8293 8.624 72.1653 8.624C71.5013 8.624 70.9413 8.856 70.4853 9.32C70.0293 9.776 69.8013 10.336 69.8013 11C69.8013 11.656 70.0293 12.22 70.4853 12.692ZM82.1582 9.176V5.6H82.9502V14H82.1582V12.824C81.6062 13.704 80.7982 14.144 79.7342 14.144C78.8782 14.144 78.1462 13.84 77.5382 13.232C76.9382 12.624 76.6382 11.88 76.6382 11C76.6382 10.12 76.9382 9.376 77.5382 8.768C78.1462 8.16 78.8782 7.856 79.7342 7.856C80.7982 7.856 81.6062 8.296 82.1582 9.176ZM78.1142 12.692C78.5702 13.148 79.1302 13.376 79.7942 13.376C80.4582 13.376 81.0182 13.148 81.4742 12.692C81.9302 12.22 82.1582 11.656 82.1582 11C82.1582 10.336 81.9302 9.776 81.4742 9.32C81.0182 8.856 80.4582 8.624 79.7942 8.624C79.1302 8.624 78.5702 8.856 78.1142 9.32C77.6582 9.776 77.4302 10.336 77.4302 11C77.4302 11.656 77.6582 12.22 78.1142 12.692ZM85.4191 14H84.6271V5.24H85.4191V14ZM89.8718 7.856C90.7678 7.856 91.4838 8.172 92.0198 8.804C92.5718 9.428 92.8478 10.168 92.8478 11.024C92.8478 11.064 92.8398 11.188 92.8238 11.396H87.5558C87.6358 11.996 87.8918 12.476 88.3238 12.836C88.7558 13.196 89.2958 13.376 89.9438 13.376C90.8558 13.376 91.4998 13.036 91.8758 12.356L92.5718 12.764C92.3078 13.196 91.9438 13.536 91.4798 13.784C91.0238 14.024 90.5078 14.144 89.9318 14.144C88.9878 14.144 88.2198 13.848 87.6278 13.256C87.0358 12.664 86.7398 11.912 86.7398 11C86.7398 10.096 87.0318 9.348 87.6158 8.756C88.1998 8.156 88.9518 7.856 89.8718 7.856ZM89.8718 8.624C89.2478 8.624 88.7238 8.808 88.2998 9.176C87.8838 9.544 87.6358 10.028 87.5558 10.628H92.0318C91.9438 9.988 91.6998 9.496 91.2998 9.152C90.8838 8.8 90.4078 8.624 89.8718 8.624ZM96.9156 7.856C97.6356 7.856 98.2076 8.08 98.6316 8.528C99.0556 8.968 99.2676 9.564 99.2676 10.316V14H98.4756V10.316C98.4756 9.78 98.3316 9.364 98.0436 9.068C97.7636 8.772 97.3636 8.624 96.8436 8.624C96.2436 8.624 95.7676 8.812 95.4156 9.188C95.0716 9.564 94.8996 10.12 94.8996 10.856V14H94.1076V8H94.8996V8.936C95.3476 8.216 96.0196 7.856 96.9156 7.856ZM105.959 9.176V8H106.751V14H105.959V12.824C105.407 13.704 104.599 14.144 103.535 14.144C102.679 14.144 101.947 13.84 101.339 13.232C100.739 12.624 100.439 11.88 100.439 11C100.439 10.12 100.739 9.376 101.339 8.768C101.947 8.16 102.679 7.856 103.535 7.856C104.599 7.856 105.407 8.296 105.959 9.176ZM101.915 12.692C102.371 13.148 102.931 13.376 103.595 13.376C104.259 13.376 104.819 13.148 105.275 12.692C105.731 12.22 105.959 11.656 105.959 11C105.959 10.336 105.731 9.776 105.275 9.32C104.819 8.856 104.259 8.624 103.595 8.624C102.931 8.624 102.371 8.856 101.915 9.32C101.459 9.776 101.231 10.336 101.231 11C101.231 11.656 101.459 12.22 101.915 12.692Z" fill="#272727"></path> <defs> <filter id="filter0_i_97_1149" x="0" y="0" width="113" height="28" filterUnits="userSpaceOnUse" color-interpolation-filters="sRGB"> <feFlood flood-opacity="0" result="BackgroundImageFix"></feFlood> <feBlend mode="normal" in="SourceGraphic" in2="BackgroundImageFix" result="shape"></feBlend> <feColorMatrix in="SourceAlpha" type="matrix" values="0 0 0 0 0 0 0 0 0 0 0 0 0 0 0 0 0 0 127 0" result="hardAlpha"></feColorMatrix> <feOffset dy="6"></feOffset> <feGaussianBlur stdDeviation="15"></feGaussianBlur> <feComposite in2="hardAlpha" operator="arithmetic" k2="-1" k3="1"></feComposite> <feColorMatrix type="matrix" values="0 0 0 0 1 0 0 0 0 1 0 0 0 0 1 0 0 0 0.35 0"></feColorMatrix> <feBlend mode="normal" in2="shape" result="effect1_innerShadow_97_1149"></feBlend> </filter> </defs> </svg> 