<?xml version="1.0" encoding="UTF-8"?> <svg xmlns="http://www.w3.org/2000/svg" width="113" height="22" viewBox="0 0 113 22" fill="none"> <g filter="url(#filter0_i_97_1152)"> <rect width="113" height="22" rx="10" fill="white"></rect> </g> <rect x="0.15" y="0.15" width="112.7" height="21.7" rx="9.85" stroke="white" stroke-width="0.3"></rect> <path d="M13.2255 7.88C13.9322 7.88 14.5589 8.05333 15.1055 8.4C15.6389 8.73333 16.0422 9.15667 16.3155 9.67C16.5889 10.1767 16.7255 10.72 16.7255 11.3C16.7255 12.0133 16.5822 12.5433 16.2955 12.89C16.0022 13.2433 15.6655 13.42 15.2855 13.42C14.9989 13.42 14.7555 13.3467 14.5555 13.2C14.3622 13.0533 14.2322 12.84 14.1655 12.56C13.8722 12.92 13.5022 13.1 13.0555 13.1C12.5889 13.1 12.2022 12.9467 11.8955 12.64C11.5889 12.3333 11.4355 11.9533 11.4355 11.5C11.4355 11.0467 11.5889 10.6667 11.8955 10.36C12.2022 10.0533 12.5889 9.9 13.0555 9.9C13.4822 9.9 13.8355 10.06 14.1155 10.38V9.97H14.7355V12.13C14.7355 12.77 14.9522 13.09 15.3855 13.09C15.6989 13.09 15.9489 12.94 16.1355 12.64C16.3289 12.34 16.4255 11.8933 16.4255 11.3C16.4255 10.4067 16.1155 9.66 15.4955 9.06C14.8889 8.46 14.1322 8.16 13.2255 8.16C12.2922 8.16 11.5022 8.48 10.8555 9.12C10.2089 9.76 9.88555 10.5533 9.88555 11.5C9.88555 12.4733 10.2189 13.2733 10.8855 13.9C11.5522 14.5267 12.3922 14.84 13.4055 14.84C14.0655 14.84 14.6455 14.7433 15.1455 14.55V14.85C14.6455 15.03 14.0655 15.12 13.4055 15.12C12.3122 15.12 11.4022 14.7767 10.6755 14.09C9.94888 13.41 9.58555 12.5467 9.58555 11.5C9.58555 10.5 9.93221 9.64667 10.6255 8.94C11.3255 8.23333 12.1922 7.88 13.2255 7.88ZM12.3555 12.23C12.5689 12.41 12.8155 12.5 13.0955 12.5C13.3822 12.5 13.6222 12.41 13.8155 12.23C14.0155 12.0433 14.1155 11.8 14.1155 11.5C14.1155 11.2 14.0155 10.96 13.8155 10.78C13.6289 10.5933 13.3889 10.5 13.0955 10.5C12.8089 10.5 12.5622 10.5933 12.3555 10.78C12.1555 10.96 12.0555 11.2 12.0555 11.5C12.0555 11.7933 12.1555 12.0367 12.3555 12.23ZM20.135 8.88C20.8817 8.88 21.4783 9.14333 21.925 9.67C22.385 10.19 22.615 10.8067 22.615 11.52C22.615 11.5533 22.6083 11.6567 22.595 11.83H18.205C18.2717 12.33 18.485 12.73 18.845 13.03C19.205 13.33 19.655 13.48 20.195 13.48C20.955 13.48 21.4917 13.1967 21.805 12.63L22.385 12.97C22.165 13.33 21.8617 13.6133 21.475 13.82C21.095 14.02 20.665 14.12 20.185 14.12C19.3983 14.12 18.7583 13.8733 18.265 13.38C17.7717 12.8867 17.525 12.26 17.525 11.5C17.525 10.7467 17.7683 10.1233 18.255 9.63C18.7417 9.13 19.3683 8.88 20.135 8.88ZM20.135 9.52C19.615 9.52 19.1783 9.67333 18.825 9.98C18.4783 10.2867 18.2717 10.69 18.205 11.19H21.935C21.8617 10.6567 21.6583 10.2467 21.325 9.96C20.9783 9.66667 20.5817 9.52 20.135 9.52ZM25.0248 11.4L27.7048 14H26.8248L24.3248 11.59V14H23.6648V7H24.3248V11.21L26.7048 9H27.6048L25.0248 11.4ZM32.4082 9.98V9H33.0682V14H32.4082V13.02C31.9482 13.7533 31.2749 14.12 30.3882 14.12C29.6749 14.12 29.0649 13.8667 28.5582 13.36C28.0582 12.8533 27.8082 12.2333 27.8082 11.5C27.8082 10.7667 28.0582 10.1467 28.5582 9.64C29.0649 9.13333 29.6749 8.88 30.3882 8.88C31.2749 8.88 31.9482 9.24667 32.4082 9.98ZM29.0382 12.91C29.4182 13.29 29.8849 13.48 30.4382 13.48C30.9915 13.48 31.4582 13.29 31.8382 12.91C32.2182 12.5167 32.4082 12.0467 32.4082 11.5C32.4082 10.9467 32.2182 10.48 31.8382 10.1C31.4582 9.71333 30.9915 9.52 30.4382 9.52C29.8849 9.52 29.4182 9.71333 29.0382 10.1C28.6582 10.48 28.4682 10.9467 28.4682 11.5C28.4682 12.0467 28.6582 12.5167 29.0382 12.91ZM37.1156 9V9.64H35.6756V12.67C35.6756 12.9433 35.729 13.14 35.8356 13.26C35.9423 13.3733 36.1023 13.4333 36.3156 13.44C36.529 13.44 36.7956 13.4333 37.1156 13.42V14C36.4023 14.1067 35.8723 14.0567 35.5256 13.85C35.1856 13.6367 35.0156 13.2433 35.0156 12.67V9.64H33.9656V9H35.0156V7.8L35.6756 7.6V9H37.1156ZM40.2229 8.88C40.9696 8.88 41.5662 9.14333 42.0129 9.67C42.4729 10.19 42.7029 10.8067 42.7029 11.52C42.7029 11.5533 42.6962 11.6567 42.6829 11.83H38.2929C38.3596 12.33 38.5729 12.73 38.9329 13.03C39.2929 13.33 39.7429 13.48 40.2829 13.48C41.0429 13.48 41.5796 13.1967 41.8929 12.63L42.4729 12.97C42.2529 13.33 41.9496 13.6133 41.5629 13.82C41.1829 14.02 40.7529 14.12 40.2729 14.12C39.4862 14.12 38.8462 13.8733 38.3529 13.38C37.8596 12.8867 37.6129 12.26 37.6129 11.5C37.6129 10.7467 37.8562 10.1233 38.3429 9.63C38.8296 9.13 39.4562 8.88 40.2229 8.88ZM40.2229 9.52C39.7029 9.52 39.2662 9.67333 38.9129 9.98C38.5662 10.2867 38.3596 10.69 38.2929 11.19H42.0229C41.9496 10.6567 41.7462 10.2467 41.4129 9.96C41.0662 9.66667 40.6696 9.52 40.2229 9.52ZM44.4127 9V9.83C44.7194 9.22333 45.2461 8.92 45.9927 8.92V9.56C45.5127 9.56 45.1294 9.7 44.8427 9.98C44.5561 10.2533 44.4127 10.6667 44.4127 11.22V14H43.7527V9H44.4127ZM47.7073 7.46C47.7073 7.59333 47.6606 7.70667 47.5673 7.8C47.4739 7.89333 47.3606 7.94 47.2273 7.94C47.0939 7.94 46.9806 7.89333 46.8873 7.8C46.7939 7.70667 46.7473 7.59333 46.7473 7.46C46.7473 7.32667 46.7939 7.21333 46.8873 7.12C46.9806 7.02667 47.0939 6.98 47.2273 6.98C47.3606 6.98 47.4739 7.02667 47.5673 7.12C47.6606 7.21333 47.7073 7.32667 47.7073 7.46ZM47.5573 14H46.8973V9H47.5573V14ZM51.2978 8.88C51.8978 8.88 52.3745 9.06667 52.7278 9.44C53.0811 9.80667 53.2578 10.3033 53.2578 10.93V14H52.5978V10.93C52.5978 10.4833 52.4778 10.1367 52.2378 9.89C52.0045 9.64333 51.6711 9.52 51.2378 9.52C50.7378 9.52 50.3411 9.67667 50.0478 9.99C49.7611 10.3033 49.6178 10.7667 49.6178 11.38V14H48.9578V9H49.6178V9.78C49.9911 9.18 50.5511 8.88 51.2978 8.88ZM58.834 9.98V9H59.494V14H58.834V13.02C58.374 13.7533 57.7007 14.12 56.814 14.12C56.1007 14.12 55.4907 13.8667 54.984 13.36C54.484 12.8533 54.234 12.2333 54.234 11.5C54.234 10.7667 54.484 10.1467 54.984 9.64C55.4907 9.13333 56.1007 8.88 56.814 8.88C57.7007 8.88 58.374 9.24667 58.834 9.98ZM55.464 12.91C55.844 13.29 56.3107 13.48 56.864 13.48C57.4173 13.48 57.884 13.29 58.264 12.91C58.644 12.5167 58.834 12.0467 58.834 11.5C58.834 10.9467 58.644 10.48 58.264 10.1C57.884 9.71333 57.4173 9.52 56.864 9.52C56.3107 9.52 55.844 9.71333 55.464 10.1C55.084 10.48 54.894 10.9467 54.894 11.5C54.894 12.0467 55.084 12.5167 55.464 12.91ZM61.8914 13.55C61.8914 13.7033 61.8381 13.8333 61.7314 13.94C61.6247 14.0467 61.4947 14.1 61.3414 14.1C61.1881 14.1 61.0581 14.0467 60.9514 13.94C60.8447 13.8333 60.7914 13.7033 60.7914 13.55C60.7914 13.3967 60.8447 13.2667 60.9514 13.16C61.0581 13.0533 61.1881 13 61.3414 13C61.4947 13 61.6247 13.0533 61.7314 13.16C61.8381 13.2667 61.8914 13.3967 61.8914 13.55ZM65.8761 8.88C66.5894 8.88 67.1961 9.13333 67.6961 9.64C68.2028 10.1467 68.4561 10.7667 68.4561 11.5C68.4561 12.2333 68.2028 12.8533 67.6961 13.36C67.1961 13.8667 66.5894 14.12 65.8761 14.12C64.9894 14.12 64.3161 13.7533 63.8561 13.02V16H63.1961V9H63.8561V9.98C64.3161 9.24667 64.9894 8.88 65.8761 8.88ZM64.4261 12.91C64.8061 13.29 65.2728 13.48 65.8261 13.48C66.3794 13.48 66.8461 13.29 67.2261 12.91C67.6061 12.5167 67.7961 12.0467 67.7961 11.5C67.7961 10.9467 67.6061 10.48 67.2261 10.1C66.8461 9.71333 66.3794 9.52 65.8261 9.52C65.2728 9.52 64.8061 9.71333 64.4261 10.1C64.0461 10.48 63.8561 10.9467 63.8561 11.5C63.8561 12.0467 64.0461 12.5167 64.4261 12.91ZM73.0735 11.62V9H73.7335V14H73.0735V13.22C72.7002 13.82 72.1402 14.12 71.3935 14.12C70.7935 14.12 70.3168 13.9367 69.9635 13.57C69.6102 13.1967 69.4335 12.6967 69.4335 12.07V9H70.0935V12.07C70.0935 12.5167 70.2102 12.8633 70.4435 13.11C70.6835 13.3567 71.0202 13.48 71.4535 13.48C71.9535 13.48 72.3468 13.3233 72.6335 13.01C72.9268 12.6967 73.0735 12.2333 73.0735 11.62ZM79.4297 9.98V9H80.0897V13.8C80.0897 14.52 79.843 15.0867 79.3497 15.5C78.8564 15.9133 78.2664 16.12 77.5797 16.12C76.413 16.12 75.623 15.7133 75.2097 14.9L75.7897 14.57C76.0897 15.1767 76.6864 15.48 77.5797 15.48C78.153 15.48 78.603 15.33 78.9297 15.03C79.263 14.73 79.4297 14.32 79.4297 13.8V13.02C78.9697 13.7533 78.2964 14.12 77.4097 14.12C76.6964 14.12 76.0864 13.8667 75.5797 13.36C75.0797 12.8533 74.8297 12.2333 74.8297 11.5C74.8297 10.7667 75.0797 10.1467 75.5797 9.64C76.0864 9.13333 76.6964 8.88 77.4097 8.88C78.2964 8.88 78.9697 9.24667 79.4297 9.98ZM76.0597 12.91C76.4397 13.29 76.9064 13.48 77.4597 13.48C78.013 13.48 78.4797 13.29 78.8597 12.91C79.2397 12.5167 79.4297 12.0467 79.4297 11.5C79.4297 10.9467 79.2397 10.48 78.8597 10.1C78.4797 9.71333 78.013 9.52 77.4597 9.52C76.9064 9.52 76.4397 9.71333 76.0597 10.1C75.6797 10.48 75.4897 10.9467 75.4897 11.5C75.4897 12.0467 75.6797 12.5167 76.0597 12.91ZM85.7871 9.98V9H86.4471V14H85.7871V13.02C85.3271 13.7533 84.6538 14.12 83.7671 14.12C83.0538 14.12 82.4438 13.8667 81.9371 13.36C81.4371 12.8533 81.1871 12.2333 81.1871 11.5C81.1871 10.7667 81.4371 10.1467 81.9371 9.64C82.4438 9.13333 83.0538 8.88 83.7671 8.88C84.6538 8.88 85.3271 9.24667 85.7871 9.98ZM82.4171 12.91C82.7971 13.29 83.2638 13.48 83.8171 13.48C84.3704 13.48 84.8371 13.29 85.2171 12.91C85.5971 12.5167 85.7871 12.0467 85.7871 11.5C85.7871 10.9467 85.5971 10.48 85.2171 10.1C84.8371 9.71333 84.3704 9.52 83.8171 9.52C83.2638 9.52 82.7971 9.71333 82.4171 10.1C82.0371 10.48 81.8471 10.9467 81.8471 11.5C81.8471 12.0467 82.0371 12.5167 82.4171 12.91ZM90.1745 14.12C89.4212 14.12 88.7945 13.87 88.2945 13.37C87.7945 12.8567 87.5445 12.2333 87.5445 11.5C87.5445 10.76 87.7945 10.14 88.2945 9.64C88.7945 9.13333 89.4212 8.88 90.1745 8.88C90.6679 8.88 91.1112 9 91.5045 9.24C91.8979 9.47333 92.1845 9.79 92.3645 10.19L91.8245 10.5C91.6912 10.2 91.4745 9.96333 91.1745 9.79C90.8812 9.61 90.5479 9.52 90.1745 9.52C89.6212 9.52 89.1545 9.71333 88.7745 10.1C88.3945 10.48 88.2045 10.9467 88.2045 11.5C88.2045 12.0467 88.3945 12.5167 88.7745 12.91C89.1545 13.29 89.6212 13.48 90.1745 13.48C90.5412 13.48 90.8712 13.3933 91.1645 13.22C91.4645 13.0467 91.6979 12.8067 91.8645 12.5L92.4145 12.82C92.2079 13.22 91.9045 13.5367 91.5045 13.77C91.1045 14.0033 90.6612 14.12 90.1745 14.12ZM95.7021 8.88C96.3021 8.88 96.7788 9.06667 97.1321 9.44C97.4854 9.80667 97.6621 10.3033 97.6621 10.93V14H97.0021V10.93C97.0021 10.4833 96.8821 10.1367 96.6421 9.89C96.4088 9.64333 96.0754 9.52 95.6421 9.52C95.1421 9.52 94.7454 9.67667 94.4521 9.99C94.1654 10.3033 94.0221 10.7667 94.0221 11.38V14H93.3621V7H94.0221V9.78C94.3954 9.18 94.9554 8.88 95.7021 8.88ZM101.278 8.88C101.878 8.88 102.355 9.06667 102.708 9.44C103.062 9.80667 103.238 10.3033 103.238 10.93V14H102.578V10.93C102.578 10.4833 102.458 10.1367 102.218 9.89C101.985 9.64333 101.652 9.52 101.218 9.52C100.718 9.52 100.322 9.67667 100.028 9.99C99.7416 10.3033 99.5983 10.7667 99.5983 11.38V14H98.9383V7H99.5983V9.78C99.9716 9.18 100.532 8.88 101.278 8.88Z" fill="#272727"></path> <defs> <filter id="filter0_i_97_1152" x="0" y="0" width="113" height="28" filterUnits="userSpaceOnUse" color-interpolation-filters="sRGB"> <feFlood flood-opacity="0" result="BackgroundImageFix"></feFlood> <feBlend mode="normal" in="SourceGraphic" in2="BackgroundImageFix" result="shape"></feBlend> <feColorMatrix in="SourceAlpha" type="matrix" values="0 0 0 0 0 0 0 0 0 0 0 0 0 0 0 0 0 0 127 0" result="hardAlpha"></feColorMatrix> <feOffset dy="6"></feOffset> <feGaussianBlur stdDeviation="15"></feGaussianBlur> <feComposite in2="hardAlpha" operator="arithmetic" k2="-1" k3="1"></feComposite> <feColorMatrix type="matrix" values="0 0 0 0 1 0 0 0 0 1 0 0 0 0 1 0 0 0 0.35 0"></feColorMatrix> <feBlend mode="normal" in2="shape" result="effect1_innerShadow_97_1152"></feBlend> </filter> </defs> </svg> 