<?xml version="1.0" encoding="UTF-8"?> <svg xmlns="http://www.w3.org/2000/svg" width="113" height="22" viewBox="0 0 113 22" fill="none"> <g filter="url(#filter0_i_97_1179)"> <rect width="113" height="22" rx="10" fill="white"></rect> </g> <rect x="0.15" y="0.15" width="112.7" height="21.7" rx="9.85" stroke="white" stroke-width="0.3"></rect> <path d="M19.055 6.656C19.903 6.656 20.655 6.864 21.311 7.28C21.951 7.68 22.435 8.188 22.763 8.804C23.091 9.412 23.255 10.064 23.255 10.76C23.255 11.616 23.083 12.252 22.739 12.668C22.387 13.092 21.983 13.304 21.527 13.304C21.183 13.304 20.891 13.216 20.651 13.04C20.419 12.864 20.263 12.608 20.183 12.272C19.831 12.704 19.387 12.92 18.851 12.92C18.291 12.92 17.827 12.736 17.459 12.368C17.091 12 16.907 11.544 16.907 11C16.907 10.456 17.091 10 17.459 9.632C17.827 9.264 18.291 9.08 18.851 9.08C19.363 9.08 19.787 9.272 20.123 9.656V9.164H20.867V11.756C20.867 12.524 21.127 12.908 21.647 12.908C22.023 12.908 22.323 12.728 22.547 12.368C22.779 12.008 22.895 11.472 22.895 10.76C22.895 9.688 22.523 8.792 21.779 8.072C21.051 7.352 20.143 6.992 19.055 6.992C17.935 6.992 16.987 7.376 16.211 8.144C15.435 8.912 15.047 9.864 15.047 11C15.047 12.168 15.447 13.128 16.247 13.88C17.047 14.632 18.055 15.008 19.271 15.008C20.063 15.008 20.759 14.892 21.359 14.66V15.02C20.759 15.236 20.063 15.344 19.271 15.344C17.959 15.344 16.867 14.932 15.995 14.108C15.123 13.292 14.687 12.256 14.687 11C14.687 9.8 15.103 8.776 15.935 7.928C16.775 7.08 17.815 6.656 19.055 6.656ZM18.011 11.876C18.267 12.092 18.563 12.2 18.899 12.2C19.243 12.2 19.531 12.092 19.763 11.876C20.003 11.652 20.123 11.36 20.123 11C20.123 10.64 20.003 10.352 19.763 10.136C19.539 9.912 19.251 9.8 18.899 9.8C18.555 9.8 18.259 9.912 18.011 10.136C17.771 10.352 17.651 10.64 17.651 11C17.651 11.352 17.771 11.644 18.011 11.876ZM26.2064 10.88L29.4224 14H28.3664L25.3664 11.108V14H24.5744V5.6H25.3664V10.652L28.2224 8H29.3024L26.2064 10.88ZM33.5669 8V8.768H31.8389V12.404C31.8389 12.732 31.9029 12.968 32.0309 13.112C32.1589 13.248 32.3509 13.32 32.6069 13.328C32.8629 13.328 33.1829 13.32 33.5669 13.304V14C32.7109 14.128 32.0749 14.068 31.6589 13.82C31.2509 13.564 31.0469 13.092 31.0469 12.404V8.768H29.7869V8H31.0469V6.56L31.8389 6.32V8H33.5669ZM39.6836 9.176V8H40.4756V14H39.6836V12.824C39.1316 13.704 38.3236 14.144 37.2596 14.144C36.4036 14.144 35.6716 13.84 35.0636 13.232C34.4636 12.624 34.1636 11.88 34.1636 11C34.1636 10.12 34.4636 9.376 35.0636 8.768C35.6716 8.16 36.4036 7.856 37.2596 7.856C38.3236 7.856 39.1316 8.296 39.6836 9.176ZM35.6396 12.692C36.0956 13.148 36.6556 13.376 37.3196 13.376C37.9836 13.376 38.5436 13.148 38.9996 12.692C39.4556 12.22 39.6836 11.656 39.6836 11C39.6836 10.336 39.4556 9.776 38.9996 9.32C38.5436 8.856 37.9836 8.624 37.3196 8.624C36.6556 8.624 36.0956 8.856 35.6396 9.32C35.1836 9.776 34.9556 10.336 34.9556 11C34.9556 11.656 35.1836 12.22 35.6396 12.692ZM42.9445 8V8.996C43.3125 8.268 43.9445 7.904 44.8405 7.904V8.672C44.2645 8.672 43.8045 8.84 43.4605 9.176C43.1165 9.504 42.9445 10 42.9445 10.664V14H42.1525V8H42.9445ZM50.7227 9.176V8H51.5147V14H50.7227V12.824C50.1707 13.704 49.3627 14.144 48.2987 14.144C47.4427 14.144 46.7107 13.84 46.1027 13.232C45.5027 12.624 45.2027 11.88 45.2027 11C45.2027 10.12 45.5027 9.376 46.1027 8.768C46.7107 8.16 47.4427 7.856 48.2987 7.856C49.3627 7.856 50.1707 8.296 50.7227 9.176ZM46.6787 12.692C47.1347 13.148 47.6947 13.376 48.3587 13.376C49.0227 13.376 49.5827 13.148 50.0387 12.692C50.4947 12.22 50.7227 11.656 50.7227 11C50.7227 10.336 50.4947 9.776 50.0387 9.32C49.5827 8.856 49.0227 8.624 48.3587 8.624C47.6947 8.624 47.1347 8.856 46.6787 9.32C46.2227 9.776 45.9947 10.336 45.9947 11C45.9947 11.656 46.2227 12.22 46.6787 12.692ZM54.8236 10.88L58.0396 14H56.9836L53.9836 11.108V14H53.1916V5.6H53.9836V10.652L56.8396 8H57.9196L54.8236 10.88ZM63.6836 9.176V8H64.4756V14H63.6836V12.824C63.1316 13.704 62.3236 14.144 61.2596 14.144C60.4036 14.144 59.6716 13.84 59.0636 13.232C58.4636 12.624 58.1636 11.88 58.1636 11C58.1636 10.12 58.4636 9.376 59.0636 8.768C59.6716 8.16 60.4036 7.856 61.2596 7.856C62.3236 7.856 63.1316 8.296 63.6836 9.176ZM59.6396 12.692C60.0956 13.148 60.6556 13.376 61.3196 13.376C61.9836 13.376 62.5436 13.148 62.9996 12.692C63.4556 12.22 63.6836 11.656 63.6836 11C63.6836 10.336 63.4556 9.776 62.9996 9.32C62.5436 8.856 61.9836 8.624 61.3196 8.624C60.6556 8.624 60.0956 8.856 59.6396 9.32C59.1836 9.776 58.9556 10.336 58.9556 11C58.9556 11.656 59.1836 12.22 59.6396 12.692ZM68.9605 7.856C69.6805 7.856 70.2525 8.08 70.6765 8.528C71.1005 8.968 71.3125 9.564 71.3125 10.316V14H70.5205V10.316C70.5205 9.78 70.3765 9.364 70.0885 9.068C69.8085 8.772 69.4085 8.624 68.8885 8.624C68.2885 8.624 67.8125 8.812 67.4605 9.188C67.1165 9.564 66.9445 10.12 66.9445 10.856V14H66.1525V8H66.9445V8.936C67.3925 8.216 68.0645 7.856 68.9605 7.856ZM77.8719 13.244C77.2559 13.844 76.5119 14.144 75.6399 14.144C74.7519 14.144 74.0039 13.844 73.3959 13.244C72.7879 12.636 72.4839 11.888 72.4839 11C72.4839 10.112 72.7879 9.368 73.3959 8.768C74.0039 8.16 74.7519 7.856 75.6399 7.856C76.5199 7.856 77.2639 8.16 77.8719 8.768C78.4879 9.368 78.7959 10.112 78.7959 11C78.7959 11.88 78.4879 12.628 77.8719 13.244ZM73.9599 12.692C74.4159 13.148 74.9759 13.376 75.6399 13.376C76.3039 13.376 76.8639 13.148 77.3199 12.692C77.7759 12.22 78.0039 11.656 78.0039 11C78.0039 10.336 77.7759 9.776 77.3199 9.32C76.8639 8.856 76.3039 8.624 75.6399 8.624C74.9759 8.624 74.4159 8.856 73.9599 9.32C73.5039 9.776 73.2759 10.336 73.2759 11C73.2759 11.656 73.5039 12.22 73.9599 12.692ZM82.1069 13.172L84.2069 8H85.0469L82.5869 14H81.6269L79.1669 8H80.0069L82.1069 13.172ZM90.9297 9.176V8H91.7217V14H90.9297V12.824C90.3777 13.704 89.5697 14.144 88.5057 14.144C87.6497 14.144 86.9177 13.84 86.3097 13.232C85.7097 12.624 85.4097 11.88 85.4097 11C85.4097 10.12 85.7097 9.376 86.3097 8.768C86.9177 8.16 87.6497 7.856 88.5057 7.856C89.5697 7.856 90.3777 8.296 90.9297 9.176ZM86.8857 12.692C87.3417 13.148 87.9017 13.376 88.5657 13.376C89.2297 13.376 89.7897 13.148 90.2457 12.692C90.7017 12.22 90.9297 11.656 90.9297 11C90.9297 10.336 90.7017 9.776 90.2457 9.32C89.7897 8.856 89.2297 8.624 88.5657 8.624C87.9017 8.624 87.3417 8.856 86.8857 9.32C86.4297 9.776 86.2017 10.336 86.2017 11C86.2017 11.656 86.4297 12.22 86.8857 12.692ZM98.3186 15.692H93.0386V14.924H98.3186V15.692Z" fill="#272727"></path> <defs> <filter id="filter0_i_97_1179" x="0" y="0" width="113" height="28" filterUnits="userSpaceOnUse" color-interpolation-filters="sRGB"> <feFlood flood-opacity="0" result="BackgroundImageFix"></feFlood> <feBlend mode="normal" in="SourceGraphic" in2="BackgroundImageFix" result="shape"></feBlend> <feColorMatrix in="SourceAlpha" type="matrix" values="0 0 0 0 0 0 0 0 0 0 0 0 0 0 0 0 0 0 127 0" result="hardAlpha"></feColorMatrix> <feOffset dy="6"></feOffset> <feGaussianBlur stdDeviation="15"></feGaussianBlur> <feComposite in2="hardAlpha" operator="arithmetic" k2="-1" k3="1"></feComposite> <feColorMatrix type="matrix" values="0 0 0 0 1 0 0 0 0 1 0 0 0 0 1 0 0 0 0.35 0"></feColorMatrix> <feBlend mode="normal" in2="shape" result="effect1_innerShadow_97_1179"></feBlend> </filter> </defs> </svg> 