<svg width="45" height="41" viewBox="0 0 45 41" fill="none" xmlns="http://www.w3.org/2000/svg">
<path fill-rule="evenodd" clip-rule="evenodd" d="M4.80891 23.5131C3.22651 21.2968 2.30474 18.6378 2.30474 15.7787C2.30474 8.04351 9.05161 1.77289 17.3743 1.77289C25.697 1.77289 32.4438 8.04351 32.4438 15.7787C32.4438 23.5139 25.697 29.7845 17.3743 29.7845C15.1547 29.7845 13.0471 29.3385 11.1498 28.5377L1.77287 32.6211L4.80891 23.5131Z" fill="white"/>
<path fill-rule="evenodd" clip-rule="evenodd" d="M17.3744 3.54578C24.8424 3.54578 30.671 9.14263 30.671 15.7787C30.671 22.4148 24.8424 28.0116 17.3744 28.0116C15.3933 28.0116 13.5201 27.6138 11.8392 26.9043C11.392 26.7156 10.887 26.7184 10.442 26.9122L4.71309 29.4071L6.49088 24.0737C6.67021 23.5357 6.58135 22.9444 6.25182 22.4829C4.87182 20.5501 4.07769 18.2479 4.07769 15.7787C4.07769 9.14263 9.90635 3.54578 17.3744 3.54578ZM34.2168 15.7787C34.2168 6.94438 26.5517 0 17.3744 0C8.19699 0 0.531913 6.94438 0.531913 15.7787C0.531913 18.7023 1.38161 21.4371 2.85224 23.7769L0.0910259 32.0605C-0.130342 32.7246 0.0597888 33.4568 0.576301 33.9293C1.09281 34.4018 1.83899 34.5261 2.48079 34.2466L11.1827 30.457C13.103 31.1682 15.1928 31.5574 17.3744 31.5574C26.5517 31.5574 34.2168 24.613 34.2168 15.7787Z" fill="#36BDB1"/>
<path fill-rule="evenodd" clip-rule="evenodd" d="M39.6906 29.5409C41.273 27.3247 42.1948 24.6656 42.1948 21.8065C42.1948 14.0713 35.4479 7.80072 27.1252 7.80072C18.8025 7.80072 12.0557 14.0713 12.0557 21.8065C12.0557 29.5417 18.8025 35.8124 27.1252 35.8124C29.3448 35.8124 31.4524 35.3664 33.3498 34.5655L42.7266 38.649L39.6906 29.5409Z" fill="white"/>
<path fill-rule="evenodd" clip-rule="evenodd" d="M27.1252 9.57361C19.6572 9.57361 13.8285 15.1705 13.8285 21.8065C13.8285 28.4426 19.6572 34.0395 27.1252 34.0395C29.1062 34.0395 30.9794 33.6416 32.6603 32.9321C33.1075 32.7434 33.6125 32.7463 34.0576 32.9401L39.7864 35.4349L38.0086 30.1015C37.8293 29.5635 37.9182 28.9722 38.2477 28.5107C39.6277 26.5779 40.4218 24.2757 40.4218 21.8065C40.4218 15.1705 34.5932 9.57361 27.1252 9.57361ZM10.2827 21.8065C10.2827 12.9722 17.9478 6.02783 27.1252 6.02783C36.3025 6.02783 43.9676 12.9722 43.9676 21.8065C43.9676 24.7301 43.1179 27.4649 41.6473 29.8047L44.4085 38.0883C44.6299 38.7524 44.4397 39.4846 43.9232 39.9571C43.4067 40.4296 42.6605 40.5539 42.0187 40.2744L33.3168 36.4849C31.3966 37.1961 29.3067 37.5852 27.1252 37.5852C17.9478 37.5852 10.2827 30.6409 10.2827 21.8065Z" fill="#36BDB1"/>
<path d="M26.1377 25.5579C25.4037 25.5579 24.7894 24.9544 24.9613 24.2408V24.2408C25.0709 23.8116 25.247 23.4155 25.4896 23.0524C25.701 22.7025 25.9358 22.4252 26.1941 22.2205C26.4524 22.0093 26.742 21.8013 27.0629 21.5966C27.3838 21.3854 27.74 21.1048 28.1313 20.7549C28.4523 20.4578 28.6636 20.164 28.7654 19.8735C28.8671 19.5764 28.918 19.2595 28.918 18.9228C28.918 18.7049 28.8906 18.5003 28.8358 18.3088C28.781 18.1174 28.6832 17.9523 28.5423 17.8137C28.3231 17.5694 28.0413 17.3977 27.6969 17.2987C27.3525 17.1931 26.9846 17.1403 26.5933 17.1403C26.2724 17.1403 25.9632 17.1766 25.6657 17.2492C25.3761 17.3152 25.1296 17.4209 24.9261 17.5661C24.6912 17.7245 24.519 17.9193 24.4095 18.1504V18.1504C24.2252 18.5388 23.9017 18.9129 23.4718 18.9129H22.8328C22.0036 18.9129 21.3454 18.1684 21.7163 17.4268C21.775 17.3095 21.8391 17.1941 21.9086 17.0808C22.2609 16.5131 22.7227 16.0608 23.2941 15.7241C23.7402 15.4468 24.2412 15.2389 24.7969 15.1002C25.3605 14.9616 25.924 14.8923 26.4876 14.8923C27.3486 14.8923 28.1587 15.0045 28.918 15.229C29.6851 15.4534 30.323 15.8232 30.8318 16.3381C31.184 16.6748 31.4501 17.0643 31.6302 17.5067C31.818 17.949 31.9119 18.398 31.9119 18.8535C31.9119 19.5335 31.7358 20.1541 31.3836 20.7153C31.0392 21.2764 30.6009 21.7947 30.0686 22.27C29.8181 22.4945 29.5794 22.6926 29.3524 22.8642C29.1254 23.0359 28.9141 23.2042 28.7184 23.3693C28.5305 23.5277 28.374 23.6961 28.2488 23.8743C28.0296 24.1846 27.9004 24.4487 27.8613 24.6666V24.6666C27.7713 25.1522 27.4022 25.5579 26.9083 25.5579H26.1377ZM26.1443 29.43C25.4196 29.43 24.8321 28.8425 24.8321 28.1178V28.1178C24.8321 27.3931 25.4196 26.8056 26.1443 26.8056H26.4904C27.2151 26.8056 27.8026 27.3931 27.8026 28.1178V28.1178C27.8026 28.8425 27.2151 29.43 26.4904 29.43H26.1443Z" fill="url(#paint0_linear_10_1314)"/>
<defs>
<linearGradient id="paint0_linear_10_1314" x1="30" y1="14.9999" x2="16" y2="30.4999" gradientUnits="userSpaceOnUse">
<stop stop-color="#FFC438"/>
<stop offset="1" stop-color="#FF9800"/>
</linearGradient>
</defs>
</svg>
