<svg width="33" height="33" viewBox="0 0 33 33" fill="none" xmlns="http://www.w3.org/2000/svg">
<path fill-rule="evenodd" clip-rule="evenodd" d="M11.9964 8.67154C12.4463 8.59655 12.9187 8.64815 13.3382 8.82954C14.1881 9.18239 14.7845 10.0624 14.79 10.9841C14.7915 11.2606 14.7913 11.5372 14.7911 11.8137C14.791 11.998 14.7909 12.1823 14.7913 12.3667C14.8044 13.0887 14.4682 13.8059 13.9042 14.2568C13.4921 14.5937 12.9645 14.7844 12.4325 14.7901C11.8999 14.7997 11.3666 14.6235 10.9446 14.2982C10.377 13.8687 10.0197 13.1749 10.0068 12.4625C10.0046 12.122 10.005 11.7815 10.0055 11.441C10.0057 11.3008 10.0059 11.1605 10.0059 11.0203C10.0046 10.4169 10.2459 9.81757 10.6641 9.38236C11.0164 9.00965 11.491 8.75711 11.9964 8.67154ZM12.279 10.7111C12.1416 10.7598 12.0499 10.903 12.0566 11.0476L12.0564 11.433C12.0562 11.7542 12.0559 12.0752 12.0573 12.3961C12.0525 12.5785 12.214 12.7432 12.397 12.7391C12.5806 12.7442 12.7437 12.5798 12.7392 12.3968C12.7406 12.1768 12.7404 11.9568 12.7402 11.7369V11.7369C12.74 11.5292 12.7398 11.3216 12.7408 11.1139C12.7412 11.0261 12.7399 10.9328 12.6912 10.8562C12.612 10.7168 12.4281 10.6524 12.279 10.7111ZM22.092 9.69556C22.5083 9.60262 22.9675 9.80356 23.1813 10.1728C23.4226 10.5615 23.3543 11.1057 23.0262 11.4242C20.5689 13.8824 18.111 16.3401 15.6532 18.7977L15.6468 18.8041L12.483 21.9677C12.3504 22.0997 12.2183 22.2322 12.0862 22.3648C11.855 22.5967 11.6238 22.8287 11.3899 23.0579C11.0137 23.4194 10.3605 23.4117 9.99164 23.0429C9.60995 22.6955 9.56733 22.0526 9.90127 21.6584C10.0277 21.5195 10.1614 21.3876 10.2951 21.2556L10.2951 21.2556L10.2951 21.2556C10.3756 21.1762 10.456 21.0967 10.5349 21.0158L14.6686 16.8823L14.6765 16.8745C16.9708 14.5804 19.2651 12.2863 21.559 9.992C21.7026 9.84394 21.8891 9.73658 22.092 9.69556ZM21.7357 17.1267C21.2713 16.8742 20.7217 16.788 20.2013 16.8758C19.334 17.0149 18.5783 17.6725 18.321 18.5121C18.2009 18.8663 18.2053 19.2382 18.2097 19.6081C18.2111 19.7269 18.2125 19.8455 18.2098 19.9633C18.2122 20.0693 18.211 20.1758 18.2098 20.2823C18.2065 20.5766 18.2032 20.8714 18.2752 21.1586C18.4274 21.8115 18.8716 22.3874 19.4616 22.7053C19.9888 22.995 20.6278 23.0706 21.2095 22.9168C21.736 22.7816 22.2103 22.4566 22.5315 22.0178C22.8317 21.6118 22.9962 21.1083 22.9955 20.6033C22.9951 20.4271 22.9954 20.251 22.9957 20.0748C22.9963 19.7595 22.9969 19.4442 22.9929 19.1291C22.9651 18.3013 22.467 17.5135 21.7357 17.1267ZM20.2612 19.2537C20.2538 19.1085 20.3451 18.9643 20.4833 18.9156C20.6323 18.8566 20.8169 18.9211 20.8961 19.0611C20.9454 19.1387 20.9454 19.2335 20.9454 19.3223C20.9443 19.5293 20.9445 19.7363 20.9447 19.9433C20.9449 20.1626 20.9451 20.3818 20.9438 20.601C20.9483 20.783 20.7868 20.9468 20.6041 20.9433C20.4201 20.9491 20.2567 20.7834 20.2618 20.6004C20.2605 20.2797 20.2607 19.959 20.261 19.6384C20.2611 19.5102 20.2612 19.3819 20.2612 19.2537Z" fill="white"/>
<path d="M16.3515 1.00483C16.9367 0.96701 17.5335 1.15257 17.9908 1.52048C18.2844 1.76885 18.5382 2.06048 18.818 2.3236C18.9128 2.41301 19.0612 2.43609 19.1798 2.38257C19.4881 2.24636 19.7887 2.09381 20.0983 1.96082C20.629 1.74545 21.2382 1.73392 21.7776 1.92652C22.2843 2.10215 22.7265 2.45596 23.0095 2.91104C23.1117 3.0716 23.1861 3.24722 23.2672 3.41899C23.4582 3.82728 23.6469 4.23654 23.8395 4.64419C23.8947 4.76533 24.0251 4.8432 24.1581 4.83872C24.5859 4.84032 25.0141 4.8384 25.4423 4.83904C25.6666 4.84096 25.8922 4.82974 26.1149 4.86435C26.6963 4.94576 27.2408 5.25406 27.6129 5.70786C27.9606 6.1248 28.1574 6.66416 28.1609 7.20706C28.1628 7.75219 28.1602 8.29765 28.1622 8.84278C28.157 8.9761 28.2362 9.10653 28.358 9.16198C28.8739 9.40426 29.3928 9.64109 29.9072 9.88722C30.3821 10.1273 30.7696 10.5333 30.9904 11.0172C31.2061 11.4842 31.2663 12.0219 31.1551 12.5248C31.0782 12.9004 30.8811 13.234 30.7282 13.5814C30.6738 13.7166 30.5722 13.8464 30.592 13.9999C30.6109 14.1659 30.7635 14.2608 30.8667 14.3752C31.1231 14.6431 31.415 14.8832 31.6156 15.1992C31.9195 15.6642 32.0508 16.2378 31.9823 16.7887C31.9223 17.3005 31.6894 17.7889 31.3314 18.1591C31.1195 18.3757 30.9026 18.5869 30.6901 18.8029C30.5911 18.8984 30.56 19.0555 30.6183 19.1811C30.743 19.457 30.8753 19.7298 31.0006 20.0057C31.2051 20.4589 31.2625 20.9768 31.1606 21.4639C31.0125 22.2141 30.4799 22.8708 29.779 23.1756C29.305 23.397 28.8307 23.6181 28.3567 23.8389C28.2349 23.8944 28.1564 24.0258 28.1618 24.1591C28.1593 24.7254 28.165 25.2917 28.1593 25.8583C28.1368 26.6883 27.6414 27.4825 26.9088 27.8722C26.5594 28.0638 26.1604 28.1612 25.7624 28.1612C25.2282 28.1622 24.6939 28.1606 24.1597 28.1619C24.0254 28.1561 23.8937 28.2353 23.8383 28.3583C23.6771 28.6993 23.5194 29.0422 23.3591 29.3839C23.2066 29.7021 23.0784 30.0386 22.8505 30.3133C22.3378 30.9651 21.4686 31.309 20.6485 31.1866C20.0995 31.118 19.6345 30.7956 19.1288 30.6004C19.0141 30.5674 18.8856 30.6055 18.8029 30.6901C18.5814 30.9074 18.3654 31.1302 18.1433 31.3465C17.7142 31.7567 17.1265 31.9932 16.5333 31.9996C15.9481 32.0102 15.3632 31.7948 14.9248 31.4077C14.6745 31.1763 14.4421 30.9267 14.1976 30.6898C14.1015 30.5914 13.9451 30.5597 13.8198 30.6184C13.5284 30.7494 13.2419 30.8911 12.9497 31.0202C12.4081 31.2523 11.7799 31.2718 11.2245 31.0744C10.6361 30.8696 10.1349 30.4264 9.86602 29.8636C9.6295 29.3624 9.39812 28.8586 9.16192 28.3577C9.10616 28.2356 8.97508 28.1564 8.84144 28.1619C8.29567 28.1603 7.74989 28.1629 7.20412 28.1609C6.7 28.1564 6.1991 27.9863 5.79689 27.6821C5.21683 27.253 4.85148 26.5492 4.84027 25.8269C4.83674 25.2709 4.84091 24.7145 4.83866 24.1585C4.84347 24.0255 4.76527 23.8947 4.64413 23.8393C4.12175 23.5903 3.59328 23.3531 3.0725 23.1012C2.56326 22.8381 2.15818 22.3837 1.95275 21.8488C1.74957 21.3306 1.73579 20.7406 1.9175 20.214C2.05178 19.8509 2.24214 19.5118 2.39149 19.1552C2.43699 19.034 2.4011 18.8914 2.30976 18.8017C2.09793 18.5857 1.88096 18.3748 1.66913 18.1588C1.31788 17.7973 1.08746 17.3207 1.02176 16.8208C0.944523 16.2599 1.07464 15.6728 1.38454 15.1988C1.58548 14.8832 1.87808 14.6441 2.13382 14.3758C2.23734 14.2621 2.3886 14.1666 2.40815 14.0009C2.42834 13.8554 2.33572 13.7307 2.28252 13.6032C2.11876 13.2311 1.905 12.8734 1.83289 12.468C1.68227 11.7143 1.92807 10.8974 2.4668 10.3497C2.66998 10.1398 2.91355 9.96958 3.17826 9.8462C3.65994 9.62154 4.14162 9.39753 4.62298 9.17191C4.75406 9.11871 4.84507 8.98347 4.83866 8.84086C4.84026 8.29604 4.8377 7.75091 4.83962 7.20609C4.84251 6.60968 5.08159 6.01968 5.4934 5.58832C5.92445 5.12875 6.54329 4.85089 7.17367 4.84032C7.7297 4.83711 8.28573 4.84064 8.84144 4.83872C8.97476 4.84352 9.10584 4.76501 9.1616 4.64322C9.39812 4.14232 9.62886 3.63884 9.86537 3.13793C10.1061 2.63606 10.5297 2.22521 11.039 2.00023C11.4764 1.80218 11.9748 1.74161 12.4472 1.8291C12.958 1.91883 13.3961 2.21656 13.8736 2.40051C13.9877 2.4316 14.1143 2.39346 14.1976 2.31078C14.4191 2.09381 14.6344 1.87076 14.8568 1.65476C15.2581 1.27147 15.7974 1.03687 16.3515 1.00483ZM16.3503 3.08634C16.2439 3.14531 16.1702 3.24594 16.0823 3.32766C15.8096 3.58917 15.5638 3.88625 15.2398 4.08783C14.7341 4.41248 14.1027 4.5333 13.5127 4.42017C13.0077 4.32883 12.5741 4.03528 12.1014 3.85324C11.9446 3.80838 11.769 3.89715 11.7052 4.04521C11.4649 4.55349 11.2325 5.06562 10.9896 5.57293C10.6166 6.33151 9.8141 6.85389 8.969 6.88594C8.39085 6.89651 7.81239 6.88626 7.23456 6.89106C7.05061 6.88497 6.88524 7.0497 6.89133 7.23366C6.88748 7.78969 6.89325 8.34604 6.88845 8.90207C6.87979 9.76256 6.36254 10.592 5.59403 10.9791C5.07486 11.2332 4.54478 11.4659 4.024 11.7165C3.89453 11.7816 3.81922 11.9354 3.84774 12.0774C4.01695 12.5462 4.31051 12.9705 4.4105 13.4647C4.54126 14.0765 4.41755 14.737 4.07464 15.2604C3.87338 15.5741 3.58431 15.8148 3.32825 16.0814C3.21544 16.2035 3.04622 16.3131 3.05167 16.5C3.04494 16.6775 3.20102 16.7865 3.31062 16.9012C3.58847 17.1909 3.90543 17.4515 4.11278 17.8008C4.5012 18.4305 4.57042 19.2433 4.29193 19.9288C4.16053 20.2419 4.00478 20.5438 3.86825 20.8543C3.81666 20.9729 3.84326 21.1197 3.93203 21.2133C3.99676 21.2838 4.0897 21.3152 4.17335 21.3562C4.50216 21.5097 4.83225 21.66 5.1601 21.8148C5.40463 21.9311 5.65813 22.034 5.87862 22.1936C6.51829 22.6391 6.90735 23.4124 6.89005 24.1912C6.89101 24.7151 6.88877 25.2394 6.89101 25.7634C6.88364 25.9487 7.04965 26.1153 7.23488 26.1092C7.79123 26.1131 8.34791 26.1076 8.90426 26.1118C9.62982 26.122 10.339 26.4874 10.7694 27.0716C10.9544 27.311 11.0672 27.5937 11.196 27.8648C11.3659 28.2282 11.5341 28.5923 11.7049 28.9551C11.7697 29.1044 11.9485 29.1932 12.1058 29.1454C12.5894 28.9586 13.0336 28.6551 13.5538 28.5727C14.1396 28.4705 14.7617 28.5993 15.2594 28.925C15.5741 29.1262 15.8147 29.4162 16.082 29.6726C16.2035 29.7858 16.3128 29.9534 16.4993 29.9489C16.6852 29.954 16.7964 29.788 16.9175 29.6746C17.1909 29.4124 17.4367 29.114 17.7613 28.9121C18.2546 28.5968 18.8657 28.4724 19.4426 28.5721C19.8698 28.6362 20.2463 28.8589 20.6354 29.032C20.7713 29.0897 20.9097 29.1906 21.0652 29.148C21.2049 29.1188 21.2885 28.9926 21.3372 28.8685C21.5613 28.3878 21.7827 27.9055 22.0112 27.427C22.3887 26.6582 23.2079 26.1342 24.0642 26.1131C24.6311 26.1063 25.1984 26.1137 25.7653 26.1092C25.9502 26.1153 26.1149 25.9503 26.1095 25.7657C26.1121 25.2417 26.1095 24.7174 26.1105 24.1934C26.0944 23.4742 26.422 22.758 26.9796 22.3029C27.2639 22.0593 27.6167 21.9241 27.9506 21.7645C28.2849 21.6068 28.622 21.4559 28.9553 21.2956C29.1047 21.2306 29.1928 21.0517 29.1457 20.8944C28.9621 20.4236 28.6714 19.9903 28.5797 19.4868C28.4666 18.8968 28.5881 18.2668 28.9118 17.7614C29.1143 17.4364 29.4127 17.1906 29.6748 16.9169C29.7879 16.7964 29.9536 16.6855 29.9485 16.5003C29.9543 16.3151 29.7886 16.2048 29.6758 16.0846C29.4184 15.8158 29.1262 15.5744 28.9243 15.2581C28.5926 14.7515 28.466 14.1153 28.5788 13.5202C28.6685 13.0132 28.9624 12.578 29.146 12.1046C29.1928 11.9466 29.1037 11.7681 28.9534 11.704C28.5922 11.5313 28.2272 11.3666 27.8651 11.1961C27.6 11.0698 27.3241 10.9595 27.0882 10.7817C26.495 10.3522 26.1223 9.63725 26.1121 8.90463C26.1076 8.34828 26.113 7.79193 26.1095 7.2359C26.1114 7.1061 26.0339 6.97823 25.9153 6.92439C25.8281 6.88081 25.7281 6.8917 25.6342 6.88978C25.1215 6.88978 24.6087 6.89202 24.0959 6.8885C23.363 6.87696 22.6474 6.50457 22.2176 5.91104C22.0455 5.68286 21.9375 5.41686 21.816 5.16048C21.642 4.78872 21.4699 4.416 21.2949 4.04457C21.228 3.88914 21.0366 3.80068 20.8764 3.86029C20.4046 4.05258 19.9646 4.34069 19.4551 4.42626C18.7378 4.55573 17.969 4.3314 17.4335 3.83722C17.1976 3.61385 16.9749 3.37701 16.7409 3.15139C16.6413 3.05044 16.4775 3.0216 16.3503 3.08634Z" fill="white" stroke="white"/>
</svg>
