<svg width="20" height="20" viewBox="0 0 20 20" fill="none" xmlns="http://www.w3.org/2000/svg">
<path fill-rule="evenodd" clip-rule="evenodd" d="M19 10C19 14.9706 14.9706 19 10 19C5.02944 19 1 14.9706 1 10C1 5.02944 5.02944 1 10 1C14.9706 1 19 5.02944 19 10ZM20 10C20 15.5228 15.5228 20 10 20C4.47715 20 0 15.5228 0 10C0 4.47715 4.47715 0 10 0C15.5228 0 20 4.47715 20 10ZM5.38437 13.7333L6.40935 14.8L14.6156 6.27333L13.5906 5.2L5.38437 13.7333ZM11.5343 14.68C11.8845 14.8933 12.271 15 12.6938 15C13.1166 15 13.5031 14.8933 13.8533 14.68C14.2035 14.4622 14.4811 14.1733 14.6861 13.8133C14.8954 13.4489 15 13.0444 15 12.6C15 12.1556 14.8954 11.7533 14.6861 11.3933C14.4811 11.0289 14.2035 10.74 13.8533 10.5267C13.5031 10.3089 13.1166 10.2 12.6938 10.2C12.2838 10.2 11.9037 10.3089 11.5535 10.5267C11.2033 10.7444 10.9214 11.0356 10.7079 11.4C10.4943 11.7644 10.3876 12.1644 10.3876 12.6C10.3876 13.0444 10.4922 13.4489 10.7015 13.8133C10.9107 14.1733 11.1883 14.4622 11.5343 14.68ZM13.1807 13.4867C13.0312 13.58 12.8689 13.6267 12.6938 13.6267C12.5144 13.6267 12.35 13.58 12.2005 13.4867C12.051 13.3933 11.9293 13.2689 11.8354 13.1133C11.7457 12.9578 11.7008 12.7867 11.7008 12.6C11.7008 12.4133 11.7457 12.2422 11.8354 12.0867C11.9293 11.9311 12.051 11.8067 12.2005 11.7133C12.35 11.62 12.5144 11.5733 12.6938 11.5733C12.8689 11.5733 13.0312 11.62 13.1807 11.7133C13.3344 11.8067 13.4561 11.9311 13.5458 12.0867C13.6355 12.2422 13.6803 12.4133 13.6803 12.6C13.6803 12.7867 13.6355 12.9578 13.5458 13.1133C13.4561 13.2689 13.3344 13.3933 13.1807 13.4867ZM6.1467 9.48C6.4969 9.69333 6.88341 9.8 7.30621 9.8C7.72902 9.8 8.11339 9.69333 8.45932 9.48C8.80952 9.26222 9.08926 8.97333 9.29853 8.61333C9.50779 8.24889 9.61243 7.84445 9.61243 7.4C9.61243 6.95556 9.50779 6.55333 9.29853 6.19333C9.08926 5.82889 8.80952 5.54 8.45932 5.32667C8.11339 5.10889 7.72902 5 7.30621 5C6.89622 5 6.51612 5.10889 6.16592 5.32667C5.81572 5.54444 5.53385 5.83556 5.32031 6.2C5.10677 6.56444 5 6.96444 5 7.4C5 7.84445 5.1025 8.24889 5.3075 8.61333C5.51676 8.97333 5.7965 9.26222 6.1467 9.48ZM7.79949 8.28667C7.65001 8.38 7.48559 8.42667 7.30621 8.42667C7.12684 8.42667 6.96242 8.38 6.81294 8.28667C6.66346 8.19333 6.54388 8.06889 6.4542 7.91333C6.36451 7.75778 6.31967 7.58667 6.31967 7.4C6.31967 7.21333 6.36451 7.04222 6.4542 6.88667C6.54388 6.73111 6.66346 6.60667 6.81294 6.51333C6.96242 6.42 7.12684 6.37333 7.30621 6.37333C7.48559 6.37333 7.65001 6.42 7.79949 6.51333C7.94896 6.60667 8.06855 6.73111 8.15823 6.88667C8.24792 7.04222 8.29276 7.21333 8.29276 7.4C8.29276 7.58667 8.24792 7.75778 8.15823 7.91333C8.06855 8.06889 7.94896 8.19333 7.79949 8.28667Z" fill="#63B22F"/>
</svg>
