<svg width="36" height="36" viewBox="0 0 36 36" fill="none" xmlns="http://www.w3.org/2000/svg">
<circle cx="17.9706" cy="17.9703" r="17.9703" fill="url(#paint0_radial_10_1290)"/>
<circle cx="17.9706" cy="17.9703" r="16.9703" fill="url(#paint1_radial_10_1290)" stroke="white" stroke-width="2"/>
<path fill-rule="evenodd" clip-rule="evenodd" d="M34.7447 15.0471C33.7479 16.5073 32.1472 18.1665 31.066 18.5268C29.566 19.0268 28.566 19.5268 28.566 21.5268C28.566 23.5268 28.066 25.0268 27.066 26.0268C26.066 27.0268 24.566 29.0268 24.566 31.0268C24.566 32.4735 23.7812 33.6586 23.1577 34.2036C22.8946 34.2873 22.6287 34.3647 22.3603 34.4357C21.7442 33.9776 20.566 31.9131 20.566 31.0268C20.566 30.0268 20.066 28.5268 19.066 28.0268C18.066 27.5268 17.066 25.0268 17.066 24.0268C17.066 23.0268 17.566 22.5268 18.566 21.5268C19.2152 20.8776 20.7074 20.4391 21.948 20.0746C22.6183 19.8776 23.2152 19.7022 23.566 19.5268C24.066 19.2768 24.691 19.4018 25.316 19.5268C25.941 19.6518 26.566 19.7768 27.0659 19.5268C28.0659 19.0268 28.566 17.0268 28.5659 16.5268C28.5659 16.0268 26.066 15.0268 25.066 15.0268C24.066 15.0268 23.566 13.5268 23.566 12.5268C23.566 11.5268 21.066 11.0268 19.5659 11.0268C18.2112 11.0268 18.08 10.6191 17.699 9.43522C17.6581 9.30818 17.6144 9.17221 17.5659 9.02684C17.0659 7.52684 18.0659 7.02685 19.5659 7.02685C20.5659 7.02685 21.1215 6.5824 21.677 6.13796L21.6771 6.13795C21.9548 5.91573 22.2326 5.69351 22.5659 5.52685C23.205 5.20731 24.4567 5.5004 25.538 5.75359C26.1487 5.89658 26.705 6.02685 27.0659 6.02685C27.5061 6.02685 28.2997 5.5142 28.9523 4.99751C31.9367 7.51385 34.0427 11.0389 34.7447 15.0471ZM5.21625 6.79388C7.47104 6.58572 9.29855 6.52682 10.066 6.52682C12.066 8.02682 13.066 10.0268 12.566 11.0268C12.2794 11.6 11.1716 11.5161 10.0898 11.4343C9.28413 11.3733 8.49285 11.3134 8.06599 11.5268C7.06599 12.0268 7.06599 14.0268 8.56599 14.0268C9.08603 14.0268 9.60604 14.0869 10.1052 14.1446L10.1052 14.1446C11.0459 14.2533 11.9125 14.3535 12.5658 14.0268C13.5658 13.5268 14.5658 14.0268 14.0658 15.0268C13.8386 15.4814 14.0245 15.626 14.295 15.8364C14.6195 16.0888 15.0658 16.4359 15.0658 17.5268C15.0658 18.0983 15.1475 18.5881 15.2174 19.0079C15.3924 20.0574 15.4944 20.6697 14.0658 21.0268C13.48 21.1733 13.0229 21.2768 12.6443 21.3626C11.73 21.5697 11.2729 21.6733 10.5658 22.0268C10.3218 22.1489 10.1075 22.2113 9.92299 22.2651C9.35155 22.4317 9.06583 22.515 9.06583 24.0268V27.5268V27.5283C9.06583 29.0278 9.06583 30.5268 8.06599 30.5268C7.12172 30.5268 6.17759 30.0811 3.12959 26.2443C1.77292 23.8025 1.00024 20.9915 1.00024 18C1.00024 13.7071 2.59145 9.78586 5.21625 6.79388Z" fill="#BAEB6C"/>
<path d="M34.7447 15.0471L35.1576 15.329L35.2723 15.1611L35.2372 14.9608L34.7447 15.0471ZM31.066 18.5268L31.2241 19.0012L31.066 18.5268ZM23.1577 34.2036L23.3092 34.6801L23.4084 34.6485L23.4867 34.5801L23.1577 34.2036ZM22.3603 34.4357L22.0619 34.8369L22.2552 34.9807L22.4882 34.9191L22.3603 34.4357ZM21.948 20.0746L21.8071 19.5949L21.948 20.0746ZM23.566 19.5268L23.3424 19.0796L23.566 19.5268ZM25.316 19.5268L25.4141 19.0366L25.316 19.5268ZM27.0659 19.5268L27.2895 19.9741L27.0659 19.5268ZM17.699 9.43522L17.2231 9.58839L17.2231 9.58839L17.699 9.43522ZM17.5659 9.02684L17.0916 9.18496L17.0916 9.18496L17.5659 9.02684ZM21.677 6.13796L21.9894 6.5284L21.9923 6.52601L21.677 6.13796ZM21.6771 6.13795L21.3647 5.7475L21.3618 5.74989L21.6771 6.13795ZM22.5659 5.52685L22.7895 5.97406V5.97406L22.5659 5.52685ZM25.538 5.75359L25.424 6.24042L25.424 6.24042L25.538 5.75359ZM28.9523 4.99751L29.2746 4.61525L28.9623 4.35189L28.642 4.60549L28.9523 4.99751ZM10.066 6.52682L10.366 6.12682L10.2327 6.02682H10.066V6.52682ZM5.21625 6.79388L5.17028 6.296L4.97182 6.31432L4.84038 6.46414L5.21625 6.79388ZM12.566 11.0268L12.1188 10.8032H12.1188L12.566 11.0268ZM10.0898 11.4343L10.0521 11.9328L10.0898 11.4343ZM8.06599 11.5268L8.2896 11.974L8.06599 11.5268ZM10.1052 14.1446L10.2033 13.6543L10.1831 13.6503L10.1626 13.6479L10.1052 14.1446ZM10.1052 14.1446L10.0072 14.6349L10.0274 14.6389L10.0478 14.6413L10.1052 14.1446ZM12.5658 14.0268L12.3422 13.5796L12.5658 14.0268ZM14.295 15.8364L13.988 16.231L14.295 15.8364ZM14.0658 21.0268L14.1871 21.5119H14.1871L14.0658 21.0268ZM12.6443 21.3626L12.7547 21.8503H12.7547L12.6443 21.3626ZM10.5658 22.0268L10.3422 21.5796L10.3422 21.5796L10.5658 22.0268ZM9.92299 22.2651L10.0629 22.7451L9.92299 22.2651ZM3.12959 26.2443L2.69252 26.4872L2.7125 26.5231L2.73809 26.5554L3.12959 26.2443ZM34.3317 14.7652C33.8516 15.4685 33.2236 16.2227 32.5882 16.8411C31.9377 17.4743 31.3351 17.9101 30.9079 18.0525L31.2241 19.0012C31.878 18.7832 32.6164 18.2092 33.2857 17.5577C33.9702 16.8914 34.641 16.0858 35.1576 15.329L34.3317 14.7652ZM30.9079 18.0525C30.1631 18.3008 29.4305 18.5802 28.8999 19.1108C28.3416 19.6692 28.066 20.4382 28.066 21.5268H29.066C29.066 20.6155 29.2904 20.1345 29.607 19.8179C29.9515 19.4735 30.4689 19.2529 31.2241 19.0012L30.9079 18.0525ZM28.066 21.5268C28.066 23.4498 27.5856 24.8001 26.7124 25.6733L27.4195 26.3804C28.5464 25.2536 29.066 23.6039 29.066 21.5268H28.066ZM26.7124 25.6733C26.1869 26.1989 25.5327 26.9836 25.0069 27.9038C24.4834 28.8198 24.066 29.9072 24.066 31.0268H25.066C25.066 30.1465 25.3986 29.2339 25.8751 28.3999C26.3493 27.5701 26.9451 26.8548 27.4195 26.3804L26.7124 25.6733ZM24.066 31.0268C24.066 32.3015 23.3663 33.3572 22.8286 33.8271L23.4867 34.5801C24.196 33.9601 25.066 32.6456 25.066 31.0268H24.066ZM23.0061 33.7271C22.7508 33.8083 22.4929 33.8834 22.2324 33.9523L22.4882 34.9191C22.7646 34.8459 23.0383 34.7662 23.3092 34.6801L23.0061 33.7271ZM22.6586 34.0345C22.568 33.9671 22.4151 33.8034 22.2248 33.5409C22.0422 33.2891 21.8485 32.9792 21.6715 32.6532C21.4943 32.3269 21.3387 31.9936 21.2288 31.6958C21.1146 31.3864 21.066 31.1583 21.066 31.0268H20.066C20.066 31.3386 20.1647 31.7009 20.2906 32.0421C20.4209 32.3949 20.5984 32.7726 20.7927 33.1305C20.9873 33.4887 21.2036 33.8361 21.4152 34.1279C21.6191 34.4091 21.8445 34.6753 22.0619 34.8369L22.6586 34.0345ZM21.066 31.0268C21.066 30.4543 20.9252 29.7603 20.6479 29.1363C20.3733 28.5185 19.934 27.9018 19.2896 27.5796L18.8424 28.4741C19.198 28.6519 19.5086 29.0352 19.7341 29.5424C19.9567 30.0434 20.066 30.5994 20.066 31.0268H21.066ZM19.2896 27.5796C19.1448 27.5072 18.9517 27.3323 18.7351 27.0363C18.5255 26.7498 18.3228 26.39 18.145 26.0048C17.78 25.2141 17.566 24.4181 17.566 24.0268H16.566C16.566 24.6356 16.852 25.5896 17.237 26.4239C17.4342 26.8512 17.6689 27.2726 17.9281 27.6268C18.1803 27.9714 18.4872 28.2965 18.8424 28.4741L19.2896 27.5796ZM17.566 24.0268C17.566 23.2664 17.8909 22.9091 18.9195 21.8804L18.2124 21.1733C17.2411 22.1446 16.566 22.7873 16.566 24.0268H17.566ZM18.9195 21.8804C19.1657 21.6343 19.6164 21.3928 20.2161 21.1601C20.8022 20.9328 21.4645 20.7378 22.089 20.5543L21.8071 19.5949C21.191 19.7759 20.4869 19.9825 19.8544 20.2278C19.2356 20.4679 18.6155 20.7702 18.2124 21.1733L18.9195 21.8804ZM22.089 20.5543C22.7372 20.3638 23.3886 20.1745 23.7896 19.9741L23.3424 19.0796C23.0418 19.2299 22.4995 19.3914 21.8071 19.5949L22.089 20.5543ZM23.7896 19.9741C23.9334 19.9022 24.1182 19.8724 24.3679 19.8855C24.6219 19.8989 24.8976 19.9531 25.218 20.0171L25.4141 19.0366C25.1094 18.9756 24.7602 18.9048 24.4204 18.8869C24.0763 18.8688 23.6986 18.9015 23.3424 19.0796L23.7896 19.9741ZM25.218 20.0171C25.5226 20.0781 25.8719 20.1489 26.2116 20.1668C26.5557 20.1849 26.9334 20.1522 27.2895 19.9741L26.8423 19.0796C26.6985 19.1515 26.5138 19.1813 26.2641 19.1682C26.0101 19.1548 25.7344 19.1006 25.4141 19.0366L25.218 20.0171ZM27.2895 19.9741C27.64 19.7988 27.9164 19.5093 28.1306 19.2058C28.3473 18.8989 28.5206 18.5489 28.6552 18.2126C28.9174 17.557 29.066 16.8652 29.0659 16.5268L28.0659 16.5269C28.066 16.6885 27.9645 17.2467 27.7267 17.8411C27.6112 18.1298 27.4721 18.4048 27.3137 18.6291C27.1529 18.8569 26.9918 19.0049 26.8423 19.0796L27.2895 19.9741ZM29.0659 16.5268C29.0659 16.2678 28.9149 16.077 28.8217 15.9773C28.7132 15.8613 28.5752 15.7562 28.434 15.6635C28.1483 15.4761 27.7737 15.2905 27.3833 15.1278C26.9898 14.9639 26.563 14.816 26.1654 14.7083C25.7766 14.603 25.3824 14.5268 25.066 14.5268V15.5268C25.2496 15.5268 25.5429 15.5757 25.904 15.6735C26.2564 15.769 26.6421 15.9023 26.9986 16.0509C27.3582 16.2007 27.671 16.3589 27.8853 16.4996C27.9941 16.5709 28.0592 16.626 28.0913 16.6603C28.1388 16.7111 28.0659 16.6609 28.0659 16.5269L29.0659 16.5268ZM25.066 14.5268C24.853 14.5268 24.6085 14.3688 24.3882 13.9282C24.1768 13.5055 24.066 12.9585 24.066 12.5268H23.066C23.066 13.0952 23.2051 13.7982 23.4938 14.3755C23.7735 14.9349 24.279 15.5268 25.066 15.5268V14.5268ZM24.066 12.5268C24.066 12.0456 23.7621 11.6961 23.446 11.4662C23.1247 11.2325 22.7063 11.0565 22.2755 10.924C21.4093 10.6574 20.359 10.5268 19.5659 10.5268V11.5268C20.273 11.5268 21.2227 11.6463 21.9814 11.8797C22.3632 11.9972 22.6635 12.1336 22.8578 12.275C23.0574 12.4201 23.066 12.5081 23.066 12.5268H24.066ZM19.5659 10.5268C18.9153 10.5268 18.7221 10.4227 18.621 10.3215C18.5599 10.2604 18.4959 10.1636 18.4211 9.98769C18.3448 9.80834 18.2725 9.58507 18.175 9.28205L17.2231 9.58839C17.316 9.87729 17.403 10.1489 17.5008 10.379C17.6001 10.6125 17.725 10.8396 17.9137 11.0284C18.3121 11.4271 18.8618 11.5268 19.5659 11.5268V10.5268ZM18.175 9.28205C18.1342 9.15525 18.0897 9.01691 18.0403 8.86873L17.0916 9.18496C17.1391 9.32751 17.1821 9.46112 17.2231 9.58839L18.175 9.28205ZM18.0403 8.86873C17.9324 8.54502 17.9212 8.32092 17.9485 8.17098C17.9737 8.03225 18.0356 7.93215 18.136 7.84846C18.3687 7.65458 18.8388 7.52685 19.5659 7.52685V6.52685C18.7931 6.52685 18.0132 6.64911 17.4958 7.08023C17.2213 7.30904 17.0331 7.61519 16.9646 7.99209C16.8981 8.35777 16.9495 8.75867 17.0916 9.18496L18.0403 8.86873ZM19.5659 7.52685C20.7524 7.52685 21.4272 6.97816 21.9894 6.52839L21.3647 5.74752C20.8158 6.18664 20.3795 6.52685 19.5659 6.52685V7.52685ZM21.9923 6.52601L21.9923 6.526L21.3618 5.74989L21.3617 5.7499L21.9923 6.52601ZM21.9894 6.52838C22.2728 6.30164 22.5109 6.11336 22.7895 5.97406L22.3423 5.07963C21.9543 5.27366 21.6368 5.52982 21.3647 5.74751L21.9894 6.52838ZM22.7895 5.97406C22.965 5.88632 23.3046 5.85765 23.8251 5.9217C24.3213 5.98277 24.8772 6.11237 25.424 6.24042L25.652 5.26676C25.1176 5.14162 24.507 4.99808 23.9472 4.92919C23.4117 4.86328 22.8059 4.84783 22.3423 5.07963L22.7895 5.97406ZM25.424 6.24042C26.0059 6.37666 26.6324 6.52685 27.0659 6.52685V5.52685C26.7776 5.52685 26.2915 5.4165 25.652 5.26676L25.424 6.24042ZM27.0659 6.52685C27.2633 6.52685 27.461 6.47168 27.6335 6.40557C27.812 6.33717 27.9972 6.24381 28.1788 6.13932C28.5421 5.93029 28.9246 5.65717 29.2627 5.38952L28.642 4.60549C28.3274 4.85454 27.9868 5.09609 27.6801 5.27255C27.5267 5.36081 27.3902 5.4279 27.2757 5.47177C27.1552 5.51793 27.0886 5.52685 27.0659 5.52685V6.52685ZM28.63 5.37976C31.5275 7.82283 33.5711 11.2443 34.2522 15.1333L35.2372 14.9608C34.5143 10.8335 32.3459 7.20487 29.2746 4.61525L28.63 5.37976ZM10.066 6.02682C9.28143 6.02682 7.43848 6.0866 5.17028 6.296L5.26221 7.29176C7.50361 7.08484 9.31567 7.02682 10.066 7.02682V6.02682ZM13.0132 11.2504C13.3763 10.5242 13.1523 9.57898 12.6937 8.72727C12.2172 7.84231 11.4156 6.91404 10.366 6.12682L9.76599 6.92682C10.7164 7.63961 11.4148 8.46134 11.8133 9.20137C12.2296 9.97467 12.2557 10.5294 12.1188 10.8032L13.0132 11.2504ZM10.0521 11.9328C10.5801 11.9728 11.1731 12.0191 11.6711 11.9741C12.1325 11.9325 12.741 11.7949 13.0132 11.2504L12.1188 10.8032C12.1044 10.8319 12.0157 10.939 11.5812 10.9782C11.1832 11.0141 10.6814 10.9776 10.1276 10.9357L10.0521 11.9328ZM8.2896 11.974C8.39527 11.9212 8.60193 11.8815 8.94165 11.8776C9.26745 11.8738 9.64349 11.9019 10.0521 11.9328L10.1276 10.9357C9.73047 10.9056 9.30803 10.8733 8.93004 10.8777C8.56598 10.8819 8.16358 10.919 7.84239 11.0796L8.2896 11.974ZM8.56599 13.5268C8.31022 13.5268 8.16047 13.4454 8.06798 13.353C7.96819 13.2532 7.89675 13.101 7.87543 12.9091C7.82932 12.494 8.02631 12.1057 8.2896 11.974L7.84239 11.0796C7.10568 11.448 6.80267 12.3096 6.88155 13.0195C6.92273 13.3902 7.07004 13.7692 7.36088 14.0601C7.65902 14.3582 8.07177 14.5268 8.56599 14.5268V13.5268ZM10.1626 13.6479C9.6681 13.5908 9.11957 13.5268 8.56599 13.5268V14.5268C9.05248 14.5268 9.54398 14.5831 10.0478 14.6413L10.1626 13.6479ZM10.2033 13.6543L10.2033 13.6543L10.0072 14.6349L10.0072 14.6349L10.2033 13.6543ZM12.3422 13.5796C12.112 13.6947 11.8185 13.747 11.4406 13.749C11.0606 13.751 10.6403 13.7031 10.1626 13.6479L10.0478 14.6413C10.5108 14.6948 10.9942 14.7514 11.4459 14.749C11.8998 14.7466 12.3663 14.6856 12.7894 14.474L12.3422 13.5796ZM14.513 15.2504C14.674 14.9285 14.7412 14.5922 14.6716 14.2722C14.6004 13.9445 14.398 13.6931 14.1356 13.5356C13.6322 13.2335 12.9423 13.2796 12.3422 13.5796L12.7894 14.474C13.1893 14.2741 13.4995 14.3201 13.6211 14.3931C13.6711 14.4231 13.6875 14.453 13.6944 14.4846C13.703 14.5239 13.7077 14.6252 13.6186 14.8032L14.513 15.2504ZM14.6019 15.4417C14.5289 15.3849 14.4896 15.3536 14.4608 15.3257C14.4352 15.3009 14.4426 15.3015 14.4522 15.3237C14.4574 15.3355 14.4611 15.3488 14.4628 15.3616C14.4645 15.374 14.4635 15.3805 14.4637 15.3788C14.4646 15.3721 14.4715 15.3334 14.513 15.2504L13.6186 14.8032C13.4752 15.09 13.3981 15.4074 13.5353 15.7226C13.6485 15.9829 13.8848 16.1508 13.988 16.231L14.6019 15.4417ZM15.5658 17.5268C15.5658 16.9107 15.4389 16.4582 15.2314 16.1108C15.0265 15.7678 14.765 15.5685 14.6019 15.4417L13.988 16.231C14.1496 16.3567 14.2734 16.4571 14.3729 16.6236C14.4696 16.7855 14.5658 17.052 14.5658 17.5268H15.5658ZM15.7106 18.9257C15.6405 18.5048 15.5658 18.0522 15.5658 17.5268H14.5658C14.5658 18.1443 14.6544 18.6713 14.7242 19.0901L15.7106 18.9257ZM14.1871 21.5119C14.9453 21.3223 15.4839 21.0224 15.7074 20.4623C15.8109 20.2026 15.8253 19.9343 15.8114 19.6878C15.7977 19.4445 15.7531 19.1804 15.7106 18.9257L14.7242 19.0901C14.7693 19.3602 14.803 19.5662 14.813 19.744C14.8228 19.9187 14.8061 20.0225 14.7785 20.0918C14.7396 20.1894 14.6149 20.3742 13.9446 20.5418L14.1871 21.5119ZM12.7547 21.8503C13.1338 21.7644 13.5955 21.6598 14.1871 21.5119L13.9446 20.5418C13.3645 20.6868 12.9121 20.7893 12.5338 20.875L12.7547 21.8503ZM10.7894 22.474C11.4371 22.1502 11.841 22.0573 12.7547 21.8503L12.5338 20.875C11.6191 21.0822 11.1088 21.1963 10.3422 21.5796L10.7894 22.474ZM10.0629 22.7451C10.2483 22.6911 10.5012 22.6182 10.7894 22.474L10.3422 21.5796C10.1423 21.6796 9.96665 21.7316 9.78305 21.7851L10.0629 22.7451ZM9.56583 24.0268C9.56583 23.2649 9.64547 23.0012 9.70518 22.9048C9.73218 22.8612 9.74738 22.8371 10.0629 22.7451L9.78305 21.7851C9.52715 21.8597 9.11378 21.9605 8.85506 22.3782C8.62906 22.7431 8.56583 23.2769 8.56583 24.0268H9.56583ZM9.56583 27.5268V24.0268H8.56583V27.5268H9.56583ZM9.56583 27.5283V27.5268H8.56583V27.5283H9.56583ZM8.06599 31.0268C8.46137 31.0268 8.78766 30.8698 9.02358 30.5946C9.24116 30.3409 9.35861 30.0147 9.42894 29.6984C9.56849 29.0706 9.56583 28.2581 9.56583 27.5283H8.56583C8.56583 28.2979 8.56318 28.9847 8.45277 29.4814C8.39812 29.7272 8.3281 29.8695 8.26447 29.9437C8.21918 29.9965 8.17053 30.0268 8.06599 30.0268V31.0268ZM2.73809 26.5554C4.26466 28.477 5.29178 29.5856 6.07338 30.214C6.46864 30.5318 6.81601 30.7393 7.14803 30.8649C7.48607 30.9928 7.78458 31.0268 8.06599 31.0268V30.0268C7.87526 30.0268 7.70166 30.0052 7.50185 29.9296C7.29602 29.8517 7.03981 29.7079 6.69999 29.4347C6.01147 28.8811 5.04252 27.8485 3.52109 25.9333L2.73809 26.5554ZM3.56666 26.0015C2.25021 23.632 1.50024 20.9044 1.50024 18H0.500244C0.500244 21.0786 1.29564 23.9729 2.69252 26.4872L3.56666 26.0015ZM1.50024 18C1.50024 13.833 3.04426 10.0279 5.59211 7.12362L4.84038 6.46414C2.13864 9.54383 0.500244 13.5812 0.500244 18H1.50024Z" fill="white" fill-opacity="0.2"/>
<circle cx="17.9706" cy="17.9703" r="16.9703" stroke="white" stroke-width="2"/>
<defs>
<radialGradient id="paint0_radial_10_1290" cx="0" cy="0" r="1" gradientUnits="userSpaceOnUse" gradientTransform="translate(19.5002 12.5) rotate(126.634) scale(24.3002)">
<stop stop-color="#89C8FD"/>
<stop offset="1" stop-color="#0075D8"/>
</radialGradient>
<radialGradient id="paint1_radial_10_1290" cx="0" cy="0" r="1" gradientUnits="userSpaceOnUse" gradientTransform="translate(19.5002 12.5) rotate(126.634) scale(24.3002)">
<stop stop-color="#89C8FD"/>
<stop offset="1" stop-color="#0075D8"/>
</radialGradient>
</defs>
</svg>
