<svg width="27" height="33" viewBox="0 0 27 33" fill="none" xmlns="http://www.w3.org/2000/svg">
<path d="M10.245 6.44794C10.0237 6.44812 9.8097 6.52723 9.64145 6.67105C9.47321 6.81488 9.36175 7.01398 9.32714 7.2326L7.802 16.9057C7.87311 16.4539 8.26237 16.121 8.71989 16.121H13.1891C17.687 16.121 21.5036 12.8398 22.201 8.39326C22.2529 8.06129 22.2823 7.72619 22.289 7.39025C21.146 6.79089 19.8032 6.44794 18.3319 6.44794H10.245Z" fill="#0070E0" fill-opacity="0.7"/>
<path opacity="0.4" d="M22.2886 7.39069C22.2819 7.72662 22.2525 8.06172 22.2006 8.39369C21.5032 12.8402 17.6862 16.1215 13.1886 16.1215H8.71947C8.26232 16.1215 7.87269 16.454 7.80158 16.9061L6.39923 25.7949L5.52085 31.3712C5.5037 31.479 5.51013 31.5891 5.5397 31.6942C5.56927 31.7992 5.62128 31.8965 5.69212 31.9795C5.76296 32.0624 5.85096 32.129 5.95004 32.1747C6.04912 32.2203 6.15692 32.2439 6.26601 32.2439H11.1169C11.3383 32.2437 11.5523 32.1646 11.7205 32.0208C11.8888 31.8769 12.0002 31.6778 12.0348 31.4592L13.3125 23.3551C13.3472 23.1364 13.4587 22.9372 13.6271 22.7933C13.7955 22.6495 14.0097 22.5704 14.2312 22.5704H17.0872C21.5851 22.5704 25.4017 19.2892 26.0991 14.8427C26.5944 11.6868 25.0049 8.81493 22.2886 7.39069Z" fill="#0070E0"/>
<path d="M4.73387 0C4.27672 0 3.88709 0.33254 3.81599 0.783946L0.00936865 24.9221C-0.0628133 25.3804 0.291283 25.7948 0.755258 25.7948H6.40017L7.8018 16.906L9.32693 7.23291C9.36154 7.0143 9.473 6.81519 9.64125 6.67137C9.80949 6.52754 10.0235 6.44843 10.2448 6.44825H18.3317C19.8034 6.44825 21.1458 6.79156 22.2888 7.39057C22.3671 3.34227 19.0266 0 14.4339 0H4.73387Z" fill="#0070E0"/>
</svg>
