<svg width="15" height="16" viewBox="0 0 15 16" fill="none" xmlns="http://www.w3.org/2000/svg">
<path fill-rule="evenodd" clip-rule="evenodd" d="M6.30469 0C5.92592 0 5.57965 0.214002 5.41026 0.552786L4.68665 2H1.30469C0.752403 2 0.304688 2.44772 0.304688 3C0.304688 3.55228 0.752403 4 1.30469 4L1.30469 14C1.30469 15.1046 2.20012 16 3.30469 16H11.3047C12.4093 16 13.3047 15.1046 13.3047 14V4C13.857 4 14.3047 3.55228 14.3047 3C14.3047 2.44772 13.857 2 13.3047 2H9.92272L9.19912 0.552786C9.02972 0.214002 8.68346 0 8.30469 0H6.30469ZM4.30469 6C4.30469 5.44772 4.7524 5 5.30469 5C5.85697 5 6.30469 5.44772 6.30469 6V12C6.30469 12.5523 5.85697 13 5.30469 13C4.7524 13 4.30469 12.5523 4.30469 12V6ZM9.30469 5C8.7524 5 8.30469 5.44772 8.30469 6V12C8.30469 12.5523 8.7524 13 9.30469 13C9.85697 13 10.3047 12.5523 10.3047 12V6C10.3047 5.44772 9.85697 5 9.30469 5Z" fill="#9B9EA7"/>
</svg>
