<svg width="59" height="21" viewBox="0 0 59 21" fill="none" xmlns="http://www.w3.org/2000/svg">
<path d="M8.86403 0.0935657C10.3443 -0.0996709 11.8712 -0.000291755 13.2974 0.454274C14.5943 0.856697 15.8071 1.50634 16.8965 2.31364C16.2113 2.81728 15.5378 3.33687 14.8513 3.83868C13.3287 2.79949 11.4381 2.31977 9.60447 2.49338C8.07698 2.63447 6.60163 3.25406 5.41092 4.21717C3.84479 5.49315 2.78229 7.37031 2.49704 9.37015C2.29153 10.9001 2.52342 12.4914 3.18226 13.8894C3.89386 15.4004 5.07046 16.699 6.53231 17.5149C8.10888 18.3934 9.99094 18.7222 11.7681 18.3811C13.7643 18.0278 15.5954 16.8555 16.7579 15.1949C17.7689 13.7729 18.3302 12.0276 18.2995 10.2799C19.0313 9.69835 19.7933 9.15667 20.5355 8.588C20.7625 10.183 20.7349 11.8313 20.2957 13.3889C20.0693 14.2219 19.6816 14.9979 19.2694 15.7525C17.6235 18.6204 14.5544 20.6705 11.2387 20.9263C9.56889 21.0545 7.85184 20.8288 6.32006 20.1325C5.2637 19.6295 4.25089 19.013 3.39758 18.2057C1.24438 16.2156 -0.0684066 13.303 0.00275351 10.3578C-0.0168769 8.223 0.716195 6.11212 1.96886 4.39201C3.59205 2.14126 6.09676 0.486173 8.86403 0.0935657Z" fill="#FEFEFE"/>
<path d="M28.5288 3.05965C29.3754 3.0572 30.2219 3.06394 31.0685 3.05658C31.5758 3.02039 32.0837 3.07192 32.5923 3.05904C33.5125 3.08235 34.4339 3.13326 35.3448 3.27313C36.1503 3.41054 36.9435 3.69518 37.6097 4.17552C38.1195 4.54727 38.5495 5.04477 38.7845 5.63491C39.1427 6.5557 39.2396 7.56973 39.1047 8.54634C38.955 9.59166 38.4667 10.6192 37.6275 11.2829C36.819 11.9123 35.8166 12.2405 34.8142 12.3921C33.5456 12.5785 32.2604 12.5289 30.9826 12.5381C30.9734 13.9539 31.0022 15.3704 30.9654 16.785C30.1532 16.7862 29.341 16.785 28.5288 16.7856C28.557 14.5213 28.5478 12.2559 28.5288 9.99163C28.5288 7.68138 28.5288 5.37052 28.5288 3.05965ZM30.9673 5.34475C30.9979 6.97469 30.9832 8.60523 30.966 10.2346C32.1022 10.2235 33.2456 10.3223 34.3768 10.1732C35.0228 10.0953 35.6694 9.826 36.1055 9.33033C36.4288 8.96349 36.5668 8.47457 36.6282 7.99853C36.6969 7.32374 36.565 6.57778 36.0779 6.07537C35.7375 5.70914 35.2314 5.59013 34.7639 5.48032C33.5131 5.22697 32.2322 5.37972 30.9673 5.34475Z" fill="#FEFEFE"/>
<path d="M10.344 10.1768C13.083 8.14938 15.8184 6.11641 18.544 4.07056C19.0286 4.72265 19.4323 5.42996 19.8101 6.14831C16.657 8.50764 13.5088 10.8756 10.3323 13.2042C9.03919 12.3724 7.75094 11.5319 6.43141 10.7418C6.39951 9.72166 6.41853 8.70087 6.41546 7.68071C7.72211 8.51745 9.0441 9.32966 10.344 10.1768Z" fill="#FEFEFE"/>
<path d="M40.4147 7.67205C41.3527 7.07639 42.4729 6.82427 43.5746 6.80157C44.3334 6.78378 45.0935 6.86169 45.837 7.01505C47.0001 7.27086 47.962 8.30698 48.073 9.50136C48.1485 10.808 48.1258 12.1171 48.1289 13.425C48.1282 14.5451 48.1295 15.6653 48.1282 16.7861C47.4074 16.7855 46.6873 16.7855 45.9671 16.7855C45.9665 16.2248 45.9658 15.6641 45.9671 15.1034C45.6407 15.8027 45.0279 16.3444 44.3193 16.6388C43.2593 17.0854 41.9938 17.0572 40.9742 16.5131C40.4245 16.2168 40.0411 15.6757 39.8534 15.0893C39.6252 14.3685 39.6271 13.5826 39.8246 12.8551C40.0872 12.0067 40.903 11.4392 41.7416 11.2509C43.098 10.9785 44.4887 11.0632 45.8628 11.0503C45.8333 10.4829 45.8254 9.86207 45.4855 9.37867C45.2745 9.07624 44.9058 8.95784 44.5592 8.89834C43.009 8.58364 41.2803 9.22838 40.3963 10.5589C40.4276 9.59706 40.4098 8.63456 40.4147 7.67205ZM43.017 12.6349C42.7446 12.6925 42.4453 12.749 42.2483 12.9637C41.7797 13.4612 41.9385 14.3998 42.5716 14.6832C43.5169 15.1015 44.7119 14.85 45.4217 14.1022C45.8131 13.6918 45.9824 13.0925 45.8671 12.5373C44.9168 12.5582 43.9574 12.4521 43.017 12.6349Z" fill="#FEFEFE"/>
<path d="M49.2388 6.98692C50.0786 6.98386 50.919 6.9857 51.7588 6.98631C52.6508 9.18123 53.4918 11.397 54.3825 13.5925C55.2273 11.4277 55.8235 9.17755 56.591 6.98508C57.3934 6.99735 58.1982 6.96177 59 7.00533C57.6786 10.6504 56.3867 14.3066 55.0819 17.9579C54.8653 18.5241 54.6242 19.0884 54.2776 19.5896C54.0083 19.9724 53.6624 20.3147 53.236 20.5166C52.3612 20.8472 51.3558 20.7497 50.5325 20.3196C50.5503 19.5982 50.5595 18.8768 50.5362 18.1554C50.9883 18.4002 51.4944 18.7296 52.0312 18.5793C52.4649 18.4738 52.7686 18.1069 52.9526 17.7198C53.0888 17.4401 53.1955 17.1481 53.317 16.8622C51.9527 13.5729 50.5749 10.2885 49.2388 6.98692Z" fill="#FEFEFE"/>
</svg>
