<svg width="36" height="36" viewBox="0 0 36 36" fill="none" xmlns="http://www.w3.org/2000/svg">
<circle cx="18" cy="18" r="18" fill="#F6F6F6"/>
<path d="M29.8774 14.934V18.9155H28.5367V16.1225H27.2457V18.9155H25.905V14.9337H29.8774V14.934Z" fill="#0860E6"/>
<path fill-rule="evenodd" clip-rule="evenodd" d="M23.1513 19.0579C24.3515 19.0579 25.2428 18.2775 25.2428 17.0945C25.2428 15.9495 24.5852 15.2061 23.4862 15.2061C22.9791 15.2061 22.5606 15.3954 22.2454 15.722C22.3206 15.0469 22.859 14.5539 23.4518 14.5539C23.5886 14.5539 24.6186 14.5516 24.6186 14.5516L25.201 13.3697C25.201 13.3697 23.9079 13.4009 23.3068 13.4009C21.9333 13.4263 21.0056 14.7502 21.0056 16.3581C21.0056 18.2314 21.9104 19.0579 23.1513 19.0579ZM23.1586 16.253C23.6042 16.253 23.9132 16.5635 23.9132 17.0944C23.9132 17.5722 23.6387 17.9659 23.1586 17.967C22.6994 17.967 22.3905 17.6022 22.3905 17.1025C22.3905 16.5715 22.6994 16.253 23.1586 16.253Z" fill="#0860E6"/>
<path d="M19.9147 17.5826C19.9147 17.5826 19.598 17.7762 19.1252 17.8128C18.5815 17.8299 18.0971 17.4658 18.0971 16.8188C18.0971 16.1878 18.5245 15.8261 19.1115 15.8261C19.4713 15.8261 19.9474 16.0906 19.9474 16.0906C19.9474 16.0906 20.2958 15.4127 20.4762 15.0737C20.1458 14.8081 19.7057 14.6625 19.1937 14.6625C17.9018 14.6625 16.9011 15.5557 16.9011 16.8108C16.9011 18.0819 17.8416 18.9544 19.1937 18.9281C19.5717 18.9132 20.0931 18.7725 20.4108 18.556L19.9147 17.5826Z" fill="#0860E6"/>
<path d="M3.42871 13.8301L5.28851 17.3553V19.5056L3.43089 23.0238L3.42871 13.8301Z" fill="#5B57A2"/>
<path d="M10.5693 16.0726L12.312 14.9399L15.8786 14.9364L10.5693 18.3854V16.0726Z" fill="#D90751"/>
<path d="M10.5596 13.8094L10.5695 18.4766L8.70532 17.2619V10.2853L10.5597 13.8094H10.5596Z" fill="#FAB718"/>
<path d="M15.8787 14.9363L12.312 14.9399L10.5596 13.8094L8.70532 10.2853L15.8786 14.9363H15.8787Z" fill="#ED6F26"/>
<path d="M10.5695 23.0433V20.7789L8.70532 19.5874L8.70635 26.571L10.5695 23.0433Z" fill="#63B22F"/>
<path d="M12.3079 21.921L5.28838 17.3553L3.42871 13.8301L15.8713 21.9164L12.3078 21.921H12.3079Z" fill="#1487C9"/>
<path d="M8.7063 26.5709L10.5692 23.0433L12.3075 21.9209L15.8708 21.9163L8.7063 26.5709Z" fill="#017F36"/>
<path d="M3.43042 23.0238L8.7202 19.5875L6.94179 18.4304L5.28804 19.5055L3.43042 23.0238Z" fill="#984995"/>
<path d="M18.0972 21.5953C18.0562 21.6507 18.0023 21.6925 17.9377 21.7207C17.8714 21.7493 17.8004 21.7639 17.7288 21.7636C17.6576 21.7646 17.5868 21.752 17.5198 21.7264C17.4597 21.7032 17.4047 21.6671 17.3583 21.6203C17.3126 21.5734 17.2766 21.5168 17.2529 21.4542C17.2272 21.3856 17.2143 21.3123 17.2151 21.2385C17.2151 21.1652 17.227 21.0974 17.2517 21.0331C17.2754 20.9686 17.3098 20.9134 17.353 20.8669C17.3961 20.8196 17.4478 20.7835 17.5059 20.7552C17.5651 20.7281 17.6298 20.7134 17.7008 20.7134C17.7773 20.7134 17.8484 20.7236 17.913 20.7438C17.9776 20.7642 18.0325 20.7981 18.0777 20.8456L17.9991 20.9868C17.9611 20.9503 17.9164 20.9225 17.8677 20.9053C17.8214 20.8895 17.7731 20.8816 17.7245 20.8817C17.6815 20.8817 17.6405 20.8907 17.6007 20.9077C17.5615 20.9244 17.5257 20.949 17.4951 20.98C17.4639 21.0119 17.4394 21.0504 17.423 21.0929C17.4047 21.1369 17.3961 21.1855 17.3961 21.2396C17.3961 21.295 17.4057 21.3447 17.424 21.3875C17.4424 21.4316 17.4671 21.469 17.4983 21.5005C17.5296 21.5322 17.5662 21.5558 17.6081 21.5717C17.6503 21.5887 17.6944 21.5965 17.7418 21.5965C17.7999 21.5965 17.8527 21.5841 17.8979 21.5603C17.9427 21.5374 17.9829 21.5056 18.0164 21.4667L18.0972 21.5953ZM18.3189 21.7399V20.7349H18.4892V21.4836L19.0427 20.7349H19.2129V21.74H19.0427V20.9913L18.4892 21.74H18.3189V21.7399ZM20.3404 21.5953C20.2985 21.6512 20.2436 21.6944 20.181 21.7207C20.1147 21.7493 20.0437 21.7639 19.9721 21.7636C19.9009 21.7646 19.8301 21.752 19.7632 21.7264C19.703 21.7032 19.648 21.6671 19.6016 21.6203C19.5558 21.5734 19.5199 21.5168 19.4961 21.4542C19.4704 21.3856 19.4576 21.3123 19.4583 21.2385C19.4583 21.1652 19.4702 21.0974 19.4949 21.0331C19.5188 20.9686 19.5532 20.9134 19.5962 20.8669C19.6393 20.8196 19.691 20.7835 19.7491 20.7552C19.8105 20.7266 19.877 20.7123 19.944 20.7134C20.0206 20.7134 20.0916 20.7236 20.1562 20.7438C20.2208 20.7642 20.2758 20.7981 20.3211 20.8456L20.2423 20.9868C20.2044 20.9502 20.1597 20.9225 20.111 20.9053C20.0648 20.8895 20.0164 20.8816 19.9678 20.8817C19.8823 20.882 19.8001 20.9172 19.7384 20.98C19.7074 21.0121 19.6829 21.0505 19.6662 21.0929C19.6479 21.1369 19.6393 21.1855 19.6393 21.2396C19.6393 21.295 19.649 21.3447 19.6673 21.3875C19.6856 21.4316 19.7103 21.469 19.7416 21.5005C19.7728 21.5322 19.8095 21.5558 19.8515 21.5717C19.8935 21.5874 19.9376 21.5965 19.985 21.5965C20.0432 21.5965 20.0949 21.5841 20.1411 21.5603C20.1859 21.5374 20.2261 21.5056 20.2596 21.4667L20.3404 21.5953ZM20.4277 20.7349H21.301V20.9134H20.9499V21.7399H20.7797V20.9134H20.4287V20.7349H20.4277Z" fill="#0860E6"/>
<path fill-rule="evenodd" clip-rule="evenodd" d="M22.0959 21.7297C22.1605 21.7083 22.2154 21.6754 22.2628 21.6304L22.2111 21.4903C22.1798 21.5198 22.1379 21.5446 22.0873 21.565C22.0366 21.5853 21.9795 21.5954 21.9171 21.5954C21.8234 21.5954 21.7459 21.5694 21.6844 21.5164C21.6231 21.4632 21.5897 21.3888 21.5822 21.2938H22.3188C22.3264 21.2588 22.3296 21.2193 22.3296 21.173C22.3296 21.1041 22.3177 21.0421 22.294 20.9856C22.272 20.9308 22.2397 20.8812 22.1993 20.8398C22.1583 20.7989 22.1099 20.767 22.0571 20.7462C22.0018 20.7234 21.943 20.7119 21.8837 20.7123C21.804 20.7123 21.734 20.7269 21.6727 20.7541C21.6147 20.7799 21.5623 20.818 21.5186 20.8659C21.4761 20.9136 21.4435 20.9701 21.4228 21.0319C21.4001 21.0977 21.3888 21.1673 21.3894 21.2373C21.3894 21.3165 21.4024 21.3887 21.426 21.4531C21.4491 21.5156 21.4843 21.5721 21.5294 21.6191C21.5736 21.6653 21.6273 21.7004 21.691 21.7252C21.7591 21.7508 21.8309 21.7634 21.9031 21.7624C21.9686 21.762 22.0336 21.751 22.0959 21.7299V21.7297ZM21.6651 20.9561C21.7178 20.9054 21.7878 20.8806 21.8761 20.8806C21.9591 20.8806 22.0259 20.9043 22.0744 20.9518C22.1229 20.9992 22.1486 21.0647 22.153 21.1482H21.5714C21.5797 21.0743 21.613 21.0061 21.6651 20.9563V20.9561Z" fill="#0860E6"/>
<path d="M22.561 20.7349H22.7161L23.0845 21.233L23.4333 20.7349H23.5841V21.74H23.414V21.0072L23.0823 21.4735H23.0758L22.7312 21.007V21.7399H22.561V20.7349Z" fill="#0860E6"/>
<path fill-rule="evenodd" clip-rule="evenodd" d="M24.0474 20.7382C23.9958 20.7526 23.9464 20.775 23.901 20.8047L23.9462 20.9472C23.985 20.9269 24.0238 20.9099 24.0625 20.8953C24.1013 20.8805 24.1509 20.8737 24.2101 20.8737C24.2575 20.8737 24.2952 20.8817 24.3243 20.8974C24.3533 20.9121 24.3748 20.9348 24.3899 20.9619C24.405 20.989 24.4147 21.0228 24.4201 21.0623C24.4255 21.1018 24.4277 21.1447 24.4277 21.1911C24.3928 21.1654 24.3531 21.148 24.3113 21.1402C24.2709 21.1317 24.2298 21.1272 24.1886 21.1267C24.1379 21.1267 24.0906 21.1347 24.0453 21.1481C24.0001 21.1617 23.9613 21.182 23.9301 21.2092C23.8982 21.2363 23.8725 21.2706 23.8547 21.3096C23.8357 21.3523 23.8262 21.3991 23.8267 21.4463C23.8267 21.5445 23.8537 21.6213 23.9074 21.6756C23.9613 21.7298 24.0323 21.7568 24.1206 21.7568C24.2004 21.7568 24.264 21.7421 24.3124 21.7128C24.3609 21.6834 24.3996 21.6496 24.4277 21.6112V21.741H24.587V21.1245C24.587 20.9934 24.5601 20.8919 24.5052 20.8206C24.4513 20.7495 24.3555 20.7134 24.2198 20.7134C24.1594 20.7134 24.1023 20.7224 24.0474 20.7382ZM24.3319 21.5525C24.2932 21.5819 24.2425 21.5953 24.18 21.5953C24.1251 21.5953 24.082 21.5806 24.0519 21.5524C24.0217 21.5231 24.0066 21.4847 24.0066 21.4372C24.0066 21.4091 24.012 21.3853 24.0239 21.3639C24.0358 21.3424 24.0519 21.3255 24.0702 21.3119C24.0902 21.2977 24.1125 21.2874 24.1359 21.2814C24.1607 21.2746 24.1854 21.2712 24.2113 21.2712C24.2953 21.2712 24.3674 21.2926 24.4266 21.3378V21.4654C24.3987 21.4986 24.3669 21.5278 24.3319 21.5524V21.5525ZM26.0895 20.3813C26.1239 20.3645 26.1562 20.3363 26.1864 20.2945L26.0937 20.1533C26.07 20.1872 26.0432 20.2109 26.013 20.2233C25.9809 20.2366 25.9478 20.2464 25.9139 20.2527L25.8816 20.2588C25.8536 20.2639 25.8235 20.2696 25.7912 20.2753C25.7392 20.2855 25.6886 20.3022 25.6404 20.325C25.5639 20.36 25.5026 20.4074 25.4562 20.4672C25.4099 20.5271 25.3733 20.5948 25.3485 20.6694C25.3233 20.7451 25.3064 20.8235 25.2979 20.9031C25.2892 20.9846 25.285 21.0623 25.285 21.1368C25.285 21.2329 25.2968 21.3198 25.3205 21.3977C25.3443 21.4757 25.3775 21.5411 25.4217 21.5942C25.4658 21.6485 25.5187 21.6892 25.5812 21.7185C25.6436 21.7478 25.7136 21.7625 25.7922 21.7625C25.8644 21.7625 25.9312 21.7478 25.9915 21.7207C26.0496 21.6946 26.1023 21.6567 26.1466 21.609C26.1896 21.5626 26.2241 21.5072 26.2478 21.4452C26.2725 21.383 26.2844 21.3164 26.2844 21.2464C26.2844 21.1708 26.2736 21.102 26.2532 21.0409C26.2343 20.9827 26.2042 20.9292 26.1649 20.884C26.1254 20.8395 26.0772 20.8048 26.0237 20.7822C25.9648 20.7576 25.9019 20.7453 25.8385 20.7461C25.7976 20.7461 25.7578 20.7518 25.719 20.7631C25.6813 20.7744 25.6451 20.7907 25.6112 20.8117C25.5784 20.8316 25.5483 20.8563 25.5219 20.885C25.496 20.9133 25.4745 20.9449 25.4594 20.981H25.4551C25.4584 20.9348 25.4638 20.8874 25.4734 20.8388C25.4831 20.7902 25.4971 20.7438 25.5155 20.6998C25.5338 20.6559 25.5575 20.6162 25.5865 20.5801C25.6177 20.5437 25.6559 20.5148 25.6985 20.4955C25.7454 20.4718 25.795 20.4547 25.8461 20.4447L25.8799 20.4382C25.9135 20.4317 25.9456 20.4254 25.9764 20.4186C26.0173 20.4097 26.0549 20.3983 26.0895 20.3815V20.3813ZM25.4907 21.3469C25.474 21.2899 25.466 21.2305 25.467 21.1708C25.4742 21.1365 25.4874 21.104 25.5058 21.0748C25.5241 21.0443 25.5477 21.0173 25.5758 20.9934C25.639 20.9408 25.7172 20.9126 25.7976 20.9133C25.8978 20.9133 25.9732 20.946 26.0259 21.0105C26.0787 21.0759 26.1046 21.1572 26.1046 21.2555C26.1046 21.304 26.0959 21.3481 26.0809 21.3887C26.0664 21.4288 26.0444 21.4653 26.0163 21.4961C25.9881 21.527 25.9545 21.5515 25.9172 21.5683C25.8784 21.5863 25.8363 21.5954 25.789 21.5954C25.7416 21.5954 25.6985 21.5852 25.6587 21.5649C25.6192 21.5449 25.5842 21.516 25.5563 21.4802C25.5271 21.4403 25.5049 21.3951 25.4907 21.3469ZM27.5897 20.7349H27.4194V21.74H27.5897V20.7349ZM26.5299 20.7349H26.7001V21.0364H26.8574C26.9316 21.0364 26.9919 21.0466 27.0404 21.0657C27.0889 21.085 27.1277 21.1109 27.1567 21.1425C27.1858 21.1742 27.2062 21.2115 27.2181 21.2531C27.2299 21.2949 27.2364 21.3378 27.2364 21.383C27.2364 21.4282 27.2299 21.4712 27.216 21.5141C27.203 21.557 27.1804 21.5942 27.1502 21.6281C27.1201 21.6621 27.0792 21.6892 27.0274 21.7096C26.9757 21.7298 26.9133 21.741 26.8379 21.741H26.5288V20.7349H26.5299ZM26.7001 21.2046V21.5728H26.824C26.9091 21.5728 26.9693 21.557 27.0038 21.5253C27.0383 21.4936 27.0555 21.4486 27.0555 21.3887C27.0555 21.3277 27.0372 21.2815 27.0027 21.2498C26.9672 21.2181 26.9079 21.2023 26.8261 21.2023H26.7001V21.2046Z" fill="#0860E6"/>
<path d="M28.7148 21.5953C28.6739 21.6507 28.62 21.6925 28.5554 21.7207C28.4891 21.7493 28.4181 21.7639 28.3465 21.7636C28.2753 21.7646 28.2045 21.752 28.1375 21.7264C28.0773 21.7033 28.0223 21.6671 27.976 21.6203C27.9302 21.5734 27.8943 21.5168 27.8704 21.4542C27.8448 21.3856 27.832 21.3123 27.8328 21.2385C27.8328 21.1652 27.8446 21.0974 27.8694 21.0331C27.8931 20.9686 27.9275 20.9134 27.9706 20.8669C28.0138 20.8196 28.0653 20.7835 28.1236 20.7552C28.1849 20.7266 28.2514 20.7123 28.3185 20.7134C28.3949 20.7134 28.466 20.7236 28.5307 20.7438C28.5953 20.7642 28.6502 20.7981 28.6954 20.8456L28.6168 20.9868C28.5788 20.9503 28.534 20.9225 28.4854 20.9053C28.4391 20.8895 28.3908 20.8816 28.3422 20.8817C28.2992 20.8817 28.2582 20.8907 28.2183 20.9077C28.1791 20.9244 28.1433 20.949 28.1128 20.98C28.0818 21.0121 28.0573 21.0505 28.0406 21.0929C28.0223 21.1369 28.0138 21.1855 28.0138 21.2396C28.0138 21.295 28.0234 21.3447 28.0417 21.3875C28.06 21.4317 28.0848 21.469 28.116 21.5005C28.1472 21.5322 28.1838 21.5558 28.2258 21.5717C28.2679 21.5874 28.3121 21.5965 28.3594 21.5965C28.4175 21.5965 28.4692 21.5841 28.5156 21.5603C28.5603 21.5374 28.6006 21.5056 28.6341 21.4667L28.7148 21.5953ZM28.802 20.7349H29.6754V20.9134H29.3243V21.7399H29.1542V20.9134H28.8031V20.7349H28.802Z" fill="#0860E6"/>
<path fill-rule="evenodd" clip-rule="evenodd" d="M30.0311 20.735H29.8608V22.1871H30.0311V21.6937C30.0655 21.7174 30.1064 21.7344 30.1538 21.7457C30.2011 21.7569 30.2507 21.7625 30.3013 21.7625C30.3767 21.7625 30.4446 21.7478 30.506 21.7208C30.5649 21.6941 30.6183 21.6554 30.6631 21.6068C30.7073 21.5581 30.7407 21.5016 30.7644 21.435C30.7881 21.3685 30.8 21.2973 30.8 21.2217C30.8 21.147 30.7892 21.0782 30.7687 21.0161C30.7494 20.957 30.7194 20.9026 30.6804 20.8558C30.6421 20.8101 30.5946 20.7742 30.5414 20.7507C30.4833 20.7242 30.4205 20.7112 30.3573 20.7123C30.2906 20.7123 30.2281 20.7259 30.1689 20.753C30.1096 20.7802 30.0633 20.8128 30.0311 20.8535V20.735ZM30.1496 20.9213C30.1981 20.8942 30.2508 20.8806 30.3079 20.8806C30.3574 20.8806 30.4016 20.8885 30.4415 20.9055C30.4803 20.9224 30.5125 20.9462 30.5395 20.9778C30.5664 21.0094 30.5869 21.0456 30.5998 21.0884C30.6137 21.1313 30.6203 21.1777 30.6203 21.2285C30.6203 21.2827 30.6116 21.3312 30.5966 21.3764C30.5825 21.4192 30.5601 21.4585 30.5308 21.4916C30.5014 21.5243 30.4658 21.5501 30.4264 21.5672C30.3824 21.5867 30.3351 21.5963 30.2874 21.5954C30.2412 21.5954 30.1981 21.5899 30.1571 21.5786C30.1123 21.5657 30.0697 21.545 30.0312 21.5175V21.0195C30.0613 20.9812 30.1012 20.9485 30.1496 20.9213ZM32.1052 20.7349H31.935V21.74H32.1052V20.7349ZM31.0444 20.7349H31.2146V21.0364H31.3718C31.4461 21.0364 31.5064 21.0466 31.5549 21.0657C31.6034 21.085 31.6422 21.1109 31.6712 21.1425C31.7003 21.1742 31.7208 21.2115 31.7325 21.2532C31.7444 21.295 31.7508 21.3378 31.7508 21.383C31.7508 21.4282 31.7444 21.4712 31.7305 21.5141C31.7176 21.557 31.6949 21.5942 31.6647 21.6281C31.6346 21.6621 31.5937 21.6892 31.542 21.7096C31.4903 21.7298 31.4278 21.741 31.3524 21.741H31.0434V20.7349H31.0444ZM31.2158 21.2046V21.5728H31.3396C31.4246 21.5728 31.485 21.557 31.5195 21.5253C31.5539 21.4936 31.5712 21.4486 31.5712 21.3887C31.5712 21.3277 31.5529 21.2815 31.5184 21.2498C31.4829 21.2181 31.4236 21.2023 31.3418 21.2023H31.2158V21.2046Z" fill="#0860E6"/>
<path d="M32.9215 21.2194L33.2855 21.74H33.0766L32.7954 21.3334L32.51 21.74H32.3119L32.6737 21.2284L32.3334 20.7349H32.5424L32.802 21.1144L33.0657 20.7349H33.264L32.9215 21.2194ZM17.9713 22.9822H17.449V23.8201H17.2788V22.8152H18.1414V23.8201H17.9713V22.9822ZM19.1074 22.9935H18.7714L18.7606 23.1629C18.7488 23.3063 18.7327 23.4215 18.71 23.5095C18.6874 23.5977 18.6593 23.6654 18.6271 23.7128C18.5948 23.7603 18.5571 23.793 18.5139 23.8089C18.4694 23.826 18.4224 23.8344 18.3751 23.8337L18.3622 23.6597C18.3805 23.6608 18.402 23.6563 18.4256 23.6451C18.4494 23.6338 18.4731 23.609 18.4956 23.5718C18.5183 23.5332 18.5388 23.4791 18.5571 23.4091C18.5754 23.3379 18.5873 23.2454 18.5937 23.1289L18.6109 22.8161H19.2776V23.8212H19.1074V22.9934V22.9935Z" fill="#0860E6"/>
<path fill-rule="evenodd" clip-rule="evenodd" d="M19.7369 22.8174C19.6819 22.8332 19.6323 22.8557 19.5904 22.8839L19.6357 23.0263C19.6744 23.0059 19.7132 22.989 19.7519 22.9743C19.7907 22.9597 19.8403 22.9529 19.8994 22.9529C19.9469 22.9529 19.9845 22.9607 20.0136 22.9765C20.0428 22.9913 20.0643 23.0138 20.0794 23.041C20.0943 23.0681 20.1041 23.102 20.1094 23.1414C20.1148 23.181 20.117 23.2239 20.117 23.2702C20.0822 23.2445 20.0425 23.2272 20.0007 23.2194C19.9602 23.2109 19.9192 23.2063 19.8779 23.2058C19.8274 23.2058 19.7799 23.2137 19.7347 23.2273C19.6894 23.2409 19.6506 23.2612 19.6194 23.2884C19.5875 23.3155 19.5618 23.3498 19.544 23.3888C19.5251 23.4315 19.5156 23.4782 19.5161 23.5255C19.5161 23.6236 19.543 23.7005 19.5969 23.7547C19.6506 23.8088 19.7218 23.836 19.8101 23.836C19.8898 23.836 19.9533 23.8213 20.0018 23.7919C20.0502 23.7625 20.089 23.7286 20.117 23.6902V23.8201H20.2765V23.2035C20.2765 23.0726 20.2495 22.9709 20.1946 22.8998C20.1407 22.8286 20.0448 22.7926 19.9092 22.7926C19.851 22.7926 19.793 22.801 19.7369 22.8173V22.8174ZM20.0223 23.6314C19.9836 23.6609 19.933 23.6745 19.8705 23.6745C19.8145 23.6745 19.7725 23.6598 19.7424 23.6314C19.7122 23.6021 19.6971 23.5637 19.6971 23.5164C19.6971 23.4881 19.7025 23.4644 19.7144 23.4429C19.7262 23.4215 19.7424 23.4045 19.7607 23.391C19.779 23.3774 19.8015 23.3672 19.8264 23.3604C19.851 23.3537 19.8763 23.3503 19.9017 23.3504C19.9857 23.3504 20.0579 23.3718 20.1171 23.4169V23.5445C20.0892 23.5776 20.0573 23.6069 20.0223 23.6314Z" fill="#0860E6"/>
<path d="M20.4426 22.815H21.3161V22.9934H20.9649V23.82H20.7948V22.9935H20.4438V22.815H20.4426Z" fill="#0860E6"/>
<path fill-rule="evenodd" clip-rule="evenodd" d="M22.1111 23.81C22.1758 23.7885 22.2307 23.7557 22.278 23.7106L22.2263 23.5706C22.1951 23.6 22.1531 23.6248 22.1024 23.6452C22.0519 23.6656 21.9948 23.6756 21.9324 23.6756C21.8387 23.6756 21.7611 23.6497 21.6997 23.5966C21.6383 23.5435 21.605 23.469 21.5974 23.374H22.3341C22.3415 23.3392 22.3448 23.2995 22.3448 23.2533C22.3448 23.1844 22.3329 23.1223 22.3093 23.0658C22.2872 23.011 22.2549 22.9615 22.2144 22.9202C22.1735 22.8792 22.1252 22.8473 22.0724 22.8264C22.0171 22.8037 21.9582 22.7922 21.8989 22.7925C21.8192 22.7925 21.7492 22.8072 21.6879 22.8343C21.6299 22.8601 21.5775 22.8981 21.5338 22.9461C21.4914 22.9938 21.4588 23.0504 21.438 23.1121C21.4153 23.1779 21.404 23.2475 21.4046 23.3176C21.4046 23.3967 21.4175 23.4689 21.4412 23.5334C21.465 23.5977 21.5004 23.6531 21.5446 23.6993C21.5887 23.7456 21.6426 23.7806 21.7062 23.8055C21.7743 23.8311 21.8461 23.8438 21.9183 23.8428C21.9819 23.8428 22.0465 23.8314 22.1111 23.81ZM21.6793 23.0353C21.7321 22.9845 21.8021 22.9597 21.8904 22.9597C21.9745 22.9597 22.0401 22.9845 22.0886 23.0308C22.137 23.0783 22.1628 23.1437 22.1672 23.2273H21.5857C21.5939 23.1534 21.6272 23.0851 21.6793 23.0353ZM22.4278 22.8152H22.6432L22.9715 23.2997L22.6205 23.8201H22.4116L22.7798 23.2995L22.4278 22.815V22.8152ZM23.0135 22.8152H23.1837V23.8201H23.0135V22.8152ZM23.7922 23.8201L23.4174 23.2995L23.7674 22.815H23.5563L23.2257 23.2995L23.5811 23.8201H23.7922ZM24.5698 23.81C24.6344 23.7885 24.6893 23.7557 24.7366 23.7106L24.6849 23.5706C24.6537 23.6 24.6117 23.6248 24.5612 23.6452C24.5105 23.6656 24.4534 23.6756 24.391 23.6756C24.2973 23.6756 24.2197 23.6497 24.1583 23.5966C24.097 23.5435 24.0636 23.469 24.056 23.374H24.7927C24.8002 23.3392 24.8034 23.2995 24.8034 23.2533C24.8034 23.1844 24.7917 23.1223 24.7679 23.0658C24.7458 23.0111 24.7136 22.9615 24.6732 22.9202C24.6322 22.8792 24.5838 22.8473 24.531 22.8264C24.4757 22.8037 24.4169 22.7922 24.3576 22.7925C24.278 22.7925 24.208 22.8072 24.1465 22.8343C24.0886 22.8601 24.0362 22.8982 23.9926 22.9461C23.95 22.9938 23.9174 23.0503 23.8967 23.1121C23.874 23.1779 23.8626 23.2475 23.8633 23.3176C23.8633 23.3967 23.8762 23.4689 23.8999 23.5334C23.9236 23.5977 23.9592 23.6531 24.0033 23.6993C24.0475 23.7456 24.1012 23.7806 24.1648 23.8055C24.2329 23.8311 24.3048 23.8438 24.377 23.8428C24.4425 23.8423 24.5075 23.8312 24.5698 23.81ZM24.138 23.0353C24.1908 22.9845 24.2608 22.9597 24.3491 22.9597C24.432 22.9597 24.4987 22.9845 24.5472 23.0308C24.5957 23.0783 24.6216 23.1437 24.6258 23.2273H24.0443C24.0525 23.1534 24.0858 23.0851 24.138 23.0353ZM25.4939 22.4775C25.3937 22.4775 25.3388 22.4187 25.3302 22.3014H25.1697C25.1697 22.3464 25.1773 22.3871 25.1912 22.4255C25.2053 22.4639 25.2258 22.4966 25.2527 22.5238C25.2795 22.5509 25.3141 22.5724 25.3539 22.5892C25.3937 22.6062 25.44 22.614 25.4927 22.614C25.5412 22.614 25.5844 22.6062 25.6232 22.5892C25.6619 22.5735 25.6942 22.5509 25.7222 22.5238C25.7491 22.4966 25.7707 22.4639 25.7857 22.4255C25.8008 22.3871 25.8083 22.3464 25.8083 22.3014H25.649C25.6415 22.4187 25.5886 22.4775 25.4939 22.4775ZM25.0339 22.815V23.8201H25.2041L25.7577 23.0714V23.8201H25.9279V22.815H25.7577L25.2041 23.5638V22.815H25.0339Z" fill="#0860E6"/>
</svg>
