<svg width="40" height="17" viewBox="0 0 40 17" fill="none" xmlns="http://www.w3.org/2000/svg">
<path fill-rule="evenodd" clip-rule="evenodd" d="M39.7906 8.42662C39.7906 5.63951 38.4406 3.44031 35.8603 3.44031C33.2692 3.44031 31.7014 5.63951 31.7014 8.40484C31.7014 11.6819 33.5522 13.3367 36.2087 13.3367C37.5043 13.3367 38.4841 13.0428 39.2244 12.6291V10.4516C38.4841 10.8218 37.6349 11.0504 36.5571 11.0504C35.501 11.0504 34.5647 10.6803 34.445 9.39557H39.7688C39.7688 9.25404 39.7906 8.68791 39.7906 8.42662ZM34.4123 7.39234C34.4123 6.16209 35.1635 5.6504 35.8494 5.6504C36.5135 5.6504 37.2212 6.16209 37.2212 7.39234H34.4123Z" fill="#635BFF"/>
<path fill-rule="evenodd" clip-rule="evenodd" d="M27.4992 3.44031C26.4323 3.44031 25.7464 3.94112 25.3653 4.2895L25.2238 3.6145H22.8286V16.3089L25.5504 15.7319L25.5613 12.6508C25.9532 12.9339 26.5302 13.3367 27.4883 13.3367C29.4371 13.3367 31.2117 11.769 31.2117 8.31775C31.2008 5.16048 29.4044 3.44031 27.4992 3.44031ZM26.846 10.9415C26.2036 10.9415 25.8226 10.7129 25.5613 10.4299L25.5504 6.39072C25.8335 6.075 26.2254 5.85725 26.846 5.85725C27.8367 5.85725 28.5226 6.96774 28.5226 8.39396C28.5226 9.85283 27.8476 10.9415 26.846 10.9415Z" fill="#635BFF"/>
<path fill-rule="evenodd" clip-rule="evenodd" d="M19.0833 2.79799L21.8159 2.21009V0L19.0833 0.577018V2.79799Z" fill="#635BFF"/>
<path d="M21.8159 3.62537H19.0833V13.1516H21.8159V3.62537Z" fill="#635BFF"/>
<path fill-rule="evenodd" clip-rule="evenodd" d="M16.1545 4.431L15.9803 3.62535H13.6287V13.1516H16.3504V6.69553C16.9928 5.85722 18.0815 6.00964 18.419 6.1294V3.62535C18.0706 3.49471 16.7968 3.25519 16.1545 4.431Z" fill="#635BFF"/>
<path fill-rule="evenodd" clip-rule="evenodd" d="M10.7113 1.26288L8.05483 1.82901L8.04395 10.5496C8.04395 12.1609 9.25242 13.3476 10.8637 13.3476C11.7565 13.3476 12.4097 13.1843 12.769 12.9883V10.7782C12.4206 10.9198 10.7004 11.4206 10.7004 9.80928V5.94435H12.769V3.62539H10.7004L10.7113 1.26288Z" fill="#635BFF"/>
<path fill-rule="evenodd" clip-rule="evenodd" d="M3.35137 6.39072C3.35137 5.96612 3.69976 5.80282 4.27678 5.80282C5.1042 5.80282 6.14936 6.05322 6.97679 6.49959V3.94112C6.07315 3.58184 5.18041 3.44031 4.27678 3.44031C2.06669 3.44031 0.596924 4.59434 0.596924 6.52137C0.596924 9.52622 4.73404 9.04718 4.73404 10.3428C4.73404 10.8436 4.29855 11.0069 3.68887 11.0069C2.78524 11.0069 1.6312 10.6367 0.716682 10.1359V12.727C1.72919 13.1625 2.75258 13.3476 3.68887 13.3476C5.9534 13.3476 7.51026 12.2262 7.51026 10.2774C7.49937 7.03306 3.35137 7.61008 3.35137 6.39072Z" fill="#635BFF"/>
</svg>
