<svg width="20" height="20" viewBox="0 0 20 20" fill="none" xmlns="http://www.w3.org/2000/svg">
<circle cx="10" cy="10" r="10" fill="#FFD165"/>
<path d="M8.94994 2.5H11.0492C11.1911 2.51346 11.3283 2.5815 11.4156 2.69398C11.54 2.84633 11.5609 3.07154 11.4661 3.24318C11.3822 3.40365 11.2058 3.51207 11.0224 3.51334C10.8532 3.51588 10.6838 3.51258 10.5146 3.51436C10.5141 3.85434 10.5143 4.19457 10.5146 4.53455C11.6271 4.6318 12.7029 5.07258 13.5597 5.77844C13.7392 5.604 13.9145 5.42551 14.0953 5.2526C14.2864 5.07105 14.6196 5.07969 14.8027 5.26809C14.9413 5.40113 14.9912 5.61416 14.9258 5.79367C14.8952 5.88838 14.8285 5.96531 14.7571 6.03336C14.6 6.18697 14.444 6.3416 14.2877 6.49572C15.01 7.35012 15.4601 8.42439 15.551 9.53371C15.6476 10.6341 15.4019 11.7628 14.8442 12.7218C14.3935 13.5053 13.7425 14.1751 12.97 14.6555C12.1094 15.1948 11.0953 15.485 10.0768 15.5H9.91021C9.04754 15.4832 8.18822 15.2738 7.42392 14.8777C6.06759 14.1878 5.0275 12.9229 4.62861 11.47C4.33968 10.4361 4.36388 9.31865 4.70174 8.29922C5.03805 7.27395 5.69317 6.3548 6.55249 5.68982C7.38941 5.03551 8.42204 4.63129 9.48531 4.5348C9.48583 4.19457 9.48583 3.85434 9.48531 3.5141C9.30969 3.51207 9.13406 3.51715 8.9587 3.51232C8.75603 3.50521 8.56908 3.3643 8.50367 3.17615C8.43955 3.00324 8.48204 2.79758 8.61028 2.66352C8.69706 2.5683 8.8217 2.51295 8.94994 2.5ZM9.81622 5.53037C8.86548 5.5649 7.93096 5.90818 7.18675 6.49141C6.45155 7.06244 5.90098 7.86149 5.63961 8.74787C5.39677 9.56215 5.39651 10.4452 5.63858 11.26C5.88424 12.0938 6.38459 12.852 7.05619 13.4137C7.60958 13.8803 8.2786 14.214 8.98934 14.3721C10.0802 14.6212 11.2632 14.4539 12.235 13.9039C13.0629 13.4431 13.7371 12.7187 14.1319 11.8658C14.676 10.7083 14.6786 9.31941 14.1386 8.16033C13.7775 7.37297 13.1796 6.69402 12.4408 6.22963C11.6662 5.73807 10.7363 5.49178 9.81622 5.53037Z" fill="white"/>
<path d="M12.0803 7.14862C12.3311 7.11346 12.5935 7.24813 12.7115 7.47225C12.8414 7.7058 12.7981 8.01971 12.6082 8.20805C11.7941 9.02515 10.9771 9.83974 10.162 10.6562C9.92877 10.9215 9.47367 10.9262 9.23984 10.6597C9.06753 10.4801 9.02233 10.1941 9.12936 9.96969C9.17706 9.85857 9.26809 9.77633 9.35189 9.69283C10.1369 8.90806 10.9215 8.12298 11.7062 7.33822C11.8051 7.23526 11.9381 7.16588 12.0803 7.14862Z" fill="white"/>
</svg>
