<svg width="92" height="20" viewBox="0 0 92 20" fill="none" xmlns="http://www.w3.org/2000/svg">
<rect width="92" height="19.0941" rx="9.54707" fill="black"/>
<rect x="59.4463" y="4.9502" width="25.4766" height="9.19337" rx="4.59668" fill="white"/>
<path d="M13.1023 12.54V8.13267H15.7699V6.52893H8.49219V8.13267H11.1598V12.54H13.1023ZM18.4898 6.52893H16.5473V12.54H18.4898V6.52893ZM19.9112 6.52893V12.54H21.6982V9.21877L25.0263 12.54H26.6839V6.52893H24.8968V9.82493L21.6464 6.52893H19.9112ZM30.5016 10.2669L32.7417 12.54H35.2411L32.1203 9.40815L35.1245 6.52893H32.768L30.5016 8.78937H29.9834V6.52893H28.1059V12.54H29.9834V10.2669H30.5016ZM39.1048 6.36475C36.5796 6.36475 35.0646 7.75381 35.0646 9.54709C35.0646 11.3403 36.5796 12.7294 39.1048 12.7294C41.6171 12.7294 43.1321 11.3403 43.1321 9.54709C43.1321 7.75381 41.6171 6.36475 39.1048 6.36475ZM39.1048 11.2645C37.8486 11.2645 37.0458 10.5321 37.0458 9.54709C37.0458 8.56208 37.8486 7.84227 39.1048 7.84227C40.3481 7.84227 41.1638 8.56208 41.1638 9.54709C41.1638 10.5321 40.3481 11.2645 39.1048 11.2645ZM50.2528 6.52893H44.0246V12.54H45.9016V10.4437H49.9816V9.11769H45.9016V8.05689H50.2528V6.52893ZM57.3224 6.52893H51.0932V12.54H52.9713V10.4437H57.0507V9.11769H52.9713V8.05689H57.3224V6.52893Z" fill="white"/>
<path fill-rule="evenodd" clip-rule="evenodd" d="M71.4038 6.78906H73.1462L75.9085 12.2855H74.0196L73.4859 11.1161H71.0033L70.4497 12.2855H68.6104L71.4038 6.78906ZM68.8105 12.1628H70.3721L70.3721 12.1629H68.8103L71.4791 6.91164H71.4792L68.8105 12.1628ZM73.5647 10.9935H70.9257L70.9257 10.9934H73.5649L74.0987 12.1628H75.7096L75.7097 12.1629H74.0985L73.5647 10.9935ZM72.2699 8.20607L73.1594 10.1329H73.1596L72.27 8.20596H72.2503L72.2502 8.20607H72.2699ZM71.5252 10.0104H72.9678L72.2583 8.47368L71.5252 10.0104ZM78.965 12.1629V12.1628H77.4133V10.1182L74.8236 6.91164H74.8234L77.4131 10.1183V12.1629H78.965ZM79.8546 6.91164L78.2139 8.98549L78.2139 8.98556L79.8547 6.91164H79.8546ZM78.2135 8.78838L76.6222 6.78906H74.5667L77.2904 10.1616V12.2855H79.0876V10.1911L81.8413 6.78906H79.7952L78.2135 8.78838ZM66.4502 9.38271H65.2442V7.80881H66.4502C66.6281 7.80881 66.7994 7.81862 66.9641 7.83823C67.1289 7.85784 67.2739 7.89707 67.3991 7.9559C67.5243 8.00984 67.6231 8.08829 67.6956 8.19125C67.7747 8.29422 67.8142 8.42906 67.8142 8.59576C67.8142 8.76247 67.7747 8.89731 67.6956 9.00027C67.6231 9.10324 67.5243 9.18414 67.3991 9.24298C67.2739 9.29691 67.1289 9.33368 66.9641 9.3533C66.7994 9.37291 66.6281 9.38271 66.4502 9.38271ZM66.8752 6.91154H63.6924V12.1628H65.2442V10.28H66.8752C67.3167 10.28 67.6923 10.2334 68.002 10.1402C68.3117 10.0422 68.5621 9.9147 68.7532 9.7578C68.9509 9.6009 69.0926 9.42194 69.1783 9.22091C69.2705 9.01498 69.3167 8.8066 69.3167 8.59576C69.3167 8.38002 69.2705 8.17164 69.1783 7.97061C69.0926 7.76958 68.9509 7.59062 68.7532 7.43372C68.5621 7.27682 68.3117 7.15179 68.002 7.05863C67.6923 6.96057 67.3167 6.91154 66.8752 6.91154Z" fill="black"/>
</svg>
