<svg width="14" height="14" viewBox="0 0 14 14" fill="none" xmlns="http://www.w3.org/2000/svg">
<path fill-rule="evenodd" clip-rule="evenodd" d="M6.61632 1.17354C6.38751 1.3656 6.18983 1.52275 6.17705 1.52275C6.1643 1.52275 5.92657 1.43169 5.64883 1.32039C5.37106 1.20907 5.13707 1.12828 5.12885 1.14084C5.12067 1.15341 4.98627 1.36638 4.83022 1.61413L4.54651 2.06461L4.20876 2.04362C4.02299 2.03208 3.76838 2.02262 3.64295 2.02262H3.41493L3.28236 2.55368L3.14978 3.08474L2.61872 3.21733L2.08766 3.34989V3.56443C2.08766 3.6824 2.09728 3.93701 2.10903 4.13021L2.13038 4.48147L1.67955 4.76519C1.43158 4.92123 1.21844 5.05563 1.20588 5.06381C1.19331 5.07203 1.27481 5.30773 1.38694 5.58755C1.49908 5.8674 1.58543 6.11039 1.57884 6.12755C1.57225 6.14471 1.41348 6.34371 1.22601 6.56979L0.885148 6.98085L1.22601 7.39191C1.41348 7.61799 1.57225 7.817 1.57884 7.83415C1.58543 7.85131 1.49908 8.09431 1.38694 8.37416C1.27481 8.65398 1.1938 8.88968 1.20693 8.89789C1.22006 8.90608 1.43312 9.04048 1.68041 9.19652L2.13006 9.48023L2.10884 9.8315C2.0972 10.0247 2.08766 10.2793 2.08766 10.3973V10.6118L2.61872 10.7444L3.14978 10.877L3.28236 11.408L3.41493 11.9391H3.64295C3.76838 11.9391 4.02299 11.9296 4.20876 11.9181L4.54651 11.8971L4.83022 12.3476C4.98627 12.5953 5.12067 12.8083 5.12885 12.8209C5.13707 12.8334 5.37277 12.7519 5.65259 12.6398C5.93244 12.5277 6.17543 12.4413 6.19259 12.4479C6.20975 12.4545 6.4091 12.6135 6.63561 12.8014L7.04743 13.1429L7.43531 12.8201C7.64863 12.6426 7.84618 12.483 7.87428 12.4655C7.91716 12.4387 8.00811 12.4663 8.43714 12.6362C9.00141 12.8596 8.95671 12.8576 9.06242 12.6643C9.1087 12.5797 9.10819 12.5768 9.00781 12.3572C8.83637 11.9821 8.79467 11.7804 8.79297 11.3176C8.79127 10.8539 8.83815 10.6191 9.00403 10.26C9.05674 10.146 9.09673 10.0497 9.0929 10.0462C9.08906 10.0427 8.99543 10.093 8.88484 10.158C7.90419 10.7347 6.65864 10.8117 5.61162 10.3603C4.47788 9.87154 3.67597 8.87784 3.43352 7.66128C3.3691 7.33817 3.3691 6.62354 3.43352 6.30043C3.72788 4.82341 4.82952 3.70742 6.31634 3.38007C6.65939 3.30452 7.37781 3.29852 7.72632 3.36826C9.05196 3.63358 10.1277 4.58293 10.5422 5.85338C10.8555 6.81352 10.741 7.91905 10.2379 8.79184C10.1653 8.91781 10.1085 9.02402 10.1118 9.02786C10.115 9.0317 10.211 8.99171 10.3251 8.93899C10.6841 8.77311 10.919 8.72623 11.3827 8.72793C11.8454 8.72964 12.0472 8.77133 12.4222 8.94277C12.6418 9.04315 12.6447 9.04367 12.7293 8.99738C12.9277 8.88887 12.9296 8.93494 12.7044 8.3731C12.5925 8.09385 12.5063 7.85131 12.5129 7.83415C12.5195 7.817 12.6783 7.61799 12.8658 7.39191L13.2066 6.98085L12.8658 6.56979C12.6783 6.34371 12.5195 6.14471 12.5129 6.12755C12.5063 6.11039 12.5927 5.8674 12.7048 5.58755C12.817 5.30773 12.8985 5.07203 12.8859 5.06381C12.8733 5.05563 12.6602 4.92123 12.4122 4.76519L11.9614 4.48147L11.9827 4.13021C11.9945 3.93701 12.0041 3.6824 12.0041 3.56443V3.34989L11.4731 3.21733L10.942 3.08474L10.8094 2.55368L10.6769 2.02262H10.4623C10.3443 2.02262 10.0897 2.03222 9.89654 2.04394L9.54527 2.06526L9.24805 1.59154C9.08457 1.33098 8.94475 1.12077 8.93731 1.12439C8.92988 1.12801 8.69924 1.22036 8.42474 1.32963C8.00571 1.49646 7.91746 1.52321 7.87442 1.49632C7.84623 1.4787 7.64901 1.31939 7.43615 1.14227C7.22328 0.965129 7.04535 0.821137 7.04076 0.822272C7.03614 0.823407 6.84516 0.981476 6.61632 1.17354ZM8.3834 5.07276C8.33881 5.09378 7.58881 5.82657 6.71673 6.70117C4.99718 8.42563 5.06627 8.34406 5.11318 8.59399C5.13812 8.72699 5.29976 8.88862 5.43275 8.91356C5.68288 8.9605 5.5999 9.03097 7.33641 7.29677C8.49286 6.14187 8.94577 5.67258 8.96752 5.60668C9.02759 5.42464 8.96093 5.23088 8.79581 5.10759C8.70562 5.04025 8.49075 5.0221 8.3834 5.07276ZM5.57193 5.28957C5.29932 5.4083 5.23493 5.77069 5.4485 5.98429C5.62378 6.15954 5.87405 6.15954 6.04933 5.98429C6.38468 5.64891 6.00739 5.09989 5.57193 5.28957ZM8.16588 7.88352C7.89328 8.00225 7.82889 8.36465 8.04245 8.57824C8.34603 8.88181 8.8435 8.60991 8.76363 8.18404C8.71583 7.92935 8.41172 7.77644 8.16588 7.88352ZM11.0044 9.17169C10.4069 9.28971 9.90961 9.61136 9.58461 10.0899C9.325 10.4723 9.22262 10.8154 9.22238 11.3041C9.22208 11.9116 9.42608 12.4132 9.84309 12.8302C10.26 13.247 10.7614 13.451 11.3691 13.451C11.9769 13.451 12.4783 13.247 12.8952 12.8302C13.3121 12.4133 13.5161 11.9119 13.5161 11.3041C13.5161 10.8335 13.4209 10.5011 13.1807 10.1332C12.8763 9.66686 12.4463 9.35961 11.8829 9.2059C11.6989 9.15569 11.1864 9.13572 11.0044 9.17169ZM11.5853 10.4999V11.2089L11.9835 11.6078L12.3818 12.0067L12.2267 12.1617L12.0717 12.3168L11.6123 11.858L11.153 11.3993V10.5951V9.79097H11.3691H11.5853V10.4999ZM1.03611 11.3412C0.74013 11.5974 0.498676 11.8185 0.499514 11.8325C0.500379 11.8465 0.826217 11.9511 1.2236 12.0648C1.62099 12.1786 1.95429 12.2848 1.96423 12.3009C1.9742 12.317 2.0711 12.6434 2.17961 13.0263C2.28812 13.4092 2.38613 13.7323 2.39742 13.7444C2.41285 13.7608 3.30606 12.7498 3.55557 12.4334C3.58867 12.3914 3.57221 12.3883 3.34103 12.3932L3.09063 12.3984L2.9404 11.8175L2.79019 11.2366L2.21085 11.086C1.89222 11.0032 1.62675 10.9211 1.62091 10.9036C1.61508 10.8861 1.60219 10.8726 1.5923 10.8736C1.58238 10.8746 1.33212 11.085 1.03611 11.3412Z" fill="url(#paint0_linear_226_1028)"/>
<defs>
<linearGradient id="paint0_linear_226_1028" x1="15.5877" y1="0.822265" x2="-5.75032" y2="15.8712" gradientUnits="userSpaceOnUse">
<stop stop-color="#FFBC57"/>
<stop offset="1" stop-color="#F70623" stop-opacity="0.65"/>
</linearGradient>
</defs>
</svg>
