<svg width="33" height="33" viewBox="0 0 33 33" fill="none" xmlns="http://www.w3.org/2000/svg">
<path fill-rule="evenodd" clip-rule="evenodd" d="M15.3808 1.24692C14.8201 1.71758 14.3356 2.10269 14.3043 2.10269C14.2731 2.10269 13.6905 1.87954 13.0099 1.6068C12.3292 1.33399 11.7558 1.13601 11.7356 1.1668C11.7156 1.19759 11.3862 1.7195 11.0038 2.32662L10.3086 3.43056L9.48087 3.37911C9.02564 3.35084 8.40169 3.32767 8.09432 3.32767H7.53553L7.21068 4.62906L6.88576 5.93045L5.58437 6.25537L4.28298 6.58022V7.10597C4.28298 7.39506 4.30655 8.01901 4.33535 8.49244L4.38766 9.35324L3.28287 10.0485C2.67521 10.4309 2.1529 10.7602 2.12211 10.7803C2.09132 10.8004 2.29103 11.378 2.56582 12.0638C2.84061 12.7495 3.05224 13.345 3.03608 13.3871C3.01993 13.4291 2.63085 13.9168 2.17144 14.4708L1.33614 15.4781L2.17144 16.4855C2.63085 17.0395 3.01993 17.5272 3.03608 17.5692C3.05224 17.6113 2.84061 18.2067 2.56582 18.8925C2.29103 19.5782 2.09252 20.1558 2.1247 20.176C2.15688 20.196 2.67898 20.5254 3.28498 20.9078L4.38687 21.603L4.33489 22.4638C4.30635 22.9373 4.28298 23.5612 4.28298 23.8503V24.3761L5.58437 24.7009L6.88576 25.0258L7.21068 26.3272L7.53553 27.6286H8.09432C8.40169 27.6286 9.02564 27.6054 9.48087 27.5772L10.3086 27.5257L11.0038 28.6297C11.3862 29.2368 11.7156 29.7587 11.7356 29.7895C11.7558 29.8203 12.3333 29.6206 13.0191 29.3458C13.7049 29.071 14.3003 28.8594 14.3424 28.8755C14.3844 28.8917 14.873 29.2814 15.428 29.7417L16.4372 30.5786L17.3877 29.7877C17.9105 29.3527 18.3946 28.9616 18.4635 28.9186C18.5686 28.853 18.7914 28.9205 19.8428 29.3368C21.2256 29.8844 21.1161 29.8794 21.3751 29.4058C21.4885 29.1984 21.4873 29.1913 21.2413 28.6532C20.8211 27.7341 20.719 27.2397 20.7148 26.1057C20.7106 24.9694 20.8255 24.3939 21.232 23.514C21.3612 23.2344 21.4592 22.9986 21.4498 22.9899C21.4404 22.9813 21.2109 23.1046 20.9399 23.264C18.5368 24.6773 15.4845 24.8659 12.9187 23.7597C10.1404 22.562 8.17524 20.1268 7.58109 17.1456C7.42323 16.3538 7.42323 14.6025 7.58109 13.8107C8.30243 10.1912 11.0021 7.45638 14.6456 6.65418C15.4863 6.46904 17.2468 6.45434 18.1009 6.62524C21.3495 7.27541 23.9856 9.60188 25.0014 12.7152C25.7691 15.0681 25.4886 17.7773 24.2557 19.9161C24.0778 20.2248 23.9387 20.4851 23.9466 20.4945C23.9545 20.5039 24.1898 20.4059 24.4693 20.2767C25.3492 19.8702 25.9247 19.7553 27.061 19.7595C28.195 19.7636 28.6894 19.8658 29.6085 20.286C30.1466 20.5319 30.1537 20.5332 30.3611 20.4198C30.8473 20.1539 30.8518 20.2668 30.3001 18.8899C30.0258 18.2056 29.8147 17.6113 29.8308 17.5692C29.847 17.5272 30.2361 17.0395 30.6955 16.4855L31.5308 15.4781L30.6955 14.4708C30.2361 13.9168 29.847 13.4291 29.8308 13.3871C29.8147 13.345 30.0263 12.7495 30.3011 12.0638C30.5759 11.378 30.7756 10.8004 30.7448 10.7803C30.714 10.7602 30.1917 10.4309 29.584 10.0485L28.4792 9.35324L28.5316 8.49244C28.5604 8.01901 28.5839 7.39506 28.5839 7.10597V6.58022L27.2825 6.25537L25.9811 5.93045L25.6562 4.62906L25.3314 3.32767H24.8056C24.5165 3.32767 23.8926 3.35117 23.4191 3.37991L22.5584 3.43215L21.83 2.27127C21.4294 1.63276 21.0867 1.1176 21.0685 1.12648C21.0503 1.13535 20.4851 1.36167 19.8124 1.62945C18.7855 2.03826 18.5693 2.10381 18.4638 2.03793C18.3947 1.99475 17.9114 1.60435 17.3898 1.17031C16.8682 0.736204 16.4321 0.383344 16.4209 0.386125C16.4095 0.388906 15.9415 0.776264 15.3808 1.24692ZM19.7111 10.8022C19.6018 10.8537 17.7639 12.6495 15.6268 14.7927C11.413 19.0187 11.5823 18.8188 11.6972 19.4312C11.7583 19.7572 12.1544 20.1533 12.4803 20.2144C13.0933 20.3294 12.89 20.5021 17.1454 16.2523C19.9793 13.4222 21.0892 12.2721 21.1425 12.1106C21.2897 11.6645 21.1264 11.1897 20.7217 10.8876C20.5007 10.7226 19.9742 10.6781 19.7111 10.8022ZM12.8214 11.3335C12.1534 11.6245 11.9956 12.5126 12.5189 13.036C12.9485 13.4655 13.5618 13.4655 13.9913 13.036C14.8131 12.2141 13.8885 10.8687 12.8214 11.3335ZM19.1781 17.6902C18.51 17.9811 18.3522 18.8692 18.8756 19.3926C19.6195 20.1366 20.8386 19.4702 20.6429 18.4266C20.5257 17.8025 19.7805 17.4278 19.1781 17.6902ZM26.134 20.8469C24.6699 21.1362 23.4512 21.9244 22.6548 23.0971C22.0186 24.0341 21.7677 24.8749 21.7671 26.0726C21.7664 27.5613 22.2663 28.7904 23.2882 29.8123C24.3097 30.8338 25.5385 31.3337 27.0279 31.3337C28.5173 31.3337 29.746 30.8338 30.7676 29.8123C31.7891 28.7907 32.2891 27.5619 32.2891 26.0726C32.2891 24.9192 32.0557 24.1046 31.4671 23.2031C30.7212 22.0604 29.6675 21.3075 28.287 20.9308C27.836 20.8077 26.5801 20.7588 26.134 20.8469ZM27.5576 24.1019V25.8392L28.5335 26.8168L29.5094 27.7943L29.1294 28.1742L28.7495 28.5542L27.6238 27.43L26.4982 26.3058V24.3351V22.3645H27.0279H27.5576V24.1019ZM1.70608 26.1635C0.980764 26.7913 0.389066 27.3331 0.391119 27.3675C0.393237 27.4018 1.19173 27.658 2.16555 27.9367C3.13938 28.2155 3.95614 28.4758 3.98051 28.5152C4.00494 28.5547 4.24239 29.3546 4.50831 30.2929C4.77423 31.2312 5.01439 32.023 5.04207 32.0526C5.07988 32.093 7.26875 29.6153 7.88018 28.8399C7.96129 28.7371 7.92097 28.7295 7.35443 28.7414L6.74082 28.7543L6.37266 27.3306L6.00457 25.907L4.58485 25.538C3.80404 25.3351 3.15348 25.134 3.13918 25.0911C3.12488 25.0482 3.09329 25.0151 3.06906 25.0176C3.04476 25.02 2.43147 25.5357 1.70608 26.1635Z" fill="url(#paint0_linear_226_21)"/>
<defs>
<linearGradient id="paint0_linear_226_21" x1="37.3657" y1="0.386108" x2="-14.9245" y2="37.2646" gradientUnits="userSpaceOnUse">
<stop stop-color="#FFBC57"/>
<stop offset="1" stop-color="#F70623" stop-opacity="0.65"/>
</linearGradient>
</defs>
</svg>
