<svg width="17" height="16" viewBox="0 0 17 16" fill="none" xmlns="http://www.w3.org/2000/svg">
<path d="M16.6082 8C16.6082 12.4183 13.0264 16 8.60815 16C4.18988 16 0.608154 12.4183 0.608154 8C0.608154 3.58172 4.18988 0 8.60815 0C13.0264 0 16.6082 3.58172 16.6082 8Z" fill="#63B22F"/>
<path d="M5.73564 11.84L4.91565 10.9867L11.4807 4.16L12.3007 5.01867L5.73564 11.84ZM10.7632 12C10.4249 12 10.1157 11.9147 9.83557 11.744C9.55883 11.5698 9.33675 11.3387 9.16933 11.0507C9.00192 10.7591 8.91821 10.4356 8.91821 10.08C8.91821 9.73156 9.00363 9.41156 9.17446 9.12C9.34529 8.82844 9.57079 8.59556 9.85095 8.42133C10.1311 8.24711 10.4352 8.16 10.7632 8.16C11.1014 8.16 11.4106 8.24711 11.6908 8.42133C11.971 8.592 12.193 8.82311 12.357 9.11467C12.5244 9.40267 12.6082 9.72444 12.6082 10.08C12.6082 10.4356 12.5244 10.7591 12.357 11.0507C12.193 11.3387 11.971 11.5698 11.6908 11.744C11.4106 11.9147 11.1014 12 10.7632 12ZM10.7632 10.9013C10.9033 10.9013 11.0331 10.864 11.1527 10.7893C11.2757 10.7147 11.373 10.6151 11.4448 10.4907C11.5165 10.3662 11.5524 10.2293 11.5524 10.08C11.5524 9.93067 11.5165 9.79378 11.4448 9.66933C11.373 9.54489 11.2757 9.44533 11.1527 9.37067C11.0331 9.296 10.9033 9.25867 10.7632 9.25867C10.6197 9.25867 10.4881 9.296 10.3686 9.37067C10.249 9.44533 10.1516 9.54489 10.0764 9.66933C10.0047 9.79378 9.96882 9.93067 9.96882 10.08C9.96882 10.2293 10.0047 10.3662 10.0764 10.4907C10.1516 10.6151 10.249 10.7147 10.3686 10.7893C10.4881 10.864 10.6197 10.9013 10.7632 10.9013ZM6.45313 7.84C6.11488 7.84 5.80568 7.75467 5.52552 7.584C5.24535 7.40978 5.02156 7.17867 4.85415 6.89067C4.69015 6.59911 4.60815 6.27556 4.60815 5.92C4.60815 5.57156 4.69357 5.25156 4.8644 4.96C5.03523 4.66844 5.26073 4.43555 5.54089 4.26133C5.82105 4.08711 6.12513 4 6.45313 4C6.79137 4 7.09887 4.08711 7.37561 4.26133C7.65577 4.432 7.87956 4.66311 8.04698 4.95467C8.21439 5.24267 8.2981 5.56444 8.2981 5.92C8.2981 6.27556 8.21439 6.59911 8.04698 6.89067C7.87956 7.17867 7.65577 7.40978 7.37561 7.584C7.09887 7.75467 6.79137 7.84 6.45313 7.84ZM6.45313 6.74133C6.59662 6.74133 6.72816 6.704 6.84774 6.62933C6.96733 6.55467 7.06299 6.45511 7.13474 6.33067C7.20649 6.20622 7.24236 6.06933 7.24236 5.92C7.24236 5.77067 7.20649 5.63378 7.13474 5.50933C7.06299 5.38489 6.96733 5.28533 6.84774 5.21067C6.72816 5.136 6.59662 5.09867 6.45313 5.09867C6.30963 5.09867 6.17809 5.136 6.05851 5.21067C5.93893 5.28533 5.84326 5.38489 5.77151 5.50933C5.69976 5.63378 5.66389 5.77067 5.66389 5.92C5.66389 6.06933 5.69976 6.20622 5.77151 6.33067C5.84326 6.45511 5.93893 6.55467 6.05851 6.62933C6.17809 6.704 6.30963 6.74133 6.45313 6.74133Z" fill="white"/>
</svg>
