<svg width="104" height="60" viewBox="0 0 104 60" fill="none" xmlns="http://www.w3.org/2000/svg">
<rect width="104" height="60" rx="8" fill="#FF452C"/>
<path d="M57.6277 19.3887V35.1999H54.8363V21.5272H49.8534V35.1999H47.062V19.3887H57.6277Z" fill="white"/>
<path d="M62.3019 35.4274C61.0716 35.4274 60.1257 35.1923 59.4644 34.7222V32.5154C59.8181 32.7581 60.2026 32.9477 60.6179 33.0842C61.0485 33.2207 61.556 33.2889 62.1404 33.2889C63.0171 33.2889 63.6784 33.0387 64.1244 32.5382C64.5704 32.0225 64.8472 31.3173 64.9549 30.4224H60.9178V28.2839H64.9318C64.6704 26.5398 63.763 25.6677 62.2096 25.6677C61.7329 25.6677 61.2561 25.7435 60.7794 25.8952C60.318 26.0468 59.9489 26.2061 59.672 26.3729V24.0752C59.9642 23.9235 60.3564 23.7946 60.8486 23.6884C61.3407 23.5823 61.9328 23.5292 62.6249 23.5292C63.4861 23.5292 64.2397 23.6808 64.8857 23.9842C65.547 24.2723 66.093 24.6818 66.5236 25.2127C66.9696 25.7283 67.3003 26.3578 67.5156 27.1009C67.7463 27.8289 67.8616 28.6252 67.8616 29.4897C67.8616 31.4158 67.4002 32.887 66.4775 33.9032C65.5701 34.9193 64.1782 35.4274 62.3019 35.4274Z" fill="white"/>
<path d="M74.3862 22.2552C73.2789 22.2552 72.4407 21.9822 71.8717 21.4362C71.318 20.8902 71.0412 20.2077 71.0412 19.3887H73.3481C73.3481 19.783 73.4404 20.0712 73.6249 20.2532C73.8249 20.4352 74.0786 20.5262 74.3862 20.5262C74.6784 20.5262 74.9091 20.4352 75.0783 20.2532C75.2475 20.056 75.3321 19.7678 75.3321 19.3887H77.639C77.639 19.783 77.5698 20.1546 77.4314 20.5034C77.2929 20.8523 77.0853 21.1556 76.8085 21.4134C76.547 21.6713 76.2087 21.876 75.7934 22.0277C75.3936 22.1793 74.9245 22.2552 74.3862 22.2552ZM72.3561 23.7567V30.8547L76.5547 23.7567H79.0001V35.1999H76.3471V28.1247L72.1485 35.1999H69.7032V23.7567H72.3561Z" fill="white"/>
<rect x="20" y="17" width="21.3253" height="21" rx="10.5" fill="white"/>
<path d="M32.1651 33.8104H34.3928V21.2104H31.1526C27.8939 21.2104 26.1818 22.8602 26.1818 25.2896C26.1818 27.2294 27.1207 28.3716 28.796 29.55L25.8872 33.8104H28.299L31.5392 29.0424L30.4161 28.2991C29.0538 27.3926 28.391 26.6856 28.391 25.1627C28.391 23.8211 29.3483 22.9146 31.171 22.9146H32.1651V33.8104Z" fill="#FF452C"/>
<path fill-rule="evenodd" clip-rule="evenodd" d="M62.3722 49.7501L63.1522 47.3501H66.0522C66.0522 48.411 65.6308 49.4284 64.8807 50.1785C64.1305 50.9287 63.1131 51.3501 62.0522 51.3501C60.9914 51.3501 59.974 50.9287 59.2238 50.1785C58.4737 49.4284 58.0522 48.411 58.0522 47.3501C58.0522 46.2892 58.4737 45.2718 59.2238 44.5217C59.974 43.7715 60.9914 43.3501 62.0522 43.3501C62.4719 43.3501 62.889 43.416 63.2882 43.5454L62.3769 46.3501H59.7149L59.3896 47.3501H62.0522L61.2722 49.7501H62.3722ZM63.4769 46.3502L64.2402 44.0022C65.075 44.5476 65.6762 45.3849 65.9262 46.3502H63.4769Z" fill="white" fill-opacity="0.98"/>
<path d="M50.1035 50.35L50.1135 44.95H51.3335V47.55L53.3085 44.95H54.8135L52.7185 47.65L54.9935 50.35H53.3985L51.3335 47.75V50.35H50.1035Z" fill="#FFFBFB"/>
<path d="M46.5529 50.5C46.0062 50.5 45.5262 50.3817 45.1129 50.145C44.6995 49.9084 44.3762 49.58 44.1429 49.16C43.9129 48.74 43.7979 48.2567 43.7979 47.71C43.7979 47.12 43.9112 46.6084 44.1379 46.175C44.3645 45.7384 44.6795 45.4 45.0829 45.16C45.4862 44.92 45.9529 44.8 46.4829 44.8C47.0429 44.8 47.5179 44.9317 47.9079 45.195C48.3012 45.455 48.5929 45.8234 48.7829 46.3C48.9729 46.7767 49.0445 47.3384 48.9979 47.985H47.8029V47.545C47.7995 46.9584 47.6962 46.53 47.4929 46.26C47.2895 45.99 46.9695 45.855 46.5329 45.855C46.0395 45.855 45.6729 46.0084 45.4329 46.315C45.1929 46.6184 45.0729 47.0634 45.0729 47.65C45.0729 48.1967 45.1929 48.62 45.4329 48.92C45.6729 49.22 46.0229 49.37 46.4829 49.37C46.7795 49.37 47.0345 49.305 47.2479 49.175C47.4645 49.0417 47.6312 48.85 47.7479 48.6L48.9379 48.96C48.7312 49.4467 48.4112 49.825 47.9779 50.095C47.5479 50.365 47.0729 50.5 46.5529 50.5ZM44.6929 47.985V47.075H48.4079V47.985H44.6929Z" fill="#FFFBFB"/>
<path d="M40.3568 50.51C39.8435 50.5033 39.4068 50.3883 39.0468 50.165C38.6868 49.9417 38.4051 49.6267 38.2018 49.22C37.9985 48.8133 37.8751 48.3333 37.8318 47.78C37.8118 47.4967 37.8101 47.18 37.8268 46.83C37.8435 46.48 37.8801 46.1383 37.9368 45.805C37.9935 45.4717 38.0718 45.1883 38.1718 44.955C38.2751 44.7217 38.4101 44.5067 38.5768 44.31C38.7435 44.11 38.9235 43.9433 39.1168 43.81C39.3368 43.6567 39.5751 43.5383 39.8318 43.455C40.0918 43.3717 40.3635 43.3083 40.6468 43.265C40.9301 43.2183 41.2218 43.1767 41.5218 43.14C41.8218 43.1033 42.1185 43.0567 42.4118 43L42.5218 44.065C42.3351 44.1117 42.1185 44.1483 41.8718 44.175C41.6285 44.1983 41.3751 44.225 41.1118 44.255C40.8518 44.285 40.6035 44.3283 40.3668 44.385C40.1301 44.4417 39.9251 44.525 39.7518 44.635C39.5118 44.7817 39.3285 44.9917 39.2018 45.265C39.0751 45.5383 39.0001 45.8267 38.9768 46.13C39.1835 45.8233 39.4401 45.6083 39.7468 45.485C40.0568 45.3583 40.3701 45.295 40.6868 45.295C41.1668 45.295 41.5785 45.4083 41.9218 45.635C42.2685 45.8617 42.5335 46.17 42.7168 46.56C42.9035 46.9467 42.9968 47.3783 42.9968 47.855C42.9968 48.3883 42.8851 48.855 42.6618 49.255C42.4385 49.655 42.1285 49.965 41.7318 50.185C41.3351 50.405 40.8768 50.5133 40.3568 50.51ZM40.4168 49.38C40.8501 49.38 41.1768 49.2467 41.3968 48.98C41.6201 48.71 41.7318 48.3517 41.7318 47.905C41.7318 47.4483 41.6168 47.0883 41.3868 46.825C41.1601 46.5617 40.8368 46.43 40.4168 46.43C39.9901 46.43 39.6651 46.5617 39.4418 46.825C39.2185 47.0883 39.1068 47.4483 39.1068 47.905C39.1068 48.3717 39.2201 48.735 39.4468 48.995C39.6735 49.2517 39.9968 49.38 40.4168 49.38Z" fill="#FFFBFB"/>
<path d="M30.2012 50.35V44.95H31.3562V49.28H32.8812V44.95H34.0362V49.28H35.5612V44.95H36.7162V50.35H30.2012Z" fill="#FFFBFB"/>
<path d="M26.6505 50.5C26.1038 50.5 25.6238 50.3817 25.2105 50.145C24.7972 49.9084 24.4738 49.58 24.2405 49.16C24.0105 48.74 23.8955 48.2567 23.8955 47.71C23.8955 47.12 24.0088 46.6084 24.2355 46.175C24.4622 45.7384 24.7772 45.4 25.1805 45.16C25.5838 44.92 26.0505 44.8 26.5805 44.8C27.1405 44.8 27.6155 44.9317 28.0055 45.195C28.3988 45.455 28.6905 45.8234 28.8805 46.3C29.0705 46.7767 29.1422 47.3384 29.0955 47.985H27.9005V47.545C27.8972 46.9584 27.7938 46.53 27.5905 46.26C27.3872 45.99 27.0672 45.855 26.6305 45.855C26.1372 45.855 25.7705 46.0084 25.5305 46.315C25.2905 46.6184 25.1705 47.0634 25.1705 47.65C25.1705 48.1967 25.2905 48.62 25.5305 48.92C25.7705 49.22 26.1205 49.37 26.5805 49.37C26.8772 49.37 27.1322 49.305 27.3455 49.175C27.5622 49.0417 27.7288 48.85 27.8455 48.6L29.0355 48.96C28.8288 49.4467 28.5088 49.825 28.0755 50.095C27.6455 50.365 27.1705 50.5 26.6505 50.5ZM24.7905 47.985V47.075H28.5055V47.985H24.7905Z" fill="#FFFBFB"/>
<path d="M19 50.35L19.01 44.95H20.23V47.55L22.205 44.95H23.71L21.615 47.65L23.89 50.35H22.295L20.23 47.75V50.35H19Z" fill="#FFFBFB"/>
<path d="M75.99 50.615L75.27 49.895L81.0345 44.135L81.7545 44.8595L75.99 50.615ZM80.4045 50.75C80.1075 50.75 79.836 50.678 79.59 50.534C79.347 50.387 79.152 50.192 79.005 49.949C78.858 49.703 78.7845 49.43 78.7845 49.13C78.7845 48.836 78.8595 48.566 79.0095 48.32C79.1595 48.074 79.3575 47.8775 79.6035 47.7305C79.8495 47.5835 80.1165 47.51 80.4045 47.51C80.7015 47.51 80.973 47.5835 81.219 47.7305C81.465 47.8745 81.66 48.0695 81.804 48.3155C81.951 48.5585 82.0245 48.83 82.0245 49.13C82.0245 49.43 81.951 49.703 81.804 49.949C81.66 50.192 81.465 50.387 81.219 50.534C80.973 50.678 80.7015 50.75 80.4045 50.75ZM80.4045 49.823C80.5275 49.823 80.6415 49.7915 80.7465 49.7285C80.8545 49.6655 80.94 49.5815 81.003 49.4765C81.066 49.3715 81.0975 49.256 81.0975 49.13C81.0975 49.004 81.066 48.8885 81.003 48.7835C80.94 48.6785 80.8545 48.5945 80.7465 48.5315C80.6415 48.4685 80.5275 48.437 80.4045 48.437C80.2785 48.437 80.163 48.4685 80.058 48.5315C79.953 48.5945 79.8675 48.6785 79.8015 48.7835C79.7385 48.8885 79.707 49.004 79.707 49.13C79.707 49.256 79.7385 49.3715 79.8015 49.4765C79.8675 49.5815 79.953 49.6655 80.058 49.7285C80.163 49.7915 80.2785 49.823 80.4045 49.823ZM76.62 47.24C76.323 47.24 76.0515 47.168 75.8055 47.024C75.5595 46.877 75.363 46.682 75.216 46.439C75.072 46.193 75 45.92 75 45.62C75 45.326 75.075 45.056 75.225 44.81C75.375 44.564 75.573 44.3675 75.819 44.2205C76.065 44.0735 76.332 44 76.62 44C76.917 44 77.187 44.0735 77.43 44.2205C77.676 44.3645 77.8725 44.5595 78.0195 44.8055C78.1665 45.0485 78.24 45.32 78.24 45.62C78.24 45.92 78.1665 46.193 78.0195 46.439C77.8725 46.682 77.676 46.877 77.43 47.024C77.187 47.168 76.917 47.24 76.62 47.24ZM76.62 46.313C76.746 46.313 76.8615 46.2815 76.9665 46.2185C77.0715 46.1555 77.1555 46.0715 77.2185 45.9665C77.2815 45.8615 77.313 45.746 77.313 45.62C77.313 45.494 77.2815 45.3785 77.2185 45.2735C77.1555 45.1685 77.0715 45.0845 76.9665 45.0215C76.8615 44.9585 76.746 44.927 76.62 44.927C76.494 44.927 76.3785 44.9585 76.2735 45.0215C76.1685 45.0845 76.0845 45.1685 76.0215 45.2735C75.9585 45.3785 75.927 45.494 75.927 45.62C75.927 45.746 75.9585 45.8615 76.0215 45.9665C76.0845 46.0715 76.1685 46.1555 76.2735 46.2185C76.3785 46.2815 76.494 46.313 76.62 46.313Z" fill="#FFFBFB"/>
<path d="M71.2596 50.6349C70.8335 50.6349 70.4521 50.555 70.1154 50.3952C69.7788 50.2333 69.5114 50.0117 69.3132 49.7305C69.1172 49.4492 69.0128 49.1275 69 48.7653H70.1506C70.1719 49.0337 70.288 49.2532 70.4989 49.4237C70.7099 49.592 70.9634 49.6761 71.2596 49.6761C71.4918 49.6761 71.6985 49.6229 71.8796 49.5163C72.0607 49.4098 72.2035 49.2617 72.3079 49.0721C72.4123 48.8825 72.4634 48.6662 72.4613 48.4233C72.4634 48.1761 72.4112 47.9567 72.3047 47.7649C72.1982 47.5732 72.0522 47.4229 71.8668 47.3143C71.6815 47.2035 71.4684 47.1481 71.2276 47.1481C71.0316 47.146 70.8388 47.1822 70.6491 47.2567C70.4595 47.3313 70.3093 47.4293 70.1985 47.5508L69.1278 47.375L69.4698 44H73.2667V44.9908H70.451L70.2624 46.7262H70.3008C70.4222 46.5835 70.5938 46.4652 70.8153 46.3714C71.0369 46.2756 71.2798 46.2276 71.544 46.2276C71.9403 46.2276 72.294 46.3214 72.6051 46.5089C72.9162 46.6942 73.1612 46.9499 73.3402 47.2759C73.5192 47.6019 73.6087 47.9748 73.6087 48.3945C73.6087 48.8271 73.5085 49.2127 73.3082 49.5515C73.1101 49.8881 72.8342 50.1534 72.4805 50.3473C72.1289 50.5391 71.7219 50.6349 71.2596 50.6349Z" fill="white"/>
</svg>
